%FSLAX43Y43*%
%MOMM*%
G71*
G01*
G75*
G04 Layer_Color=32896*
%ADD10R,1.500X2.500*%
%ADD11R,0.762X1.372*%
%ADD12R,1.372X0.864*%
%ADD13R,1.372X0.762*%
%ADD14R,0.864X1.372*%
%ADD15R,1.100X0.650*%
%ADD16R,1.300X2.700*%
%ADD17R,0.650X1.100*%
%ADD18R,0.900X0.950*%
%ADD19R,0.900X0.950*%
%ADD20O,0.550X1.750*%
%ADD21O,1.750X0.550*%
%ADD22R,2.032X2.032*%
%ADD23R,0.550X1.450*%
%ADD24C,0.200*%
%ADD25C,0.254*%
%ADD26P,2.121X4X75.0*%
%ADD27C,1.500*%
%ADD28C,2.700*%
%ADD29R,1.500X1.500*%
%ADD30C,1.300*%
%ADD31C,0.800*%
%ADD32C,6.000*%
%ADD33C,3.000*%
G04:AMPARAMS|DCode=34|XSize=2mm|YSize=1mm|CornerRadius=0mm|HoleSize=0mm|Usage=FLASHONLY|Rotation=150.000|XOffset=0mm|YOffset=0mm|HoleType=Round|Shape=Rectangle|*
%AMROTATEDRECTD34*
4,1,4,1.116,-0.067,0.616,-0.933,-1.116,0.067,-0.616,0.933,1.116,-0.067,0.0*
%
%ADD34ROTATEDRECTD34*%

G04:AMPARAMS|DCode=35|XSize=2mm|YSize=1mm|CornerRadius=0mm|HoleSize=0mm|Usage=FLASHONLY|Rotation=30.000|XOffset=0mm|YOffset=0mm|HoleType=Round|Shape=Rectangle|*
%AMROTATEDRECTD35*
4,1,4,-0.616,-0.933,-1.116,-0.067,0.616,0.933,1.116,0.067,-0.616,-0.933,0.0*
%
%ADD35ROTATEDRECTD35*%

%ADD36C,2.000*%
%ADD37C,0.250*%
%ADD38C,0.600*%
%ADD39C,0.508*%
%ADD40C,0.152*%
%ADD41C,0.150*%
%ADD42C,0.300*%
%ADD43R,1.703X2.703*%
%ADD44R,0.965X1.575*%
%ADD45R,1.575X1.067*%
%ADD46R,1.575X0.965*%
%ADD47R,1.067X1.575*%
%ADD48R,1.303X0.853*%
%ADD49R,1.503X2.903*%
%ADD50R,0.853X1.303*%
%ADD51R,1.103X1.153*%
%ADD52R,1.103X1.153*%
%ADD53O,0.753X1.953*%
%ADD54O,1.953X0.753*%
%ADD55R,2.235X2.235*%
%ADD56R,0.753X1.653*%
%ADD57P,2.409X4X75.0*%
%ADD58C,1.703*%
%ADD59C,2.903*%
%ADD60R,1.703X1.703*%
%ADD61C,1.503*%
G04:AMPARAMS|DCode=62|XSize=2.203mm|YSize=1.203mm|CornerRadius=0mm|HoleSize=0mm|Usage=FLASHONLY|Rotation=150.000|XOffset=0mm|YOffset=0mm|HoleType=Round|Shape=Rectangle|*
%AMROTATEDRECTD62*
4,1,4,1.255,-0.030,0.653,-1.072,-1.255,0.030,-0.653,1.072,1.255,-0.030,0.0*
%
%ADD62ROTATEDRECTD62*%

G04:AMPARAMS|DCode=63|XSize=2.203mm|YSize=1.203mm|CornerRadius=0mm|HoleSize=0mm|Usage=FLASHONLY|Rotation=30.000|XOffset=0mm|YOffset=0mm|HoleType=Round|Shape=Rectangle|*
%AMROTATEDRECTD63*
4,1,4,-0.653,-1.072,-1.255,-0.030,0.653,1.072,1.255,0.030,-0.653,-1.072,0.0*
%
%ADD63ROTATEDRECTD63*%

%ADD64C,0.013*%
%ADD65C,0.018*%
%ADD66C,0.500*%
%ADD67C,0.400*%
%ADD68C,1.000*%
%ADD69R,26.075X5.625*%
D24*
X11600Y4000D02*
G03*
X11600Y4000I-996J0D01*
G01*
X-9400D02*
G03*
X-9400Y4000I-996J0D01*
G01*
X11392Y-12100D02*
G03*
X11392Y-12100I-996J0D01*
G01*
X-9608D02*
G03*
X-9608Y-12100I-996J0D01*
G01*
X11402Y25539D02*
G03*
X11402Y25539I-100J0D01*
G01*
X-10002Y23461D02*
G03*
X-10002Y23461I-100J0D01*
G01*
X10202Y-23461D02*
G03*
X10202Y-23461I-100J0D01*
G01*
X-11202Y-25539D02*
G03*
X-11202Y-25539I-100J0D01*
G01*
X10600Y3400D02*
Y4600D01*
X10000Y4000D02*
X11200D01*
X-11000D02*
X-9800D01*
X-20500Y-1700D02*
X-14200D01*
X14200D02*
X20500D01*
X22800Y7200D02*
X23400D01*
X22300Y7600D02*
X22800Y7200D01*
X22300Y5600D02*
Y7600D01*
Y400D02*
Y2400D01*
Y400D02*
X22800Y800D01*
X23400D01*
X14200Y-700D02*
X23400D01*
Y-1700D02*
Y8700D01*
Y9700D01*
X14200Y8700D02*
X23400D01*
X14200Y9700D02*
X23400D01*
X14200Y8700D02*
Y9700D01*
Y-1700D02*
X23400D01*
X14200D02*
Y8700D01*
X-14200Y-700D02*
Y9700D01*
X-23400D02*
X-14200D01*
Y-1700D02*
Y-700D01*
X-23400Y-1700D02*
X-14200D01*
X-23400Y-700D02*
X-14200D01*
X-23400Y-1700D02*
Y-700D01*
Y9700D01*
Y8700D02*
X-14200D01*
X-23400Y7200D02*
X-22800D01*
X-22300Y7600D01*
Y5600D02*
Y7600D01*
Y400D02*
Y2400D01*
X-22800Y800D02*
X-22300Y400D01*
X-23400Y800D02*
X-22800D01*
X22800Y-8900D02*
X23400D01*
X22300Y-8500D02*
X22800Y-8900D01*
X22300Y-10500D02*
Y-8500D01*
Y-15700D02*
Y-13700D01*
Y-15700D02*
X22800Y-15300D01*
X23400D01*
X14200Y-16800D02*
X23400D01*
Y-17800D02*
Y-7400D01*
Y-6400D01*
X14200Y-7400D02*
X23400D01*
X14200Y-6400D02*
X23400D01*
X14200Y-7400D02*
Y-6400D01*
Y-17800D02*
X23400D01*
X14200D02*
Y-7400D01*
X-14200Y-16800D02*
Y-6400D01*
X-23400D02*
X-14200D01*
Y-17800D02*
Y-16800D01*
X-23400Y-17800D02*
X-14200D01*
X-23400Y-16800D02*
X-14200D01*
X-23400Y-17800D02*
Y-16800D01*
Y-6400D01*
Y-7400D02*
X-14200D01*
X-23400Y-8900D02*
X-22800D01*
X-22300Y-8500D01*
Y-10500D02*
Y-8500D01*
Y-15700D02*
Y-13700D01*
X-22800Y-15300D02*
X-22300Y-15700D01*
X-23400Y-15300D02*
X-22800D01*
X-20500Y-6400D02*
X-14200D01*
X14200D02*
X20500D01*
X9800Y-12100D02*
X11000D01*
X-11200D02*
X-10000D01*
X-10600Y-12700D02*
Y-11500D01*
X-27645Y-2795D02*
Y12445D01*
X-25105Y-2795D02*
Y12445D01*
X-27645Y-2795D02*
X-25105D01*
X-27645Y12445D02*
X-25105D01*
X-27645Y-4405D02*
X-25105D01*
X-27645Y-12025D02*
X-27645Y-4405D01*
X-27645Y-12025D02*
X-25105Y-12025D01*
Y-4405D01*
X12540Y22284D02*
X13060Y21984D01*
X13640Y24189D02*
X14160Y23889D01*
X-12960Y21811D02*
X-12440Y22111D01*
X-14060Y23716D02*
X-13540Y24016D01*
X13540Y-24016D02*
X14060Y-23716D01*
X12440Y-22111D02*
X12960Y-21811D01*
X-14160Y-23889D02*
X-13640Y-24189D01*
X-13060Y-21984D02*
X-12540Y-22284D01*
X-10998Y-19092D02*
Y-20091D01*
X-11498D01*
X-11665Y-19925D01*
Y-19258D01*
X-11498Y-19092D01*
X-10998D01*
X-12664Y-20091D02*
X-11998D01*
X-12664Y-19425D01*
Y-19258D01*
X-12498Y-19092D01*
X-12164D01*
X-11998Y-19258D01*
X15621Y-18990D02*
Y-19990D01*
X15121D01*
X14955Y-19823D01*
Y-19157D01*
X15121Y-18990D01*
X15621D01*
X14121Y-19990D02*
Y-18990D01*
X14621Y-19490D01*
X13955D01*
X-26375Y13075D02*
X-25375D01*
Y13575D01*
X-25542Y13741D01*
X-25875D01*
X-26042Y13575D01*
Y13075D01*
X-26375Y14741D02*
Y14075D01*
X-25709Y14741D01*
X-25542D01*
X-25375Y14575D01*
Y14241D01*
X-25542Y14075D01*
X23444Y-4588D02*
Y-5588D01*
X22944D01*
X22778Y-5421D01*
Y-5255D01*
X22944Y-5088D01*
X23444D01*
X22944D01*
X22778Y-4922D01*
Y-4755D01*
X22944Y-4588D01*
X23444D01*
X22445D02*
X21778D01*
X22111D01*
Y-5588D01*
X21445D02*
X21112D01*
X21278D01*
Y-4588D01*
X21445Y-4755D01*
X-13200Y20175D02*
Y19175D01*
X-13700D01*
X-13866Y19342D01*
Y20008D01*
X-13700Y20175D01*
X-13200D01*
X-14200Y19175D02*
X-14533D01*
X-14366D01*
Y20175D01*
X-14200Y20008D01*
X-25875Y-2775D02*
X-26875D01*
Y-3275D01*
X-26708Y-3441D01*
X-26375D01*
X-26208Y-3275D01*
Y-2775D01*
X-25875Y-3775D02*
Y-4108D01*
Y-3941D01*
X-26875D01*
X-26708Y-3775D01*
X13325Y20925D02*
Y19925D01*
X12825D01*
X12659Y20092D01*
Y20758D01*
X12825Y20925D01*
X13325D01*
X12325Y20758D02*
X12159Y20925D01*
X11825D01*
X11659Y20758D01*
Y20591D01*
X11825Y20425D01*
X11992D01*
X11825D01*
X11659Y20258D01*
Y20092D01*
X11825Y19925D01*
X12159D01*
X12325Y20092D01*
X23444Y11515D02*
Y10516D01*
X22944D01*
X22778Y10682D01*
Y10849D01*
X22944Y11015D01*
X23444D01*
X22944D01*
X22778Y11182D01*
Y11349D01*
X22944Y11515D01*
X23444D01*
X22445D02*
X21778D01*
X22111D01*
Y10516D01*
X20778D02*
X21445D01*
X20778Y11182D01*
Y11349D01*
X20945Y11515D01*
X21278D01*
X21445Y11349D01*
D64*
X-3365Y14704D02*
X-532D01*
X-3098Y8824D02*
X-2856D01*
X-2056D02*
X-1840D01*
X-1637D02*
X-1421D01*
X-1294D02*
X-1066D01*
X-482D02*
X-291D01*
X115D02*
X306D01*
X725D02*
X941D01*
X1106D02*
X1296D01*
X2020D02*
X2224D01*
X2439D02*
X2655D01*
X2782D02*
X3011D01*
X3392D02*
X3608D01*
X4002D02*
X4205D01*
X-3136Y8837D02*
X-2806D01*
X-2056D02*
X-1840D01*
X-1637D02*
X-1421D01*
X-1332D02*
X-1015D01*
X-494D02*
X-291D01*
X115D02*
X319D01*
X725D02*
X941D01*
X1068D02*
X1334D01*
X2020D02*
X2236D01*
X2439D02*
X2655D01*
X2731D02*
X3062D01*
X3392D02*
X3608D01*
X4002D02*
X4217D01*
X-3174Y8849D02*
X-2780D01*
X-2056D02*
X-1840D01*
X-1637D02*
X-1421D01*
X-1358D02*
X-990D01*
X-494D02*
X-291D01*
X115D02*
X319D01*
X725D02*
X941D01*
X1042D02*
X1360D01*
X2020D02*
X2236D01*
X2439D02*
X2655D01*
X2719D02*
X3087D01*
X3392D02*
X3608D01*
X4002D02*
X4217D01*
X-3199Y8862D02*
X-2755D01*
X-2056D02*
X-1840D01*
X-1637D02*
X-1421D01*
X-1383D02*
X-951D01*
X-494D02*
X-278D01*
X115D02*
X319D01*
X725D02*
X941D01*
X1017D02*
X1385D01*
X2020D02*
X2236D01*
X2439D02*
X2655D01*
X2693D02*
X3112D01*
X3392D02*
X3608D01*
X4002D02*
X4217D01*
X-3225Y8875D02*
X-2730D01*
X-2056D02*
X-1840D01*
X-1637D02*
X-1421D01*
X-1396D02*
X-939D01*
X-494D02*
X-278D01*
X103D02*
X331D01*
X725D02*
X941D01*
X992D02*
X1398D01*
X2020D02*
X2236D01*
X2439D02*
X2655D01*
X2681D02*
X3138D01*
X3392D02*
X3608D01*
X4002D02*
X4217D01*
X-3250Y8887D02*
X-2704D01*
X-2056D02*
X-1840D01*
X-1637D02*
X-1421D01*
X-1409D02*
X-926D01*
X-507D02*
X-278D01*
X103D02*
X331D01*
X725D02*
X941D01*
X979D02*
X1423D01*
X2020D02*
X2236D01*
X2439D02*
X2655D01*
X2668D02*
X3151D01*
X3392D02*
X3608D01*
X4002D02*
X4217D01*
X-3263Y8900D02*
X-2691D01*
X-2056D02*
X-1840D01*
X-1637D02*
X-1421D01*
X-1409D02*
X-901D01*
X-507D02*
X-266D01*
X103D02*
X331D01*
X725D02*
X941D01*
X966D02*
X1436D01*
X2020D02*
X2236D01*
X2439D02*
X3163D01*
X3392D02*
X3608D01*
X4002D02*
X4217D01*
X-3288Y8913D02*
X-2679D01*
X-2056D02*
X-1840D01*
X-1637D02*
X-888D01*
X-507D02*
X-266D01*
X90D02*
X344D01*
X725D02*
X941D01*
X953D02*
X1449D01*
X2020D02*
X2236D01*
X2439D02*
X3176D01*
X3392D02*
X3608D01*
X4002D02*
X4217D01*
X-3301Y8925D02*
X-2666D01*
X-2056D02*
X-1840D01*
X-1637D02*
X-875D01*
X-520D02*
X-266D01*
X90D02*
X344D01*
X725D02*
X1462D01*
X2020D02*
X2236D01*
X2439D02*
X3189D01*
X3392D02*
X3608D01*
X4002D02*
X4217D01*
X-3314Y8938D02*
X-2653D01*
X-2056D02*
X-1840D01*
X-1637D02*
X-875D01*
X-520D02*
X-253D01*
X90D02*
X344D01*
X725D02*
X1474D01*
X2020D02*
X2236D01*
X2439D02*
X3201D01*
X3392D02*
X3608D01*
X4002D02*
X4217D01*
X-3326Y8951D02*
X-2641D01*
X-2056D02*
X-1840D01*
X-1637D02*
X-863D01*
X-520D02*
X-253D01*
X77D02*
X357D01*
X725D02*
X1474D01*
X2020D02*
X2236D01*
X2439D02*
X3214D01*
X3392D02*
X3608D01*
X4002D02*
X4217D01*
X-3339Y8964D02*
X-2628D01*
X-2056D02*
X-1840D01*
X-1637D02*
X-850D01*
X-532D02*
X-253D01*
X77D02*
X357D01*
X725D02*
X1487D01*
X2020D02*
X2236D01*
X2439D02*
X3214D01*
X3392D02*
X3608D01*
X4002D02*
X4217D01*
X-3352Y8976D02*
X-2615D01*
X-2056D02*
X-1840D01*
X-1637D02*
X-850D01*
X-532D02*
X-253D01*
X77D02*
X357D01*
X725D02*
X1500D01*
X2020D02*
X2236D01*
X2439D02*
X3227D01*
X3392D02*
X3608D01*
X4002D02*
X4217D01*
X-3352Y8989D02*
X-2615D01*
X-2056D02*
X-1840D01*
X-1637D02*
X-837D01*
X-532D02*
X-240D01*
X77D02*
X369D01*
X725D02*
X1500D01*
X2020D02*
X2236D01*
X2439D02*
X3240D01*
X3392D02*
X3608D01*
X4002D02*
X4217D01*
X-3326Y9002D02*
X-2602D01*
X-2056D02*
X-1840D01*
X-1637D02*
X-837D01*
X-545D02*
X-240D01*
X64D02*
X369D01*
X725D02*
X1512D01*
X2020D02*
X2236D01*
X2439D02*
X3240D01*
X3392D02*
X3608D01*
X4002D02*
X4217D01*
X-3314Y9014D02*
X-2602D01*
X-2056D02*
X-1840D01*
X-1637D02*
X-825D01*
X-545D02*
X-240D01*
X64D02*
X369D01*
X725D02*
X1512D01*
X2020D02*
X2236D01*
X2439D02*
X3240D01*
X3392D02*
X3608D01*
X4002D02*
X4217D01*
X-3301Y9027D02*
X-3047D01*
X-2895D02*
X-2590D01*
X-2056D02*
X-1840D01*
X-1637D02*
X-1332D01*
X-1104D02*
X-825D01*
X-545D02*
X-228D01*
X64D02*
X382D01*
X725D02*
X1512D01*
X2020D02*
X2236D01*
X2439D02*
X2744D01*
X2960D02*
X3252D01*
X3392D02*
X3608D01*
X4002D02*
X4217D01*
X-3288Y9040D02*
X-3085D01*
X-2869D02*
X-2577D01*
X-2056D02*
X-1840D01*
X-1637D02*
X-1358D01*
X-1079D02*
X-825D01*
X-558D02*
X-228D01*
X52D02*
X382D01*
X725D02*
X1068D01*
X1207D02*
X1525D01*
X2020D02*
X2236D01*
X2439D02*
X2706D01*
X2998D02*
X3252D01*
X3392D02*
X3608D01*
X4002D02*
X4217D01*
X-3276Y9052D02*
X-3111D01*
X-2844D02*
X-2577D01*
X-2056D02*
X-1840D01*
X-1637D02*
X-1383D01*
X-1053D02*
X-812D01*
X-558D02*
X-228D01*
X52D02*
X382D01*
X725D02*
X1042D01*
X1246D02*
X1525D01*
X2020D02*
X2236D01*
X2439D02*
X2693D01*
X3011D02*
X3252D01*
X3392D02*
X3608D01*
X4002D02*
X4217D01*
X-3263Y9065D02*
X-3136D01*
X-2818D02*
X-2564D01*
X-2056D02*
X-1840D01*
X-1637D02*
X-1396D01*
X-1040D02*
X-812D01*
X-558D02*
X-215D01*
X52D02*
X382D01*
X725D02*
X1017D01*
X1258D02*
X1525D01*
X2020D02*
X2236D01*
X2439D02*
X2681D01*
X3036D02*
X3252D01*
X3392D02*
X3608D01*
X4002D02*
X4217D01*
X-3237Y9078D02*
X-3149D01*
X-2806D02*
X-2564D01*
X-2056D02*
X-1840D01*
X-1637D02*
X-1396D01*
X-1028D02*
X-812D01*
X-571D02*
X-215D01*
X39D02*
X395D01*
X725D02*
X1004D01*
X1271D02*
X1538D01*
X2020D02*
X2236D01*
X2439D02*
X2681D01*
X3036D02*
X3265D01*
X3392D02*
X3608D01*
X4002D02*
X4217D01*
X-3225Y9090D02*
X-3161D01*
X-2793D02*
X-2564D01*
X-2056D02*
X-1840D01*
X-1637D02*
X-1409D01*
X-1028D02*
X-812D01*
X-571D02*
X-215D01*
X39D02*
X395D01*
X725D02*
X992D01*
X1284D02*
X1538D01*
X2020D02*
X2236D01*
X2439D02*
X2668D01*
X3049D02*
X3265D01*
X3392D02*
X3608D01*
X4002D02*
X4217D01*
X-3212Y9103D02*
X-3174D01*
X-2793D02*
X-2564D01*
X-2056D02*
X-1840D01*
X-1637D02*
X-1409D01*
X-1015D02*
X-812D01*
X-571D02*
X-215D01*
X39D02*
X395D01*
X725D02*
X992D01*
X1296D02*
X1538D01*
X2020D02*
X2236D01*
X2439D02*
X2668D01*
X3049D02*
X3265D01*
X3392D02*
X3608D01*
X4002D02*
X4217D01*
X-2780Y9116D02*
X-2552D01*
X-2056D02*
X-1840D01*
X-1637D02*
X-1409D01*
X-1015D02*
X-812D01*
X-583D02*
X-202D01*
X39D02*
X407D01*
X725D02*
X979D01*
X1296D02*
X1538D01*
X2020D02*
X2236D01*
X2439D02*
X2668D01*
X3049D02*
X3265D01*
X3392D02*
X3608D01*
X4002D02*
X4217D01*
X-2768Y9129D02*
X-2552D01*
X-2056D02*
X-1840D01*
X-1637D02*
X-1409D01*
X-1015D02*
X-812D01*
X-583D02*
X-202D01*
X26D02*
X407D01*
X725D02*
X966D01*
X1309D02*
X1538D01*
X2020D02*
X2236D01*
X2439D02*
X2655D01*
X3062D02*
X3265D01*
X3392D02*
X3608D01*
X4002D02*
X4217D01*
X-2768Y9141D02*
X-2552D01*
X-2056D02*
X-1840D01*
X-1637D02*
X-1421D01*
X-1015D02*
X-812D01*
X-583D02*
X-202D01*
X26D02*
X407D01*
X725D02*
X966D01*
X1309D02*
X1538D01*
X2020D02*
X2236D01*
X2439D02*
X2655D01*
X3062D02*
X3265D01*
X3392D02*
X3608D01*
X4002D02*
X4217D01*
X-2755Y9154D02*
X-2539D01*
X-2056D02*
X-1840D01*
X-1637D02*
X-1421D01*
X-1015D02*
X-812D01*
X-583D02*
X-190D01*
X26D02*
X420D01*
X725D02*
X966D01*
X1309D02*
X1538D01*
X2020D02*
X2236D01*
X2439D02*
X2655D01*
X3062D02*
X3265D01*
X3392D02*
X3608D01*
X4002D02*
X4217D01*
X-2755Y9167D02*
X-2539D01*
X-2056D02*
X-1840D01*
X-1637D02*
X-1421D01*
X-1015D02*
X-812D01*
X-596D02*
X-393D01*
X-380D02*
X-190D01*
X14D02*
X420D01*
X725D02*
X966D01*
X1322D02*
X1538D01*
X2020D02*
X2236D01*
X2439D02*
X2655D01*
X3049D02*
X3265D01*
X3392D02*
X3608D01*
X4002D02*
X4217D01*
X-2755Y9179D02*
X-2539D01*
X-2056D02*
X-1840D01*
X-1637D02*
X-1421D01*
X-1028D02*
X-812D01*
X-596D02*
X-393D01*
X-380D02*
X-190D01*
X14D02*
X204D01*
X230D02*
X420D01*
X725D02*
X953D01*
X1322D02*
X1538D01*
X2020D02*
X2236D01*
X2439D02*
X2655D01*
X3049D02*
X3265D01*
X3392D02*
X3608D01*
X4002D02*
X4217D01*
X-2755Y9192D02*
X-2539D01*
X-2056D02*
X-1840D01*
X-1637D02*
X-1421D01*
X-1028D02*
X-812D01*
X-596D02*
X-405D01*
X-380D02*
X-177D01*
X14D02*
X204D01*
X230D02*
X433D01*
X725D02*
X953D01*
X1322D02*
X1538D01*
X2020D02*
X2236D01*
X2439D02*
X2655D01*
X3036D02*
X3252D01*
X3392D02*
X3608D01*
X4002D02*
X4217D01*
X-2742Y9205D02*
X-2539D01*
X-2056D02*
X-1840D01*
X-1637D02*
X-1421D01*
X-1040D02*
X-825D01*
X-609D02*
X-405D01*
X-367D02*
X-177D01*
X1D02*
X204D01*
X230D02*
X433D01*
X725D02*
X953D01*
X1322D02*
X1538D01*
X2020D02*
X2236D01*
X2439D02*
X2655D01*
X3024D02*
X3252D01*
X3392D02*
X3608D01*
X4002D02*
X4217D01*
X-2742Y9217D02*
X-2539D01*
X-2056D02*
X-1840D01*
X-1637D02*
X-1421D01*
X-1053D02*
X-825D01*
X-609D02*
X-405D01*
X-367D02*
X-177D01*
X1D02*
X191D01*
X230D02*
X433D01*
X725D02*
X953D01*
X1322D02*
X1538D01*
X2020D02*
X2236D01*
X2439D02*
X2655D01*
X3024D02*
X3252D01*
X3392D02*
X3608D01*
X4002D02*
X4217D01*
X-2742Y9230D02*
X-2539D01*
X-2056D02*
X-1840D01*
X-1637D02*
X-1421D01*
X-1079D02*
X-825D01*
X-609D02*
X-418D01*
X-367D02*
X-177D01*
X1D02*
X191D01*
X242D02*
X445D01*
X725D02*
X953D01*
X1322D02*
X1550D01*
X2020D02*
X2236D01*
X2439D02*
X2655D01*
X2986D02*
X3252D01*
X3392D02*
X3608D01*
X4002D02*
X4217D01*
X-2742Y9243D02*
X-2539D01*
X-2056D02*
X-1840D01*
X-1637D02*
X-1421D01*
X-1117D02*
X-825D01*
X-621D02*
X-418D01*
X-355D02*
X-164D01*
X1D02*
X191D01*
X242D02*
X445D01*
X725D02*
X953D01*
X1322D02*
X1550D01*
X2020D02*
X2236D01*
X2439D02*
X2655D01*
X2960D02*
X3240D01*
X3392D02*
X3608D01*
X4002D02*
X4217D01*
X-3365Y9256D02*
X-2526D01*
X-2056D02*
X-1840D01*
X-1637D02*
X-837D01*
X-621D02*
X-418D01*
X-355D02*
X-164D01*
X-12D02*
X179D01*
X242D02*
X445D01*
X725D02*
X953D01*
X1322D02*
X1550D01*
X2020D02*
X2236D01*
X2439D02*
X3240D01*
X3392D02*
X3608D01*
X4002D02*
X4217D01*
X-3365Y9268D02*
X-2526D01*
X-2056D02*
X-1840D01*
X-1637D02*
X-837D01*
X-621D02*
X-418D01*
X-355D02*
X-164D01*
X-12D02*
X179D01*
X255D02*
X458D01*
X725D02*
X953D01*
X1334D02*
X1550D01*
X2020D02*
X2236D01*
X2439D02*
X3227D01*
X3392D02*
X3608D01*
X4002D02*
X4217D01*
X-3365Y9281D02*
X-2526D01*
X-2056D02*
X-1840D01*
X-1637D02*
X-850D01*
X-634D02*
X-431D01*
X-342D02*
X-151D01*
X-12D02*
X179D01*
X255D02*
X458D01*
X725D02*
X941D01*
X1334D02*
X1550D01*
X2020D02*
X2236D01*
X2439D02*
X3227D01*
X3392D02*
X3608D01*
X4002D02*
X4217D01*
X-3365Y9294D02*
X-2526D01*
X-2056D02*
X-1840D01*
X-1637D02*
X-850D01*
X-634D02*
X-431D01*
X-342D02*
X-151D01*
X-24D02*
X166D01*
X255D02*
X458D01*
X725D02*
X941D01*
X1334D02*
X1550D01*
X2020D02*
X2236D01*
X2439D02*
X3214D01*
X3392D02*
X3608D01*
X4002D02*
X4217D01*
X-3365Y9306D02*
X-2526D01*
X-2056D02*
X-1840D01*
X-1637D02*
X-863D01*
X-634D02*
X-431D01*
X-342D02*
X-151D01*
X-24D02*
X166D01*
X255D02*
X471D01*
X725D02*
X941D01*
X1334D02*
X1550D01*
X2020D02*
X2236D01*
X2439D02*
X3214D01*
X3392D02*
X3608D01*
X4002D02*
X4217D01*
X-3365Y9319D02*
X-2526D01*
X-2056D02*
X-1840D01*
X-1637D02*
X-875D01*
X-647D02*
X-431D01*
X-329D02*
X-151D01*
X-24D02*
X166D01*
X268D02*
X471D01*
X725D02*
X941D01*
X1334D02*
X1550D01*
X2020D02*
X2236D01*
X2439D02*
X3201D01*
X3392D02*
X3608D01*
X4002D02*
X4217D01*
X-3365Y9332D02*
X-2526D01*
X-2056D02*
X-1840D01*
X-1637D02*
X-888D01*
X-647D02*
X-444D01*
X-329D02*
X-139D01*
X-37D02*
X153D01*
X268D02*
X471D01*
X725D02*
X941D01*
X1334D02*
X1550D01*
X2020D02*
X2236D01*
X2439D02*
X3189D01*
X3392D02*
X3608D01*
X4002D02*
X4217D01*
X-3365Y9344D02*
X-2526D01*
X-2056D02*
X-1840D01*
X-1637D02*
X-901D01*
X-647D02*
X-444D01*
X-329D02*
X-139D01*
X-37D02*
X153D01*
X268D02*
X471D01*
X725D02*
X941D01*
X1334D02*
X1550D01*
X2020D02*
X2236D01*
X2439D02*
X3176D01*
X3392D02*
X3608D01*
X4002D02*
X4217D01*
X-3365Y9357D02*
X-2526D01*
X-2056D02*
X-1840D01*
X-1637D02*
X-913D01*
X-659D02*
X-444D01*
X-329D02*
X-139D01*
X-37D02*
X153D01*
X268D02*
X484D01*
X725D02*
X941D01*
X1334D02*
X1550D01*
X2020D02*
X2236D01*
X2439D02*
X3163D01*
X3392D02*
X3608D01*
X4002D02*
X4217D01*
X-3365Y9370D02*
X-2526D01*
X-2056D02*
X-1840D01*
X-1637D02*
X-926D01*
X-659D02*
X-456D01*
X-317D02*
X-126D01*
X-37D02*
X141D01*
X280D02*
X484D01*
X725D02*
X941D01*
X1334D02*
X1550D01*
X2020D02*
X2236D01*
X2439D02*
X3151D01*
X3392D02*
X3608D01*
X4002D02*
X4217D01*
X-3365Y9383D02*
X-2526D01*
X-2056D02*
X-1840D01*
X-1637D02*
X-951D01*
X-659D02*
X-456D01*
X-317D02*
X-126D01*
X-50D02*
X141D01*
X280D02*
X484D01*
X725D02*
X941D01*
X1334D02*
X1550D01*
X2020D02*
X2236D01*
X2439D02*
X3125D01*
X3392D02*
X3608D01*
X4002D02*
X4217D01*
X-3365Y9395D02*
X-2526D01*
X-2056D02*
X-1840D01*
X-1637D02*
X-977D01*
X-672D02*
X-456D01*
X-317D02*
X-126D01*
X-50D02*
X141D01*
X280D02*
X496D01*
X725D02*
X941D01*
X1334D02*
X1550D01*
X2020D02*
X2236D01*
X2439D02*
X3100D01*
X3392D02*
X3608D01*
X4002D02*
X4217D01*
X-3365Y9408D02*
X-2526D01*
X-2056D02*
X-1840D01*
X-1637D02*
X-1002D01*
X-672D02*
X-456D01*
X-304D02*
X-113D01*
X-50D02*
X128D01*
X293D02*
X496D01*
X725D02*
X953D01*
X1334D02*
X1550D01*
X2020D02*
X2236D01*
X2439D02*
X3074D01*
X3392D02*
X3608D01*
X4002D02*
X4217D01*
X-3365Y9421D02*
X-2526D01*
X-2056D02*
X-1840D01*
X-1637D02*
X-1053D01*
X-672D02*
X-469D01*
X-304D02*
X-113D01*
X-62D02*
X128D01*
X293D02*
X496D01*
X725D02*
X953D01*
X1322D02*
X1550D01*
X2020D02*
X2236D01*
X2439D02*
X3024D01*
X3392D02*
X3608D01*
X4002D02*
X4217D01*
X-3365Y9433D02*
X-3149D01*
X-2742D02*
X-2539D01*
X-2056D02*
X-1840D01*
X-1637D02*
X-1421D01*
X-685D02*
X-469D01*
X-304D02*
X-113D01*
X-62D02*
X128D01*
X293D02*
X509D01*
X725D02*
X953D01*
X1322D02*
X1550D01*
X2020D02*
X2236D01*
X2439D02*
X2655D01*
X3392D02*
X3608D01*
X4002D02*
X4217D01*
X-3365Y9446D02*
X-3149D01*
X-2742D02*
X-2539D01*
X-2056D02*
X-1840D01*
X-1637D02*
X-1421D01*
X-685D02*
X-469D01*
X-291D02*
X-113D01*
X-62D02*
X115D01*
X293D02*
X509D01*
X725D02*
X953D01*
X1322D02*
X1550D01*
X2020D02*
X2236D01*
X2439D02*
X2655D01*
X3392D02*
X3608D01*
X3989D02*
X4217D01*
X-3365Y9459D02*
X-3149D01*
X-2742D02*
X-2539D01*
X-2056D02*
X-1840D01*
X-1637D02*
X-1421D01*
X-685D02*
X-469D01*
X-291D02*
X-101D01*
X-75D02*
X115D01*
X306D02*
X509D01*
X725D02*
X953D01*
X1322D02*
X1538D01*
X2008D02*
X2236D01*
X2439D02*
X2655D01*
X3392D02*
X3608D01*
X3989D02*
X4217D01*
X-3365Y9472D02*
X-3149D01*
X-2742D02*
X-2539D01*
X-2056D02*
X-1840D01*
X-1637D02*
X-1421D01*
X-685D02*
X-482D01*
X-291D02*
X-101D01*
X-75D02*
X115D01*
X306D02*
X522D01*
X725D02*
X953D01*
X1322D02*
X1538D01*
X2008D02*
X2236D01*
X2439D02*
X2655D01*
X3392D02*
X3608D01*
X3989D02*
X4217D01*
X-3365Y9484D02*
X-3149D01*
X-2755D02*
X-2539D01*
X-2069D02*
X-1840D01*
X-1637D02*
X-1421D01*
X-697D02*
X-482D01*
X-278D02*
X-101D01*
X-75D02*
X115D01*
X306D02*
X522D01*
X725D02*
X953D01*
X1322D02*
X1538D01*
X2008D02*
X2236D01*
X2439D02*
X2655D01*
X3392D02*
X3621D01*
X3989D02*
X4217D01*
X-3365Y9497D02*
X-3136D01*
X-2755D02*
X-2539D01*
X-2069D02*
X-1840D01*
X-1637D02*
X-1421D01*
X-697D02*
X-482D01*
X-278D02*
X-88D01*
X-75D02*
X103D01*
X306D02*
X522D01*
X725D02*
X953D01*
X1322D02*
X1538D01*
X2008D02*
X2236D01*
X2439D02*
X2655D01*
X3392D02*
X3621D01*
X3989D02*
X4217D01*
X-3365Y9510D02*
X-3136D01*
X-2755D02*
X-2552D01*
X-2069D02*
X-1840D01*
X-1637D02*
X-1421D01*
X-697D02*
X-494D01*
X-278D02*
X103D01*
X319D02*
X534D01*
X725D02*
X966D01*
X1309D02*
X1538D01*
X2008D02*
X2236D01*
X2439D02*
X2655D01*
X3392D02*
X3621D01*
X3989D02*
X4217D01*
X-3365Y9522D02*
X-3136D01*
X-2755D02*
X-2552D01*
X-2069D02*
X-1840D01*
X-1637D02*
X-1421D01*
X-710D02*
X-494D01*
X-266D02*
X103D01*
X319D02*
X534D01*
X725D02*
X966D01*
X1309D02*
X1538D01*
X1995D02*
X2236D01*
X2439D02*
X2655D01*
X3392D02*
X3633D01*
X3976D02*
X4217D01*
X-3352Y9535D02*
X-3123D01*
X-2768D02*
X-2552D01*
X-2082D02*
X-1840D01*
X-1637D02*
X-1421D01*
X-710D02*
X-494D01*
X-266D02*
X90D01*
X319D02*
X534D01*
X725D02*
X966D01*
X1309D02*
X1538D01*
X1995D02*
X2236D01*
X2439D02*
X2655D01*
X3392D02*
X3633D01*
X3976D02*
X4217D01*
X-3352Y9548D02*
X-3123D01*
X-2768D02*
X-2552D01*
X-2082D02*
X-1840D01*
X-1625D02*
X-1421D01*
X-710D02*
X-494D01*
X-266D02*
X90D01*
X331D02*
X547D01*
X725D02*
X979D01*
X1296D02*
X1538D01*
X1982D02*
X2236D01*
X2439D02*
X2655D01*
X3405D02*
X3633D01*
X3963D02*
X4217D01*
X-3352Y9560D02*
X-3111D01*
X-2780D02*
X-2564D01*
X-2095D02*
X-1840D01*
X-1625D02*
X-1409D01*
X-723D02*
X-507D01*
X-253D02*
X90D01*
X331D02*
X547D01*
X725D02*
X979D01*
X1296D02*
X1538D01*
X1982D02*
X2236D01*
X2439D02*
X2655D01*
X3405D02*
X3646D01*
X3963D02*
X4217D01*
X-3339Y9573D02*
X-3111D01*
X-2793D02*
X-2564D01*
X-2107D02*
X-1840D01*
X-1625D02*
X-1409D01*
X-723D02*
X-507D01*
X-253D02*
X77D01*
X331D02*
X547D01*
X725D02*
X992D01*
X1284D02*
X1538D01*
X1969D02*
X2236D01*
X2439D02*
X2668D01*
X3405D02*
X3659D01*
X3951D02*
X4217D01*
X-3339Y9586D02*
X-3098D01*
X-2793D02*
X-2564D01*
X-2120D02*
X-1840D01*
X-1625D02*
X-1409D01*
X-1040D02*
X-1002D01*
X-723D02*
X-507D01*
X-253D02*
X77D01*
X331D02*
X560D01*
X725D02*
X1004D01*
X1271D02*
X1538D01*
X1957D02*
X2236D01*
X2452D02*
X2668D01*
X3036D02*
X3062D01*
X3405D02*
X3671D01*
X3938D02*
X4217D01*
X-3339Y9599D02*
X-3085D01*
X-2806D02*
X-2577D01*
X-2399D02*
X-2361D01*
X-2133D02*
X-1840D01*
X-1625D02*
X-1396D01*
X-1053D02*
X-990D01*
X-736D02*
X-507D01*
X-240D02*
X77D01*
X344D02*
X560D01*
X725D02*
X1017D01*
X1258D02*
X1525D01*
X1677D02*
X1715D01*
X1944D02*
X2236D01*
X2452D02*
X2681D01*
X3024D02*
X3087D01*
X3405D02*
X3684D01*
X3925D02*
X4217D01*
X-3326Y9611D02*
X-3072D01*
X-2831D02*
X-2577D01*
X-2399D02*
X-2336D01*
X-2145D02*
X-1840D01*
X-1625D02*
X-1383D01*
X-1066D02*
X-977D01*
X-736D02*
X-520D01*
X-240D02*
X64D01*
X344D02*
X560D01*
X725D02*
X1030D01*
X1246D02*
X1525D01*
X1665D02*
X1728D01*
X1931D02*
X2236D01*
X2452D02*
X2693D01*
X3011D02*
X3100D01*
X3405D02*
X3697D01*
X3900D02*
X4217D01*
X-3326Y9624D02*
X-3047D01*
X-2844D02*
X-2590D01*
X-2412D02*
X-2323D01*
X-2171D02*
X-1840D01*
X-1625D02*
X-1371D01*
X-1079D02*
X-951D01*
X-736D02*
X-520D01*
X-240D02*
X64D01*
X344D02*
X572D01*
X725D02*
X1055D01*
X1220D02*
X1525D01*
X1652D02*
X1754D01*
X1906D02*
X2236D01*
X2452D02*
X2706D01*
X2986D02*
X3112D01*
X3417D02*
X3722D01*
X3875D02*
X4217D01*
X-3314Y9637D02*
X-3022D01*
X-2869D02*
X-2590D01*
X-2425D02*
X-2285D01*
X-2209D02*
X-1840D01*
X-1612D02*
X-1332D01*
X-1104D02*
X-939D01*
X-748D02*
X-520D01*
X-228D02*
X64D01*
X344D02*
X572D01*
X725D02*
X1106D01*
X1169D02*
X1525D01*
X1652D02*
X1792D01*
X1855D02*
X2236D01*
X2452D02*
X2744D01*
X2973D02*
X3138D01*
X3417D02*
X3760D01*
X3836D02*
X4217D01*
X-3314Y9649D02*
X-2984D01*
X-2920D02*
X-2590D01*
X-2437D02*
X-1840D01*
X-1612D02*
X-1256D01*
X-1167D02*
X-926D01*
X-748D02*
X-532D01*
X-228D02*
X52D01*
X357D02*
X572D01*
X725D02*
X1512D01*
X1639D02*
X2236D01*
X2465D02*
X2820D01*
X2897D02*
X3151D01*
X3417D02*
X4217D01*
X-3301Y9662D02*
X-2602D01*
X-2450D02*
X-1840D01*
X-1612D02*
X-901D01*
X-748D02*
X-532D01*
X-228D02*
X52D01*
X357D02*
X572D01*
X725D02*
X1512D01*
X1627D02*
X2236D01*
X2465D02*
X3163D01*
X3430D02*
X4217D01*
X-3301Y9675D02*
X-2602D01*
X-2463D02*
X-1840D01*
X-1599D02*
X-888D01*
X-761D02*
X-532D01*
X-215D02*
X52D01*
X357D02*
X585D01*
X725D02*
X1500D01*
X1614D02*
X2236D01*
X2465D02*
X3189D01*
X3430D02*
X4217D01*
X-3288Y9687D02*
X-2615D01*
X-2463D02*
X-1840D01*
X-1599D02*
X-875D01*
X-761D02*
X-532D01*
X-215D02*
X39D01*
X369D02*
X585D01*
X725D02*
X1500D01*
X1601D02*
X2236D01*
X2477D02*
X3201D01*
X3443D02*
X4217D01*
X-3276Y9700D02*
X-2628D01*
X-2476D02*
X-1840D01*
X-1587D02*
X-863D01*
X-761D02*
X-545D01*
X-215D02*
X39D01*
X369D02*
X585D01*
X725D02*
X1487D01*
X1589D02*
X2236D01*
X2490D02*
X3214D01*
X3455D02*
X4217D01*
X-3263Y9713D02*
X-2641D01*
X-2488D02*
X-1840D01*
X-1587D02*
X-863D01*
X-774D02*
X-545D01*
X-202D02*
X39D01*
X369D02*
X598D01*
X725D02*
X1487D01*
X1589D02*
X2236D01*
X2490D02*
X3201D01*
X3455D02*
X4217D01*
X-3263Y9726D02*
X-2653D01*
X-2501D02*
X-1840D01*
X-1574D02*
X-875D01*
X-774D02*
X-545D01*
X-202D02*
X26D01*
X369D02*
X598D01*
X725D02*
X1474D01*
X1576D02*
X2236D01*
X2503D02*
X3201D01*
X3468D02*
X4217D01*
X-3250Y9738D02*
X-2653D01*
X-2514D02*
X-1840D01*
X-1561D02*
X-888D01*
X-774D02*
X-545D01*
X-202D02*
X26D01*
X382D02*
X598D01*
X725D02*
X1462D01*
X1563D02*
X2236D01*
X2516D02*
X3189D01*
X3481D02*
X4217D01*
X-3237Y9751D02*
X-2666D01*
X-2526D02*
X-2069D01*
X-2056D02*
X-1840D01*
X-1548D02*
X-901D01*
X-774D02*
X-558D01*
X-202D02*
X26D01*
X382D02*
X611D01*
X725D02*
X941D01*
X953D02*
X1449D01*
X1550D02*
X2008D01*
X2020D02*
X2236D01*
X2528D02*
X3176D01*
X3493D02*
X3989D01*
X4002D02*
X4217D01*
X-3212Y9764D02*
X-2691D01*
X-2526D02*
X-2082D01*
X-2056D02*
X-1840D01*
X-1536D02*
X-913D01*
X-786D02*
X-558D01*
X-190D02*
X14D01*
X382D02*
X611D01*
X725D02*
X941D01*
X966D02*
X1436D01*
X1538D02*
X1995D01*
X2020D02*
X2236D01*
X2541D02*
X3163D01*
X3506D02*
X3976D01*
X4002D02*
X4217D01*
X-3199Y9776D02*
X-2704D01*
X-2539D02*
X-2095D01*
X-2056D02*
X-1840D01*
X-1523D02*
X-926D01*
X-786D02*
X-558D01*
X-190D02*
X14D01*
X395D02*
X611D01*
X725D02*
X941D01*
X979D02*
X1423D01*
X1538D02*
X1982D01*
X2020D02*
X2236D01*
X2554D02*
X3151D01*
X3519D02*
X3963D01*
X4002D02*
X4217D01*
X-3187Y9789D02*
X-2717D01*
X-2514D02*
X-2107D01*
X-2056D02*
X-1840D01*
X-1498D02*
X-939D01*
X-786D02*
X-571D01*
X-190D02*
X14D01*
X395D02*
X623D01*
X725D02*
X941D01*
X992D02*
X1411D01*
X1550D02*
X1969D01*
X2020D02*
X2236D01*
X2566D02*
X3125D01*
X3532D02*
X3951D01*
X4002D02*
X4217D01*
X-3161Y9802D02*
X-2742D01*
X-2501D02*
X-2120D01*
X-2056D02*
X-1840D01*
X-1485D02*
X-964D01*
X-799D02*
X-571D01*
X-177D02*
X1D01*
X395D02*
X623D01*
X725D02*
X941D01*
X1017D02*
X1385D01*
X1576D02*
X1944D01*
X2020D02*
X2236D01*
X2592D02*
X3112D01*
X3557D02*
X3925D01*
X4002D02*
X4217D01*
X-3136Y9814D02*
X-2768D01*
X-2476D02*
X-2145D01*
X-2056D02*
X-1840D01*
X-1459D02*
X-990D01*
X-799D02*
X-571D01*
X-177D02*
X1D01*
X395D02*
X623D01*
X725D02*
X941D01*
X1042D02*
X1373D01*
X1601D02*
X1931D01*
X2020D02*
X2236D01*
X2617D02*
X3087D01*
X3570D02*
X3913D01*
X4002D02*
X4217D01*
X-3111Y9827D02*
X-2793D01*
X-2450D02*
X-2171D01*
X-2056D02*
X-1840D01*
X-1421D02*
X-1028D01*
X-799D02*
X-571D01*
X-177D02*
X1D01*
X407D02*
X636D01*
X725D02*
X941D01*
X1068D02*
X1334D01*
X1627D02*
X1906D01*
X2020D02*
X2236D01*
X2655D02*
X3049D01*
X3595D02*
X3887D01*
X4002D02*
X4217D01*
X-3060Y9840D02*
X-2831D01*
X-2412D02*
X-2209D01*
X-2056D02*
X-1840D01*
X-1371D02*
X-1066D01*
X-812D02*
X-583D01*
X-164D02*
X-12D01*
X407D02*
X636D01*
X725D02*
X941D01*
X1106D02*
X1309D01*
X1652D02*
X1868D01*
X2020D02*
X2236D01*
X2693D02*
X3011D01*
X3633D02*
X3849D01*
X4002D02*
X4217D01*
X-2984Y9852D02*
X-2907D01*
X-2349D02*
X-2285D01*
X-1282D02*
X-1167D01*
X725D02*
X941D01*
X1169D02*
X1233D01*
X1715D02*
X1792D01*
X2795D02*
X2909D01*
X3697D02*
X3773D01*
X4002D02*
X4217D01*
X725Y9865D02*
X941D01*
X4002D02*
X4217D01*
X725Y9878D02*
X941D01*
X4002D02*
X4217D01*
X725Y9891D02*
X941D01*
X4002D02*
X4217D01*
X725Y9903D02*
X941D01*
X4002D02*
X4217D01*
X725Y9916D02*
X941D01*
X4002D02*
X4217D01*
X725Y9929D02*
X941D01*
X4002D02*
X4217D01*
X725Y9941D02*
X941D01*
X4002D02*
X4217D01*
X725Y9954D02*
X941D01*
X4002D02*
X4217D01*
X725Y9967D02*
X941D01*
X4002D02*
X4217D01*
X725Y9979D02*
X941D01*
X4002D02*
X4217D01*
X725Y9992D02*
X941D01*
X4002D02*
X4217D01*
X725Y10005D02*
X941D01*
X4002D02*
X4217D01*
X725Y10018D02*
X941D01*
X4002D02*
X4217D01*
X725Y10030D02*
X941D01*
X4002D02*
X4217D01*
X725Y10043D02*
X941D01*
X4002D02*
X4217D01*
X725Y10056D02*
X941D01*
X4002D02*
X4217D01*
X725Y10068D02*
X941D01*
X4002D02*
X4217D01*
X725Y10081D02*
X941D01*
X4002D02*
X4217D01*
X725Y10094D02*
X941D01*
X4002D02*
X4217D01*
X725Y10106D02*
X941D01*
X4002D02*
X4217D01*
X725Y10119D02*
X941D01*
X4002D02*
X4217D01*
X725Y10132D02*
X941D01*
X4002D02*
X4217D01*
X725Y10145D02*
X941D01*
X4002D02*
X4217D01*
X725Y10157D02*
X941D01*
X4002D02*
X4217D01*
X725Y10170D02*
X941D01*
X4002D02*
X4217D01*
X725Y10183D02*
X941D01*
X4002D02*
X4217D01*
X725Y10195D02*
X941D01*
X4002D02*
X4217D01*
X725Y10208D02*
X941D01*
X4002D02*
X4217D01*
X725Y10221D02*
X941D01*
X4002D02*
X4217D01*
X725Y10233D02*
X941D01*
X4002D02*
X4217D01*
X725Y10246D02*
X941D01*
X4002D02*
X4217D01*
X4002Y10259D02*
X4217D01*
X4002Y10272D02*
X4217D01*
X4002Y10284D02*
X4217D01*
X4002Y10297D02*
X4217D01*
X4002Y10310D02*
X4217D01*
X4002Y10322D02*
X4217D01*
X4002Y10335D02*
X4217D01*
X4002Y10348D02*
X4217D01*
X4002Y10361D02*
X4217D01*
X4002Y10373D02*
X4217D01*
X4002Y10386D02*
X4217D01*
X4002Y10399D02*
X4217D01*
X-4165Y10411D02*
X-3974D01*
X-3301D02*
X-3123D01*
X-1498D02*
X-1332D01*
X-558D02*
X-405D01*
X357D02*
X547D01*
X2731D02*
X2909D01*
X3671D02*
X3811D01*
X4002D02*
X4217D01*
X4713D02*
X4865D01*
X-4215Y10424D02*
X-3923D01*
X-3352D02*
X-3072D01*
X-2310D02*
X-2095D01*
X-1879D02*
X-1675D01*
X-1536D02*
X-1294D01*
X-621D02*
X-342D01*
X293D02*
X623D01*
X1449D02*
X1665D01*
X2046D02*
X2262D01*
X2668D02*
X2973D01*
X3621D02*
X3849D01*
X4002D02*
X4217D01*
X4662D02*
X4929D01*
X-4253Y10437D02*
X-3885D01*
X-3377D02*
X-3034D01*
X-2310D02*
X-2095D01*
X-1879D02*
X-1675D01*
X-1574D02*
X-1269D01*
X-659D02*
X-317D01*
X255D02*
X661D01*
X1449D02*
X1665D01*
X2046D02*
X2262D01*
X2630D02*
X3011D01*
X3582D02*
X3887D01*
X4002D02*
X4217D01*
X4624D02*
X4967D01*
X-4292Y10449D02*
X-3847D01*
X-3415D02*
X-2996D01*
X-2310D02*
X-2095D01*
X-1879D02*
X-1675D01*
X-1587D02*
X-1244D01*
X-685D02*
X-278D01*
X230D02*
X700D01*
X1449D02*
X1665D01*
X2046D02*
X2262D01*
X2605D02*
X3036D01*
X3557D02*
X3913D01*
X4002D02*
X4217D01*
X4586D02*
X4992D01*
X-4304Y10462D02*
X-3822D01*
X-3441D02*
X-2971D01*
X-2310D02*
X-2095D01*
X-1879D02*
X-1675D01*
X-1612D02*
X-1218D01*
X-710D02*
X-266D01*
X204D02*
X725D01*
X1449D02*
X1665D01*
X2046D02*
X2262D01*
X2579D02*
X3062D01*
X3544D02*
X3925D01*
X4002D02*
X4217D01*
X4573D02*
X5017D01*
X-4330Y10475D02*
X-3809D01*
X-3453D02*
X-2958D01*
X-2310D02*
X-2095D01*
X-1879D02*
X-1675D01*
X-1625D02*
X-1206D01*
X-723D02*
X-240D01*
X179D02*
X750D01*
X1449D02*
X1665D01*
X2046D02*
X2262D01*
X2554D02*
X3074D01*
X3532D02*
X3951D01*
X4002D02*
X4217D01*
X4548D02*
X5030D01*
X-4355Y10488D02*
X-3796D01*
X-3479D02*
X-2933D01*
X-2310D02*
X-2095D01*
X-1879D02*
X-1675D01*
X-1637D02*
X-1180D01*
X-748D02*
X-228D01*
X153D02*
X776D01*
X1449D02*
X1665D01*
X2046D02*
X2262D01*
X2541D02*
X3100D01*
X3506D02*
X3963D01*
X4002D02*
X4217D01*
X4535D02*
X5056D01*
X-4368Y10500D02*
X-3771D01*
X-3491D02*
X-2920D01*
X-2310D02*
X-2095D01*
X-1879D02*
X-1675D01*
X-1650D02*
X-1167D01*
X-761D02*
X-202D01*
X141D02*
X801D01*
X1449D02*
X1665D01*
X2046D02*
X2262D01*
X2516D02*
X3112D01*
X3493D02*
X3976D01*
X4002D02*
X4217D01*
X4510D02*
X5068D01*
X-4380Y10513D02*
X-3758D01*
X-3517D02*
X-2907D01*
X-2310D02*
X-2095D01*
X-1879D02*
X-1675D01*
X-1663D02*
X-1155D01*
X-774D02*
X-190D01*
X128D02*
X826D01*
X1449D02*
X1665D01*
X2046D02*
X2262D01*
X2503D02*
X3125D01*
X3481D02*
X4217D01*
X4497D02*
X5081D01*
X-4393Y10526D02*
X-3746D01*
X-3530D02*
X-2895D01*
X-2310D02*
X-2095D01*
X-1879D02*
X-1142D01*
X-786D02*
X-177D01*
X115D02*
X839D01*
X1449D02*
X1665D01*
X2046D02*
X2262D01*
X2490D02*
X3138D01*
X3468D02*
X4217D01*
X4484D02*
X5094D01*
X-4406Y10538D02*
X-3733D01*
X-3542D02*
X-2882D01*
X-2310D02*
X-2095D01*
X-1879D02*
X-1142D01*
X-799D02*
X-164D01*
X103D02*
X852D01*
X1449D02*
X1665D01*
X2046D02*
X2262D01*
X2477D02*
X3151D01*
X3468D02*
X4217D01*
X4471D02*
X5106D01*
X-4431Y10551D02*
X-3720D01*
X-3555D02*
X-2869D01*
X-2310D02*
X-2095D01*
X-1879D02*
X-1129D01*
X-812D02*
X-164D01*
X90D02*
X865D01*
X1449D02*
X1665D01*
X2046D02*
X2262D01*
X2465D02*
X3163D01*
X3455D02*
X4217D01*
X4471D02*
X5119D01*
X-4444Y10564D02*
X-3720D01*
X-3568D02*
X-2856D01*
X-2310D02*
X-2095D01*
X-1879D02*
X-1117D01*
X-825D02*
X-151D01*
X90D02*
X890D01*
X1449D02*
X1665D01*
X2046D02*
X2262D01*
X2452D02*
X3176D01*
X3443D02*
X4217D01*
X4459D02*
X5132D01*
X-4444Y10576D02*
X-3707D01*
X-3580D02*
X-2844D01*
X-2310D02*
X-2095D01*
X-1879D02*
X-1117D01*
X-825D02*
X-139D01*
X77D02*
X903D01*
X1449D02*
X1665D01*
X2046D02*
X2262D01*
X2452D02*
X3189D01*
X3443D02*
X4217D01*
X4446D02*
X5132D01*
X-4431Y10589D02*
X-3695D01*
X-3580D02*
X-2831D01*
X-2310D02*
X-2095D01*
X-1879D02*
X-1104D01*
X-837D02*
X-126D01*
X64D02*
X915D01*
X1449D02*
X1665D01*
X2046D02*
X2262D01*
X2465D02*
X3189D01*
X3430D02*
X4217D01*
X4433D02*
X5144D01*
X-4419Y10602D02*
X-3695D01*
X-3568D02*
X-2831D01*
X-2310D02*
X-2095D01*
X-1879D02*
X-1104D01*
X-850D02*
X-126D01*
X64D02*
X903D01*
X1449D02*
X1665D01*
X2046D02*
X2262D01*
X2477D02*
X3201D01*
X3430D02*
X4217D01*
X4433D02*
X5157D01*
X-4406Y10615D02*
X-4127D01*
X-4012D02*
X-3682D01*
X-3555D02*
X-2818D01*
X-2310D02*
X-2095D01*
X-1879D02*
X-1091D01*
X-850D02*
X-113D01*
X64D02*
X369D01*
X534D02*
X890D01*
X1449D02*
X1665D01*
X2046D02*
X2262D01*
X2490D02*
X2757D01*
X2884D02*
X3201D01*
X3417D02*
X4217D01*
X4421D02*
X5157D01*
X-4380Y10627D02*
X-4165D01*
X-3961D02*
X-3682D01*
X-3542D02*
X-3276D01*
X-3149D02*
X-2818D01*
X-2310D02*
X-2095D01*
X-1879D02*
X-1536D01*
X-1421D02*
X-1091D01*
X-863D02*
X-545D01*
X-431D02*
X-113D01*
X52D02*
X344D01*
X585D02*
X877D01*
X1449D02*
X1665D01*
X2046D02*
X2262D01*
X2503D02*
X2719D01*
X2922D02*
X3214D01*
X3417D02*
X3735D01*
X3862D02*
X4217D01*
X4421D02*
X4738D01*
X4852D02*
X5170D01*
X-4368Y10640D02*
X-4190D01*
X-3936D02*
X-3669D01*
X-3530D02*
X-3314D01*
X-3111D02*
X-2806D01*
X-2310D02*
X-2095D01*
X-1879D02*
X-1561D01*
X-1383D02*
X-1091D01*
X-863D02*
X-571D01*
X-393D02*
X-101D01*
X52D02*
X306D01*
X623D02*
X865D01*
X1449D02*
X1665D01*
X2046D02*
X2262D01*
X2516D02*
X2693D01*
X2947D02*
X3214D01*
X3417D02*
X3709D01*
X3887D02*
X4217D01*
X4408D02*
X4700D01*
X4891D02*
X5170D01*
X-4355Y10653D02*
X-4215D01*
X-3923D02*
X-3669D01*
X-3504D02*
X-3339D01*
X-3085D02*
X-2806D01*
X-2310D02*
X-2095D01*
X-1879D02*
X-1587D01*
X-1371D02*
X-1079D01*
X-875D02*
X-596D01*
X-367D02*
X-101D01*
X52D02*
X293D01*
X649D02*
X852D01*
X1449D02*
X1665D01*
X2046D02*
X2262D01*
X2528D02*
X2668D01*
X2960D02*
X3227D01*
X3417D02*
X3684D01*
X3913D02*
X4217D01*
X4408D02*
X4675D01*
X4903D02*
X5183D01*
X-4342Y10665D02*
X-4241D01*
X-3911D02*
X-3657D01*
X-3491D02*
X-3352D01*
X-3060D02*
X-2793D01*
X-2310D02*
X-2095D01*
X-1879D02*
X-1599D01*
X-1345D02*
X-1079D01*
X-875D02*
X-621D01*
X-355D02*
X-101D01*
X52D02*
X280D01*
X661D02*
X839D01*
X1449D02*
X1665D01*
X2046D02*
X2262D01*
X2554D02*
X2655D01*
X2986D02*
X3227D01*
X3405D02*
X3671D01*
X3925D02*
X4217D01*
X4408D02*
X4662D01*
X4929D02*
X5183D01*
X-4330Y10678D02*
X-4253D01*
X-3898D02*
X-3657D01*
X-3479D02*
X-3377D01*
X-3047D02*
X-2793D01*
X-2310D02*
X-2095D01*
X-1879D02*
X-1612D01*
X-1332D02*
X-1079D01*
X-875D02*
X-634D01*
X-342D02*
X-88D01*
X39D02*
X268D01*
X687D02*
X826D01*
X1449D02*
X1665D01*
X2046D02*
X2262D01*
X2566D02*
X2630D01*
X2998D02*
X3227D01*
X3405D02*
X3659D01*
X3938D02*
X4217D01*
X4395D02*
X4649D01*
X4941D02*
X5183D01*
X-4304Y10691D02*
X-4266D01*
X-3885D02*
X-3657D01*
X-3466D02*
X-3390D01*
X-3034D02*
X-2780D01*
X-2310D02*
X-2095D01*
X-1879D02*
X-1625D01*
X-1332D02*
X-1079D01*
X-888D02*
X-647D01*
X-329D02*
X-88D01*
X39D02*
X268D01*
X700D02*
X814D01*
X1449D02*
X1665D01*
X2046D02*
X2262D01*
X2579D02*
X2617D01*
X3011D02*
X3240D01*
X3405D02*
X3646D01*
X3951D02*
X4217D01*
X4395D02*
X4636D01*
X4954D02*
X5195D01*
X-4292Y10703D02*
X-4279D01*
X-3872D02*
X-3644D01*
X-3453D02*
X-3403D01*
X-3022D02*
X-2780D01*
X-2310D02*
X-2095D01*
X-1879D02*
X-1637D01*
X-1320D02*
X-1079D01*
X-888D02*
X-647D01*
X-317D02*
X-88D01*
X39D02*
X255D01*
X725D02*
X801D01*
X1449D02*
X1665D01*
X2046D02*
X2262D01*
X2592D02*
X2605D01*
X3011D02*
X3240D01*
X3405D02*
X3646D01*
X3963D02*
X4217D01*
X4395D02*
X4624D01*
X4954D02*
X5195D01*
X-3872Y10716D02*
X-3644D01*
X-3441D02*
X-3415D01*
X-3022D02*
X-2780D01*
X-2310D02*
X-2095D01*
X-1879D02*
X-1637D01*
X-1307D02*
X-1066D01*
X-888D02*
X-659D01*
X-317D02*
X-88D01*
X39D02*
X255D01*
X738D02*
X788D01*
X1449D02*
X1665D01*
X2046D02*
X2262D01*
X3024D02*
X3240D01*
X3405D02*
X3633D01*
X3963D02*
X4217D01*
X4395D02*
X4624D01*
X4967D02*
X5195D01*
X-3860Y10729D02*
X-3644D01*
X-3009D02*
X-2780D01*
X-2310D02*
X-2095D01*
X-1879D02*
X-1650D01*
X-1307D02*
X-1066D01*
X-888D02*
X-659D01*
X-304D02*
X-75D01*
X39D02*
X255D01*
X750D02*
X776D01*
X1449D02*
X1665D01*
X2046D02*
X2262D01*
X3024D02*
X3240D01*
X3405D02*
X3633D01*
X3976D02*
X4217D01*
X4383D02*
X4611D01*
X4967D02*
X5195D01*
X-3860Y10741D02*
X-3644D01*
X-2996D02*
X-2768D01*
X-2310D02*
X-2095D01*
X-1879D02*
X-1650D01*
X-1294D02*
X-1066D01*
X-888D02*
X-672D01*
X-304D02*
X-75D01*
X39D02*
X255D01*
X1449D02*
X1665D01*
X2046D02*
X2262D01*
X3036D02*
X3252D01*
X3405D02*
X3633D01*
X3976D02*
X4217D01*
X4383D02*
X4611D01*
X4979D02*
X5195D01*
X-3847Y10754D02*
X-3631D01*
X-2996D02*
X-2768D01*
X-2310D02*
X-2095D01*
X-1879D02*
X-1663D01*
X-1294D02*
X-1066D01*
X-901D02*
X-672D01*
X-291D02*
X-75D01*
X39D02*
X255D01*
X1449D02*
X1665D01*
X2046D02*
X2262D01*
X3036D02*
X3252D01*
X3392D02*
X3621D01*
X3976D02*
X4217D01*
X4383D02*
X4598D01*
X4979D02*
X5208D01*
X-3847Y10767D02*
X-3631D01*
X-2996D02*
X-2768D01*
X-2310D02*
X-2095D01*
X-1879D02*
X-1663D01*
X-1294D02*
X-1066D01*
X-901D02*
X-672D01*
X-291D02*
X-75D01*
X39D02*
X268D01*
X1449D02*
X1665D01*
X2046D02*
X2262D01*
X3036D02*
X3252D01*
X3392D02*
X3621D01*
X3976D02*
X4217D01*
X4383D02*
X4598D01*
X4979D02*
X5208D01*
X-3847Y10780D02*
X-3631D01*
X-2984D02*
X-2768D01*
X-2310D02*
X-2095D01*
X-1879D02*
X-1663D01*
X-1282D02*
X-1066D01*
X-901D02*
X-685D01*
X-291D02*
X-75D01*
X39D02*
X268D01*
X1449D02*
X1665D01*
X2046D02*
X2262D01*
X3049D02*
X3265D01*
X3392D02*
X3621D01*
X3989D02*
X4217D01*
X4383D02*
X4598D01*
X4992D02*
X5208D01*
X-3834Y10792D02*
X-3631D01*
X-2984D02*
X-2755D01*
X-2310D02*
X-2095D01*
X-1879D02*
X-1663D01*
X-1282D02*
X-1066D01*
X-901D02*
X-685D01*
X-291D02*
X-75D01*
X52D02*
X280D01*
X1449D02*
X1665D01*
X2046D02*
X2262D01*
X3049D02*
X3265D01*
X3392D02*
X3621D01*
X3989D02*
X4217D01*
X4383D02*
X4598D01*
X4992D02*
X5208D01*
X-3834Y10805D02*
X-3631D01*
X-2984D02*
X-2755D01*
X-2310D02*
X-2095D01*
X-1879D02*
X-1663D01*
X-1282D02*
X-1066D01*
X-901D02*
X-685D01*
X-291D02*
X-62D01*
X52D02*
X306D01*
X1449D02*
X1665D01*
X2046D02*
X2262D01*
X3049D02*
X3265D01*
X3392D02*
X3621D01*
X3989D02*
X4217D01*
X4383D02*
X4598D01*
X4992D02*
X5208D01*
X-3834Y10818D02*
X-3631D01*
X-2971D02*
X-2755D01*
X-2310D02*
X-2095D01*
X-1879D02*
X-1663D01*
X-1282D02*
X-1066D01*
X-901D02*
X-685D01*
X-278D02*
X-62D01*
X52D02*
X344D01*
X1449D02*
X1665D01*
X2046D02*
X2262D01*
X3049D02*
X3265D01*
X3392D02*
X3608D01*
X3989D02*
X4217D01*
X4370D02*
X4586D01*
X4992D02*
X5208D01*
X-3834Y10830D02*
X-3631D01*
X-2971D02*
X-2755D01*
X-2310D02*
X-2095D01*
X-1879D02*
X-1663D01*
X-1282D02*
X-1066D01*
X-901D02*
X-685D01*
X-278D02*
X-62D01*
X52D02*
X458D01*
X1449D02*
X1665D01*
X2046D02*
X2262D01*
X3049D02*
X3265D01*
X3392D02*
X3608D01*
X3989D02*
X4217D01*
X4370D02*
X4586D01*
X4992D02*
X5208D01*
X-4457Y10843D02*
X-3631D01*
X-2971D02*
X-2755D01*
X-2310D02*
X-2095D01*
X-1879D02*
X-1675D01*
X-1282D02*
X-1066D01*
X-901D02*
X-685D01*
X-278D02*
X-62D01*
X64D02*
X585D01*
X1449D02*
X1665D01*
X2046D02*
X2262D01*
X2427D02*
X3265D01*
X3392D02*
X3608D01*
X3989D02*
X4217D01*
X4370D02*
X4586D01*
X4992D02*
X5208D01*
X-4457Y10856D02*
X-3618D01*
X-2971D02*
X-2755D01*
X-2310D02*
X-2095D01*
X-1879D02*
X-1675D01*
X-1282D02*
X-1066D01*
X-901D02*
X-685D01*
X-278D02*
X-62D01*
X64D02*
X636D01*
X1449D02*
X1665D01*
X2046D02*
X2262D01*
X2427D02*
X3265D01*
X3392D02*
X3608D01*
X3989D02*
X4217D01*
X4370D02*
X4586D01*
X4992D02*
X5208D01*
X-4457Y10868D02*
X-3618D01*
X-2971D02*
X-2755D01*
X-2310D02*
X-2095D01*
X-1879D02*
X-1675D01*
X-1282D02*
X-1066D01*
X-901D02*
X-685D01*
X-278D02*
X-62D01*
X64D02*
X674D01*
X1449D02*
X1665D01*
X2046D02*
X2262D01*
X2427D02*
X3265D01*
X3392D02*
X3608D01*
X3989D02*
X4217D01*
X4370D02*
X4586D01*
X4992D02*
X5208D01*
X-4457Y10881D02*
X-3618D01*
X-2971D02*
X-2755D01*
X-2310D02*
X-2095D01*
X-1879D02*
X-1675D01*
X-1282D02*
X-1066D01*
X-901D02*
X-685D01*
X-278D02*
X-62D01*
X77D02*
X700D01*
X1449D02*
X1665D01*
X2046D02*
X2262D01*
X2427D02*
X3265D01*
X3392D02*
X3608D01*
X3989D02*
X4217D01*
X4370D02*
X4586D01*
X4992D02*
X5208D01*
X-4457Y10894D02*
X-3618D01*
X-2971D02*
X-2755D01*
X-2310D02*
X-2095D01*
X-1879D02*
X-1675D01*
X-1282D02*
X-1066D01*
X-901D02*
X-685D01*
X-278D02*
X-62D01*
X77D02*
X725D01*
X1449D02*
X1665D01*
X2046D02*
X2262D01*
X2427D02*
X3265D01*
X3392D02*
X3608D01*
X3989D02*
X4217D01*
X4370D02*
X4586D01*
X4992D02*
X5208D01*
X-4457Y10907D02*
X-3618D01*
X-2971D02*
X-2755D01*
X-2310D02*
X-2095D01*
X-1879D02*
X-1675D01*
X-1282D02*
X-1066D01*
X-901D02*
X-685D01*
X-278D02*
X-62D01*
X90D02*
X738D01*
X1449D02*
X1665D01*
X2046D02*
X2262D01*
X2427D02*
X3265D01*
X3392D02*
X3608D01*
X3989D02*
X4217D01*
X4370D02*
X4586D01*
X4992D02*
X5208D01*
X-4457Y10919D02*
X-3618D01*
X-2971D02*
X-2755D01*
X-2310D02*
X-2095D01*
X-1879D02*
X-1675D01*
X-1282D02*
X-1066D01*
X-901D02*
X-685D01*
X-278D02*
X-62D01*
X103D02*
X763D01*
X1449D02*
X1665D01*
X2046D02*
X2262D01*
X2427D02*
X3265D01*
X3392D02*
X3608D01*
X3989D02*
X4217D01*
X4370D02*
X4586D01*
X5005D02*
X5208D01*
X-4457Y10932D02*
X-3618D01*
X-2971D02*
X-2755D01*
X-2310D02*
X-2095D01*
X-1879D02*
X-1675D01*
X-1282D02*
X-1066D01*
X-901D02*
X-685D01*
X-278D02*
X-62D01*
X103D02*
X776D01*
X1449D02*
X1665D01*
X2046D02*
X2262D01*
X2427D02*
X3265D01*
X3392D02*
X3608D01*
X3989D02*
X4217D01*
X4370D02*
X4586D01*
X5005D02*
X5208D01*
X-4457Y10945D02*
X-3618D01*
X-2971D02*
X-2755D01*
X-2310D02*
X-2095D01*
X-1879D02*
X-1675D01*
X-1282D02*
X-1066D01*
X-901D02*
X-685D01*
X-278D02*
X-62D01*
X128D02*
X788D01*
X1449D02*
X1665D01*
X2046D02*
X2262D01*
X2427D02*
X3265D01*
X3392D02*
X3608D01*
X3989D02*
X4217D01*
X4370D02*
X4586D01*
X4992D02*
X5208D01*
X-4457Y10957D02*
X-3618D01*
X-2971D02*
X-2755D01*
X-2310D02*
X-2095D01*
X-1879D02*
X-1675D01*
X-1282D02*
X-1066D01*
X-901D02*
X-685D01*
X-278D02*
X-62D01*
X141D02*
X788D01*
X1449D02*
X1665D01*
X2046D02*
X2262D01*
X2427D02*
X3265D01*
X3392D02*
X3608D01*
X3989D02*
X4217D01*
X4370D02*
X4586D01*
X4992D02*
X5208D01*
X-4457Y10970D02*
X-3618D01*
X-2971D02*
X-2755D01*
X-2310D02*
X-2095D01*
X-1879D02*
X-1675D01*
X-1282D02*
X-1066D01*
X-901D02*
X-685D01*
X-278D02*
X-62D01*
X153D02*
X801D01*
X1449D02*
X1665D01*
X2046D02*
X2262D01*
X2427D02*
X3265D01*
X3392D02*
X3608D01*
X3989D02*
X4217D01*
X4370D02*
X4586D01*
X4992D02*
X5208D01*
X-4457Y10983D02*
X-3618D01*
X-2971D02*
X-2755D01*
X-2310D02*
X-2095D01*
X-1879D02*
X-1675D01*
X-1282D02*
X-1066D01*
X-901D02*
X-685D01*
X-278D02*
X-62D01*
X179D02*
X814D01*
X1449D02*
X1665D01*
X2046D02*
X2262D01*
X2427D02*
X3265D01*
X3392D02*
X3608D01*
X3989D02*
X4217D01*
X4370D02*
X4586D01*
X4992D02*
X5208D01*
X-4457Y10995D02*
X-3631D01*
X-2971D02*
X-2755D01*
X-2310D02*
X-2095D01*
X-1879D02*
X-1675D01*
X-1282D02*
X-1066D01*
X-901D02*
X-685D01*
X-278D02*
X-62D01*
X191D02*
X814D01*
X1449D02*
X1665D01*
X2046D02*
X2262D01*
X2427D02*
X3265D01*
X3392D02*
X3608D01*
X3989D02*
X4217D01*
X4370D02*
X4586D01*
X4992D02*
X5208D01*
X-4457Y11008D02*
X-3631D01*
X-2971D02*
X-2755D01*
X-2310D02*
X-2095D01*
X-1879D02*
X-1675D01*
X-1282D02*
X-1066D01*
X-901D02*
X-685D01*
X-278D02*
X-62D01*
X230D02*
X826D01*
X1449D02*
X1665D01*
X2046D02*
X2262D01*
X2427D02*
X3265D01*
X3392D02*
X3608D01*
X3989D02*
X4217D01*
X4370D02*
X4586D01*
X4992D02*
X5208D01*
X-4457Y11021D02*
X-3631D01*
X-2971D02*
X-2755D01*
X-2310D02*
X-2095D01*
X-1879D02*
X-1675D01*
X-1282D02*
X-1066D01*
X-901D02*
X-685D01*
X-278D02*
X-62D01*
X280D02*
X826D01*
X1449D02*
X1665D01*
X2046D02*
X2262D01*
X2427D02*
X3265D01*
X3392D02*
X3608D01*
X3989D02*
X4217D01*
X4370D02*
X4586D01*
X4992D02*
X5208D01*
X-4457Y11034D02*
X-4241D01*
X-3834D02*
X-3631D01*
X-2971D02*
X-2755D01*
X-2310D02*
X-2095D01*
X-1879D02*
X-1675D01*
X-1282D02*
X-1066D01*
X-901D02*
X-685D01*
X-278D02*
X-62D01*
X420D02*
X826D01*
X1449D02*
X1665D01*
X2046D02*
X2262D01*
X2427D02*
X2643D01*
X3049D02*
X3265D01*
X3392D02*
X3608D01*
X3989D02*
X4217D01*
X4370D02*
X4586D01*
X4992D02*
X5208D01*
X-4457Y11046D02*
X-4241D01*
X-3834D02*
X-3631D01*
X-2984D02*
X-2755D01*
X-2310D02*
X-2095D01*
X-1879D02*
X-1675D01*
X-1282D02*
X-1066D01*
X-901D02*
X-685D01*
X-291D02*
X-62D01*
X534D02*
X839D01*
X1449D02*
X1665D01*
X2046D02*
X2262D01*
X2427D02*
X2643D01*
X3049D02*
X3265D01*
X3392D02*
X3621D01*
X3989D02*
X4217D01*
X4383D02*
X4598D01*
X4992D02*
X5208D01*
X-4457Y11059D02*
X-4241D01*
X-3834D02*
X-3631D01*
X-2984D02*
X-2755D01*
X-2310D02*
X-2095D01*
X-1879D02*
X-1675D01*
X-1282D02*
X-1066D01*
X-901D02*
X-685D01*
X-291D02*
X-75D01*
X572D02*
X839D01*
X1449D02*
X1665D01*
X2046D02*
X2262D01*
X2427D02*
X2643D01*
X3049D02*
X3265D01*
X3392D02*
X3621D01*
X3989D02*
X4217D01*
X4383D02*
X4598D01*
X4992D02*
X5208D01*
X-4457Y11072D02*
X-4241D01*
X-3847D02*
X-3631D01*
X-2984D02*
X-2768D01*
X-2310D02*
X-2095D01*
X-1879D02*
X-1675D01*
X-1282D02*
X-1066D01*
X-901D02*
X-685D01*
X-291D02*
X-75D01*
X598D02*
X839D01*
X1449D02*
X1665D01*
X2046D02*
X2262D01*
X2427D02*
X2643D01*
X3049D02*
X3252D01*
X3392D02*
X3621D01*
X3989D02*
X4217D01*
X4383D02*
X4598D01*
X4992D02*
X5208D01*
X-4457Y11084D02*
X-4241D01*
X-3847D02*
X-3631D01*
X-2996D02*
X-2768D01*
X-2310D02*
X-2095D01*
X-1879D02*
X-1675D01*
X-1282D02*
X-1066D01*
X-901D02*
X-672D01*
X-291D02*
X-75D01*
X611D02*
X839D01*
X1449D02*
X1677D01*
X2046D02*
X2262D01*
X2427D02*
X2655D01*
X3049D02*
X3252D01*
X3392D02*
X3621D01*
X3976D02*
X4217D01*
X4383D02*
X4598D01*
X4979D02*
X5208D01*
X-4457Y11097D02*
X-4228D01*
X-3847D02*
X-3644D01*
X-2996D02*
X-2768D01*
X-2323D02*
X-2095D01*
X-1879D02*
X-1675D01*
X-1282D02*
X-1066D01*
X-901D02*
X-672D01*
X-291D02*
X-75D01*
X623D02*
X839D01*
X1449D02*
X1677D01*
X2033D02*
X2262D01*
X2439D02*
X2655D01*
X3036D02*
X3252D01*
X3405D02*
X3621D01*
X3976D02*
X4217D01*
X4383D02*
X4598D01*
X4979D02*
X5208D01*
X-4457Y11110D02*
X-4228D01*
X-3847D02*
X-3644D01*
X-2996D02*
X-2768D01*
X-2323D02*
X-2095D01*
X-1879D02*
X-1675D01*
X-1282D02*
X-1066D01*
X-888D02*
X-672D01*
X-304D02*
X-75D01*
X623D02*
X839D01*
X1449D02*
X1677D01*
X2033D02*
X2262D01*
X2439D02*
X2655D01*
X3036D02*
X3252D01*
X3405D02*
X3633D01*
X3976D02*
X4217D01*
X4383D02*
X4611D01*
X4979D02*
X5195D01*
X-4457Y11123D02*
X-4228D01*
X-3860D02*
X-3644D01*
X-3009D02*
X-2780D01*
X-2323D02*
X-2095D01*
X-1879D02*
X-1675D01*
X-1282D02*
X-1066D01*
X-888D02*
X-659D01*
X-304D02*
X-75D01*
X623D02*
X852D01*
X1449D02*
X1690D01*
X2033D02*
X2262D01*
X2439D02*
X2668D01*
X3036D02*
X3240D01*
X3405D02*
X3633D01*
X3963D02*
X4217D01*
X4383D02*
X4611D01*
X4967D02*
X5195D01*
X-4444Y11135D02*
X-4215D01*
X-3860D02*
X-3644D01*
X-3441D02*
X-3415D01*
X-3022D02*
X-2780D01*
X-2336D02*
X-2095D01*
X-1879D02*
X-1675D01*
X-1282D02*
X-1066D01*
X-888D02*
X-659D01*
X-317D02*
X-88D01*
X636D02*
X852D01*
X1449D02*
X1690D01*
X2020D02*
X2262D01*
X2439D02*
X2668D01*
X3024D02*
X3240D01*
X3405D02*
X3633D01*
X3963D02*
X4217D01*
X4395D02*
X4624D01*
X4967D02*
X5195D01*
X-4444Y11148D02*
X-4215D01*
X-3872D02*
X-3657D01*
X-3453D02*
X-3403D01*
X-3022D02*
X-2780D01*
X-2336D02*
X-2095D01*
X-1879D02*
X-1675D01*
X-1282D02*
X-1066D01*
X-888D02*
X-647D01*
X-317D02*
X-88D01*
X623D02*
X852D01*
X1449D02*
X1703D01*
X2020D02*
X2262D01*
X2439D02*
X2681D01*
X3024D02*
X3240D01*
X3405D02*
X3646D01*
X3963D02*
X4217D01*
X4395D02*
X4624D01*
X4954D02*
X5195D01*
X-4444Y11161D02*
X-4203D01*
X-3885D02*
X-3657D01*
X-3466D02*
X-3390D01*
X-3034D02*
X-2793D01*
X-2349D02*
X-2095D01*
X-1879D02*
X-1675D01*
X-1282D02*
X-1066D01*
X-888D02*
X-647D01*
X-329D02*
X-88D01*
X179D02*
X217D01*
X623D02*
X839D01*
X1449D02*
X1703D01*
X2008D02*
X2262D01*
X2452D02*
X2681D01*
X3011D02*
X3240D01*
X3405D02*
X3659D01*
X3951D02*
X4217D01*
X4395D02*
X4636D01*
X4954D02*
X5195D01*
X-4431Y11173D02*
X-4190D01*
X-3885D02*
X-3657D01*
X-3479D02*
X-3377D01*
X-3047D02*
X-2793D01*
X-2361D02*
X-2095D01*
X-1879D02*
X-1675D01*
X-1282D02*
X-1066D01*
X-875D02*
X-634D01*
X-342D02*
X-88D01*
X166D02*
X230D01*
X623D02*
X839D01*
X1462D02*
X1715D01*
X1995D02*
X2262D01*
X2452D02*
X2693D01*
X2998D02*
X3227D01*
X3405D02*
X3659D01*
X3938D02*
X4217D01*
X4395D02*
X4649D01*
X4941D02*
X5183D01*
X-4431Y11186D02*
X-4177D01*
X-3898D02*
X-3669D01*
X-3491D02*
X-3352D01*
X-3060D02*
X-2793D01*
X-2641D02*
X-2628D01*
X-2374D02*
X-2095D01*
X-1879D02*
X-1675D01*
X-1282D02*
X-1066D01*
X-875D02*
X-621D01*
X-355D02*
X-101D01*
X153D02*
X255D01*
X611D02*
X839D01*
X1462D02*
X1728D01*
X1982D02*
X2262D01*
X2452D02*
X2706D01*
X2986D02*
X3227D01*
X3405D02*
X3671D01*
X3925D02*
X4217D01*
X4408D02*
X4662D01*
X4929D02*
X5183D01*
X-4431Y11199D02*
X-4165D01*
X-3911D02*
X-3669D01*
X-3517D02*
X-3339D01*
X-3085D02*
X-2806D01*
X-2653D02*
X-2602D01*
X-2387D02*
X-2095D01*
X-1879D02*
X-1675D01*
X-1282D02*
X-1066D01*
X-875D02*
X-596D01*
X-367D02*
X-101D01*
X153D02*
X280D01*
X611D02*
X839D01*
X1462D02*
X1741D01*
X1969D02*
X2262D01*
X2465D02*
X2719D01*
X2973D02*
X3214D01*
X3417D02*
X3684D01*
X3913D02*
X4217D01*
X4408D02*
X4687D01*
X4903D02*
X5183D01*
X-4419Y11211D02*
X-4152D01*
X-3936D02*
X-3669D01*
X-3530D02*
X-3314D01*
X-3111D02*
X-2806D01*
X-2666D02*
X-2577D01*
X-2412D02*
X-2095D01*
X-1879D02*
X-1675D01*
X-1282D02*
X-1066D01*
X-863D02*
X-571D01*
X-393D02*
X-101D01*
X141D02*
X306D01*
X585D02*
X839D01*
X1462D02*
X1766D01*
X1944D02*
X2262D01*
X2465D02*
X2731D01*
X2960D02*
X3214D01*
X3417D02*
X3709D01*
X3887D02*
X4217D01*
X4408D02*
X4700D01*
X4878D02*
X5170D01*
X-4419Y11224D02*
X-4127D01*
X-3949D02*
X-3682D01*
X-3542D02*
X-3276D01*
X-3149D02*
X-2818D01*
X-2679D02*
X-2552D01*
X-2450D02*
X-2095D01*
X-1879D02*
X-1675D01*
X-1282D02*
X-1066D01*
X-863D02*
X-532D01*
X-431D02*
X-113D01*
X128D02*
X344D01*
X560D02*
X839D01*
X1474D02*
X1804D01*
X1906D02*
X2262D01*
X2477D02*
X2757D01*
X2935D02*
X3201D01*
X3417D02*
X3747D01*
X3862D02*
X4217D01*
X4421D02*
X4738D01*
X4840D02*
X5170D01*
X-4406Y11237D02*
X-4088D01*
X-3987D02*
X-3682D01*
X-3555D02*
X-2818D01*
X-2679D02*
X-2095D01*
X-1879D02*
X-1675D01*
X-1282D02*
X-1066D01*
X-850D02*
X-113D01*
X115D02*
X395D01*
X522D02*
X826D01*
X1474D02*
X2262D01*
X2477D02*
X2795D01*
X2897D02*
X3201D01*
X3417D02*
X4217D01*
X4421D02*
X5157D01*
X-4406Y11250D02*
X-3695D01*
X-3568D02*
X-2831D01*
X-2691D02*
X-2095D01*
X-1879D02*
X-1675D01*
X-1282D02*
X-1066D01*
X-850D02*
X-126D01*
X103D02*
X826D01*
X1474D02*
X2262D01*
X2490D02*
X3201D01*
X3430D02*
X4217D01*
X4433D02*
X5157D01*
X-4393Y11262D02*
X-3695D01*
X-3580D02*
X-2844D01*
X-2704D02*
X-2095D01*
X-1879D02*
X-1675D01*
X-1282D02*
X-1066D01*
X-837D02*
X-126D01*
X90D02*
X826D01*
X1487D02*
X2262D01*
X2490D02*
X3189D01*
X3430D02*
X4217D01*
X4433D02*
X5144D01*
X-4380Y11275D02*
X-3707D01*
X-3580D02*
X-2844D01*
X-2717D02*
X-2095D01*
X-1879D02*
X-1675D01*
X-1282D02*
X-1066D01*
X-825D02*
X-139D01*
X90D02*
X814D01*
X1500D02*
X2262D01*
X2503D02*
X3176D01*
X3443D02*
X4217D01*
X4446D02*
X5132D01*
X-4380Y11288D02*
X-3720D01*
X-3568D02*
X-2856D01*
X-2730D02*
X-2095D01*
X-1879D02*
X-1675D01*
X-1282D02*
X-1066D01*
X-825D02*
X-151D01*
X77D02*
X814D01*
X1500D02*
X2262D01*
X2516D02*
X3176D01*
X3443D02*
X4217D01*
X4459D02*
X5132D01*
X-4368Y11300D02*
X-3733D01*
X-3555D02*
X-2869D01*
X-2742D02*
X-2095D01*
X-1879D02*
X-1675D01*
X-1282D02*
X-1066D01*
X-812D02*
X-164D01*
X64D02*
X801D01*
X1512D02*
X2262D01*
X2528D02*
X3163D01*
X3455D02*
X4217D01*
X4471D02*
X5119D01*
X-4355Y11313D02*
X-3733D01*
X-3542D02*
X-2882D01*
X-2742D02*
X-2095D01*
X-1879D02*
X-1675D01*
X-1282D02*
X-1066D01*
X-799D02*
X-164D01*
X64D02*
X788D01*
X1512D02*
X2262D01*
X2541D02*
X3151D01*
X3468D02*
X4217D01*
X4471D02*
X5106D01*
X-4342Y11326D02*
X-3746D01*
X-3530D02*
X-2895D01*
X-2755D02*
X-2095D01*
X-1879D02*
X-1675D01*
X-1282D02*
X-1066D01*
X-786D02*
X-177D01*
X90D02*
X788D01*
X1525D02*
X2262D01*
X2541D02*
X3138D01*
X3468D02*
X4217D01*
X4484D02*
X5094D01*
X-4330Y11338D02*
X-3758D01*
X-3517D02*
X-2907D01*
X-2768D02*
X-2095D01*
X-1879D02*
X-1675D01*
X-1282D02*
X-1066D01*
X-774D02*
X-190D01*
X103D02*
X776D01*
X1538D02*
X2262D01*
X2554D02*
X3125D01*
X3481D02*
X4217D01*
X4497D02*
X5081D01*
X-4317Y11351D02*
X-3771D01*
X-3491D02*
X-2920D01*
X-2780D02*
X-2323D01*
X-2310D02*
X-2095D01*
X-1879D02*
X-1675D01*
X-1282D02*
X-1066D01*
X-761D02*
X-202D01*
X115D02*
X763D01*
X1550D02*
X2033D01*
X2046D02*
X2262D01*
X2579D02*
X3112D01*
X3493D02*
X3989D01*
X4002D02*
X4217D01*
X4522D02*
X5068D01*
X-4304Y11364D02*
X-3796D01*
X-3479D02*
X-2933D01*
X-2780D02*
X-2336D01*
X-2310D02*
X-2095D01*
X-1879D02*
X-1675D01*
X-1282D02*
X-1066D01*
X-748D02*
X-228D01*
X141D02*
X738D01*
X1563D02*
X2020D01*
X2046D02*
X2262D01*
X2592D02*
X3100D01*
X3506D02*
X3963D01*
X4002D02*
X4217D01*
X4535D02*
X5056D01*
X-4279Y11377D02*
X-3809D01*
X-3453D02*
X-2958D01*
X-2780D02*
X-2349D01*
X-2310D02*
X-2095D01*
X-1879D02*
X-1675D01*
X-1282D02*
X-1066D01*
X-723D02*
X-240D01*
X166D02*
X725D01*
X1589D02*
X2008D01*
X2046D02*
X2262D01*
X2605D02*
X3087D01*
X3532D02*
X3951D01*
X4002D02*
X4217D01*
X4548D02*
X5030D01*
X-4266Y11389D02*
X-3822D01*
X-3441D02*
X-2971D01*
X-2755D02*
X-2374D01*
X-2310D02*
X-2095D01*
X-1879D02*
X-1675D01*
X-1282D02*
X-1066D01*
X-710D02*
X-266D01*
X191D02*
X700D01*
X1601D02*
X1995D01*
X2046D02*
X2262D01*
X2630D02*
X3062D01*
X3544D02*
X3938D01*
X4002D02*
X4217D01*
X4573D02*
X5017D01*
X-4241Y11402D02*
X-3847D01*
X-3415D02*
X-3009D01*
X-2742D02*
X-2387D01*
X-2310D02*
X-2095D01*
X-1879D02*
X-1675D01*
X-1282D02*
X-1066D01*
X-685D02*
X-278D01*
X217D02*
X687D01*
X1614D02*
X1969D01*
X2046D02*
X2262D01*
X2655D02*
X3036D01*
X3570D02*
X3913D01*
X4002D02*
X4217D01*
X4586D02*
X4992D01*
X-4215Y11415D02*
X-3872D01*
X-3377D02*
X-3034D01*
X-2717D02*
X-2412D01*
X-2310D02*
X-2095D01*
X-1879D02*
X-1675D01*
X-1282D02*
X-1066D01*
X-659D02*
X-317D01*
X255D02*
X649D01*
X1639D02*
X1944D01*
X2046D02*
X2262D01*
X2681D02*
X3011D01*
X3595D02*
X3887D01*
X4002D02*
X4217D01*
X4624D02*
X4967D01*
X-4177Y11427D02*
X-3911D01*
X-3339D02*
X-3072D01*
X-2679D02*
X-2450D01*
X-2310D02*
X-2095D01*
X-1879D02*
X-1675D01*
X-1282D02*
X-1066D01*
X-621D02*
X-355D01*
X293D02*
X623D01*
X1677D02*
X1919D01*
X2046D02*
X2262D01*
X2719D02*
X2973D01*
X3621D02*
X3849D01*
X4002D02*
X4217D01*
X4662D02*
X4929D01*
X-4127Y11440D02*
X-3961D01*
X-3301D02*
X-3123D01*
X-2641D02*
X-2488D01*
X-571D02*
X-393D01*
X369D02*
X560D01*
X1715D02*
X1868D01*
X2757D02*
X2935D01*
X3671D02*
X3811D01*
X4700D02*
X4878D01*
X-1942Y12215D02*
X-1879D01*
X2630D02*
X2693D01*
X-1955Y12227D02*
X-1853D01*
X2605D02*
X2706D01*
X-1967Y12240D02*
X-1840D01*
X2592D02*
X2719D01*
X-1980Y12253D02*
X-1815D01*
X2566D02*
X2731D01*
X-1993Y12266D02*
X-1802D01*
X2554D02*
X2744D01*
X-2006Y12278D02*
X-1777D01*
X2528D02*
X2757D01*
X-2018Y12291D02*
X-1764D01*
X2516D02*
X2770D01*
X-2031Y12304D02*
X-1752D01*
X2503D02*
X2782D01*
X-2044Y12316D02*
X-1726D01*
X2477D02*
X2795D01*
X-2056Y12329D02*
X-1714D01*
X2465D02*
X2808D01*
X-2069Y12342D02*
X-1688D01*
X2439D02*
X2820D01*
X-2082Y12354D02*
X-1675D01*
X2427D02*
X2833D01*
X-2095Y12367D02*
X-1650D01*
X2401D02*
X2846D01*
X-2107Y12380D02*
X-1637D01*
X2389D02*
X2859D01*
X-2120Y12392D02*
X-1612D01*
X2363D02*
X2871D01*
X-2133Y12405D02*
X-1599D01*
X2351D02*
X2884D01*
X-2145Y12418D02*
X-1574D01*
X2325D02*
X2897D01*
X-2158Y12431D02*
X-1561D01*
X2312D02*
X2909D01*
X-2171Y12443D02*
X-1548D01*
X2300D02*
X2922D01*
X-2183Y12456D02*
X-1523D01*
X2274D02*
X2935D01*
X-2196Y12469D02*
X-1510D01*
X2262D02*
X2947D01*
X-2209Y12481D02*
X-1485D01*
X2236D02*
X2960D01*
X-2221Y12494D02*
X-1472D01*
X2224D02*
X2973D01*
X-2234Y12507D02*
X-1447D01*
X2198D02*
X2986D01*
X-2247Y12519D02*
X-1434D01*
X2185D02*
X2998D01*
X-2260Y12532D02*
X-1409D01*
X2160D02*
X3011D01*
X-2272Y12545D02*
X-1396D01*
X-748D02*
X-723D01*
X1474D02*
X1500D01*
X2147D02*
X3024D01*
X-2285Y12558D02*
X-1371D01*
X-786D02*
X-710D01*
X1462D02*
X1538D01*
X2122D02*
X3036D01*
X-2298Y12570D02*
X-1358D01*
X-799D02*
X-697D01*
X1449D02*
X1550D01*
X2109D02*
X3049D01*
X-2310Y12583D02*
X-1345D01*
X-825D02*
X-697D01*
X1449D02*
X1576D01*
X2096D02*
X3062D01*
X-2323Y12596D02*
X-1320D01*
X-850D02*
X-685D01*
X1436D02*
X1601D01*
X2071D02*
X3074D01*
X-2336Y12608D02*
X-1307D01*
X-875D02*
X-685D01*
X1436D02*
X1627D01*
X2058D02*
X3087D01*
X-2349Y12621D02*
X-1282D01*
X-901D02*
X-672D01*
X1423D02*
X1652D01*
X2033D02*
X3100D01*
X-2361Y12634D02*
X-1269D01*
X-926D02*
X-672D01*
X1423D02*
X1677D01*
X2020D02*
X3112D01*
X-2374Y12646D02*
X-1244D01*
X-951D02*
X-659D01*
X1411D02*
X1703D01*
X1995D02*
X3125D01*
X-2387Y12659D02*
X-1231D01*
X-977D02*
X-659D01*
X1411D02*
X1728D01*
X1982D02*
X3138D01*
X-2399Y12672D02*
X-1206D01*
X-990D02*
X-659D01*
X1411D02*
X1741D01*
X1957D02*
X3151D01*
X-2412Y12685D02*
X-1193D01*
X-1015D02*
X-647D01*
X1398D02*
X1766D01*
X1944D02*
X3163D01*
X-2425Y12697D02*
X-1167D01*
X-1040D02*
X-647D01*
X1398D02*
X1792D01*
X1919D02*
X3176D01*
X-2437Y12710D02*
X-1155D01*
X-1066D02*
X-634D01*
X1385D02*
X1817D01*
X1906D02*
X3189D01*
X-2450Y12723D02*
X-1129D01*
X-1104D02*
X-634D01*
X1385D02*
X1855D01*
X1881D02*
X3201D01*
X-2463Y12735D02*
X-634D01*
X1385D02*
X3214D01*
X-2476Y12748D02*
X-621D01*
X1373D02*
X3227D01*
X-2488Y12761D02*
X-621D01*
X1373D02*
X3240D01*
X-2501Y12774D02*
X-609D01*
X1360D02*
X3252D01*
X-2514Y12786D02*
X-609D01*
X1360D02*
X3265D01*
X-2526Y12799D02*
X-596D01*
X1347D02*
X3278D01*
X-2539Y12812D02*
X-596D01*
X1347D02*
X3290D01*
X-2552Y12824D02*
X-596D01*
X1347D02*
X3303D01*
X-2564Y12837D02*
X-583D01*
X1334D02*
X3316D01*
X-2577Y12850D02*
X-583D01*
X1334D02*
X3328D01*
X-2590Y12862D02*
X-571D01*
X1322D02*
X3341D01*
X-2602Y12875D02*
X-571D01*
X1322D02*
X3354D01*
X-2615Y12888D02*
X-571D01*
X1322D02*
X3366D01*
X-2628Y12901D02*
X-558D01*
X1309D02*
X3379D01*
X-2628Y12913D02*
X-558D01*
X1309D02*
X3379D01*
X-2641Y12926D02*
X-545D01*
X1296D02*
X3392D01*
X-2641Y12939D02*
X-545D01*
X1296D02*
X3392D01*
X-2628Y12951D02*
X-545D01*
X1296D02*
X3379D01*
X-2628Y12964D02*
X-532D01*
X1284D02*
X3379D01*
X-2628Y12977D02*
X-532D01*
X1284D02*
X3379D01*
X-2615Y12989D02*
X-520D01*
X1271D02*
X3366D01*
X-2602Y13002D02*
X-520D01*
X1271D02*
X3354D01*
X-2590Y13015D02*
X-507D01*
X1258D02*
X3341D01*
X-2590Y13028D02*
X-507D01*
X1258D02*
X3341D01*
X-2577Y13040D02*
X-507D01*
X1258D02*
X3328D01*
X-2564Y13053D02*
X-494D01*
X1246D02*
X3316D01*
X-2564Y13066D02*
X-494D01*
X1246D02*
X3316D01*
X-2552Y13078D02*
X-482D01*
X1233D02*
X3303D01*
X-2539Y13091D02*
X-482D01*
X1233D02*
X3290D01*
X-2539Y13104D02*
X-482D01*
X1233D02*
X3290D01*
X-2526Y13116D02*
X-469D01*
X1220D02*
X3278D01*
X-2514Y13129D02*
X-469D01*
X1220D02*
X3265D01*
X-2514Y13142D02*
X-456D01*
X1207D02*
X3265D01*
X-2501Y13155D02*
X-456D01*
X1207D02*
X3252D01*
X-2488Y13167D02*
X-444D01*
X1195D02*
X3240D01*
X-2488Y13180D02*
X-444D01*
X1195D02*
X3240D01*
X-2476Y13193D02*
X-444D01*
X1195D02*
X3227D01*
X-2463Y13205D02*
X-431D01*
X1182D02*
X3214D01*
X-2450Y13218D02*
X-431D01*
X1182D02*
X3201D01*
X-2450Y13231D02*
X-418D01*
X1169D02*
X3201D01*
X-2437Y13243D02*
X-418D01*
X1169D02*
X3189D01*
X-2425Y13256D02*
X-418D01*
X1169D02*
X3176D01*
X-2425Y13269D02*
X-405D01*
X1157D02*
X3176D01*
X-2412Y13281D02*
X-405D01*
X1157D02*
X3163D01*
X-2399Y13294D02*
X-393D01*
X1144D02*
X3151D01*
X-2399Y13307D02*
X-393D01*
X1144D02*
X3151D01*
X-2387Y13320D02*
X-393D01*
X1144D02*
X3138D01*
X-2374Y13332D02*
X-380D01*
X1131D02*
X3125D01*
X-2374Y13345D02*
X-380D01*
X1131D02*
X3125D01*
X-2361Y13358D02*
X-367D01*
X1119D02*
X3112D01*
X-2349Y13370D02*
X-367D01*
X1119D02*
X3100D01*
X-2349Y13383D02*
X-355D01*
X1106D02*
X3100D01*
X-2336Y13396D02*
X-355D01*
X1106D02*
X3087D01*
X-2323Y13408D02*
X-355D01*
X1106D02*
X3074D01*
X-2323Y13421D02*
X-342D01*
X1093D02*
X3074D01*
X-2310Y13434D02*
X-342D01*
X1093D02*
X3062D01*
X-2298Y13447D02*
X-329D01*
X1081D02*
X3049D01*
X-2285Y13459D02*
X-329D01*
X1081D02*
X3036D01*
X-2285Y13472D02*
X-329D01*
X1081D02*
X3036D01*
X-2272Y13485D02*
X-317D01*
X1068D02*
X3024D01*
X-2260Y13497D02*
X-317D01*
X1068D02*
X3011D01*
X-2260Y13510D02*
X-304D01*
X1055D02*
X3011D01*
X-2247Y13523D02*
X-304D01*
X1055D02*
X2998D01*
X-2234Y13535D02*
X-291D01*
X1042D02*
X2986D01*
X-2234Y13548D02*
X-291D01*
X1042D02*
X2986D01*
X-2221Y13561D02*
X-291D01*
X1042D02*
X2973D01*
X-2209Y13574D02*
X-278D01*
X1030D02*
X2960D01*
X-2209Y13586D02*
X-278D01*
X1030D02*
X2960D01*
X-2196Y13599D02*
X-266D01*
X1017D02*
X2947D01*
X-2183Y13612D02*
X-266D01*
X1017D02*
X2935D01*
X-2183Y13624D02*
X-266D01*
X1017D02*
X2935D01*
X-2171Y13637D02*
X-253D01*
X1004D02*
X2922D01*
X-2158Y13650D02*
X-253D01*
X1004D02*
X2909D01*
X-2145Y13663D02*
X-240D01*
X992D02*
X2897D01*
X-2145Y13675D02*
X-240D01*
X992D02*
X2897D01*
X-2133Y13688D02*
X-240D01*
X992D02*
X2884D01*
X-2120Y13701D02*
X-228D01*
X979D02*
X2871D01*
X-2120Y13713D02*
X-228D01*
X979D02*
X2871D01*
X-2107Y13726D02*
X-215D01*
X966D02*
X2859D01*
X-2107Y13739D02*
X-215D01*
X966D02*
X2859D01*
X-2107Y13751D02*
X-202D01*
X953D02*
X2859D01*
X-2107Y13764D02*
X-202D01*
X953D02*
X2859D01*
X-2107Y13777D02*
X-202D01*
X953D02*
X2859D01*
X-2120Y13790D02*
X-190D01*
X941D02*
X2871D01*
X-2120Y13802D02*
X-190D01*
X941D02*
X2871D01*
X-2133Y13815D02*
X-177D01*
X928D02*
X2884D01*
X-2133Y13828D02*
X-177D01*
X928D02*
X2884D01*
X-2133Y13840D02*
X-177D01*
X928D02*
X2884D01*
X-2145Y13853D02*
X-164D01*
X915D02*
X2897D01*
X-2145Y13866D02*
X-164D01*
X915D02*
X2897D01*
X-2158Y13878D02*
X-151D01*
X903D02*
X2909D01*
X-2158Y13891D02*
X-151D01*
X903D02*
X2909D01*
X-2158Y13904D02*
X-139D01*
X890D02*
X2909D01*
X-2171Y13917D02*
X-139D01*
X890D02*
X2922D01*
X-2171Y13929D02*
X-139D01*
X890D02*
X2922D01*
X-2183Y13942D02*
X-126D01*
X877D02*
X2935D01*
X-2183Y13955D02*
X-126D01*
X877D02*
X2935D01*
X-2183Y13967D02*
X-113D01*
X865D02*
X2935D01*
X-2196Y13980D02*
X-113D01*
X865D02*
X2947D01*
X-2196Y13993D02*
X-113D01*
X865D02*
X2947D01*
X-2209Y14005D02*
X-101D01*
X852D02*
X2960D01*
X-2209Y14018D02*
X-101D01*
X852D02*
X2960D01*
X-2209Y14031D02*
X-88D01*
X839D02*
X2960D01*
X-2221Y14043D02*
X-88D01*
X839D02*
X2973D01*
X-2221Y14056D02*
X-88D01*
X839D02*
X2973D01*
X-2234Y14069D02*
X-75D01*
X826D02*
X2986D01*
X-2234Y14082D02*
X-75D01*
X826D02*
X2986D01*
X-2234Y14094D02*
X-62D01*
X814D02*
X2986D01*
X-2247Y14107D02*
X-62D01*
X814D02*
X2998D01*
X-2247Y14120D02*
X-50D01*
X801D02*
X2998D01*
X-2260Y14132D02*
X-50D01*
X801D02*
X3011D01*
X-2260Y14145D02*
X-50D01*
X801D02*
X3011D01*
X-2260Y14158D02*
X-37D01*
X788D02*
X3011D01*
X-2272Y14170D02*
X-37D01*
X788D02*
X3024D01*
X-2272Y14183D02*
X-37D01*
X788D02*
X3024D01*
X-2285Y14196D02*
X-37D01*
X788D02*
X3036D01*
X-2285Y14209D02*
X-37D01*
X788D02*
X3036D01*
X-2285Y14221D02*
X-37D01*
X788D02*
X3036D01*
X-2298Y14234D02*
X-37D01*
X788D02*
X3049D01*
X-2298Y14247D02*
X-50D01*
X801D02*
X3049D01*
X-2310Y14259D02*
X-75D01*
X826D02*
X3062D01*
X-2310Y14272D02*
X-88D01*
X839D02*
X3062D01*
X-2310Y14285D02*
X-113D01*
X865D02*
X3062D01*
X-2323Y14297D02*
X-139D01*
X890D02*
X3074D01*
X-2323Y14310D02*
X-151D01*
X903D02*
X3074D01*
X-2336Y14323D02*
X-164D01*
X915D02*
X3087D01*
X-2336Y14336D02*
X-190D01*
X941D02*
X3087D01*
X-2336Y14348D02*
X-202D01*
X953D02*
X3087D01*
X-2349Y14361D02*
X-215D01*
X966D02*
X3100D01*
X-2349Y14374D02*
X-240D01*
X992D02*
X3100D01*
X-2361Y14386D02*
X-253D01*
X1004D02*
X3112D01*
X-2361Y14399D02*
X-266D01*
X1017D02*
X3112D01*
X-2361Y14412D02*
X-291D01*
X1042D02*
X3112D01*
X-2374Y14425D02*
X-304D01*
X1055D02*
X3125D01*
X-2374Y14437D02*
X-317D01*
X1068D02*
X3125D01*
X-2387Y14450D02*
X-329D01*
X1081D02*
X3138D01*
X-2387Y14463D02*
X-342D01*
X1093D02*
X3138D01*
X-2387Y14475D02*
X-355D01*
X1106D02*
X3138D01*
X-2399Y14488D02*
X-367D01*
X1119D02*
X3151D01*
X-2412Y14501D02*
X-380D01*
X1131D02*
X3163D01*
X-2425Y14513D02*
X-393D01*
X1144D02*
X3176D01*
X-2463Y14526D02*
X-405D01*
X1157D02*
X3214D01*
X-2539Y14539D02*
X-418D01*
X1169D02*
X3290D01*
X-2602Y14552D02*
X-431D01*
X1182D02*
X3354D01*
X-2666Y14564D02*
X-431D01*
X1182D02*
X3417D01*
X-2742Y14577D02*
X-444D01*
X1195D02*
X3493D01*
X-2806Y14590D02*
X-456D01*
X1207D02*
X3557D01*
X-2882Y14602D02*
X-469D01*
X1220D02*
X3633D01*
X-2945Y14615D02*
X-469D01*
X1220D02*
X3697D01*
X-3009Y14628D02*
X-482D01*
X1233D02*
X3760D01*
X-3085Y14640D02*
X-494D01*
X1246D02*
X3836D01*
X-3149Y14653D02*
X-494D01*
X1246D02*
X3900D01*
X-3212Y14666D02*
X-507D01*
X1258D02*
X3963D01*
X-3288Y14679D02*
X-520D01*
X1271D02*
X4040D01*
X-3352Y14691D02*
X-520D01*
X1271D02*
X4103D01*
X1284Y14704D02*
X4116D01*
X-3377Y14717D02*
X-545D01*
X1296D02*
X4128D01*
X-3377Y14729D02*
X-545D01*
X1296D02*
X4128D01*
X-3390Y14742D02*
X-558D01*
X1309D02*
X4141D01*
X-3390Y14755D02*
X-558D01*
X1309D02*
X4141D01*
X-3390Y14767D02*
X-558D01*
X1309D02*
X4141D01*
X-3390Y14780D02*
X-571D01*
X1322D02*
X4141D01*
X-3390Y14793D02*
X-571D01*
X1322D02*
X4141D01*
X-3390Y14806D02*
X-583D01*
X1334D02*
X4141D01*
X-3390Y14818D02*
X-583D01*
X1334D02*
X4141D01*
X-3390Y14831D02*
X-596D01*
X1347D02*
X4141D01*
X-3390Y14844D02*
X-596D01*
X1347D02*
X4141D01*
X-3390Y14856D02*
X-596D01*
X1347D02*
X4141D01*
X-3390Y14869D02*
X-609D01*
X1360D02*
X4141D01*
X-3390Y14882D02*
X-609D01*
X1360D02*
X4141D01*
X-3390Y14894D02*
X-609D01*
X1360D02*
X4141D01*
X-3390Y14907D02*
X-621D01*
X1373D02*
X4141D01*
X-3390Y14920D02*
X-621D01*
X1373D02*
X4141D01*
X-3390Y14932D02*
X-621D01*
X1373D02*
X4141D01*
X-3390Y14945D02*
X-634D01*
X1385D02*
X4141D01*
X-3390Y14958D02*
X-634D01*
X1385D02*
X4141D01*
X-3390Y14971D02*
X-634D01*
X1385D02*
X4141D01*
X-3390Y14983D02*
X-634D01*
X1385D02*
X4141D01*
X-3390Y14996D02*
X-647D01*
X1398D02*
X4141D01*
X-3390Y15009D02*
X-647D01*
X1398D02*
X4141D01*
X-3390Y15021D02*
X-647D01*
X1398D02*
X4141D01*
X-3390Y15034D02*
X-647D01*
X1398D02*
X4141D01*
X-3390Y15047D02*
X-647D01*
X1398D02*
X4141D01*
X-3390Y15059D02*
X-659D01*
X1411D02*
X4141D01*
X-3390Y15072D02*
X-659D01*
X1411D02*
X4141D01*
X-3390Y15085D02*
X-659D01*
X1411D02*
X4141D01*
X-3390Y15098D02*
X-659D01*
X1411D02*
X4141D01*
X-3390Y15110D02*
X-659D01*
X1411D02*
X4141D01*
X-3390Y15123D02*
X-659D01*
X1411D02*
X4141D01*
X-3390Y15136D02*
X-659D01*
X1411D02*
X4141D01*
X-3390Y15148D02*
X-659D01*
X1411D02*
X4141D01*
X-3390Y15161D02*
X-659D01*
X1411D02*
X4141D01*
X-3390Y15174D02*
X-659D01*
X1411D02*
X4141D01*
X-3390Y15186D02*
X-672D01*
X1423D02*
X4141D01*
X-3390Y15199D02*
X-672D01*
X1423D02*
X4141D01*
X-3390Y15212D02*
X-672D01*
X1423D02*
X4141D01*
X-3390Y15225D02*
X-672D01*
X1423D02*
X4141D01*
X-3390Y15237D02*
X-672D01*
X1423D02*
X4141D01*
X-3390Y15250D02*
X-672D01*
X1423D02*
X4141D01*
X-3390Y15263D02*
X-659D01*
X1411D02*
X4141D01*
X-3390Y15275D02*
X-659D01*
X1411D02*
X4141D01*
X-3390Y15288D02*
X-659D01*
X1411D02*
X4141D01*
X-3390Y15301D02*
X-659D01*
X1411D02*
X4141D01*
X-3390Y15314D02*
X-659D01*
X1411D02*
X4141D01*
X-3390Y15326D02*
X-659D01*
X1411D02*
X4141D01*
X-3390Y15339D02*
X-659D01*
X1411D02*
X4141D01*
X-3390Y15352D02*
X-659D01*
X1411D02*
X4141D01*
X-3390Y15364D02*
X-659D01*
X1411D02*
X4141D01*
X-3390Y15377D02*
X-659D01*
X1411D02*
X4141D01*
X-3390Y15390D02*
X-647D01*
X1398D02*
X4141D01*
X-3390Y15402D02*
X-647D01*
X1398D02*
X4141D01*
X-3390Y15415D02*
X-647D01*
X1398D02*
X4141D01*
X-3390Y15428D02*
X-647D01*
X1398D02*
X4141D01*
X-3390Y15441D02*
X-647D01*
X1398D02*
X4141D01*
X-3390Y15453D02*
X-634D01*
X1385D02*
X4141D01*
X-3390Y15466D02*
X-634D01*
X1385D02*
X4141D01*
X-3390Y15479D02*
X-634D01*
X1385D02*
X4141D01*
X-3390Y15491D02*
X-634D01*
X1385D02*
X4141D01*
X-3390Y15504D02*
X-621D01*
X1373D02*
X4141D01*
X-3390Y15517D02*
X-621D01*
X1373D02*
X4141D01*
X-3390Y15529D02*
X-621D01*
X1373D02*
X4141D01*
X-3390Y15542D02*
X-609D01*
X1360D02*
X4141D01*
X-3390Y15555D02*
X-609D01*
X1360D02*
X4141D01*
X-3390Y15568D02*
X-609D01*
X1360D02*
X4141D01*
X-3390Y15580D02*
X-596D01*
X1347D02*
X4141D01*
X-3390Y15593D02*
X-596D01*
X1347D02*
X4141D01*
X-3390Y15606D02*
X-596D01*
X1347D02*
X4141D01*
X-3390Y15618D02*
X-583D01*
X1334D02*
X4141D01*
X-3390Y15631D02*
X-583D01*
X1334D02*
X4141D01*
X-3390Y15644D02*
X-571D01*
X1322D02*
X4141D01*
X-3390Y15656D02*
X-571D01*
X1322D02*
X4141D01*
X-3390Y15669D02*
X-558D01*
X1309D02*
X4141D01*
X-3390Y15682D02*
X-558D01*
X1309D02*
X4141D01*
X-3390Y15694D02*
X-545D01*
X1296D02*
X4141D01*
X-3390Y15707D02*
X-545D01*
X1296D02*
X4141D01*
X-3377Y15720D02*
X-532D01*
X1284D02*
X4128D01*
X-3377Y15733D02*
X-532D01*
X1284D02*
X4128D01*
X-3352Y15745D02*
X-520D01*
X1271D02*
X4103D01*
X-3301Y15758D02*
X-507D01*
X1258D02*
X4052D01*
X-3237Y15771D02*
X-507D01*
X1258D02*
X3989D01*
X-3161Y15783D02*
X-494D01*
X1246D02*
X3913D01*
X-3098Y15796D02*
X-494D01*
X1246D02*
X3849D01*
X-3034Y15809D02*
X-482D01*
X1233D02*
X3786D01*
X-2958Y15821D02*
X-469D01*
X1220D02*
X3709D01*
X-2895Y15834D02*
X-456D01*
X1207D02*
X3646D01*
X-2818Y15847D02*
X-456D01*
X1207D02*
X3570D01*
X-2755Y15860D02*
X-444D01*
X1195D02*
X3506D01*
X-2691Y15872D02*
X-431D01*
X1182D02*
X3443D01*
X-2615Y15885D02*
X-418D01*
X1169D02*
X3366D01*
X-2552Y15898D02*
X-405D01*
X1157D02*
X3303D01*
X-2488Y15910D02*
X-393D01*
X1144D02*
X3240D01*
X-2425Y15923D02*
X-393D01*
X1144D02*
X3176D01*
X-2399Y15936D02*
X-380D01*
X1131D02*
X3151D01*
X-2387Y15948D02*
X-367D01*
X1119D02*
X3138D01*
X-2374Y15961D02*
X-355D01*
X1106D02*
X3125D01*
X-2361Y15974D02*
X-342D01*
X1093D02*
X3112D01*
X-2361Y15987D02*
X-317D01*
X1068D02*
X3112D01*
X-2361Y15999D02*
X-304D01*
X1055D02*
X3112D01*
X-2349Y16012D02*
X-291D01*
X1042D02*
X3100D01*
X-2349Y16025D02*
X-278D01*
X1030D02*
X3100D01*
X-2336Y16037D02*
X-266D01*
X1017D02*
X3087D01*
X-2336Y16050D02*
X-240D01*
X992D02*
X3087D01*
X-2323Y16063D02*
X-228D01*
X979D02*
X3074D01*
X-2323Y16076D02*
X-215D01*
X966D02*
X3074D01*
X-2323Y16088D02*
X-190D01*
X941D02*
X3074D01*
X-2310Y16101D02*
X-164D01*
X915D02*
X3062D01*
X-2310Y16114D02*
X-151D01*
X903D02*
X3062D01*
X-2298Y16126D02*
X-126D01*
X877D02*
X3049D01*
X-2298Y16139D02*
X-101D01*
X852D02*
X3049D01*
X-2285Y16152D02*
X-75D01*
X826D02*
X3036D01*
X-2285Y16164D02*
X-50D01*
X801D02*
X3036D01*
X-2285Y16177D02*
X-24D01*
X776D02*
X3036D01*
X-2272Y16190D02*
X14D01*
X738D02*
X3024D01*
X-2272Y16202D02*
X39D01*
X712D02*
X3024D01*
X-2260Y16215D02*
X90D01*
X661D02*
X3011D01*
X-2260Y16228D02*
X128D01*
X623D02*
X3011D01*
X-2247Y16241D02*
X191D01*
X560D02*
X2998D01*
X-2247Y16253D02*
X280D01*
X471D02*
X2998D01*
X-2247Y16266D02*
X2998D01*
X-2234Y16279D02*
X2986D01*
X-2234Y16291D02*
X2986D01*
X-2221Y16304D02*
X2973D01*
X-2221Y16317D02*
X2973D01*
X-2209Y16330D02*
X2960D01*
X-2209Y16342D02*
X2960D01*
X-2209Y16355D02*
X2960D01*
X-2196Y16368D02*
X2947D01*
X-2196Y16380D02*
X2947D01*
X-2183Y16393D02*
X2935D01*
X-2183Y16406D02*
X2935D01*
X-2171Y16418D02*
X2922D01*
X-2171Y16431D02*
X2922D01*
X-2171Y16444D02*
X2922D01*
X-2158Y16456D02*
X2909D01*
X-2158Y16469D02*
X2909D01*
X-2145Y16482D02*
X2897D01*
X-2145Y16495D02*
X2897D01*
X-2133Y16507D02*
X2884D01*
X-2133Y16520D02*
X2884D01*
X-2133Y16533D02*
X2884D01*
X-2120Y16545D02*
X2871D01*
X-2120Y16558D02*
X2871D01*
X-2107Y16571D02*
X2859D01*
X-2107Y16583D02*
X2859D01*
X-2095Y16596D02*
X2846D01*
X-2095Y16609D02*
X2846D01*
X-2095Y16622D02*
X2846D01*
X-2082Y16634D02*
X2833D01*
X-2082Y16647D02*
X2833D01*
X-2082Y16660D02*
X2833D01*
X-2082Y16672D02*
X2833D01*
X-2095Y16685D02*
X2846D01*
X-2095Y16698D02*
X2846D01*
X-2107Y16711D02*
X2859D01*
X-2120Y16723D02*
X2871D01*
X-2120Y16736D02*
X2871D01*
X-2133Y16749D02*
X2884D01*
X-2145Y16761D02*
X2897D01*
X-2145Y16774D02*
X2897D01*
X-2158Y16787D02*
X2909D01*
X-2171Y16799D02*
X2922D01*
X-2171Y16812D02*
X2922D01*
X-2183Y16825D02*
X2935D01*
X-2196Y16837D02*
X2947D01*
X-2196Y16850D02*
X2947D01*
X-2209Y16863D02*
X2960D01*
X-2221Y16876D02*
X2973D01*
X-2221Y16888D02*
X2973D01*
X-2234Y16901D02*
X2986D01*
X-2247Y16914D02*
X2998D01*
X-2260Y16926D02*
X3011D01*
X-2260Y16939D02*
X3011D01*
X-2272Y16952D02*
X3024D01*
X-2285Y16965D02*
X3036D01*
X-2285Y16977D02*
X3036D01*
X-2298Y16990D02*
X3049D01*
X-2310Y17003D02*
X3062D01*
X-2310Y17015D02*
X3062D01*
X-2323Y17028D02*
X3074D01*
X-2336Y17041D02*
X3087D01*
X-2336Y17053D02*
X3087D01*
X-2349Y17066D02*
X3100D01*
X-2361Y17079D02*
X3112D01*
X-2361Y17091D02*
X3112D01*
X-2374Y17104D02*
X3125D01*
X-2387Y17117D02*
X3138D01*
X-2399Y17130D02*
X3151D01*
X-2399Y17142D02*
X3151D01*
X-2412Y17155D02*
X3163D01*
X-2425Y17168D02*
X3176D01*
X-2425Y17180D02*
X3176D01*
X-2437Y17193D02*
X3189D01*
X-2450Y17206D02*
X3201D01*
X-2450Y17219D02*
X3201D01*
X-2463Y17231D02*
X3214D01*
X-2476Y17244D02*
X3227D01*
X-2476Y17257D02*
X3227D01*
X-2488Y17269D02*
X3240D01*
X-2501Y17282D02*
X3252D01*
X-2501Y17295D02*
X3252D01*
X-2514Y17307D02*
X3265D01*
X-2526Y17320D02*
X3278D01*
X-2526Y17333D02*
X3278D01*
X-2539Y17346D02*
X3290D01*
X-2552Y17358D02*
X3303D01*
X-2564Y17371D02*
X3316D01*
X-2564Y17384D02*
X3316D01*
X-2577Y17396D02*
X3328D01*
X-2590Y17409D02*
X3341D01*
X-2590Y17422D02*
X3341D01*
X-2602Y17434D02*
X3354D01*
X-2615Y17447D02*
X3366D01*
X-2615Y17460D02*
X3366D01*
X-2628Y17472D02*
X3379D01*
X-2628Y17485D02*
X3379D01*
X-2628Y17498D02*
X3379D01*
X-2641Y17511D02*
X3392D01*
X-2628Y17523D02*
X3379D01*
X-2628Y17536D02*
X3379D01*
X-2615Y17549D02*
X3366D01*
X-2602Y17561D02*
X3354D01*
X-2590Y17574D02*
X3341D01*
X-2577Y17587D02*
X3328D01*
X-2564Y17600D02*
X3316D01*
X-2552Y17612D02*
X3303D01*
X-2539Y17625D02*
X3290D01*
X-2526Y17638D02*
X3278D01*
X-2514Y17650D02*
X3265D01*
X-2501Y17663D02*
X3252D01*
X-2488Y17676D02*
X-1079D01*
X-1015D02*
X1766D01*
X1830D02*
X3240D01*
X-2476Y17688D02*
X-1091D01*
X-977D02*
X1728D01*
X1842D02*
X3227D01*
X-2463Y17701D02*
X-1117D01*
X-951D02*
X1703D01*
X1868D02*
X3214D01*
X-2450Y17714D02*
X-1129D01*
X-913D02*
X1665D01*
X1881D02*
X3201D01*
X-2437Y17726D02*
X-1155D01*
X-888D02*
X1639D01*
X1906D02*
X3189D01*
X-2425Y17739D02*
X-1167D01*
X-850D02*
X1601D01*
X1919D02*
X3176D01*
X-2412Y17752D02*
X-1193D01*
X-825D02*
X1576D01*
X1944D02*
X3163D01*
X-2399Y17765D02*
X-1206D01*
X-786D02*
X1538D01*
X1957D02*
X3151D01*
X-2387Y17777D02*
X-1218D01*
X-761D02*
X1512D01*
X1969D02*
X3138D01*
X-2374Y17790D02*
X-1244D01*
X-736D02*
X1487D01*
X1995D02*
X3125D01*
X-2361Y17803D02*
X-1256D01*
X-697D02*
X1449D01*
X2008D02*
X3112D01*
X-2349Y17815D02*
X-1282D01*
X-672D02*
X1423D01*
X2033D02*
X3100D01*
X-2336Y17828D02*
X-1294D01*
X-634D02*
X1385D01*
X2046D02*
X3087D01*
X-2323Y17841D02*
X-1320D01*
X-609D02*
X1360D01*
X2071D02*
X3074D01*
X-2310Y17854D02*
X-1332D01*
X-571D02*
X1322D01*
X2084D02*
X3062D01*
X-2298Y17866D02*
X-1358D01*
X-545D02*
X1296D01*
X2109D02*
X3049D01*
X-2285Y17879D02*
X-1371D01*
X-520D02*
X1258D01*
X2122D02*
X3036D01*
X-2272Y17892D02*
X-1396D01*
X-482D02*
X1233D01*
X2147D02*
X3024D01*
X-2260Y17904D02*
X-1409D01*
X-456D02*
X1207D01*
X2160D02*
X3011D01*
X-2247Y17917D02*
X-1421D01*
X-418D02*
X1169D01*
X2173D02*
X2998D01*
X-2234Y17930D02*
X-1447D01*
X-393D02*
X1144D01*
X2198D02*
X2986D01*
X-2221Y17942D02*
X-1459D01*
X-367D02*
X1119D01*
X2211D02*
X2973D01*
X-2209Y17955D02*
X-1485D01*
X-355D02*
X1106D01*
X2236D02*
X2960D01*
X-2196Y17968D02*
X-1498D01*
X-342D02*
X1093D01*
X2249D02*
X2947D01*
X-2183Y17980D02*
X-1523D01*
X-342D02*
X1081D01*
X2274D02*
X2935D01*
X-2171Y17993D02*
X-1536D01*
X-329D02*
X1081D01*
X2287D02*
X2922D01*
X-2158Y18006D02*
X-1561D01*
X-329D02*
X1081D01*
X2312D02*
X2909D01*
X-2145Y18019D02*
X-1574D01*
X-329D02*
X1081D01*
X2325D02*
X2897D01*
X-2133Y18031D02*
X-1599D01*
X-329D02*
X1081D01*
X2351D02*
X2884D01*
X-2120Y18044D02*
X-1612D01*
X-317D02*
X1068D01*
X2363D02*
X2871D01*
X-2107Y18057D02*
X-1637D01*
X-317D02*
X1068D01*
X2389D02*
X2859D01*
X-2095Y18069D02*
X-1650D01*
X-317D02*
X1068D01*
X2401D02*
X2846D01*
X-2082Y18082D02*
X-1663D01*
X-317D02*
X1068D01*
X2414D02*
X2833D01*
X-2069Y18095D02*
X-1688D01*
X-317D02*
X1068D01*
X2439D02*
X2820D01*
X-2056Y18108D02*
X-1701D01*
X-304D02*
X1055D01*
X2452D02*
X2808D01*
X-2044Y18120D02*
X-1726D01*
X-304D02*
X1055D01*
X2477D02*
X2795D01*
X-2031Y18133D02*
X-1739D01*
X-304D02*
X1055D01*
X2490D02*
X2782D01*
X-2018Y18146D02*
X-1764D01*
X-304D02*
X1055D01*
X2516D02*
X2770D01*
X-2006Y18158D02*
X-1777D01*
X-304D02*
X1055D01*
X2528D02*
X2757D01*
X-1993Y18171D02*
X-1802D01*
X-304D02*
X1055D01*
X2554D02*
X2744D01*
X-1980Y18184D02*
X-1815D01*
X-291D02*
X1042D01*
X2566D02*
X2731D01*
X-1967Y18196D02*
X-1840D01*
X-291D02*
X1042D01*
X2592D02*
X2719D01*
X-1955Y18209D02*
X-1853D01*
X-291D02*
X1042D01*
X2605D02*
X2706D01*
X-1942Y18222D02*
X-1866D01*
X-291D02*
X1042D01*
X2617D02*
X2693D01*
X-291Y18235D02*
X1042D01*
X-278Y18247D02*
X1030D01*
X-278Y18260D02*
X1030D01*
X-278Y18273D02*
X1030D01*
X-278Y18285D02*
X1030D01*
X-278Y18298D02*
X1030D01*
X-266Y18311D02*
X1017D01*
X-266Y18323D02*
X1017D01*
X-266Y18336D02*
X1017D01*
X-266Y18349D02*
X1017D01*
X-266Y18361D02*
X1017D01*
X-266Y18374D02*
X1017D01*
X-253Y18387D02*
X1004D01*
X-253Y18400D02*
X1004D01*
X-253Y18412D02*
X1004D01*
X-253Y18425D02*
X1004D01*
X-253Y18438D02*
X1004D01*
X-240Y18450D02*
X992D01*
X-240Y18463D02*
X992D01*
X-240Y18476D02*
X992D01*
X-240Y18489D02*
X992D01*
X-240Y18501D02*
X992D01*
X-240Y18514D02*
X979D01*
X-228Y18527D02*
X979D01*
X-228Y18539D02*
X979D01*
X-228Y18552D02*
X979D01*
X-228Y18565D02*
X979D01*
X-228Y18577D02*
X979D01*
X-215Y18590D02*
X966D01*
X-215Y18603D02*
X966D01*
X-215Y18615D02*
X966D01*
X-215Y18628D02*
X966D01*
X-215Y18641D02*
X966D01*
X-202Y18654D02*
X953D01*
X-202Y18666D02*
X953D01*
X-202Y18679D02*
X953D01*
X-202Y18692D02*
X953D01*
X-202Y18704D02*
X953D01*
X-202Y18717D02*
X953D01*
X-190Y18730D02*
X941D01*
X-190Y18743D02*
X941D01*
X-190Y18755D02*
X941D01*
X-190Y18768D02*
X941D01*
X-190Y18781D02*
X941D01*
X-177Y18793D02*
X928D01*
X-177Y18806D02*
X928D01*
X-177Y18819D02*
X928D01*
X-177Y18831D02*
X928D01*
X-177Y18844D02*
X928D01*
X-164Y18857D02*
X915D01*
X-164Y18869D02*
X915D01*
X-164Y18882D02*
X915D01*
X-164Y18895D02*
X915D01*
X-164Y18908D02*
X915D01*
X-164Y18920D02*
X915D01*
X-151Y18933D02*
X903D01*
X-151Y18946D02*
X903D01*
X-139Y18958D02*
X890D01*
X-139Y18971D02*
X890D01*
D65*
X-778Y28349D02*
X911D01*
X-884Y24277D02*
X1000D01*
X-778Y28366D02*
X894D01*
X-760Y28384D02*
X894D01*
X-760Y28402D02*
X876D01*
X-742Y28420D02*
X876D01*
X-724Y28438D02*
X858D01*
X-724Y28455D02*
X840D01*
X-707Y28473D02*
X840D01*
X-707Y28491D02*
X823D01*
X-689Y28509D02*
X823D01*
X-689Y28526D02*
X805D01*
X-671Y28544D02*
X805D01*
X-653Y28562D02*
X787D01*
X-653Y28580D02*
X769D01*
X-635Y28598D02*
X769D01*
X-635Y26393D02*
X769D01*
X-635Y26411D02*
X769D01*
X-653Y26428D02*
X787D01*
X-671Y26446D02*
X787D01*
X-671Y26464D02*
X805D01*
X-689Y26482D02*
X805D01*
X-707Y26499D02*
X823D01*
X-707Y26517D02*
X840D01*
X-707Y26535D02*
X840D01*
X-724Y26553D02*
X858D01*
X-742Y26571D02*
X858D01*
X-742Y26588D02*
X876D01*
X-760Y26606D02*
X876D01*
X-778Y26624D02*
X894D01*
X-778Y26642D02*
X911D01*
X-795Y26660D02*
X911D01*
X-795Y26677D02*
X929D01*
X-813Y26695D02*
X929D01*
X-813Y26713D02*
X947D01*
X-831Y26731D02*
X947D01*
X-849Y26748D02*
X965D01*
X-849Y26766D02*
X983D01*
X-867Y26784D02*
X983D01*
X-867Y26802D02*
X1000D01*
X-884Y26820D02*
X1000D01*
X-884Y26837D02*
X1018D01*
X-902Y26855D02*
X1036D01*
X-920Y26873D02*
X1036D01*
X-920Y26891D02*
X1054D01*
X-938Y26908D02*
X1054D01*
X-938Y26926D02*
X1071D01*
X-955Y26944D02*
X1071D01*
X-973Y26962D02*
X1089D01*
X-973Y26980D02*
X1107D01*
X-991Y26997D02*
X1107D01*
X-991Y27015D02*
X1125D01*
X-1009Y27033D02*
X1143D01*
X-1009Y27051D02*
X1143D01*
X-1027Y27068D02*
X1143D01*
X-1027Y27086D02*
X1160D01*
X-1044Y27104D02*
X1178D01*
X-1062Y27122D02*
X1178D01*
X-1062Y27140D02*
X1196D01*
X-1080Y27157D02*
X1196D01*
X-1098Y27175D02*
X1214D01*
X-1098Y27193D02*
X1231D01*
X-1098Y27211D02*
X1231D01*
X-1115Y27228D02*
X1249D01*
X-1133Y27246D02*
X1249D01*
X-1133Y27264D02*
X1267D01*
X-1151Y27282D02*
X1267D01*
X-1151Y27300D02*
X1285D01*
X-1169Y27317D02*
X1303D01*
X-1187Y27335D02*
X1303D01*
X-1187Y27353D02*
X1320D01*
X-1204Y27371D02*
X1320D01*
X-1204Y27388D02*
X1338D01*
X-1222Y27406D02*
X1356D01*
X-1222Y27424D02*
X1356D01*
X-1240Y27442D02*
X1374D01*
X-1258Y27460D02*
X1374D01*
X-1258Y27477D02*
X1391D01*
X-1276Y27495D02*
X1391D01*
X-1276Y27513D02*
X1391D01*
X-1258Y27531D02*
X1391D01*
X-1240Y27549D02*
X1374D01*
X-1240Y27566D02*
X1356D01*
X-1222Y27584D02*
X1356D01*
X-1222Y27602D02*
X1338D01*
X-1204Y27620D02*
X1338D01*
X-1204Y27637D02*
X1320D01*
X-1187Y27655D02*
X1320D01*
X-1169Y27673D02*
X1303D01*
X-1169Y27691D02*
X1285D01*
X-1151Y27709D02*
X1285D01*
X-1151Y27726D02*
X1267D01*
X-1133Y27744D02*
X1267D01*
X-1115Y27762D02*
X1249D01*
X-1115Y27780D02*
X1249D01*
X-1098Y27797D02*
X1231D01*
X-1098Y27815D02*
X1214D01*
X-1080Y27833D02*
X1214D01*
X-1080Y27851D02*
X1196D01*
X-1062Y27869D02*
X1178D01*
X-1044Y27886D02*
X1178D01*
X-1044Y27904D02*
X1160D01*
X-1027Y27922D02*
X1160D01*
X-1027Y27940D02*
X1143D01*
X-1009Y27957D02*
X1143D01*
X-991Y27975D02*
X1125D01*
X-991Y27993D02*
X1125D01*
X-973Y28011D02*
X1107D01*
X-973Y28029D02*
X1089D01*
X-955Y28046D02*
X1089D01*
X-955Y28064D02*
X1071D01*
X-938Y28082D02*
X1071D01*
X-920Y28100D02*
X1054D01*
X-920Y28117D02*
X1036D01*
X-902Y28135D02*
X1036D01*
X-902Y28153D02*
X1018D01*
X-884Y28171D02*
X1018D01*
X-884Y28189D02*
X1000D01*
X-867Y28206D02*
X1000D01*
X-849Y28224D02*
X983D01*
X-849Y28242D02*
X965D01*
X-831Y28260D02*
X965D01*
X-831Y28277D02*
X947D01*
X-813Y28295D02*
X947D01*
X-813Y28313D02*
X929D01*
X-795Y28331D02*
X929D01*
X-884Y24295D02*
X1018D01*
X-902Y24313D02*
X1036D01*
X-920Y24330D02*
X1036D01*
X-920Y24348D02*
X1054D01*
X-938Y24366D02*
X1054D01*
X-938Y24384D02*
X1071D01*
X-955Y24401D02*
X1089D01*
X-973Y24419D02*
X1089D01*
X-973Y24437D02*
X1107D01*
X-991Y24455D02*
X1107D01*
X-991Y24473D02*
X1125D01*
X-1009Y24490D02*
X1125D01*
X-1009Y24508D02*
X1143D01*
X-1027Y24526D02*
X1160D01*
X-1044Y24544D02*
X1160D01*
X-1044Y24561D02*
X1178D01*
X-1062Y24579D02*
X1178D01*
X-1062Y24597D02*
X1196D01*
X-1080Y24615D02*
X1196D01*
X-1080Y24633D02*
X1214D01*
X-1098Y24650D02*
X1231D01*
X-1115Y24668D02*
X1231D01*
X-1115Y24686D02*
X1249D01*
X-1133Y24704D02*
X1249D01*
X-1151Y24721D02*
X1267D01*
X-1151Y24739D02*
X1285D01*
X-1151Y24757D02*
X1285D01*
X-1169Y24775D02*
X1303D01*
X-1187Y24793D02*
X1303D01*
X-1187Y24810D02*
X1320D01*
X-1204Y24828D02*
X1320D01*
X-1204Y24846D02*
X1338D01*
X-1222Y24864D02*
X1356D01*
X-1240Y24882D02*
X1356D01*
X-1240Y24899D02*
X1374D01*
X-1258Y24917D02*
X1374D01*
X-1258Y24935D02*
X1391D01*
X-1276Y24953D02*
X1409D01*
X-1276Y24970D02*
X1391D01*
X-1258Y24988D02*
X1391D01*
X-1240Y25006D02*
X1374D01*
X-1240Y25024D02*
X1374D01*
X-1222Y25042D02*
X1356D01*
X-1222Y25059D02*
X1356D01*
X-1204Y25077D02*
X1338D01*
X-1204Y25095D02*
X1320D01*
X-1187Y25113D02*
X1320D01*
X-1169Y25130D02*
X1303D01*
X-1169Y25148D02*
X1285D01*
X-1151Y25166D02*
X1285D01*
X-1151Y25184D02*
X1267D01*
X-1133Y25202D02*
X1267D01*
X-1133Y25219D02*
X1249D01*
X-1115Y25237D02*
X1249D01*
X-1098Y25255D02*
X1231D01*
X-1098Y25273D02*
X1214D01*
X-1080Y25290D02*
X1214D01*
X-1080Y25308D02*
X1196D01*
X-1062Y25326D02*
X1196D01*
X-1062Y25344D02*
X1178D01*
X-1044Y25362D02*
X1160D01*
X-1027Y25379D02*
X1160D01*
X-1027Y25397D02*
X1160D01*
X-1009Y25415D02*
X1143D01*
X-1009Y25433D02*
X1125D01*
X-991Y25450D02*
X1125D01*
X-991Y25468D02*
X1107D01*
X-973Y25486D02*
X1089D01*
X-955Y25504D02*
X1089D01*
X-955Y25522D02*
X1071D01*
X-938Y25539D02*
X1071D01*
X-920Y25557D02*
X1054D01*
X-920Y25575D02*
X1054D01*
X-920Y25593D02*
X1036D01*
X-902Y25610D02*
X1018D01*
X-884Y25628D02*
X1018D01*
X-884Y25646D02*
X1000D01*
X-867Y25664D02*
X1000D01*
X-849Y25682D02*
X983D01*
X-849Y25699D02*
X983D01*
X-831Y25717D02*
X965D01*
X-831Y25735D02*
X947D01*
X-813Y25753D02*
X947D01*
X-813Y25771D02*
X929D01*
X-795Y25788D02*
X929D01*
X-778Y25806D02*
X911D01*
X-778Y25824D02*
X894D01*
X-760Y25842D02*
X894D01*
X-760Y25859D02*
X876D01*
X-742Y25877D02*
X876D01*
X-724Y25895D02*
X858D01*
X-724Y25913D02*
X858D01*
X-707Y25931D02*
X840D01*
X-707Y25948D02*
X823D01*
X-689Y25966D02*
X823D01*
X-689Y25984D02*
X805D01*
X-671Y26002D02*
X805D01*
X-653Y26019D02*
X787D01*
X-653Y26037D02*
X769D01*
X-635Y26055D02*
X769D01*
X-635Y26073D02*
X769D01*
X-635Y23850D02*
X769D01*
X-653Y23868D02*
X769D01*
X-653Y23886D02*
X787D01*
X-671Y23904D02*
X787D01*
X-671Y23921D02*
X805D01*
X-689Y23939D02*
X823D01*
X-689Y23957D02*
X823D01*
X-707Y23975D02*
X840D01*
X-724Y23993D02*
X840D01*
X-724Y24010D02*
X858D01*
X-742Y24028D02*
X858D01*
X-760Y24046D02*
X876D01*
X-760Y24064D02*
X894D01*
X-760Y24081D02*
X894D01*
X-778Y24099D02*
X911D01*
X-795Y24117D02*
X911D01*
X-795Y24135D02*
X929D01*
X-813Y24153D02*
X929D01*
X-831Y24170D02*
X947D01*
X-831Y24188D02*
X965D01*
X-849Y24206D02*
X965D01*
X-849Y24224D02*
X983D01*
X-867Y24241D02*
X1000D01*
X-867Y24259D02*
X1000D01*
X-3427Y26304D02*
X-849D01*
X-3142Y24277D02*
X-1151D01*
X965Y26304D02*
X3561D01*
X1267Y24277D02*
X3258D01*
X-635Y28615D02*
X751D01*
X-618Y28633D02*
X751D01*
X-600Y28651D02*
X734D01*
X-3427Y26322D02*
X-849D01*
X-3409Y26339D02*
X-867D01*
X-3409Y26357D02*
X-884D01*
X-618D02*
X734D01*
X-3391Y26375D02*
X-884D01*
X-618D02*
X751D01*
X-3374Y26393D02*
X-902D01*
X-3374Y26411D02*
X-902D01*
X-3356Y26428D02*
X-920D01*
X-3356Y26446D02*
X-920D01*
X-3338Y26464D02*
X-938D01*
X-3338Y26482D02*
X-955D01*
X-3320Y26499D02*
X-955D01*
X-3302Y26517D02*
X-973D01*
X-3302Y26535D02*
X-973D01*
X-3285Y26553D02*
X-991D01*
X-3285Y26571D02*
X-991D01*
X-3267Y26588D02*
X-1009D01*
X-3267Y26606D02*
X-1027D01*
X-3249Y26624D02*
X-1027D01*
X-3231Y26642D02*
X-1044D01*
X-3231Y26660D02*
X-1044D01*
X-3214Y26677D02*
X-1062D01*
X-3214Y26695D02*
X-1062D01*
X-3196Y26713D02*
X-1080D01*
X-3196Y26731D02*
X-1098D01*
X-3178Y26748D02*
X-1098D01*
X-3160Y26766D02*
X-1115D01*
X-3160Y26784D02*
X-1115D01*
X-3142Y26802D02*
X-1133D01*
X-3142Y26820D02*
X-1133D01*
X-3125Y26837D02*
X-1151D01*
X-3107Y26855D02*
X-1169D01*
X-3107Y26873D02*
X-1169D01*
X-3089Y26891D02*
X-1187D01*
X-3089Y26908D02*
X-1204D01*
X-3071Y26926D02*
X-1204D01*
X-3071Y26944D02*
X-1204D01*
X-3054Y26962D02*
X-1222D01*
X-3036Y26980D02*
X-1240D01*
X-3036Y26997D02*
X-1240D01*
X-3018Y27015D02*
X-1258D01*
X-3018Y27033D02*
X-1258D01*
X-3000Y27051D02*
X-1276D01*
X-3000Y27068D02*
X-1293D01*
X-2982Y27086D02*
X-1293D01*
X-2965Y27104D02*
X-1311D01*
X-2965Y27122D02*
X-1311D01*
X-2947Y27140D02*
X-1329D01*
X-2947Y27157D02*
X-1329D01*
X-2929Y27175D02*
X-1347D01*
X-2911Y27193D02*
X-1364D01*
X-2911Y27211D02*
X-1364D01*
X-2894Y27228D02*
X-1382D01*
X-2894Y27246D02*
X-1400D01*
X-2876Y27264D02*
X-1400D01*
X-2876Y27282D02*
X-1418D01*
X-2858Y27300D02*
X-1418D01*
X-2840Y27317D02*
X-1436D01*
X-2840Y27335D02*
X-1436D01*
X-2822Y27353D02*
X-1453D01*
X-2822Y27371D02*
X-1453D01*
X-2805Y27388D02*
X-1471D01*
X-3125Y24295D02*
X-1151D01*
X-3107Y24313D02*
X-1169D01*
X-3107Y24330D02*
X-1169D01*
X-3107Y24348D02*
X-1187D01*
X-3089Y24366D02*
X-1187D01*
X-3071Y24384D02*
X-1204D01*
X-3071Y24401D02*
X-1222D01*
X-3054Y24419D02*
X-1222D01*
X-3036Y24437D02*
X-1240D01*
X-3036Y24455D02*
X-1240D01*
X-3018Y24473D02*
X-1258D01*
X-3018Y24490D02*
X-1258D01*
X-3000Y24508D02*
X-1276D01*
X-3000Y24526D02*
X-1293D01*
X-2982Y24544D02*
X-1293D01*
X-2965Y24561D02*
X-1311D01*
X-2965Y24579D02*
X-1311D01*
X-2947Y24597D02*
X-1329D01*
X-2947Y24615D02*
X-1347D01*
X-2929Y24633D02*
X-1347D01*
X-2929Y24650D02*
X-1364D01*
X-2911Y24668D02*
X-1364D01*
X-2894Y24686D02*
X-1382D01*
X-2894Y24704D02*
X-1382D01*
X-2876Y24721D02*
X-1400D01*
X-2876Y24739D02*
X-1400D01*
X-2858Y24757D02*
X-1418D01*
X-2840Y24775D02*
X-1436D01*
X-2840Y24793D02*
X-1436D01*
X-2822Y24810D02*
X-1453D01*
X-2822Y24828D02*
X-1471D01*
X-2805Y25077D02*
X-1471D01*
X-2822Y25095D02*
X-1453D01*
X-2840Y25113D02*
X-1453D01*
X-2840Y25130D02*
X-1436D01*
X-2858Y25148D02*
X-1418D01*
X-2858Y25166D02*
X-1418D01*
X-2876Y25184D02*
X-1400D01*
X-2876Y25202D02*
X-1400D01*
X-2894Y25219D02*
X-1382D01*
X-2911Y25237D02*
X-1382D01*
X-2911Y25255D02*
X-1364D01*
X-2929Y25273D02*
X-1347D01*
X-2947Y25290D02*
X-1347D01*
X-2947Y25308D02*
X-1329D01*
X-2947Y25326D02*
X-1329D01*
X-2965Y25344D02*
X-1311D01*
X-2982Y25362D02*
X-1311D01*
X-2982Y25379D02*
X-1293D01*
X-3000Y25397D02*
X-1276D01*
X-3000Y25415D02*
X-1276D01*
X-3018Y25433D02*
X-1258D01*
X-3036Y25450D02*
X-1240D01*
X-3036Y25468D02*
X-1240D01*
X-3054Y25486D02*
X-1240D01*
X-3054Y25504D02*
X-1222D01*
X-3071Y25522D02*
X-1204D01*
X-3071Y25539D02*
X-1204D01*
X-3089Y25557D02*
X-1187D01*
X-3107Y25575D02*
X-1169D01*
X-3107Y25593D02*
X-1169D01*
X-3125Y25610D02*
X-1151D01*
X-3125Y25628D02*
X-1151D01*
X-3142Y25646D02*
X-1133D01*
X-3160Y25664D02*
X-1133D01*
X-3160Y25682D02*
X-1115D01*
X-3178Y25699D02*
X-1115D01*
X-3178Y25717D02*
X-1098D01*
X-3196Y25735D02*
X-1080D01*
X-3196Y25753D02*
X-1080D01*
X-3214Y25771D02*
X-1062D01*
X-3231Y25788D02*
X-1062D01*
X-3231Y25806D02*
X-1044D01*
X-3249Y25824D02*
X-1027D01*
X-3249Y25842D02*
X-1027D01*
X-3267Y25859D02*
X-1009D01*
X-3267Y25877D02*
X-1009D01*
X-3285Y25895D02*
X-991D01*
X-3302Y25913D02*
X-991D01*
X-3302Y25931D02*
X-973D01*
X-3320Y25948D02*
X-955D01*
X-3320Y25966D02*
X-955D01*
X-3338Y25984D02*
X-938D01*
X-3356Y26002D02*
X-938D01*
X-3356Y26019D02*
X-920D01*
X-3374Y26037D02*
X-920D01*
X-3374Y26055D02*
X-902D01*
X-3391Y26073D02*
X-884D01*
X-3391Y26091D02*
X-884D01*
X-618D02*
X751D01*
X-3409Y26108D02*
X-867D01*
X-618D02*
X734D01*
X-3427Y26126D02*
X-867D01*
X-3427Y26144D02*
X-849D01*
X-3445Y26162D02*
X-831D01*
X-3445Y26179D02*
X-831D01*
X-3462Y26197D02*
X-813D01*
X-3462Y26215D02*
X-813D01*
X-3480Y26233D02*
X-813D01*
X-3462Y26251D02*
X-813D01*
X-3462Y26268D02*
X-813D01*
X-3445Y26286D02*
X-831D01*
X-2805Y22535D02*
X-1471D01*
X-2822Y22552D02*
X-1453D01*
X-2840Y22570D02*
X-1453D01*
X-2840Y22588D02*
X-1436D01*
X-2840Y22606D02*
X-1418D01*
X-2858Y22623D02*
X-1418D01*
X-2876Y22641D02*
X-1400D01*
X-2876Y22659D02*
X-1400D01*
X-2894Y22677D02*
X-1382D01*
X-2911Y22695D02*
X-1364D01*
X-2911Y22712D02*
X-1364D01*
X-2929Y22730D02*
X-1364D01*
X-2929Y22748D02*
X-1347D01*
X-2947Y22766D02*
X-1329D01*
X-2947Y22783D02*
X-1329D01*
X-2965Y22801D02*
X-1311D01*
X-2982Y22819D02*
X-1293D01*
X-2982Y22837D02*
X-1293D01*
X-3000Y22855D02*
X-1276D01*
X-3000Y22872D02*
X-1276D01*
X-3018Y22890D02*
X-1258D01*
X-3036Y22908D02*
X-1258D01*
X-3036Y22926D02*
X-1240D01*
X-3054Y22943D02*
X-1240D01*
X-3054Y22961D02*
X-1222D01*
X-3071Y22979D02*
X-1204D01*
X-3071Y22997D02*
X-1204D01*
X-3089Y23015D02*
X-1187D01*
X-3107Y23032D02*
X-1187D01*
X-3107Y23050D02*
X-1169D01*
X-3125Y23068D02*
X-1151D01*
X-3125Y23086D02*
X-1151D01*
X-3142Y23104D02*
X-1133D01*
X-3142Y23121D02*
X-1133D01*
X-3160Y23139D02*
X-1115D01*
X-3178Y23157D02*
X-1115D01*
X-3178Y23175D02*
X-1098D01*
X-3196Y23192D02*
X-1080D01*
X-3196Y23210D02*
X-1080D01*
X-3214Y23228D02*
X-1062D01*
X-3214Y23246D02*
X-1062D01*
X-3231Y23264D02*
X-1044D01*
X-3249Y23281D02*
X-1044D01*
X-3249Y23299D02*
X-1027D01*
X-3267Y23317D02*
X-1009D01*
X-3267Y23335D02*
X-1009D01*
X-3285Y23352D02*
X-991D01*
X-3285Y23370D02*
X-973D01*
X-3302Y23388D02*
X-973D01*
X-3320Y23406D02*
X-973D01*
X-3320Y23424D02*
X-955D01*
X-3338Y23441D02*
X-938D01*
X-3338Y23459D02*
X-938D01*
X-3356Y23477D02*
X-920D01*
X-3356Y23495D02*
X-902D01*
X-3374Y23512D02*
X-902D01*
X-3391Y23530D02*
X-884D01*
X-3391Y23548D02*
X-884D01*
X-3409Y23566D02*
X-867D01*
X-3427Y23584D02*
X-867D01*
X-3427Y23601D02*
X-849D01*
X-3445Y23619D02*
X-849D01*
X-3445Y23637D02*
X-831D01*
X-3462Y23655D02*
X-813D01*
X-3462Y23672D02*
X-813D01*
X-3480Y23690D02*
X-813D01*
X-3462Y23708D02*
X-813D01*
X-3462Y23726D02*
X-831D01*
X-3445Y23744D02*
X-831D01*
X-3427Y23761D02*
X-849D01*
X-3427Y23779D02*
X-849D01*
X-3409Y23797D02*
X-867D01*
X-600D02*
X734D01*
X-3409Y23815D02*
X-867D01*
X-618D02*
X734D01*
X-3391Y23832D02*
X-884D01*
X-618D02*
X751D01*
X-3391Y23850D02*
X-902D01*
X-3374Y23868D02*
X-902D01*
X-3356Y23886D02*
X-920D01*
X-3356Y23904D02*
X-920D01*
X-3338Y23921D02*
X-938D01*
X-3338Y23939D02*
X-955D01*
X-3320Y23957D02*
X-955D01*
X-3320Y23975D02*
X-973D01*
X-3302Y23993D02*
X-973D01*
X-3285Y24010D02*
X-991D01*
X-3285Y24028D02*
X-991D01*
X-3267Y24046D02*
X-1009D01*
X-3267Y24064D02*
X-1009D01*
X-3249Y24081D02*
X-1027D01*
X-3231Y24099D02*
X-1044D01*
X-3231Y24117D02*
X-1044D01*
X-3214Y24135D02*
X-1062D01*
X-3214Y24153D02*
X-1080D01*
X-3196Y24170D02*
X-1080D01*
X-3196Y24188D02*
X-1080D01*
X-3178Y24206D02*
X-1098D01*
X-3160Y24224D02*
X-1115D01*
X-3160Y24241D02*
X-1115D01*
X-3142Y24259D02*
X-1133D01*
X983Y26322D02*
X3543D01*
X983Y26339D02*
X3543D01*
X1000Y26357D02*
X3525D01*
X1018Y26375D02*
X3525D01*
X1018Y26393D02*
X3507D01*
X1036Y26411D02*
X3507D01*
X1036Y26428D02*
X3490D01*
X1054Y26446D02*
X3472D01*
X1054Y26464D02*
X3472D01*
X1071Y26482D02*
X3454D01*
X1089Y26499D02*
X3454D01*
X1089Y26517D02*
X3436D01*
X1107Y26535D02*
X3436D01*
X1107Y26553D02*
X3418D01*
X1125Y26571D02*
X3401D01*
X1143Y26588D02*
X3401D01*
X1143Y26606D02*
X3383D01*
X1160Y26624D02*
X3365D01*
X1160Y26642D02*
X3365D01*
X1178Y26660D02*
X3347D01*
X1178Y26677D02*
X3347D01*
X1196Y26695D02*
X3329D01*
X1214Y26713D02*
X3329D01*
X1214Y26731D02*
X3312D01*
X1231Y26748D02*
X3294D01*
X1249Y26766D02*
X3294D01*
X1249Y26784D02*
X3276D01*
X1249Y26802D02*
X3276D01*
X1267Y26820D02*
X3258D01*
X1285Y26837D02*
X3258D01*
X1285Y26855D02*
X3241D01*
X1303Y26873D02*
X3223D01*
X1303Y26891D02*
X3223D01*
X1320Y26908D02*
X3205D01*
X1338Y26926D02*
X3205D01*
X1338Y26944D02*
X3187D01*
X1356Y26962D02*
X3187D01*
X1356Y26980D02*
X3169D01*
X1374Y26997D02*
X3152D01*
X1374Y27015D02*
X3152D01*
X1391Y27033D02*
X3134D01*
X1409Y27051D02*
X3134D01*
X1409Y27068D02*
X3116D01*
X1427Y27086D02*
X3116D01*
X1427Y27104D02*
X3098D01*
X1445Y27122D02*
X3081D01*
X1463Y27140D02*
X3081D01*
X1463Y27157D02*
X3063D01*
X1480Y27175D02*
X3063D01*
X1480Y27193D02*
X3045D01*
X1498Y27211D02*
X3045D01*
X1498Y27228D02*
X3027D01*
X1516Y27246D02*
X3009D01*
X1534Y27264D02*
X3009D01*
X1534Y27282D02*
X2992D01*
X1551Y27300D02*
X2992D01*
X1551Y27317D02*
X2974D01*
X1569Y27335D02*
X2956D01*
X1569Y27353D02*
X2956D01*
X1587Y27371D02*
X2938D01*
X1605Y27388D02*
X2921D01*
X1285Y24295D02*
X3258D01*
X1285Y24313D02*
X3241D01*
X1303Y24330D02*
X3241D01*
X1320Y24348D02*
X3223D01*
X1320Y24366D02*
X3205D01*
X1320Y24384D02*
X3205D01*
X1338Y24401D02*
X3187D01*
X1356Y24419D02*
X3187D01*
X1356Y24437D02*
X3169D01*
X1374Y24455D02*
X3169D01*
X1374Y24473D02*
X3152D01*
X1391Y24490D02*
X3134D01*
X1409Y24508D02*
X3134D01*
X1409Y24526D02*
X3116D01*
X1427Y24544D02*
X3116D01*
X1427Y24561D02*
X3098D01*
X1445Y24579D02*
X3081D01*
X1445Y24597D02*
X3081D01*
X1463Y24615D02*
X3063D01*
X1480Y24633D02*
X3063D01*
X1480Y24650D02*
X3045D01*
X1498Y24668D02*
X3045D01*
X1516Y24686D02*
X3027D01*
X1516Y24704D02*
X3027D01*
X1534Y24721D02*
X3009D01*
X1534Y24739D02*
X2992D01*
X1551Y24757D02*
X2992D01*
X1551Y24775D02*
X2974D01*
X1569Y24793D02*
X2956D01*
X1569Y24810D02*
X2956D01*
X1587Y24828D02*
X2956D01*
X1605Y25077D02*
X2938D01*
X1587Y25095D02*
X2956D01*
X1569Y25113D02*
X2956D01*
X1569Y25130D02*
X2974D01*
X1551Y25148D02*
X2974D01*
X1534Y25166D02*
X2992D01*
X1534Y25184D02*
X3009D01*
X1516Y25202D02*
X3009D01*
X1516Y25219D02*
X3027D01*
X1498Y25237D02*
X3027D01*
X1480Y25255D02*
X3045D01*
X1480Y25273D02*
X3045D01*
X1480Y25290D02*
X3063D01*
X1463Y25308D02*
X3081D01*
X1445Y25326D02*
X3081D01*
X1445Y25344D02*
X3098D01*
X1427Y25362D02*
X3098D01*
X1409Y25379D02*
X3116D01*
X1409Y25397D02*
X3116D01*
X1391Y25415D02*
X3134D01*
X1391Y25433D02*
X3152D01*
X1374Y25450D02*
X3152D01*
X1374Y25468D02*
X3169D01*
X1356Y25486D02*
X3169D01*
X1356Y25504D02*
X3187D01*
X1338Y25522D02*
X3205D01*
X1320Y25539D02*
X3205D01*
X1320Y25557D02*
X3223D01*
X1303Y25575D02*
X3223D01*
X1303Y25593D02*
X3241D01*
X1285Y25610D02*
X3241D01*
X1267Y25628D02*
X3258D01*
X1267Y25646D02*
X3276D01*
X1249Y25664D02*
X3276D01*
X1249Y25682D02*
X3294D01*
X1231Y25699D02*
X3294D01*
X1231Y25717D02*
X3312D01*
X1214Y25735D02*
X3312D01*
X1196Y25753D02*
X3329D01*
X1196Y25771D02*
X3347D01*
X1178Y25788D02*
X3347D01*
X1178Y25806D02*
X3365D01*
X1160Y25824D02*
X3365D01*
X1160Y25842D02*
X3383D01*
X1143Y25859D02*
X3383D01*
X1125Y25877D02*
X3401D01*
X1125Y25895D02*
X3418D01*
X1107Y25913D02*
X3418D01*
X1089Y25931D02*
X3436D01*
X1089Y25948D02*
X3436D01*
X1089Y25966D02*
X3454D01*
X1071Y25984D02*
X3454D01*
X1054Y26002D02*
X3472D01*
X1054Y26019D02*
X3490D01*
X1036Y26037D02*
X3490D01*
X1018Y26055D02*
X3507D01*
X1018Y26073D02*
X3507D01*
X1000Y26091D02*
X3525D01*
X1000Y26108D02*
X3525D01*
X983Y26126D02*
X3543D01*
X983Y26144D02*
X3561D01*
X965Y26162D02*
X3561D01*
X965Y26179D02*
X3578D01*
X947Y26197D02*
X3596D01*
X929Y26215D02*
X3596D01*
X929Y26233D02*
X3596D01*
X947Y26251D02*
X3596D01*
X947Y26268D02*
X3578D01*
X965Y26286D02*
X3578D01*
X1587Y22535D02*
X2938D01*
X1587Y22552D02*
X2956D01*
X1569Y22570D02*
X2956D01*
X1569Y22588D02*
X2974D01*
X1551Y22606D02*
X2974D01*
X1534Y22623D02*
X2992D01*
X1534Y22641D02*
X2992D01*
X1516Y22659D02*
X3009D01*
X1516Y22677D02*
X3027D01*
X1498Y22695D02*
X3027D01*
X1498Y22712D02*
X3045D01*
X1480Y22730D02*
X3045D01*
X1480Y22748D02*
X3063D01*
X1463Y22766D02*
X3063D01*
X1445Y22783D02*
X3081D01*
X1445Y22801D02*
X3098D01*
X1427Y22819D02*
X3098D01*
X1427Y22837D02*
X3116D01*
X1409Y22855D02*
X3116D01*
X1409Y22872D02*
X3134D01*
X1391Y22890D02*
X3134D01*
X1374Y22908D02*
X3152D01*
X1374Y22926D02*
X3169D01*
X1356Y22943D02*
X3169D01*
X1338Y22961D02*
X3187D01*
X1338Y22979D02*
X3187D01*
X1320Y22997D02*
X3205D01*
X1320Y23015D02*
X3205D01*
X1303Y23032D02*
X3223D01*
X1303Y23050D02*
X3241D01*
X1285Y23068D02*
X3241D01*
X1267Y23086D02*
X3258D01*
X1267Y23104D02*
X3276D01*
X1249Y23121D02*
X3276D01*
X1249Y23139D02*
X3276D01*
X1231Y23157D02*
X3294D01*
X1214Y23175D02*
X3312D01*
X1214Y23192D02*
X3312D01*
X1196Y23210D02*
X3329D01*
X1196Y23228D02*
X3347D01*
X1178Y23246D02*
X3347D01*
X1178Y23264D02*
X3365D01*
X1160Y23281D02*
X3365D01*
X1143Y23299D02*
X3383D01*
X1143Y23317D02*
X3383D01*
X1125Y23335D02*
X3401D01*
X1125Y23352D02*
X3418D01*
X1107Y23370D02*
X3418D01*
X1107Y23388D02*
X3436D01*
X1089Y23406D02*
X3436D01*
X1071Y23424D02*
X3454D01*
X1071Y23441D02*
X3472D01*
X1054Y23459D02*
X3472D01*
X1054Y23477D02*
X3490D01*
X1036Y23495D02*
X3490D01*
X1036Y23512D02*
X3507D01*
X1018Y23530D02*
X3507D01*
X1000Y23548D02*
X3525D01*
X1000Y23566D02*
X3525D01*
X983Y23584D02*
X3543D01*
X983Y23601D02*
X3561D01*
X965Y23619D02*
X3561D01*
X965Y23637D02*
X3578D01*
X947Y23655D02*
X3578D01*
X929Y23672D02*
X3596D01*
X929Y23690D02*
X3596D01*
X929Y23708D02*
X3596D01*
X947Y23726D02*
X3578D01*
X965Y23744D02*
X3578D01*
X965Y23761D02*
X3561D01*
X983Y23779D02*
X3543D01*
X1000Y23797D02*
X3543D01*
X1000Y23815D02*
X3525D01*
X1018Y23832D02*
X3525D01*
X1018Y23850D02*
X3507D01*
X1036Y23868D02*
X3507D01*
X1036Y23886D02*
X3490D01*
X1054Y23904D02*
X3472D01*
X1071Y23921D02*
X3472D01*
X1071Y23939D02*
X3454D01*
X1089Y23957D02*
X3454D01*
X1089Y23975D02*
X3436D01*
X1107Y23993D02*
X3436D01*
X1107Y24010D02*
X3418D01*
X1125Y24028D02*
X3401D01*
X1143Y24046D02*
X3401D01*
X1143Y24064D02*
X3383D01*
X1160Y24081D02*
X3383D01*
X1160Y24099D02*
X3365D01*
X1178Y24117D02*
X3365D01*
X1178Y24135D02*
X3347D01*
X1196Y24153D02*
X3329D01*
X1214Y24170D02*
X3329D01*
X1214Y24188D02*
X3312D01*
X1231Y24206D02*
X3312D01*
X1231Y24224D02*
X3294D01*
X1249Y24241D02*
X3276D01*
X1249Y24259D02*
X3276D01*
X-2805Y24846D02*
X-2307D01*
X2441D02*
X2921D01*
D66*
X-11900Y7100D02*
X10850D01*
Y5850D02*
Y7100D01*
Y5850D02*
X12100D01*
Y2100D02*
Y5850D01*
X10850Y2100D02*
X12100D01*
X10850Y850D02*
Y2100D01*
X-11900Y850D02*
X10850D01*
X-11900D02*
Y7100D01*
X11900Y-15200D02*
Y-8950D01*
X-10850D02*
X11900D01*
X-10850Y-10200D02*
Y-8950D01*
X-12100Y-10200D02*
X-10850D01*
X-12100Y-13950D02*
Y-10200D01*
Y-13950D02*
X-10850D01*
Y-15200D02*
Y-13950D01*
Y-15200D02*
X11900D01*
D67*
X4536Y21720D02*
Y20221D01*
X3786D01*
X3536Y20471D01*
Y20720D01*
X3786Y20970D01*
X4536D01*
X3786D01*
X3536Y21220D01*
Y21470D01*
X3786Y21720D01*
X4536D01*
X2287Y20221D02*
X2787D01*
X3036Y20471D01*
Y20970D01*
X2787Y21220D01*
X2287D01*
X2037Y20970D01*
Y20720D01*
X3036D01*
X787Y20221D02*
X1287D01*
X1537Y20471D01*
Y20970D01*
X1287Y21220D01*
X787D01*
X537Y20970D01*
Y20720D01*
X1537D01*
X-712Y20221D02*
X-212D01*
X37Y20471D01*
Y20970D01*
X-212Y21220D01*
X-712D01*
X-962Y20970D01*
Y20720D01*
X37D01*
X-2212Y21720D02*
X-1712D01*
X-1462Y21470D01*
Y20471D01*
X-1712Y20221D01*
X-2212D01*
X-2462Y20471D01*
Y21470D01*
X-2212Y21720D01*
X-2962Y20221D02*
Y21220D01*
X-3711D01*
X-3961Y20970D01*
Y20221D01*
D68*
X-5300Y6000D02*
Y3334D01*
X-3967Y2001D01*
X-2634Y3334D01*
Y6000D01*
Y4001D01*
X-5300D01*
X-1301Y6000D02*
Y3334D01*
X32Y2001D01*
X1365Y3334D01*
Y6000D01*
Y4001D01*
X-1301D01*
X2697Y6000D02*
Y3334D01*
X4030Y2001D01*
X5363Y3334D01*
Y6000D01*
Y4001D01*
X2697D01*
X5300Y-14100D02*
Y-11434D01*
X3967Y-10101D01*
X2634Y-11434D01*
Y-14100D01*
Y-12101D01*
X5300D01*
X1301Y-14100D02*
Y-11434D01*
X-32Y-10101D01*
X-1365Y-11434D01*
Y-14100D01*
Y-12101D01*
X1301D01*
X-2697Y-14100D02*
Y-11434D01*
X-4030Y-10101D01*
X-5363Y-11434D01*
Y-14100D01*
Y-12101D01*
X-2697D01*
D69*
X112Y-3763D02*
D03*
M02*
