%FSLAX43Y43*%
%MOMM*%
G71*
G01*
G75*
G04 Layer_Color=65535*
%ADD10R,1.500X2.500*%
%ADD11R,0.762X1.372*%
%ADD12R,1.372X0.864*%
%ADD13R,1.372X0.762*%
%ADD14R,0.864X1.372*%
%ADD15R,1.100X0.650*%
%ADD16R,1.300X2.700*%
%ADD17R,0.650X1.100*%
%ADD18R,0.900X0.950*%
%ADD19R,0.900X0.950*%
%ADD20O,0.550X1.750*%
%ADD21O,1.750X0.550*%
%ADD22R,2.032X2.032*%
%ADD23R,0.550X1.450*%
%ADD24C,0.200*%
%ADD25C,0.254*%
%ADD26P,2.121X4X75.0*%
%ADD27C,1.500*%
%ADD28C,2.700*%
%ADD29R,1.500X1.500*%
%ADD30C,1.300*%
%ADD31C,0.800*%
%ADD32C,6.000*%
%ADD33C,3.000*%
G04:AMPARAMS|DCode=34|XSize=2mm|YSize=1mm|CornerRadius=0mm|HoleSize=0mm|Usage=FLASHONLY|Rotation=150.000|XOffset=0mm|YOffset=0mm|HoleType=Round|Shape=Rectangle|*
%AMROTATEDRECTD34*
4,1,4,1.116,-0.067,0.616,-0.933,-1.116,0.067,-0.616,0.933,1.116,-0.067,0.0*
%
%ADD34ROTATEDRECTD34*%

G04:AMPARAMS|DCode=35|XSize=2mm|YSize=1mm|CornerRadius=0mm|HoleSize=0mm|Usage=FLASHONLY|Rotation=30.000|XOffset=0mm|YOffset=0mm|HoleType=Round|Shape=Rectangle|*
%AMROTATEDRECTD35*
4,1,4,-0.616,-0.933,-1.116,-0.067,0.616,0.933,1.116,0.067,-0.616,-0.933,0.0*
%
%ADD35ROTATEDRECTD35*%

%ADD36C,2.000*%
%ADD37C,0.250*%
%ADD38C,0.600*%
%ADD39C,0.508*%
%ADD40C,0.152*%
%ADD41C,0.150*%
%ADD42C,0.300*%
D24*
X-5430Y-26622D02*
G03*
X-3086Y-26606I1165J1022D01*
G01*
X-3096Y-24594D02*
G03*
X-5440Y-24578I-1179J-1006D01*
G01*
X15700Y-16325D02*
X18300D01*
X15700D02*
Y-11325D01*
X20700D01*
Y-16325D02*
Y-11325D01*
X18200Y-16325D02*
X20700D01*
X7020Y-19735D02*
X13619Y-15925D01*
X12984Y-14825D02*
X13619Y-15925D01*
X6385Y-18635D02*
X7020Y-19735D01*
X6385Y-18635D02*
X12984Y-14825D01*
X7753Y-19311D02*
X9447Y-22244D01*
X10025Y-22399D01*
X10180Y-21821D01*
X8487Y-18888D02*
X10180Y-21821D01*
X9953Y-18041D02*
X11646Y-20974D01*
X12225Y-21129D01*
X12380Y-20551D01*
X10686Y-17618D02*
X12380Y-20551D01*
X12153Y-16771D02*
X13846Y-19704D01*
X14424Y-19859D01*
X14579Y-19281D01*
X12886Y-16348D02*
X14579Y-19281D01*
X12937Y2169D02*
X26145D01*
X12937Y-8499D02*
Y2169D01*
Y-8499D02*
X26145D01*
Y2169D01*
X7700Y-7400D02*
Y-4300D01*
X8200Y-7400D02*
Y-4300D01*
X7700D02*
X8200D01*
X7700Y-7400D02*
X8200D01*
X-18625Y4925D02*
X-17625D01*
X-18625Y7925D02*
X-17625D01*
X-19625Y600D02*
X-16525D01*
X-19625Y1100D02*
X-16525D01*
X-19625Y600D02*
Y1100D01*
X-16525Y600D02*
Y1100D01*
X-17600Y-17575D02*
Y-15950D01*
X-14600Y-17575D02*
Y-15950D01*
X-15050Y-17575D02*
X-14600D01*
X-17600D02*
X-17150D01*
X-23900Y-17550D02*
Y-15925D01*
X-20900Y-17550D02*
Y-15925D01*
X-21350Y-17550D02*
X-20900D01*
X-23900D02*
X-23450D01*
X-7250Y-5150D02*
X1450D01*
X-7250Y-13850D02*
X1450D01*
Y-5150D01*
X-7250Y-13850D02*
Y-5150D01*
X8780Y-900D02*
Y-646D01*
X-9000Y-900D02*
Y-646D01*
X8780Y14594D02*
Y15102D01*
X-9000Y14594D02*
Y15102D01*
X8780D01*
X-9000Y-900D02*
X8780D01*
X-3920Y11546D02*
Y15102D01*
Y11546D02*
X1414D01*
Y15102D01*
X-15600Y-8925D02*
Y-8525D01*
X-15800D02*
X-15600D01*
X-14500D02*
X-14300D01*
X-14500Y-8925D02*
Y-8525D01*
X-14300Y-8925D02*
Y-7025D01*
X-15800Y-8925D02*
Y-7025D01*
X-14500D02*
X-14300D01*
X-14500Y-8925D02*
X-14300D01*
X-15800Y-7025D02*
X-15600D01*
X-15800Y-8925D02*
X-15600D01*
X24825Y-15950D02*
Y-14950D01*
X25325D01*
X25491Y-15117D01*
Y-15450D01*
X25325Y-15617D01*
X24825D01*
X25158D02*
X25491Y-15950D01*
X25825D02*
X26158D01*
X25991D01*
Y-14950D01*
X25825Y-15117D01*
X26658D02*
X26824Y-14950D01*
X27158D01*
X27324Y-15117D01*
Y-15783D01*
X27158Y-15950D01*
X26824D01*
X26658Y-15783D01*
Y-15117D01*
X15075Y-7075D02*
Y-8075D01*
X14742Y-7741D01*
X14409Y-8075D01*
Y-7075D01*
X13409D02*
X14075D01*
X13409Y-7741D01*
Y-7908D01*
X13575Y-8075D01*
X13909D01*
X14075Y-7908D01*
X7249Y-21152D02*
X7082Y-20864D01*
X7166Y-21008D01*
X6444Y-21425D01*
X6217Y-21364D01*
X6133Y-21219D01*
X6194Y-20992D01*
X6550Y-21941D02*
X7416Y-21441D01*
X7666Y-21874D01*
X7605Y-22101D01*
X7316Y-22268D01*
X7088Y-22207D01*
X6838Y-21774D01*
X7050Y-22806D02*
X7216Y-23095D01*
X7133Y-22951D01*
X7999Y-22451D01*
X7771Y-22390D01*
X5650Y-12100D02*
X4650D01*
Y-11600D01*
X4817Y-11434D01*
X5150D01*
X5317Y-11600D01*
Y-12100D01*
Y-11767D02*
X5650Y-11434D01*
Y-11100D02*
Y-10767D01*
Y-10934D01*
X4650D01*
X4817Y-11100D01*
Y-10267D02*
X4650Y-10101D01*
Y-9767D01*
X4817Y-9601D01*
X4984D01*
X5150Y-9767D01*
Y-9934D01*
Y-9767D01*
X5317Y-9601D01*
X5483D01*
X5650Y-9767D01*
Y-10101D01*
X5483Y-10267D01*
X-4300Y-27900D02*
Y-28067D01*
X-3967Y-28400D01*
X-3634Y-28067D01*
Y-27900D01*
X-3967Y-28400D02*
Y-28900D01*
X-3300D02*
X-2967D01*
X-3134D01*
Y-27900D01*
X-3300Y-28067D01*
X-24433Y7441D02*
X-24600Y7275D01*
Y6942D01*
X-24433Y6775D01*
X-23767D01*
X-23600Y6942D01*
Y7275D01*
X-23767Y7441D01*
X-23600Y7775D02*
Y8108D01*
Y7941D01*
X-24600D01*
X-24433Y7775D01*
Y8608D02*
X-24600Y8774D01*
Y9108D01*
X-24433Y9274D01*
X-23767D01*
X-23600Y9108D01*
Y8774D01*
X-23767Y8608D01*
X-24433D01*
X-6508Y-22409D02*
X-6675Y-22575D01*
Y-22908D01*
X-6508Y-23075D01*
X-5842D01*
X-5675Y-22908D01*
Y-22575D01*
X-5842Y-22409D01*
Y-22075D02*
X-5675Y-21909D01*
Y-21575D01*
X-5842Y-21409D01*
X-6508D01*
X-6675Y-21575D01*
Y-21909D01*
X-6508Y-22075D01*
X-6341D01*
X-6175Y-21909D01*
Y-21409D01*
X-8800Y15675D02*
Y16675D01*
X-8467Y16341D01*
X-8134Y16675D01*
Y15675D01*
X-7800D02*
X-7467D01*
X-7634D01*
Y16675D01*
X-7800Y16508D01*
X14275Y-16150D02*
X15108D01*
X15275Y-15983D01*
Y-15650D01*
X15108Y-15484D01*
X14275D01*
X15275Y-14484D02*
Y-15150D01*
X14609Y-14484D01*
X14442D01*
X14275Y-14650D01*
Y-14984D01*
X14442Y-15150D01*
X-19775Y-9300D02*
X-20775D01*
Y-8800D01*
X-20608Y-8634D01*
X-20275D01*
X-20108Y-8800D01*
Y-9300D01*
Y-8967D02*
X-19775Y-8634D01*
Y-7634D02*
Y-8300D01*
X-20441Y-7634D01*
X-20608D01*
X-20775Y-7800D01*
Y-8134D01*
X-20608Y-8300D01*
X20125Y4075D02*
X19125D01*
Y4575D01*
X19292Y4741D01*
X19625D01*
X19792Y4575D01*
Y4075D01*
Y4408D02*
X20125Y4741D01*
X19292Y5075D02*
X19125Y5241D01*
Y5575D01*
X19292Y5741D01*
X19459D01*
X19625Y5575D01*
Y5408D01*
Y5575D01*
X19792Y5741D01*
X19958D01*
X20125Y5575D01*
Y5241D01*
X19958Y5075D01*
X-23350Y-1450D02*
X-24350D01*
Y-950D01*
X-24183Y-784D01*
X-23850D01*
X-23683Y-950D01*
Y-1450D01*
Y-1117D02*
X-23350Y-784D01*
Y-450D02*
Y-117D01*
Y-284D01*
X-24350D01*
X-24183Y-450D01*
X-23350Y383D02*
Y716D01*
Y549D01*
X-24350D01*
X-24183Y383D01*
X-23375Y-5350D02*
X-24375D01*
Y-4850D01*
X-24208Y-4684D01*
X-23875D01*
X-23708Y-4850D01*
Y-5350D01*
Y-5017D02*
X-23375Y-4684D01*
X-23542Y-4350D02*
X-23375Y-4184D01*
Y-3850D01*
X-23542Y-3684D01*
X-24208D01*
X-24375Y-3850D01*
Y-4184D01*
X-24208Y-4350D01*
X-24041D01*
X-23875Y-4184D01*
Y-3684D01*
X-12350Y-19550D02*
X-13350D01*
Y-19050D01*
X-13183Y-18884D01*
X-12850D01*
X-12683Y-19050D01*
Y-19550D01*
Y-19217D02*
X-12350Y-18884D01*
X-13183Y-18550D02*
X-13350Y-18384D01*
Y-18050D01*
X-13183Y-17884D01*
X-13016D01*
X-12850Y-18050D01*
X-12683Y-17884D01*
X-12517D01*
X-12350Y-18050D01*
Y-18384D01*
X-12517Y-18550D01*
X-12683D01*
X-12850Y-18384D01*
X-13016Y-18550D01*
X-13183D01*
X-12850Y-18384D02*
Y-18050D01*
X17350Y4025D02*
X16350D01*
Y4525D01*
X16517Y4691D01*
X16850D01*
X17017Y4525D01*
Y4025D01*
Y4358D02*
X17350Y4691D01*
X16350Y5025D02*
Y5691D01*
X16517D01*
X17183Y5025D01*
X17350D01*
X12600Y6300D02*
X11600D01*
Y6800D01*
X11767Y6966D01*
X12100D01*
X12267Y6800D01*
Y6300D01*
Y6633D02*
X12600Y6966D01*
X11600Y7966D02*
X11767Y7633D01*
X12100Y7300D01*
X12433D01*
X12600Y7466D01*
Y7800D01*
X12433Y7966D01*
X12267D01*
X12100Y7800D01*
Y7300D01*
X24775Y6200D02*
X23775D01*
Y6700D01*
X23942Y6866D01*
X24275D01*
X24442Y6700D01*
Y6200D01*
Y6533D02*
X24775Y6866D01*
Y7700D02*
X23775D01*
X24275Y7200D01*
Y7866D01*
X5216Y-2192D02*
X5050Y-2025D01*
X4717D01*
X4550Y-2192D01*
Y-2858D01*
X4717Y-3025D01*
X5050D01*
X5216Y-2858D01*
X5550Y-2192D02*
X5716Y-2025D01*
X6050D01*
X6216Y-2192D01*
Y-2359D01*
X6050Y-2525D01*
X5883D01*
X6050D01*
X6216Y-2692D01*
Y-2858D01*
X6050Y-3025D01*
X5716D01*
X5550Y-2858D01*
X-17158Y-4659D02*
X-17325Y-4825D01*
Y-5158D01*
X-17158Y-5325D01*
X-16492D01*
X-16325Y-5158D01*
Y-4825D01*
X-16492Y-4659D01*
X-16325Y-4325D02*
Y-3992D01*
Y-4159D01*
X-17325D01*
X-17158Y-4325D01*
X-9300Y-3500D02*
Y-4333D01*
X-9133Y-4500D01*
X-8800D01*
X-8634Y-4333D01*
Y-3500D01*
X-8300Y-4500D02*
X-7967D01*
X-8134D01*
Y-3500D01*
X-8300Y-3667D01*
X-23250Y-9325D02*
X-24250D01*
Y-8825D01*
X-24083Y-8659D01*
X-23750D01*
X-23583Y-8825D01*
Y-9325D01*
Y-8992D02*
X-23250Y-8659D01*
Y-8325D02*
Y-7992D01*
Y-8159D01*
X-24250D01*
X-24083Y-8325D01*
X-8383Y-16309D02*
X-8550Y-16475D01*
Y-16808D01*
X-8383Y-16975D01*
X-7717D01*
X-7550Y-16808D01*
Y-16475D01*
X-7717Y-16309D01*
X-7550Y-15475D02*
X-8550D01*
X-8050Y-15975D01*
Y-15309D01*
X-12483Y-22359D02*
X-12650Y-22525D01*
Y-22858D01*
X-12483Y-23025D01*
X-11817D01*
X-11650Y-22858D01*
Y-22525D01*
X-11817Y-22359D01*
X-12650Y-22025D02*
Y-21359D01*
X-12483D01*
X-11817Y-22025D01*
X-11650D01*
X10867Y-11534D02*
X10700Y-11700D01*
Y-12033D01*
X10867Y-12200D01*
X11533D01*
X11700Y-12033D01*
Y-11700D01*
X11533Y-11534D01*
X10867Y-11200D02*
X10700Y-11034D01*
Y-10700D01*
X10867Y-10534D01*
X11034D01*
X11200Y-10700D01*
X11367Y-10534D01*
X11533D01*
X11700Y-10700D01*
Y-11034D01*
X11533Y-11200D01*
X11367D01*
X11200Y-11034D01*
X11034Y-11200D01*
X10867D01*
X11200Y-11034D02*
Y-10700D01*
X-10808Y-16334D02*
X-10975Y-16500D01*
Y-16833D01*
X-10808Y-17000D01*
X-10142D01*
X-9975Y-16833D01*
Y-16500D01*
X-10142Y-16334D01*
X-9975Y-15334D02*
Y-16000D01*
X-10641Y-15334D01*
X-10808D01*
X-10975Y-15500D01*
Y-15834D01*
X-10808Y-16000D01*
X10425Y-6325D02*
X11258D01*
X11425Y-6158D01*
Y-5825D01*
X11258Y-5659D01*
X10425D01*
X11425Y-4825D02*
X10425D01*
X10925Y-5325D01*
Y-4659D01*
X-20683Y-4659D02*
X-20850Y-4825D01*
Y-5158D01*
X-20683Y-5325D01*
X-20017D01*
X-19850Y-5158D01*
Y-4825D01*
X-20017Y-4659D01*
X-20850Y-3659D02*
Y-4325D01*
X-20350D01*
X-20516Y-3992D01*
Y-3825D01*
X-20350Y-3659D01*
X-20017D01*
X-19850Y-3825D01*
Y-4159D01*
X-20017Y-4325D01*
X-18600Y-19575D02*
X-19600D01*
Y-19075D01*
X-19433Y-18909D01*
X-19100D01*
X-18933Y-19075D01*
Y-19575D01*
Y-19242D02*
X-18600Y-18909D01*
X-19600Y-17909D02*
Y-18575D01*
X-19100D01*
X-19266Y-18242D01*
Y-18075D01*
X-19100Y-17909D01*
X-18767D01*
X-18600Y-18075D01*
Y-18409D01*
X-18767Y-18575D01*
X-25700Y-16350D02*
X-25034D01*
X-25367D01*
Y-17350D01*
X-24700D02*
X-24367D01*
X-24534D01*
Y-16350D01*
X-24700Y-16517D01*
X-17525Y-18575D02*
X-16859D01*
X-17192D01*
Y-19575D01*
X-15859D02*
X-16525D01*
X-15859Y-18909D01*
Y-18742D01*
X-16025Y-18575D01*
X-16359D01*
X-16525Y-18742D01*
X-14550Y1750D02*
X-15383D01*
X-15550Y1583D01*
Y1250D01*
X-15383Y1084D01*
X-14550D01*
Y84D02*
Y750D01*
X-15050D01*
X-14884Y417D01*
Y250D01*
X-15050Y84D01*
X-15383D01*
X-15550Y250D01*
Y584D01*
X-15383Y750D01*
X-18850Y9450D02*
Y8450D01*
X-18184D01*
X-17850D02*
X-17517D01*
X-17684D01*
Y9450D01*
X-17850Y9283D01*
X-17150Y-8800D02*
X-16150D01*
Y-8300D01*
X-16317Y-8134D01*
X-16983D01*
X-17150Y-8300D01*
Y-8800D01*
Y-7134D02*
Y-7800D01*
X-16650D01*
X-16816Y-7467D01*
Y-7300D01*
X-16650Y-7134D01*
X-16317D01*
X-16150Y-7300D01*
Y-7634D01*
X-16317Y-7800D01*
D37*
X9275Y-7675D02*
G03*
X9275Y-7675I-125J0D01*
G01*
X-16125Y2050D02*
G03*
X-16125Y2050I-125J0D01*
G01*
X-14025Y-15125D02*
G03*
X-14025Y-15125I-125J0D01*
G01*
X-20325Y-15100D02*
G03*
X-20325Y-15100I-125J0D01*
G01*
X2050Y-3850D02*
G03*
X2050Y-3850I-125J0D01*
G01*
D38*
X750Y-6150D02*
G03*
X750Y-6150I-300J0D01*
G01*
D39*
X-10524Y13324D02*
G03*
X-10524Y13324I-254J0D01*
G01*
D40*
X22837Y-16106D02*
Y-15344D01*
X22963Y-16106D02*
Y-15344D01*
X21440Y-16614D02*
Y-14836D01*
Y-16614D02*
X22074D01*
X21440Y-14836D02*
X22074D01*
X23726D02*
X24361D01*
X23726Y-16614D02*
X24361D01*
Y-14836D01*
X-23139Y6688D02*
X-21361D01*
Y7323D01*
X-23139Y6688D02*
Y7323D01*
Y9227D02*
Y9863D01*
X-21361Y9227D02*
Y9863D01*
X-23139D02*
X-21361D01*
X-22939Y-9486D02*
X-21161D01*
X-22939D02*
Y-8851D01*
X-21161Y-9486D02*
Y-8851D01*
Y-7200D02*
Y-6564D01*
X-22939Y-7200D02*
Y-6564D01*
X-21161D01*
X-22431Y-8089D02*
X-21669D01*
X-22431Y-7962D02*
X-21669D01*
X-11289Y-24438D02*
X-9511D01*
X-11289D02*
Y-23802D01*
X-9511Y-24438D02*
Y-23802D01*
Y-21897D02*
Y-21263D01*
X-11289Y-21897D02*
Y-21263D01*
X-9511D01*
X-8814D02*
X-7036D01*
X-8814Y-21897D02*
Y-21263D01*
X-7036Y-21897D02*
Y-21263D01*
Y-24438D02*
Y-23802D01*
X-8814Y-24438D02*
Y-23802D01*
Y-24438D02*
X-7036D01*
X-19464Y-6490D02*
X-17686D01*
Y-7124D02*
Y-6490D01*
X-19464Y-7124D02*
Y-6490D01*
Y-9410D02*
Y-8776D01*
X-17686Y-9410D02*
Y-8776D01*
X-19464Y-9410D02*
X-17686D01*
X-18956Y-7886D02*
X-18194D01*
X-18956Y-8014D02*
X-18194D01*
X-22914Y1336D02*
X-21136D01*
Y701D02*
Y1336D01*
X-22914Y701D02*
Y1336D01*
Y-1586D02*
Y-951D01*
X-21136Y-1586D02*
Y-951D01*
X-22914Y-1586D02*
X-21136D01*
X-22406Y-62D02*
X-21644D01*
X-22406Y-189D02*
X-21644D01*
X-22939Y-2565D02*
X-21161D01*
Y-3200D02*
Y-2565D01*
X-22939Y-3200D02*
Y-2565D01*
Y-5485D02*
Y-4851D01*
X-21161Y-5485D02*
Y-4851D01*
X-22939Y-5485D02*
X-21161D01*
X-22431Y-3961D02*
X-21669D01*
X-22431Y-4089D02*
X-21669D01*
X-13739Y-17535D02*
X-11961D01*
X-13739D02*
Y-16900D01*
X-11961Y-17535D02*
Y-16900D01*
Y-15250D02*
Y-14615D01*
X-13739Y-15250D02*
Y-14615D01*
X-11961D01*
X-13231Y-16139D02*
X-12469D01*
X-13231Y-16011D02*
X-12469D01*
X15861Y6115D02*
X17639D01*
X15861D02*
Y6749D01*
X17639Y6115D02*
Y6749D01*
Y8401D02*
Y9035D01*
X15861Y8401D02*
Y9035D01*
X17639D01*
X16369Y7511D02*
X17131D01*
X16369Y7639D02*
X17131D01*
X13011Y6115D02*
X14789D01*
X13011D02*
Y6749D01*
X14789Y6115D02*
Y6749D01*
Y8401D02*
Y9035D01*
X13011Y8401D02*
Y9035D01*
X14789D01*
X13519Y7511D02*
X14281D01*
X13519Y7639D02*
X14281D01*
X9837Y-3439D02*
Y-1661D01*
X9203Y-3439D02*
X9837D01*
X9203Y-1661D02*
X9837D01*
X6662D02*
X7298D01*
X6662Y-3439D02*
X7298D01*
X6662D02*
Y-1661D01*
X-8839Y-17337D02*
X-7061D01*
Y-17972D02*
Y-17337D01*
X-8839Y-17972D02*
Y-17337D01*
Y-20513D02*
Y-19878D01*
X-7061Y-20513D02*
Y-19878D01*
X-8839Y-20513D02*
X-7061D01*
X8586Y-9212D02*
X10364D01*
X8586Y-9847D02*
Y-9212D01*
X10364Y-9847D02*
Y-9212D01*
Y-12387D02*
Y-11752D01*
X8586Y-12387D02*
Y-11752D01*
Y-12387D02*
X10364D01*
X-11289Y-20513D02*
X-9511D01*
Y-19878D01*
X-11289Y-20513D02*
Y-19878D01*
Y-17972D02*
Y-17337D01*
X-9511Y-17972D02*
Y-17337D01*
X-11289D02*
X-9511D01*
X-19489Y-2338D02*
X-17711D01*
Y-2973D02*
Y-2338D01*
X-19489Y-2973D02*
Y-2338D01*
Y-5512D02*
Y-4878D01*
X-17711Y-5512D02*
Y-4878D01*
X-19489Y-5512D02*
X-17711D01*
X-15964Y-5488D02*
X-14186D01*
X-15964D02*
Y-4852D01*
X-14186Y-5488D02*
Y-4852D01*
Y-2947D02*
Y-2312D01*
X-15964Y-2947D02*
Y-2312D01*
X-14186D01*
X-20039Y-17535D02*
X-18261D01*
X-20039D02*
Y-16900D01*
X-18261Y-17535D02*
Y-16900D01*
Y-15250D02*
Y-14615D01*
X-20039Y-15250D02*
Y-14615D01*
X-18261D01*
X-19531Y-16139D02*
X-18769D01*
X-19531Y-16011D02*
X-18769D01*
X18711Y6115D02*
X20489D01*
X18711D02*
Y6749D01*
X20489Y6115D02*
Y6749D01*
Y8401D02*
Y9035D01*
X18711Y8401D02*
Y9035D01*
X20489D01*
X19219Y7511D02*
X19981D01*
X19219Y7639D02*
X19981D01*
X21561Y6115D02*
X23339D01*
X21561D02*
Y6749D01*
X23339Y6115D02*
Y6749D01*
Y8401D02*
Y9035D01*
X21561Y8401D02*
Y9035D01*
X23339D01*
X22069Y7511D02*
X22831D01*
X22069Y7639D02*
X22831D01*
X6519Y-10863D02*
X7281D01*
X6519Y-10736D02*
X7281D01*
X6011Y-12260D02*
X7789D01*
Y-11625D01*
X6011Y-12260D02*
Y-11625D01*
Y-9974D02*
Y-9340D01*
X7789Y-9974D02*
Y-9340D01*
X6011D02*
X7789D01*
D41*
X13375Y1725D02*
Y925D01*
Y1325D01*
X13908D01*
Y1725D01*
Y925D01*
X14175Y1725D02*
X14708D01*
X14441D01*
Y925D01*
X14974Y1725D02*
Y1058D01*
X15108Y925D01*
X15374D01*
X15508Y1058D01*
Y1725D01*
X16307Y925D02*
X15774D01*
X16307Y1458D01*
Y1591D01*
X16174Y1725D01*
X15908D01*
X15774Y1591D01*
X16574Y925D02*
X16841D01*
X16707D01*
Y1725D01*
X16574Y1591D01*
X17240Y1725D02*
Y925D01*
X17640D01*
X17774Y1058D01*
Y1591D01*
X17640Y1725D01*
X17240D01*
X21425Y-6575D02*
Y-7108D01*
X21692Y-7375D01*
X21958Y-7108D01*
Y-6575D01*
X22225D02*
X22491D01*
X22358D01*
Y-7375D01*
X22225D01*
X22491D01*
X22891D02*
Y-6575D01*
X23424Y-7375D01*
Y-6575D01*
X21858Y-4209D02*
X21725Y-4075D01*
X21458D01*
X21325Y-4209D01*
Y-4742D01*
X21458Y-4875D01*
X21725D01*
X21858Y-4742D01*
Y-4475D01*
X21592D01*
X22125Y-4875D02*
Y-4075D01*
X22658Y-4875D01*
Y-4075D01*
X22924D02*
Y-4875D01*
X23324D01*
X23458Y-4742D01*
Y-4209D01*
X23324Y-4075D01*
X22924D01*
X21858Y-1634D02*
X21725Y-1500D01*
X21458D01*
X21325Y-1634D01*
Y-1767D01*
X21458Y-1900D01*
X21725D01*
X21858Y-2033D01*
Y-2167D01*
X21725Y-2300D01*
X21458D01*
X21325Y-2167D01*
X22658Y-1634D02*
X22525Y-1500D01*
X22258D01*
X22125Y-1634D01*
Y-2167D01*
X22258Y-2300D01*
X22525D01*
X22658Y-2167D01*
X22924Y-1500D02*
Y-2300D01*
X23458D01*
X21808Y916D02*
X21675Y1050D01*
X21408D01*
X21275Y916D01*
Y783D01*
X21408Y650D01*
X21675D01*
X21808Y517D01*
Y383D01*
X21675Y250D01*
X21408D01*
X21275Y383D01*
X22075Y1050D02*
Y250D01*
X22475D01*
X22608Y383D01*
Y916D01*
X22475Y1050D01*
X22075D01*
X22874Y250D02*
Y783D01*
X23141Y1050D01*
X23408Y783D01*
Y250D01*
Y650D01*
X22874D01*
D42*
X-26482Y16266D02*
X-26755Y16339D01*
X-27102Y16139D01*
X-27175Y15866D01*
X-27075Y15693D01*
X-26802Y15619D01*
X-26455Y15819D01*
X-26182Y15746D01*
X-26082Y15573D01*
X-26156Y15300D01*
X-26502Y15100D01*
X-26775Y15173D01*
X-25117Y15900D02*
X-25463Y15700D01*
X-25736Y15773D01*
X-25936Y16119D01*
X-25863Y16392D01*
X-25517Y16592D01*
X-25243Y16519D01*
X-25143Y16346D01*
X-25836Y15946D01*
X-24597Y16200D02*
X-24997Y16892D01*
X-24478Y17192D01*
X-24205Y17119D01*
X-23905Y16599D01*
X-23558Y16799D02*
X-23039Y17099D01*
X-22966Y17372D01*
X-23239Y17446D01*
X-23585Y17246D01*
X-23858Y17319D01*
X-23785Y17592D01*
X-23266Y17892D01*
X-22346Y17499D02*
X-22000Y17699D01*
X-21927Y17972D01*
X-22127Y18319D01*
X-22400Y18392D01*
X-22746Y18192D01*
X-22819Y17919D01*
X-22619Y17572D01*
X-22346Y17499D01*
X-21880Y18692D02*
X-21481Y17999D01*
X-21680Y18345D01*
X-21607Y18618D01*
X-21534Y18892D01*
X-21361Y18992D01*
X-19729Y20164D02*
X-19629Y19991D01*
X-19803Y19891D01*
X-19456Y20091D01*
X-19629Y19991D01*
X-19330Y19472D01*
X-19056Y19399D01*
X-18018Y19998D02*
X-18364Y19798D01*
X-18637Y19872D01*
X-18837Y20218D01*
X-18764Y20491D01*
X-18417Y20691D01*
X-18144Y20618D01*
X-18044Y20445D01*
X-18737Y20045D01*
X-17498Y20298D02*
X-17898Y20991D01*
X-17725Y21091D01*
X-17452Y21018D01*
X-17152Y20498D01*
X-17452Y21018D01*
X-17379Y21291D01*
X-17105Y21218D01*
X-16806Y20698D01*
X-16259Y20552D02*
X-16859Y21591D01*
X-16340Y21891D01*
X-16067Y21817D01*
X-15867Y21471D01*
X-15940Y21198D01*
X-16459Y20898D01*
X-14981Y23137D02*
X-14581Y22444D01*
X-14035Y22298D01*
X-13889Y22844D01*
X-14289Y23536D01*
X-13343Y22698D02*
X-12996Y22897D01*
X-13169Y22797D01*
X-13769Y23836D01*
X-13842Y23563D01*
X-12477Y23197D02*
X-12577Y23371D01*
X-12404Y23470D01*
X-12304Y23297D01*
X-12477Y23197D01*
X-10918Y24097D02*
X-11611Y23697D01*
X-11318Y24790D01*
X-11418Y24963D01*
X-11691Y25036D01*
X-12038Y24836D01*
X-12111Y24563D01*
M02*
