M48
;Layer_Color=9474304
;FILE_FORMAT=4:3
METRIC,TZ
;TYPE=PLATED
T1F00S00C0.400
T2F00S00C0.700
T3F00S00C0.900
T4F00S00C1.700
T5F00S00C3.000
T6F00S00C6.000
%
T01
X-7675Y-26250
X-8500Y-25425
X-12800Y-20900
X-12100Y-20100
X-10350Y-13900
X-11076Y-13099
X-3600Y-13126
X-2100Y-13025
X2825Y-15125
X10200Y-24075
X10900Y-24800
X10998Y-11752
X11000Y-7200
X6425Y-8300
X5150Y-7450
X5350Y-4950
X5600Y-1700
X4300
X2900
X6500Y600
X10875Y16675
X11325Y17650
X13551Y18776
X14601Y17776
X1600Y-1700
X300
X-1000
X-3700Y-1700
X-2400Y-6000
X-1100
X-4400Y-7900
X-5200Y-7100
X-6000Y-7900
X-5200Y-9700
X-11101Y-3825
X-10701Y-2825
X-11000Y3100
X-20375Y825
X-20376Y-6050
X-23725Y-5000
X-24926Y-12876
X-23876Y5925
T02
X-5825Y-25600
X-2725
T03
X6850Y-16900
X9050Y-15630
X11249Y-14360
X24875Y-6975
Y-4435
Y-1895
Y645
X-26375Y1015
Y3555
Y6095
Y8635
Y11175
Y-1525
Y-5675
Y-8215
Y-10755
T04
X14200Y-12100
X22200
X22200Y4000
X14200
X-14200
X-22200
X-22200Y-12100
X-14200
T05
X0Y-28000
X21000Y13000
X-21000
T06
X0Y-21000
X14000Y13000
X-14000
M30
