%FSLAX43Y43*%
%MOMM*%
G71*
G01*
G75*
G04 Layer_Color=16711935*
%ADD10R,1.500X2.500*%
%ADD11R,0.762X1.372*%
%ADD12R,1.372X0.864*%
%ADD13R,1.372X0.762*%
%ADD14R,0.864X1.372*%
%ADD15R,1.100X0.650*%
%ADD16R,1.300X2.700*%
%ADD17R,0.650X1.100*%
%ADD18R,0.900X0.950*%
%ADD19R,0.900X0.950*%
%ADD20O,0.550X1.750*%
%ADD21O,1.750X0.550*%
%ADD22R,2.032X2.032*%
%ADD23R,0.550X1.450*%
%ADD24C,0.200*%
%ADD25C,0.254*%
%ADD26P,2.121X4X75.0*%
%ADD27C,1.500*%
%ADD28C,2.700*%
%ADD29R,1.500X1.500*%
%ADD30C,1.300*%
%ADD31C,0.800*%
%ADD32C,6.000*%
%ADD33C,3.000*%
G04:AMPARAMS|DCode=34|XSize=2mm|YSize=1mm|CornerRadius=0mm|HoleSize=0mm|Usage=FLASHONLY|Rotation=150.000|XOffset=0mm|YOffset=0mm|HoleType=Round|Shape=Rectangle|*
%AMROTATEDRECTD34*
4,1,4,1.116,-0.067,0.616,-0.933,-1.116,0.067,-0.616,0.933,1.116,-0.067,0.0*
%
%ADD34ROTATEDRECTD34*%

G04:AMPARAMS|DCode=35|XSize=2mm|YSize=1mm|CornerRadius=0mm|HoleSize=0mm|Usage=FLASHONLY|Rotation=30.000|XOffset=0mm|YOffset=0mm|HoleType=Round|Shape=Rectangle|*
%AMROTATEDRECTD35*
4,1,4,-0.616,-0.933,-1.116,-0.067,0.616,0.933,1.116,0.067,-0.616,-0.933,0.0*
%
%ADD35ROTATEDRECTD35*%

%ADD36C,2.000*%
%ADD37C,0.250*%
%ADD38C,0.600*%
%ADD39C,0.508*%
%ADD40C,0.152*%
%ADD41C,0.150*%
%ADD42C,0.300*%
%ADD43R,1.703X2.703*%
%ADD44R,0.965X1.575*%
%ADD45R,1.575X1.067*%
%ADD46R,1.575X0.965*%
%ADD47R,1.067X1.575*%
%ADD48R,1.303X0.853*%
%ADD49R,1.503X2.903*%
%ADD50R,0.853X1.303*%
%ADD51R,1.103X1.153*%
%ADD52R,1.103X1.153*%
%ADD53O,0.753X1.953*%
%ADD54O,1.953X0.753*%
%ADD55R,2.235X2.235*%
%ADD56R,0.753X1.653*%
%ADD57P,2.409X4X75.0*%
%ADD58C,1.703*%
%ADD59C,2.903*%
%ADD60R,1.703X1.703*%
%ADD61C,1.503*%
G04:AMPARAMS|DCode=62|XSize=2.203mm|YSize=1.203mm|CornerRadius=0mm|HoleSize=0mm|Usage=FLASHONLY|Rotation=150.000|XOffset=0mm|YOffset=0mm|HoleType=Round|Shape=Rectangle|*
%AMROTATEDRECTD62*
4,1,4,1.255,-0.030,0.653,-1.072,-1.255,0.030,-0.653,1.072,1.255,-0.030,0.0*
%
%ADD62ROTATEDRECTD62*%

G04:AMPARAMS|DCode=63|XSize=2.203mm|YSize=1.203mm|CornerRadius=0mm|HoleSize=0mm|Usage=FLASHONLY|Rotation=30.000|XOffset=0mm|YOffset=0mm|HoleType=Round|Shape=Rectangle|*
%AMROTATEDRECTD63*
4,1,4,-0.653,-1.072,-1.255,-0.030,0.653,1.072,1.255,0.030,-0.653,-1.072,0.0*
%
%ADD63ROTATEDRECTD63*%

D57*
X6850Y-16900D02*
D03*
D58*
X9050Y-15630D02*
D03*
X11249Y-14360D02*
D03*
X24875Y645D02*
D03*
Y-1895D02*
D03*
Y-4435D02*
D03*
X-26375Y11175D02*
D03*
Y8635D02*
D03*
Y6095D02*
D03*
Y3555D02*
D03*
Y1015D02*
D03*
Y-10755D02*
D03*
Y-8215D02*
D03*
D59*
X22200Y4000D02*
D03*
X14200D02*
D03*
X-14200D02*
D03*
X-22200D02*
D03*
X22200Y-12100D02*
D03*
X14200D02*
D03*
X-14200D02*
D03*
X-22200D02*
D03*
D60*
X24875Y-6975D02*
D03*
X-26375Y-1525D02*
D03*
Y-5675D02*
D03*
D61*
X-5825Y-25600D02*
D03*
X-2725D02*
D03*
D62*
X14249Y21644D02*
D03*
X11651Y23144D02*
D03*
X14999Y22943D02*
D03*
X12401Y24443D02*
D03*
X-12401Y-24443D02*
D03*
X-14999Y-22943D02*
D03*
X-11651Y-23144D02*
D03*
X-14249Y-21644D02*
D03*
D63*
X-11601Y23057D02*
D03*
X-14199Y21557D02*
D03*
X-12351Y24356D02*
D03*
X-14949Y22856D02*
D03*
X14949Y-22856D02*
D03*
X12351Y-24356D02*
D03*
X14199Y-21557D02*
D03*
X11601Y-23057D02*
D03*
M02*
