%FSLAX43Y43*%
%MOMM*%
G71*
G01*
G75*
G04 Layer_Color=8388736*
%ADD10R,1.500X2.500*%
%ADD11R,0.762X1.372*%
%ADD12R,1.372X0.864*%
%ADD13R,1.372X0.762*%
%ADD14R,0.864X1.372*%
%ADD15R,1.100X0.650*%
%ADD16R,1.300X2.700*%
%ADD17R,0.650X1.100*%
%ADD18R,0.900X0.950*%
%ADD19R,0.900X0.950*%
%ADD20O,0.550X1.750*%
%ADD21O,1.750X0.550*%
%ADD22R,2.032X2.032*%
%ADD23R,0.550X1.450*%
%ADD24C,0.200*%
%ADD25C,0.254*%
%ADD26P,2.121X4X75.0*%
%ADD27C,1.500*%
%ADD28C,2.700*%
%ADD29R,1.500X1.500*%
%ADD30C,1.300*%
%ADD31C,0.800*%
%ADD32C,6.000*%
%ADD33C,3.000*%
G04:AMPARAMS|DCode=34|XSize=2mm|YSize=1mm|CornerRadius=0mm|HoleSize=0mm|Usage=FLASHONLY|Rotation=150.000|XOffset=0mm|YOffset=0mm|HoleType=Round|Shape=Rectangle|*
%AMROTATEDRECTD34*
4,1,4,1.116,-0.067,0.616,-0.933,-1.116,0.067,-0.616,0.933,1.116,-0.067,0.0*
%
%ADD34ROTATEDRECTD34*%

G04:AMPARAMS|DCode=35|XSize=2mm|YSize=1mm|CornerRadius=0mm|HoleSize=0mm|Usage=FLASHONLY|Rotation=30.000|XOffset=0mm|YOffset=0mm|HoleType=Round|Shape=Rectangle|*
%AMROTATEDRECTD35*
4,1,4,-0.616,-0.933,-1.116,-0.067,0.616,0.933,1.116,0.067,-0.616,-0.933,0.0*
%
%ADD35ROTATEDRECTD35*%

%ADD36C,2.000*%
%ADD37C,0.250*%
%ADD38C,0.600*%
%ADD39C,0.508*%
%ADD40C,0.152*%
%ADD41C,0.150*%
%ADD42C,0.300*%
%ADD43R,1.703X2.703*%
%ADD44R,0.965X1.575*%
%ADD45R,1.575X1.067*%
%ADD46R,1.575X0.965*%
%ADD47R,1.067X1.575*%
%ADD48R,1.303X0.853*%
%ADD49R,1.503X2.903*%
%ADD50R,0.853X1.303*%
%ADD51R,1.103X1.153*%
%ADD52R,1.103X1.153*%
%ADD53O,0.753X1.953*%
%ADD54O,1.953X0.753*%
%ADD55R,2.235X2.235*%
%ADD56R,0.753X1.653*%
%ADD57P,2.409X4X75.0*%
%ADD58C,1.703*%
%ADD59C,2.903*%
%ADD60R,1.703X1.703*%
%ADD61C,1.503*%
D43*
X19800Y-17625D02*
D03*
X16600D02*
D03*
Y-10025D02*
D03*
X19800D02*
D03*
D44*
X21948Y-15725D02*
D03*
X23853D02*
D03*
D45*
X-22250Y7323D02*
D03*
Y9227D02*
D03*
X-10400Y-23802D02*
D03*
Y-21897D02*
D03*
X-7925D02*
D03*
Y-23802D02*
D03*
X-7950Y-17972D02*
D03*
Y-19878D02*
D03*
X9475Y-9847D02*
D03*
Y-11752D02*
D03*
X-10400Y-19878D02*
D03*
Y-17972D02*
D03*
X-18600Y-2973D02*
D03*
Y-4878D02*
D03*
X-15075Y-4852D02*
D03*
Y-2947D02*
D03*
D46*
X-22050Y-8977D02*
D03*
Y-7073D02*
D03*
X-18575Y-6997D02*
D03*
Y-8903D02*
D03*
X-22025Y827D02*
D03*
Y-1077D02*
D03*
X-22050Y-3072D02*
D03*
Y-4977D02*
D03*
X-12850Y-17028D02*
D03*
Y-15123D02*
D03*
X16750Y6622D02*
D03*
Y8528D02*
D03*
X13900Y6622D02*
D03*
Y8528D02*
D03*
X-19150Y-17028D02*
D03*
Y-15123D02*
D03*
X19600Y6622D02*
D03*
Y8528D02*
D03*
X22450Y6622D02*
D03*
Y8528D02*
D03*
X6900Y-11752D02*
D03*
Y-9847D02*
D03*
D47*
X9203Y-2550D02*
D03*
X7298D02*
D03*
D48*
X6750Y-6800D02*
D03*
Y-5850D02*
D03*
Y-4900D02*
D03*
X9150D02*
D03*
Y-5850D02*
D03*
Y-6800D02*
D03*
D49*
X-19525Y6425D02*
D03*
X-16725D02*
D03*
D50*
X-17125Y-350D02*
D03*
X-18075D02*
D03*
X-19025D02*
D03*
Y2050D02*
D03*
X-18075D02*
D03*
X-17125D02*
D03*
D51*
X-16100Y-17625D02*
D03*
X-15150Y-15125D02*
D03*
X-22400Y-17600D02*
D03*
X-21450Y-15100D02*
D03*
D52*
X-17050Y-15125D02*
D03*
X-23350Y-15100D02*
D03*
D53*
X1100Y-3850D02*
D03*
X300D02*
D03*
X-500D02*
D03*
X-1300D02*
D03*
X-2100D02*
D03*
X-2900D02*
D03*
X-3700D02*
D03*
X-4500D02*
D03*
X-5300D02*
D03*
X-6100D02*
D03*
X-6900D02*
D03*
Y-15150D02*
D03*
X-6100D02*
D03*
X-5300D02*
D03*
X-4500D02*
D03*
X-3700D02*
D03*
X-2900D02*
D03*
X-2100D02*
D03*
X-1300D02*
D03*
X-500D02*
D03*
X300D02*
D03*
X1100D02*
D03*
D54*
X-8550Y-5500D02*
D03*
Y-6300D02*
D03*
Y-7100D02*
D03*
Y-7900D02*
D03*
Y-8700D02*
D03*
Y-9500D02*
D03*
Y-10300D02*
D03*
Y-11100D02*
D03*
Y-11900D02*
D03*
Y-12700D02*
D03*
Y-13500D02*
D03*
X2750D02*
D03*
Y-12700D02*
D03*
Y-11900D02*
D03*
Y-11100D02*
D03*
Y-10300D02*
D03*
Y-9500D02*
D03*
Y-8700D02*
D03*
Y-7900D02*
D03*
Y-7100D02*
D03*
Y-6300D02*
D03*
Y-5500D02*
D03*
D55*
X8780Y13324D02*
D03*
Y10784D02*
D03*
Y8244D02*
D03*
Y5704D02*
D03*
Y3164D02*
D03*
Y624D02*
D03*
X-9000Y13324D02*
D03*
Y10784D02*
D03*
Y8244D02*
D03*
Y5704D02*
D03*
Y3164D02*
D03*
Y624D02*
D03*
D56*
X-15050Y-6800D02*
D03*
Y-9150D02*
D03*
D57*
X6850Y-16900D02*
D03*
D58*
X9050Y-15630D02*
D03*
X11249Y-14360D02*
D03*
X24875Y645D02*
D03*
Y-1895D02*
D03*
Y-4435D02*
D03*
X-26375Y11175D02*
D03*
Y8635D02*
D03*
Y6095D02*
D03*
Y3555D02*
D03*
Y1015D02*
D03*
Y-10755D02*
D03*
Y-8215D02*
D03*
D59*
X22200Y4000D02*
D03*
X14200D02*
D03*
X-14200D02*
D03*
X-22200D02*
D03*
X22200Y-12100D02*
D03*
X14200D02*
D03*
X-14200D02*
D03*
X-22200D02*
D03*
D60*
X24875Y-6975D02*
D03*
X-26375Y-1525D02*
D03*
Y-5675D02*
D03*
D61*
X-5825Y-25600D02*
D03*
X-2725D02*
D03*
M02*
