%FSLAX43Y43*%
%MOMM*%
G71*
G01*
G75*
G04 Layer_Physical_Order=1*
G04 Layer_Color=255*
%ADD10R,1.500X2.500*%
%ADD11R,0.762X1.372*%
%ADD12R,1.372X0.864*%
%ADD13R,1.372X0.762*%
%ADD14R,0.864X1.372*%
%ADD15R,1.100X0.650*%
%ADD16R,1.300X2.700*%
%ADD17R,0.650X1.100*%
%ADD18R,0.900X0.950*%
%ADD19R,0.900X0.950*%
%ADD20O,0.550X1.750*%
%ADD21O,1.750X0.550*%
%ADD22R,2.032X2.032*%
%ADD23R,0.550X1.450*%
%ADD24C,0.200*%
%ADD25C,0.254*%
%ADD26P,2.121X4X75.0*%
%ADD27C,1.500*%
%ADD28C,2.700*%
%ADD29R,1.500X1.500*%
%ADD30C,1.300*%
%ADD31C,0.800*%
%ADD32C,6.000*%
%ADD33C,3.000*%
D10*
X19800Y-17625D02*
D03*
X16600D02*
D03*
Y-10025D02*
D03*
X19800D02*
D03*
D11*
X21948Y-15725D02*
D03*
X23853D02*
D03*
D12*
X-22250Y7323D02*
D03*
Y9227D02*
D03*
X-10400Y-23802D02*
D03*
Y-21897D02*
D03*
X-7925D02*
D03*
Y-23802D02*
D03*
X-7950Y-17972D02*
D03*
Y-19878D02*
D03*
X9475Y-9847D02*
D03*
Y-11752D02*
D03*
X-10400Y-19878D02*
D03*
Y-17972D02*
D03*
X-18600Y-2973D02*
D03*
Y-4878D02*
D03*
X-15075Y-4852D02*
D03*
Y-2947D02*
D03*
D13*
X-22050Y-8977D02*
D03*
Y-7073D02*
D03*
X-18575Y-6997D02*
D03*
Y-8903D02*
D03*
X-22025Y827D02*
D03*
Y-1077D02*
D03*
X-22050Y-3072D02*
D03*
Y-4977D02*
D03*
X-12850Y-17028D02*
D03*
Y-15123D02*
D03*
X16750Y6622D02*
D03*
Y8528D02*
D03*
X13900Y6622D02*
D03*
Y8528D02*
D03*
X-19150Y-17028D02*
D03*
Y-15123D02*
D03*
X19600Y6622D02*
D03*
Y8528D02*
D03*
X22450Y6622D02*
D03*
Y8528D02*
D03*
X6900Y-11752D02*
D03*
Y-9847D02*
D03*
D14*
X9203Y-2550D02*
D03*
X7298D02*
D03*
D15*
X6750Y-6800D02*
D03*
Y-5850D02*
D03*
Y-4900D02*
D03*
X9150D02*
D03*
Y-5850D02*
D03*
Y-6800D02*
D03*
D16*
X-19525Y6425D02*
D03*
X-16725D02*
D03*
D17*
X-17125Y-350D02*
D03*
X-18075D02*
D03*
X-19025D02*
D03*
Y2050D02*
D03*
X-18075D02*
D03*
X-17125D02*
D03*
D18*
X-16100Y-17625D02*
D03*
X-15150Y-15125D02*
D03*
X-22400Y-17600D02*
D03*
X-21450Y-15100D02*
D03*
D19*
X-17050Y-15125D02*
D03*
X-23350Y-15100D02*
D03*
D20*
X1100Y-3850D02*
D03*
X300D02*
D03*
X-500D02*
D03*
X-1300D02*
D03*
X-2100D02*
D03*
X-2900D02*
D03*
X-3700D02*
D03*
X-4500D02*
D03*
X-5300D02*
D03*
X-6100D02*
D03*
X-6900D02*
D03*
Y-15150D02*
D03*
X-6100D02*
D03*
X-5300D02*
D03*
X-4500D02*
D03*
X-3700D02*
D03*
X-2900D02*
D03*
X-2100D02*
D03*
X-1300D02*
D03*
X-500D02*
D03*
X300D02*
D03*
X1100D02*
D03*
D21*
X-8550Y-5500D02*
D03*
Y-6300D02*
D03*
Y-7100D02*
D03*
Y-7900D02*
D03*
Y-8700D02*
D03*
Y-9500D02*
D03*
Y-10300D02*
D03*
Y-11100D02*
D03*
Y-11900D02*
D03*
Y-12700D02*
D03*
Y-13500D02*
D03*
X2750D02*
D03*
Y-12700D02*
D03*
Y-11900D02*
D03*
Y-11100D02*
D03*
Y-10300D02*
D03*
Y-9500D02*
D03*
Y-8700D02*
D03*
Y-7900D02*
D03*
Y-7100D02*
D03*
Y-6300D02*
D03*
Y-5500D02*
D03*
D22*
X8780Y13324D02*
D03*
Y10784D02*
D03*
Y8244D02*
D03*
Y5704D02*
D03*
Y3164D02*
D03*
Y624D02*
D03*
X-9000Y13324D02*
D03*
Y10784D02*
D03*
Y8244D02*
D03*
Y5704D02*
D03*
Y3164D02*
D03*
Y624D02*
D03*
D23*
X-15050Y-6800D02*
D03*
Y-9150D02*
D03*
D24*
X14468Y17644D02*
Y17857D01*
X12693Y8552D02*
X13900D01*
X10875Y16675D02*
X17875D01*
X16600Y8552D02*
X17153D01*
X-7675Y-26250D02*
X-7325Y-26950D01*
X0Y-31300D01*
X-8500Y-26750D02*
Y-25425D01*
Y-26750D02*
X-1Y-31775D01*
X18753Y8552D02*
X22000D01*
X13900Y6648D02*
X16847D01*
X-20378Y827D02*
X-18753D01*
X-24000Y5925D02*
Y7725D01*
X-18075Y-2973D02*
Y-350D01*
X-24000Y-5400D02*
Y1015D01*
X-22025Y827D02*
X-20378D01*
X-20375Y825D01*
X-24000Y1015D02*
Y5925D01*
X-23876D01*
X-23876Y5925D01*
X-24000Y7725D02*
X-22497Y9227D01*
X-22250D01*
X-23600Y2700D02*
X-22250Y4050D01*
X-23600Y-3750D02*
Y2700D01*
Y-3750D02*
X-22372Y-4977D01*
X-2100Y-13350D02*
X-1850Y-13100D01*
X-2125Y-16634D02*
Y-15125D01*
X-22050Y-4977D02*
X-15200D01*
X10998Y-11752D02*
Y-11084D01*
X13681Y-8400D01*
X19800D01*
X-19475Y6500D02*
X-19025Y6050D01*
X-2100Y-13025D02*
X-1925D01*
X-2500Y-12625D02*
X-2100Y-13025D01*
X-2100Y-13025D02*
X-1938Y-13188D01*
X13551Y18774D02*
Y18776D01*
Y18774D02*
X14468Y17857D01*
Y17644D02*
X14601Y17776D01*
X-1Y-31775D02*
X10916Y-25460D01*
X10900Y-24800D02*
X11657Y-24043D01*
X10916Y-25460D02*
Y-24816D01*
X0Y-31300D02*
X10200Y-25400D01*
Y-24075D01*
X-4175Y-24625D02*
Y-19250D01*
X-3775Y-24550D02*
Y-19416D01*
X10644Y-23631D02*
X13279D01*
X11657Y-24043D02*
X13358D01*
X13279Y-23631D02*
X26925Y-15750D01*
X13382Y-24062D02*
X27489Y-15906D01*
X10200Y-24075D02*
X10632Y-23643D01*
X22450Y8528D02*
X22888D01*
X26325Y5091D01*
Y-5525D02*
Y5091D01*
X24875Y-6975D02*
X26325Y-5525D01*
X23628Y6622D02*
X25525Y4725D01*
Y1295D02*
Y4725D01*
X24875Y645D02*
X25525Y1295D01*
X22450Y6622D02*
X23628D01*
X19600D02*
X19872D01*
X20553Y7304D01*
X23546D01*
X25925Y4925D01*
Y-845D02*
Y4925D01*
X24875Y-1895D02*
X25925Y-845D01*
X17875Y9275D02*
Y16675D01*
X17153Y8552D02*
X17875Y9275D01*
X19591Y-1925D02*
X24845D01*
X24875Y-1895D01*
X10516Y-11000D02*
X19591Y-1925D01*
X22705Y-1525D02*
X24875Y645D01*
X19425Y-1525D02*
X22705D01*
X10350Y-10600D02*
X19425Y-1525D01*
X4463Y-10600D02*
X10350D01*
X16847Y6648D02*
X18753Y8552D01*
X10750Y17650D02*
X11325D01*
X10175Y17075D02*
X10750Y17650D01*
X10175Y11071D02*
Y17075D01*
Y11071D02*
X12693Y8552D01*
X17875Y16675D02*
X21309D01*
X10351Y6673D02*
X13700D01*
X21475Y17075D02*
X27489Y11061D01*
X11900Y17075D02*
X21475D01*
X21309Y16675D02*
X27075Y10909D01*
X8780Y8244D02*
X10351Y6673D01*
X11325Y17650D02*
X11900Y17075D01*
X10875Y16675D02*
Y16675D01*
X-1925Y-13025D02*
X-1850Y-13100D01*
X-2900Y-15150D02*
Y-7844D01*
X-2100Y-15150D02*
Y-13350D01*
X-2500Y-12625D02*
Y-7679D01*
X11249Y-17200D02*
X16175D01*
X11249D02*
Y-14360D01*
X7150Y-17200D02*
X11249D01*
X27075Y-15600D02*
Y10909D01*
X26925Y-15750D02*
X27075Y-15600D01*
X27489Y-15906D02*
Y11061D01*
X23765Y-4435D02*
X24875D01*
X19800Y-8400D02*
X23765Y-4435D01*
X19800Y-10025D02*
Y-8400D01*
X4425Y-2550D02*
X7298D01*
X4425D02*
Y-1825D01*
Y-7891D02*
Y-2550D01*
X24875Y-14703D02*
Y-6975D01*
X23853Y-15725D02*
X24875Y-14703D01*
X21798Y-15575D02*
X21948Y-15725D01*
X19800Y-15575D02*
X21798D01*
X19800Y-17625D02*
Y-15575D01*
X16600Y-12375D02*
X19800Y-15575D01*
X16600Y-12375D02*
Y-10025D01*
X2825Y-15125D02*
X2875D01*
X6925Y-19175D01*
X18750D01*
X19800Y-18125D01*
Y-17625D01*
X10000Y-5850D02*
Y-3575D01*
Y-6200D02*
Y-5850D01*
X9150D02*
X10000D01*
X10998Y-14108D02*
Y-11752D01*
Y-14108D02*
X11249Y-14360D01*
X6753Y-13333D02*
X9050Y-15630D01*
X6753Y-13333D02*
Y-11900D01*
X2750D02*
X6753D01*
X10000Y-6200D02*
X11000Y-7200D01*
X9475Y-11752D02*
X10998D01*
X4300Y-1700D02*
X4425Y-1825D01*
Y-7891D02*
X6382Y-9847D01*
X6900D01*
X9475D01*
X3525Y-10300D02*
X4225Y-11000D01*
X10516D01*
X3588Y-9725D02*
X4463Y-10600D01*
X2975Y-9725D02*
X3588D01*
X2750Y-9500D02*
X2975Y-9725D01*
X2750Y-10300D02*
X3525D01*
X6775Y-9000D02*
X8975Y-6800D01*
X6100Y-9000D02*
X6775D01*
X5150Y-8050D02*
X6100Y-9000D01*
X5350Y-4950D02*
X6700D01*
X6750Y-4900D01*
X5150Y-8050D02*
Y-7450D01*
X8975Y-6800D02*
X9150D01*
X5900Y-7775D02*
Y-6025D01*
X6075Y-5850D01*
X5900Y-7775D02*
X6425Y-8300D01*
X9203Y-2777D02*
Y-2550D01*
Y-2777D02*
X10000Y-3575D01*
X8875Y-4900D02*
X9150D01*
X8275Y-4300D02*
X8875Y-4900D01*
X8275Y-4300D02*
Y-1850D01*
X7989Y-1564D02*
X8275Y-1850D01*
X5736Y-1564D02*
X7989D01*
X5600Y-1700D02*
X5736Y-1564D01*
X6075Y-5850D02*
X6750D01*
Y-6800D02*
X7150D01*
X7600Y-6350D01*
Y-2852D01*
X7298Y-2550D02*
X7600Y-2852D01*
X6500Y600D02*
X8756D01*
X9150Y-6800D02*
X9375D01*
X-23692Y-15100D02*
X-23350D01*
X-27425Y-11367D02*
Y-5675D01*
Y-11367D02*
X-23692Y-15100D01*
X-27425Y-5675D02*
X-26450D01*
X-27425D02*
Y9175D01*
X-10400Y11924D02*
X-9000Y13324D01*
X-10400Y11400D02*
Y11924D01*
X-13725Y8075D02*
X-10400Y11400D01*
X-22400Y-17600D02*
X-21525Y-18475D01*
X-16491D01*
X-14466Y-20500D01*
X-13200D01*
X-12800Y-20900D01*
X-16100Y-18300D02*
Y-17625D01*
Y-18300D02*
X-14300Y-20100D01*
X-12100D01*
X-7950Y-17972D02*
X-4029D01*
X-2900Y-16844D01*
Y-15150D01*
X-5368Y-19878D02*
X-2125Y-16634D01*
X-7950Y-19878D02*
X-5368D01*
X-8884Y-15150D02*
X-6900D01*
X-10900Y-17166D02*
X-8884Y-15150D01*
X-10900Y-17700D02*
Y-17166D01*
Y-17700D02*
X-10672D01*
X-10400Y-17972D01*
X-10573Y-19878D02*
X-10400D01*
X-12342Y-18108D02*
X-10573Y-19878D01*
X-14007Y-18108D02*
X-12342D01*
X-7925Y-21897D02*
Y-19903D01*
X-7950Y-19878D02*
X-7925Y-19903D01*
X-10400Y-19878D02*
X-7950D01*
X-10400Y-21897D02*
Y-19878D01*
X-7925Y-24284D02*
Y-23802D01*
Y-24284D02*
X-6609Y-25600D01*
X-5825D01*
X-10400Y-23802D02*
X-10073D01*
X-9150Y-24725D01*
X-8050D01*
X-6100Y-26675D01*
X-3800D01*
X-2725Y-25600D01*
X-4175Y-19250D02*
X-1775Y-16850D01*
X125D02*
X300Y-16675D01*
X-1775Y-16850D02*
X125D01*
X700Y-17250D02*
X1850Y-16100D01*
X-1609Y-17250D02*
X700D01*
X-3775Y-19416D02*
X-1609Y-17250D01*
X-5150Y-25600D02*
X-4175Y-24625D01*
X-3775Y-24550D02*
X-2725Y-25600D01*
X300Y-16675D02*
Y-15150D01*
X-5825Y-25600D02*
X-5150D01*
X1850Y-16100D02*
Y-14150D01*
X1525Y-13825D02*
X1850Y-14150D01*
X1525Y-13825D02*
Y-13000D01*
X1825Y-12700D01*
X2750D01*
X-10325Y-16025D02*
Y-13925D01*
X-10350Y-13900D02*
X-10325Y-13925D01*
X-11076Y-16201D02*
Y-13099D01*
X-13334Y-14300D02*
X-10134Y-11100D01*
X-13500Y-13900D02*
X-9900Y-10300D01*
X-10134Y-11100D02*
X-8550D01*
X-9900Y-10300D02*
X-8550D01*
X6850Y-16900D02*
X7150Y-17200D01*
X-15266Y-16850D02*
X-14007Y-18108D01*
X-17481Y-16850D02*
X-15266D01*
X-13842Y-17708D02*
X-12009D01*
X-15100Y-16450D02*
X-13842Y-17708D01*
X-18573Y-16450D02*
X-15100D01*
X-18972Y-16850D02*
X-18573Y-16450D01*
X-18340Y-17708D02*
X-17481Y-16850D01*
X-22575Y-15875D02*
X-17800D01*
X-20136Y-17533D02*
Y-15927D01*
Y-17533D02*
X-19960Y-17708D01*
X-18340D01*
X-11903Y-17028D02*
X-11076Y-16201D01*
X-12850Y-17028D02*
X-11903D01*
X-12009Y-17708D02*
X-10325Y-16025D01*
X-17800Y-15875D02*
X-17050Y-15125D01*
X-23350Y-15100D02*
X-22575Y-15875D01*
X-21427Y-15123D02*
X-19150D01*
X-15148D02*
X-12850D01*
X-18823Y-8903D02*
X-18575D01*
X-20376Y-7349D02*
X-18823Y-8903D01*
X-20376Y-7349D02*
Y-6050D01*
X-24926Y-12876D02*
X-24490D01*
X-23066Y-14300D01*
X-13334D01*
X-26375Y-1525D02*
X-24425Y-3475D01*
Y-4710D02*
Y-3475D01*
X-24403Y-8977D02*
X-22050D01*
X-24425Y-12375D02*
Y-4710D01*
Y-12375D02*
X-22900Y-13900D01*
X-13500D01*
X-18575Y-6997D02*
X-14089D01*
X-27380Y3555D02*
X-26375D01*
X-21200Y8075D02*
Y9725D01*
X-21434Y9959D02*
X-21200Y9725D01*
X-26641Y9959D02*
X-21434D01*
X-27425Y9175D02*
X-26641Y9959D01*
X-23950Y-5000D02*
X-23725D01*
X-22372Y-4977D02*
X-22050D01*
X-14089Y-6997D02*
Y-3636D01*
X-14778Y-2947D02*
X-14089Y-3636D01*
X-15075Y-2947D02*
X-14778D01*
X-18075Y-350D02*
Y150D01*
X-18753Y827D02*
X-18075Y150D01*
X-18175Y825D02*
X-17925D01*
X-19025Y1675D02*
X-18175Y825D01*
X-17925D02*
X-17125Y25D01*
X-19025Y1675D02*
Y2050D01*
X-17125Y-350D02*
Y25D01*
X-24000Y-5400D02*
X-22327Y-7073D01*
X-11101Y-3825D02*
X-10800Y-4126D01*
Y-8375D02*
Y-4126D01*
X-10701Y-2825D02*
X-10400Y-3126D01*
Y-7950D02*
Y-3126D01*
X-18075Y8075D02*
X-13725D01*
X-10800Y-8375D02*
X-9675Y-9500D01*
X-8550D01*
X-11000Y3100D02*
X-9064D01*
X-10400Y-7950D02*
X-9650Y-8700D01*
X-8550D01*
X-14200Y4000D02*
Y8026D01*
X-18075Y2050D02*
Y8075D01*
X-21200D02*
X-18075D01*
X-22250Y7323D02*
X-21952D01*
X-21200Y8075D01*
X-22250Y4050D02*
Y7323D01*
X-26375Y1015D02*
X-24000D01*
X-17125Y-1175D02*
Y-350D01*
Y-1175D02*
X-15352Y-2947D01*
X-15075D01*
X-22327Y-7073D02*
X-22050D01*
X-18600Y-2973D02*
X-18075D01*
X-17125Y2050D02*
Y6050D01*
X-16675Y6500D01*
X-19025Y2050D02*
Y6050D01*
X6464Y3164D02*
X8780D01*
X8896Y5704D02*
X10300Y4300D01*
X8780Y5704D02*
X8896D01*
X-2400Y-6000D02*
X-2100Y-5700D01*
Y-3850D01*
X-1300Y-5800D02*
X-1100Y-6000D01*
X-1300Y-5800D02*
Y-3850D01*
X-1000Y-1700D02*
X-500Y-2200D01*
Y-3850D02*
Y-2200D01*
X300Y-3850D02*
X300Y-3850D01*
X300Y-3850D02*
Y-1700D01*
X-6900Y-3850D02*
Y6144D01*
X-9000Y8244D02*
X-6900Y6144D01*
X-6100Y-3850D02*
Y-2800D01*
X-6500Y-2400D02*
X-6100Y-2800D01*
X-6500Y-2400D02*
Y8284D01*
X-9000Y10784D02*
X-6500Y8284D01*
X-5300Y-4800D02*
Y-3850D01*
X-5700Y-5200D02*
X-5300Y-4800D01*
X-7000Y-5200D02*
X-5700D01*
X-7475Y-4725D02*
X-7000Y-5200D01*
X-7475Y-4725D02*
Y-2775D01*
X-7300Y-2600D01*
Y4004D01*
X-9000Y5704D02*
X-7300Y4004D01*
X-9700Y-7100D02*
X-8550D01*
X-10000Y-6800D02*
X-9700Y-7100D01*
X-10000Y-6800D02*
Y-376D01*
X-9000Y624D01*
X-8550Y-7100D02*
X-5200D01*
X-8550Y-7900D02*
X-6000D01*
X-3700Y-3850D02*
Y-1700D01*
X1600Y-1700D02*
X6464Y3164D01*
X9900Y-1000D02*
X10300Y-600D01*
Y4300D01*
X2750Y-5500D02*
Y-2950D01*
X1100Y-3500D02*
X2900Y-1700D01*
X2750Y-2950D02*
X3600Y-2100D01*
Y-1400D01*
X4000Y-1000D01*
X9900D01*
X7544Y8244D02*
X8780D01*
X6267Y6967D02*
X7544Y8244D01*
X6267Y3533D02*
Y6967D01*
X1734Y-1000D02*
X6267Y3533D01*
X-3000Y-1000D02*
X1734D01*
X-3700Y-1700D02*
X-3000Y-1000D01*
X-6100Y-15150D02*
Y-13000D01*
X-4400Y-11300D01*
Y-7900D01*
X-8550Y-12700D02*
X-6366D01*
X-4800Y-11134D01*
Y-10100D01*
X-5200Y-9700D02*
X-4800Y-10100D01*
X-2900Y-4750D02*
Y-3850D01*
X-3200Y-6979D02*
Y-5050D01*
X-2900Y-4750D01*
X-3700Y-7044D02*
Y-3850D01*
Y-7044D02*
X-2900Y-7844D01*
X-4500Y-4825D02*
Y-3850D01*
Y-4825D02*
X-4100Y-5225D01*
Y-7210D02*
Y-5225D01*
Y-7210D02*
X-3300Y-8010D01*
X-3200Y-6979D02*
X-2500Y-7679D01*
X-2125Y-15125D02*
X-2100Y-15150D01*
X-3300Y-12825D02*
Y-8010D01*
X-3600Y-13126D02*
X-3300Y-12825D01*
X-15050Y-11250D02*
Y-9150D01*
Y-11250D02*
X-14200Y-12100D01*
D25*
X-6460Y10784D02*
X8780D01*
X-9000Y13324D02*
X-6460Y10784D01*
X-19025Y-700D02*
Y-350D01*
X-19403Y-1077D02*
X-19025Y-700D01*
X-22025Y-1077D02*
X-19403D01*
X-22025Y-3047D02*
Y-1077D01*
X8780Y10784D02*
Y13324D01*
D26*
X6850Y-16900D02*
D03*
D27*
X9050Y-15630D02*
D03*
X11249Y-14360D02*
D03*
X24875Y645D02*
D03*
Y-1895D02*
D03*
Y-4435D02*
D03*
X-26375Y11175D02*
D03*
Y8635D02*
D03*
Y6095D02*
D03*
Y3555D02*
D03*
Y1015D02*
D03*
Y-10755D02*
D03*
Y-8215D02*
D03*
D28*
X22200Y4000D02*
D03*
X14200D02*
D03*
X-14200D02*
D03*
X-22200D02*
D03*
X22200Y-12100D02*
D03*
X14200D02*
D03*
X-14200D02*
D03*
X-22200D02*
D03*
D29*
X24875Y-6975D02*
D03*
X-26375Y-1525D02*
D03*
Y-5675D02*
D03*
D30*
X-5825Y-25600D02*
D03*
X-2725D02*
D03*
D31*
X-7675Y-26250D02*
D03*
X-8500Y-25425D02*
D03*
X-20375Y825D02*
D03*
X-23876Y5925D02*
D03*
X13551Y18776D02*
D03*
X14601Y17776D02*
D03*
X10200Y-24075D02*
D03*
X10900Y-24800D02*
D03*
X10875Y16675D02*
D03*
X11325Y17650D02*
D03*
X-2100Y-13025D02*
D03*
X2825Y-15125D02*
D03*
X11000Y-7200D02*
D03*
X10998Y-11752D02*
D03*
X5150Y-7450D02*
D03*
X6425Y-8300D02*
D03*
X5350Y-4950D02*
D03*
X6500Y600D02*
D03*
X-12100Y-20100D02*
D03*
X-12800Y-20900D02*
D03*
X-10350Y-13900D02*
D03*
X-11076Y-13099D02*
D03*
X-20376Y-6050D02*
D03*
X-24926Y-12876D02*
D03*
X-23725Y-5000D02*
D03*
X-11101Y-3825D02*
D03*
X-10701Y-2825D02*
D03*
X-11000Y3100D02*
D03*
X-4400Y-7900D02*
D03*
X-1100Y-6000D02*
D03*
X-2400D02*
D03*
X-1000Y-1700D02*
D03*
X300D02*
D03*
X-5200Y-7100D02*
D03*
X-6000Y-7900D02*
D03*
X-3700Y-1700D02*
D03*
X1600Y-1700D02*
D03*
X5600D02*
D03*
X2900D02*
D03*
X4300D02*
D03*
X-5200Y-9700D02*
D03*
X-3600Y-13126D02*
D03*
D32*
X14000Y13000D02*
D03*
X0Y-21000D02*
D03*
X-14000Y13000D02*
D03*
D33*
X0Y-28000D02*
D03*
X21000Y13000D02*
D03*
X-21000D02*
D03*
M02*
