%FSLAX43Y43*%
%MOMM*%
G71*
G01*
G75*
G04 Layer_Physical_Order=2*
G04 Layer_Color=16711680*
%ADD10C,0.600*%
%ADD11R,0.550X1.450*%
%ADD12R,1.000X1.000*%
%ADD13R,0.900X0.950*%
%ADD14R,0.900X0.950*%
%ADD15R,0.762X1.372*%
%ADD16R,1.372X0.762*%
%ADD17R,1.372X0.864*%
%ADD18R,0.864X1.372*%
%ADD19O,2.500X0.700*%
%ADD20R,2.032X2.032*%
%ADD21C,0.300*%
%ADD22C,0.200*%
%ADD23C,1.500*%
%ADD24C,1.400*%
%ADD25C,1.600*%
%ADD26C,1.800*%
%ADD27C,1.300*%
%ADD28R,1.500X1.500*%
%ADD29C,6.000*%
%ADD30C,0.800*%
%ADD31R,0.800X2.000*%
D21*
X-32068Y-24500D02*
X-30984Y-25584D01*
X-42100Y-24500D02*
X-32068D01*
X-43800Y-22800D02*
X-42100Y-24500D01*
X-43800Y-22800D02*
Y-18500D01*
X32100Y-24100D02*
Y-18400D01*
X28900Y-27300D02*
X32100Y-24100D01*
X23400Y-9500D02*
X31750Y-17850D01*
X-29200Y700D02*
Y7000D01*
X-35100D02*
X-29200D01*
X-35700Y-25400D02*
X-34600Y-26500D01*
X-18760Y-7200D02*
X-17660Y-8300D01*
X-9700D01*
X-34600Y-26500D02*
X-15000D01*
X-13305Y-24805D01*
X-11900Y-16500D02*
Y-12600D01*
X-7500Y-8200D01*
X-27100Y14700D02*
X-26200Y15600D01*
X-17700D01*
X-16900Y16400D01*
X-19295Y11200D02*
X-14795Y15700D01*
X-11900D01*
X20000Y-6100D02*
X23400Y-9500D01*
X-29200Y700D02*
X-19040D01*
X-11140Y-7200D01*
X-7500Y-8200D02*
Y-6100D01*
X-10040D02*
X-7500D01*
X20000D01*
D22*
X-34270Y-24020D02*
X-33625Y-23375D01*
X-41280Y-24020D02*
X-34270D01*
X-43100Y-22200D02*
X-41280Y-24020D01*
X-35120Y-23620D02*
X-34895Y-23395D01*
X-39580Y-23620D02*
X-35120D01*
X-41000Y-22200D02*
X-39580Y-23620D01*
X-34895Y-23395D02*
Y-22320D01*
X-43800Y-18500D02*
X-43000Y-17700D01*
X-38980Y-22220D02*
X-36265D01*
X-19655Y16355D02*
Y18320D01*
X-18385Y16385D02*
Y18320D01*
X-35230Y7130D02*
X-35100Y7000D01*
X-35100Y7000D02*
X-35100Y7000D01*
X-33625Y-23375D02*
Y-22320D01*
X31450Y-17750D02*
X32100Y-18400D01*
X-34895Y16905D02*
Y18320D01*
X-35100Y16700D02*
X-34895Y16905D01*
X-33625Y16975D02*
Y18320D01*
X-34300Y16300D02*
X-33625Y16975D01*
X-32355Y17045D02*
Y18320D01*
X-33500Y15900D02*
X-32355Y17045D01*
X-31100Y18305D02*
X-31085Y18320D01*
X-31100Y17000D02*
Y18305D01*
X-32600Y15500D02*
X-31100Y17000D01*
X-29815Y17015D02*
Y18320D01*
X-31730Y15100D02*
X-29815Y17015D01*
X-35300Y15100D02*
X-31730D01*
X-34895Y22320D02*
Y24195D01*
X-33625Y22320D02*
Y24225D01*
X-34400Y25000D02*
X-33625Y24225D01*
X-32355Y22320D02*
Y23521D01*
X-34234Y25400D02*
X-32355Y23521D01*
X-37300Y13100D02*
X-35300Y15100D01*
X-37300Y-8500D02*
Y13100D01*
X-35466Y15500D02*
X-32600D01*
X-37700Y13266D02*
X-35466Y15500D01*
X-37700Y-8669D02*
Y13266D01*
X-35631Y15900D02*
X-33500D01*
X-38100Y13431D02*
X-35631Y15900D01*
X-38100Y-8834D02*
Y13431D01*
X-35797Y16300D02*
X-34300D01*
X-38500Y13597D02*
X-35797Y16300D01*
X-38500Y-9000D02*
Y13597D01*
X-35963Y16700D02*
X-35100D01*
X-38900Y13763D02*
X-35963Y16700D01*
X-38900Y-9166D02*
Y13763D01*
Y-9166D02*
X-35700Y-12366D01*
X-39300Y-9331D02*
X-36600Y-12031D01*
X-35700Y-13400D02*
Y-12366D01*
X-38500Y-9000D02*
X-34850Y-12650D01*
X-38100Y-8834D02*
X-35034Y-11900D01*
X-20600D01*
X-19500Y-13000D01*
X-37700Y-8669D02*
X-34869Y-11500D01*
X-19400D01*
X-37300Y-8500D02*
X-34703Y-11097D01*
X-18003D01*
X-17500Y-11600D01*
X-22195Y17005D02*
Y18320D01*
X-22518Y16682D02*
X-22195Y17005D01*
X-29582Y16682D02*
X-22518D01*
X-31564Y14700D02*
X-29582Y16682D01*
X-35134Y14700D02*
X-31564D01*
X-36900Y12934D02*
X-35134Y14700D01*
X-36900Y-8334D02*
Y12934D01*
Y-8334D02*
X-34537Y-10697D01*
X-16603D01*
X-16500Y-10800D01*
X-19400Y-11500D02*
X-18550Y-12350D01*
X-21500Y-12300D02*
X-20800Y-13000D01*
X-36000Y-14200D02*
X-35400D01*
X-33500Y-12300D01*
X-21500D01*
X-29815Y-18320D02*
Y-16815D01*
X-26000Y-13000D01*
X-27300Y-13734D02*
Y-13000D01*
X-31085Y-17519D02*
X-27300Y-13734D01*
X-31085Y-18320D02*
Y-17519D01*
X-9700Y-8300D02*
X-8600Y-7200D01*
X-11900Y-18185D02*
Y-16500D01*
X-13305Y-24805D02*
Y-22320D01*
X-11140Y-7200D02*
X-10040Y-6100D01*
X-39300Y-9331D02*
Y22400D01*
X-36700Y25000D01*
X-34400D01*
X-39700Y22566D02*
X-36866Y25400D01*
X-39700Y-9497D02*
Y22566D01*
X-36866Y25400D02*
X-34234D01*
X-36600Y-13600D02*
Y-12031D01*
Y-13600D02*
X-36000Y-14200D01*
X-37000Y-14400D02*
Y-12197D01*
X-39700Y-9497D02*
X-37000Y-12197D01*
Y-14400D02*
X-36500Y-14900D01*
X-20925Y16425D02*
Y18320D01*
X-37480D02*
X-36165D01*
X-43000Y-17700D02*
X-43000Y-17700D01*
X-36165Y21765D02*
Y22320D01*
X-38500Y19430D02*
X-36165Y21765D01*
X-38500Y16800D02*
Y19430D01*
D23*
X-29200Y-9300D02*
D03*
Y700D02*
D03*
X-18760Y-7200D02*
D03*
X-16220D02*
D03*
X-13680D02*
D03*
X-11140D02*
D03*
D24*
X23400Y-11500D02*
D03*
Y-5500D02*
D03*
Y-7500D02*
D03*
Y-9500D02*
D03*
D25*
X28850Y-22750D02*
D03*
Y-27250D02*
D03*
X31850Y-13250D02*
D03*
Y-17750D02*
D03*
D26*
X26350Y-21500D02*
D03*
Y-28500D02*
D03*
X29350Y-12000D02*
D03*
Y-19000D02*
D03*
D27*
X-34900Y10450D02*
D03*
Y13550D02*
D03*
D28*
X-8600Y-7200D02*
D03*
D29*
X-1200Y-14000D02*
D03*
Y14000D02*
D03*
D30*
X-29200Y7000D02*
D03*
X-35100Y7000D02*
D03*
X-30984Y-25584D02*
D03*
X-35700Y-25400D02*
D03*
X-38980Y-22220D02*
D03*
X-41000Y-22200D02*
D03*
X-43000D02*
D03*
X-12670Y20320D02*
D03*
X-35530D02*
D03*
X-12670Y-20320D02*
D03*
X-35530D02*
D03*
X-34895Y24195D02*
D03*
X-34800Y-12600D02*
D03*
X-35700Y-13400D02*
D03*
X-36500Y-14900D02*
D03*
X-19500Y-13000D02*
D03*
X-18500Y-12300D02*
D03*
X-17500Y-11600D02*
D03*
X-16500Y-10900D02*
D03*
X-27300Y-13000D02*
D03*
X-26000D02*
D03*
X-20800D02*
D03*
X-11900Y-16500D02*
D03*
X-13305Y-24805D02*
D03*
X-18300Y16400D02*
D03*
X-19600D02*
D03*
X-20900D02*
D03*
X-37480Y18320D02*
D03*
X-27100Y14700D02*
D03*
X-16900Y16400D02*
D03*
X-19295Y11200D02*
D03*
X-11900Y15700D02*
D03*
X-43000Y-17700D02*
D03*
X-38500Y16800D02*
D03*
D31*
X-36165Y22320D02*
D03*
X-33625D02*
D03*
X-34895D02*
D03*
X-32355D02*
D03*
X-31085D02*
D03*
X-28545D02*
D03*
X-29815D02*
D03*
X-27275D02*
D03*
X-26005D02*
D03*
X-13305D02*
D03*
X-14575D02*
D03*
X-12035D02*
D03*
X-18385D02*
D03*
X-19655D02*
D03*
X-17115D02*
D03*
X-15845D02*
D03*
X-20925D02*
D03*
X-22195D02*
D03*
X-24735D02*
D03*
X-23465D02*
D03*
X-22195Y18320D02*
D03*
X-23465D02*
D03*
X-20925D02*
D03*
X-19655D02*
D03*
X-15845D02*
D03*
X-17115D02*
D03*
X-36165D02*
D03*
X-18385D02*
D03*
X-12035D02*
D03*
X-14575D02*
D03*
X-13305D02*
D03*
X-24735D02*
D03*
X-26005D02*
D03*
X-28545D02*
D03*
X-27275D02*
D03*
X-29815D02*
D03*
X-31085D02*
D03*
X-33625D02*
D03*
X-32355D02*
D03*
X-34895D02*
D03*
X-36165Y-18320D02*
D03*
X-33625D02*
D03*
X-34895D02*
D03*
X-32355D02*
D03*
X-31085D02*
D03*
X-28545D02*
D03*
X-29815D02*
D03*
X-27275D02*
D03*
X-26005D02*
D03*
X-13305D02*
D03*
X-14575D02*
D03*
X-12035D02*
D03*
X-18385D02*
D03*
X-19655D02*
D03*
X-17115D02*
D03*
X-15845D02*
D03*
X-20925D02*
D03*
X-22195D02*
D03*
X-24735D02*
D03*
X-23465D02*
D03*
X-22195Y-22320D02*
D03*
X-23465D02*
D03*
X-20925D02*
D03*
X-19655D02*
D03*
X-15845D02*
D03*
X-17115D02*
D03*
X-36165D02*
D03*
X-18385D02*
D03*
X-12035D02*
D03*
X-14575D02*
D03*
X-13305D02*
D03*
X-24735D02*
D03*
X-26005D02*
D03*
X-28545D02*
D03*
X-27275D02*
D03*
X-29815D02*
D03*
X-31085D02*
D03*
X-33625D02*
D03*
X-32355D02*
D03*
X-34895D02*
D03*
M02*
