%FSLAX43Y43*%
%MOMM*%
G71*
G01*
G75*
G04 Layer_Color=65535*
%ADD10C,0.600*%
%ADD11R,0.550X1.450*%
%ADD12R,1.000X1.000*%
%ADD13R,0.900X0.950*%
%ADD14R,0.900X0.950*%
%ADD15R,0.762X1.372*%
%ADD16R,1.372X0.762*%
%ADD17R,1.372X0.864*%
%ADD18R,0.864X1.372*%
%ADD19O,2.500X0.700*%
%ADD20R,2.032X2.032*%
%ADD21C,0.300*%
%ADD22C,0.200*%
%ADD23C,1.500*%
%ADD24C,1.400*%
%ADD25C,1.600*%
%ADD26C,1.800*%
%ADD27C,1.300*%
%ADD28R,1.500X1.500*%
%ADD29C,6.000*%
%ADD30C,0.800*%
%ADD31R,0.800X2.000*%
%ADD32C,0.250*%
%ADD33C,0.508*%
%ADD34C,0.100*%
%ADD35C,0.152*%
%ADD36C,0.018*%
%ADD37C,0.013*%
%ADD38C,0.254*%
%ADD39C,0.400*%
%ADD40C,0.150*%
%ADD41C,0.500*%
%ADD42R,28.300X4.300*%
D22*
X23600Y-23100D02*
G03*
X23600Y-23100I-1400J0D01*
G01*
X-41100Y27500D02*
G03*
X-41100Y27500I-1400J0D01*
G01*
X-22950Y-2000D02*
G03*
X-22950Y-2000I-6250J0D01*
G01*
X-33878Y10845D02*
G03*
X-33894Y13189I-1022J1165D01*
G01*
X-35906Y13179D02*
G03*
X-35922Y10835I1006J-1179D01*
G01*
X-31500Y-9300D02*
X-26900D01*
Y-7800D01*
X-31500Y-9300D02*
Y-7800D01*
X-36050Y-150D02*
Y250D01*
Y-150D02*
X-35850D01*
X-37350D02*
X-37150D01*
Y250D01*
X-37350Y-1650D02*
Y250D01*
X-35850Y-1650D02*
Y250D01*
X-37350Y-1650D02*
X-37150D01*
X-37350Y250D02*
X-37150D01*
X-36050Y-1650D02*
X-35850D01*
X-36050Y250D02*
X-35850D01*
X-11800Y-2200D02*
X-8200D01*
Y1600D01*
X-11800D02*
X-8200D01*
X-11800Y-2200D02*
Y1600D01*
X-11500Y14800D02*
Y16425D01*
X-8500Y14800D02*
Y16425D01*
X-8950Y14800D02*
X-8500D01*
X-11500D02*
X-11050D01*
X-1200Y-14000D02*
X1200D01*
X-7330Y-8470D02*
Y6770D01*
X-20030D02*
X-7330D01*
X-20030Y-8470D02*
Y6770D01*
Y-8470D02*
X-7330D01*
X-27400Y7750D02*
Y12750D01*
X-25800Y7750D02*
Y12750D01*
X-27400D02*
X-25800D01*
X-27400Y7750D02*
X-25800D01*
X-33080Y-14154D02*
Y-13900D01*
X-15300Y-14154D02*
Y-13900D01*
X-33080Y-29902D02*
Y-29394D01*
X-15300Y-29902D02*
Y-29394D01*
X-33080Y-29902D02*
X-15300D01*
X-33080Y-13900D02*
X-15300D01*
X-20380Y-29902D02*
Y-26346D01*
X-25714D02*
X-20380D01*
X-25714Y-29902D02*
Y-26346D01*
X-8200Y12300D02*
Y13300D01*
X-7700D01*
X-7534Y13133D01*
Y12800D01*
X-7700Y12633D01*
X-8200D01*
X-7867D02*
X-7534Y12300D01*
X-7200D02*
X-6867D01*
X-7034D01*
Y13300D01*
X-7200Y13133D01*
X-6367D02*
X-6201Y13300D01*
X-5867D01*
X-5701Y13133D01*
Y12467D01*
X-5867Y12300D01*
X-6201D01*
X-6367Y12467D01*
Y13133D01*
X25600Y-5100D02*
X24600D01*
Y-5600D01*
X24767Y-5766D01*
X25433D01*
X25600Y-5600D01*
Y-5100D01*
X24600Y-6766D02*
Y-6100D01*
X25266Y-6766D01*
X25433D01*
X25600Y-6600D01*
Y-6266D01*
X25433Y-6100D01*
X28800Y-14900D02*
Y-15900D01*
X29300D01*
X29466Y-15733D01*
Y-15567D01*
X29300Y-15400D01*
X28800D01*
X29300D01*
X29466Y-15234D01*
Y-15067D01*
X29300Y-14900D01*
X28800D01*
X29800Y-15900D02*
X30133D01*
X29966D01*
Y-14900D01*
X29800Y-15067D01*
X-36300Y-8600D02*
X-35300D01*
Y-8100D01*
X-35467Y-7934D01*
X-35633D01*
X-35800Y-8100D01*
Y-8600D01*
Y-8100D01*
X-35966Y-7934D01*
X-36133D01*
X-36300Y-8100D01*
Y-8600D01*
Y-7600D02*
Y-6934D01*
Y-7267D01*
X-35300D01*
Y-6601D02*
Y-6267D01*
Y-6434D01*
X-36300D01*
X-36133Y-6601D01*
X-38633Y7166D02*
X-38800Y7000D01*
Y6667D01*
X-38633Y6500D01*
X-37967D01*
X-37800Y6667D01*
Y7000D01*
X-37967Y7166D01*
X-37800Y8166D02*
Y7500D01*
X-38466Y8166D01*
X-38633D01*
X-38800Y8000D01*
Y7666D01*
X-38633Y7500D01*
X-32233Y7266D02*
X-32400Y7100D01*
Y6767D01*
X-32233Y6600D01*
X-31567D01*
X-31400Y6767D01*
Y7100D01*
X-31567Y7266D01*
X-32400Y7600D02*
Y8266D01*
X-32233D01*
X-31567Y7600D01*
X-31400D01*
X-27834Y15033D02*
X-28000Y15200D01*
X-28333D01*
X-28500Y15033D01*
Y14367D01*
X-28333Y14200D01*
X-28000D01*
X-27834Y14367D01*
X-27500Y15033D02*
X-27334Y15200D01*
X-27000D01*
X-26834Y15033D01*
Y14866D01*
X-27000Y14700D01*
X-26834Y14533D01*
Y14367D01*
X-27000Y14200D01*
X-27334D01*
X-27500Y14367D01*
Y14533D01*
X-27334Y14700D01*
X-27500Y14866D01*
Y15033D01*
X-27334Y14700D02*
X-27000D01*
X-39000Y-1600D02*
X-38000D01*
Y-1100D01*
X-38167Y-934D01*
X-38833D01*
X-39000Y-1100D01*
Y-1600D01*
X-38833Y-600D02*
X-39000Y-434D01*
Y-100D01*
X-38833Y66D01*
X-38666D01*
X-38500Y-100D01*
Y-267D01*
Y-100D01*
X-38333Y66D01*
X-38167D01*
X-38000Y-100D01*
Y-434D01*
X-38167Y-600D01*
X-37900Y2500D02*
X-38900D01*
Y3000D01*
X-38733Y3166D01*
X-38400D01*
X-38233Y3000D01*
Y2500D01*
Y2833D02*
X-37900Y3166D01*
X-38733Y3500D02*
X-38900Y3666D01*
Y4000D01*
X-38733Y4166D01*
X-38566D01*
X-38400Y4000D01*
Y3833D01*
Y4000D01*
X-38233Y4166D01*
X-38067D01*
X-37900Y4000D01*
Y3666D01*
X-38067Y3500D01*
X-15300Y18100D02*
Y19100D01*
X-14800D01*
X-14634Y18933D01*
Y18600D01*
X-14800Y18433D01*
X-15300D01*
X-14967D02*
X-14634Y18100D01*
X-14300Y18933D02*
X-14134Y19100D01*
X-13800D01*
X-13634Y18933D01*
Y18766D01*
X-13800Y18600D01*
X-13634Y18433D01*
Y18267D01*
X-13800Y18100D01*
X-14134D01*
X-14300Y18267D01*
Y18433D01*
X-14134Y18600D01*
X-14300Y18766D01*
Y18933D01*
X-14134Y18600D02*
X-13800D01*
X-28000Y5500D02*
X-27167D01*
X-27000Y5667D01*
Y6000D01*
X-27167Y6166D01*
X-28000D01*
X-27000Y7166D02*
Y6500D01*
X-27666Y7166D01*
X-27833D01*
X-28000Y7000D01*
Y6666D01*
X-27833Y6500D01*
X-38600Y11000D02*
X-38433D01*
X-38100Y11333D01*
X-38433Y11666D01*
X-38600D01*
X-38100Y11333D02*
X-37600D01*
Y12666D02*
Y12000D01*
X-38266Y12666D01*
X-38433D01*
X-38600Y12500D01*
Y12166D01*
X-38433Y12000D01*
X-37433Y-28034D02*
X-37600Y-28200D01*
Y-28533D01*
X-37433Y-28700D01*
X-36767D01*
X-36600Y-28533D01*
Y-28200D01*
X-36767Y-28034D01*
X-36600Y-27700D02*
Y-27367D01*
Y-27534D01*
X-37600D01*
X-37433Y-27700D01*
Y-26867D02*
X-37600Y-26701D01*
Y-26367D01*
X-37433Y-26201D01*
X-36767D01*
X-36600Y-26367D01*
Y-26701D01*
X-36767Y-26867D01*
X-37433D01*
X-34006Y-13100D02*
Y-12100D01*
X-33673Y-12433D01*
X-33340Y-12100D01*
Y-13100D01*
X-33006D02*
X-32673D01*
X-32840D01*
Y-12100D01*
X-33006Y-12267D01*
X-36200Y25000D02*
X-37200D01*
Y25500D01*
X-37033Y25666D01*
X-36700D01*
X-36533Y25500D01*
Y25000D01*
Y25333D02*
X-36200Y25666D01*
Y26000D02*
Y26333D01*
Y26166D01*
X-37200D01*
X-37033Y26000D01*
X-37200Y27499D02*
Y26833D01*
X-36700D01*
X-36866Y27166D01*
Y27333D01*
X-36700Y27499D01*
X-36367D01*
X-36200Y27333D01*
Y26999D01*
X-36367Y26833D01*
X-20500Y-8400D02*
X-21500D01*
X-21166Y-8067D01*
X-21500Y-7734D01*
X-20500D01*
Y-6734D02*
Y-7400D01*
X-21166Y-6734D01*
X-21333D01*
X-21500Y-6900D01*
Y-7234D01*
X-21333Y-7400D01*
X-12400Y-2200D02*
X-13400D01*
X-13066Y-1867D01*
X-13400Y-1534D01*
X-12400D01*
X-13233Y-1200D02*
X-13400Y-1034D01*
Y-700D01*
X-13233Y-534D01*
X-13066D01*
X-12900Y-700D01*
Y-867D01*
Y-700D01*
X-12733Y-534D01*
X-12567D01*
X-12400Y-700D01*
Y-1034D01*
X-12567Y-1200D01*
X-7167Y15666D02*
X-7833D01*
X-8000Y15500D01*
Y15167D01*
X-7833Y15000D01*
X-7167D01*
X-7000Y15167D01*
Y15500D01*
X-7333Y15333D02*
X-7000Y15666D01*
Y15500D02*
X-7167Y15666D01*
X-7000Y16000D02*
Y16333D01*
Y16166D01*
X-8000D01*
X-7833Y16000D01*
X-17500Y11500D02*
Y12500D01*
X-17000D01*
X-16834Y12333D01*
Y12000D01*
X-17000Y11833D01*
X-17500D01*
X-17167D02*
X-16834Y11500D01*
X-16500Y12500D02*
X-15834D01*
Y12333D01*
X-16500Y11667D01*
Y11500D01*
X-17500Y9100D02*
Y10100D01*
X-17000D01*
X-16834Y9933D01*
Y9600D01*
X-17000Y9433D01*
X-17500D01*
X-17167D02*
X-16834Y9100D01*
X-16500Y9267D02*
X-16334Y9100D01*
X-16000D01*
X-15834Y9267D01*
Y9933D01*
X-16000Y10100D01*
X-16334D01*
X-16500Y9933D01*
Y9766D01*
X-16334Y9600D01*
X-15834D01*
X-20400Y12800D02*
X-21400D01*
Y13300D01*
X-21233Y13466D01*
X-20900D01*
X-20733Y13300D01*
Y12800D01*
Y13133D02*
X-20400Y13466D01*
Y13800D02*
Y14133D01*
Y13966D01*
X-21400D01*
X-21233Y13800D01*
X-20400Y14633D02*
Y14966D01*
Y14799D01*
X-21400D01*
X-21233Y14633D01*
X-42500Y-28600D02*
X-43500D01*
Y-28100D01*
X-43333Y-27934D01*
X-43000D01*
X-42833Y-28100D01*
Y-28600D01*
Y-28267D02*
X-42500Y-27934D01*
Y-27600D02*
Y-27267D01*
Y-27434D01*
X-43500D01*
X-43333Y-27600D01*
Y-26767D02*
X-43500Y-26601D01*
Y-26267D01*
X-43333Y-26101D01*
X-43166D01*
X-43000Y-26267D01*
Y-26434D01*
Y-26267D01*
X-42833Y-26101D01*
X-42667D01*
X-42500Y-26267D01*
Y-26601D01*
X-42667Y-26767D01*
X-40500Y-28600D02*
X-41500D01*
Y-28100D01*
X-41333Y-27934D01*
X-41000D01*
X-40833Y-28100D01*
Y-28600D01*
Y-28267D02*
X-40500Y-27934D01*
Y-27600D02*
Y-27267D01*
Y-27434D01*
X-41500D01*
X-41333Y-27600D01*
X-40500Y-26267D02*
X-41500D01*
X-41000Y-26767D01*
Y-26101D01*
X-38500Y-28700D02*
X-39500D01*
Y-28200D01*
X-39333Y-28034D01*
X-39000D01*
X-38833Y-28200D01*
Y-28700D01*
Y-28367D02*
X-38500Y-28034D01*
Y-27700D02*
Y-27367D01*
Y-27534D01*
X-39500D01*
X-39333Y-27700D01*
X-39500Y-26201D02*
X-39333Y-26534D01*
X-39000Y-26867D01*
X-38667D01*
X-38500Y-26701D01*
Y-26367D01*
X-38667Y-26201D01*
X-38833D01*
X-39000Y-26367D01*
Y-26867D01*
X-42500Y-18300D02*
X-43500D01*
Y-17800D01*
X-43333Y-17634D01*
X-43000D01*
X-42833Y-17800D01*
Y-18300D01*
Y-17967D02*
X-42500Y-17634D01*
Y-17300D02*
Y-16967D01*
Y-17134D01*
X-43500D01*
X-43333Y-17300D01*
X-43500Y-16467D02*
Y-15801D01*
X-43333D01*
X-42667Y-16467D01*
X-42500D01*
X-40500Y-18300D02*
X-41500D01*
Y-17800D01*
X-41333Y-17634D01*
X-41000D01*
X-40833Y-17800D01*
Y-18300D01*
Y-17967D02*
X-40500Y-17634D01*
Y-17300D02*
Y-16967D01*
Y-17134D01*
X-41500D01*
X-41333Y-17300D01*
Y-16467D02*
X-41500Y-16301D01*
Y-15967D01*
X-41333Y-15801D01*
X-41166D01*
X-41000Y-15967D01*
X-40833Y-15801D01*
X-40667D01*
X-40500Y-15967D01*
Y-16301D01*
X-40667Y-16467D01*
X-40833D01*
X-41000Y-16301D01*
X-41166Y-16467D01*
X-41333D01*
X-41000Y-16301D02*
Y-15967D01*
X-38500Y-18300D02*
X-39500D01*
Y-17800D01*
X-39333Y-17634D01*
X-39000D01*
X-38833Y-17800D01*
Y-18300D01*
Y-17967D02*
X-38500Y-17634D01*
Y-17300D02*
Y-16967D01*
Y-17134D01*
X-39500D01*
X-39333Y-17300D01*
X-38667Y-16467D02*
X-38500Y-16301D01*
Y-15967D01*
X-38667Y-15801D01*
X-39333D01*
X-39500Y-15967D01*
Y-16301D01*
X-39333Y-16467D01*
X-39166D01*
X-39000Y-16301D01*
Y-15801D01*
X-10000Y-11500D02*
Y-10500D01*
X-9500D01*
X-9334Y-10667D01*
Y-11000D01*
X-9500Y-11167D01*
X-10000D01*
X-9667D02*
X-9334Y-11500D01*
X-9000D02*
X-8667D01*
X-8834D01*
Y-10500D01*
X-9000Y-10667D01*
X-10000Y-13800D02*
Y-12800D01*
X-9500D01*
X-9334Y-12967D01*
Y-13300D01*
X-9500Y-13467D01*
X-10000D01*
X-9667D02*
X-9334Y-13800D01*
X-8334Y-12800D02*
X-9000D01*
Y-13300D01*
X-8667Y-13134D01*
X-8500D01*
X-8334Y-13300D01*
Y-13633D01*
X-8500Y-13800D01*
X-8834D01*
X-9000Y-13633D01*
X-38500Y-11800D02*
X-39500D01*
Y-11300D01*
X-39333Y-11134D01*
X-39000D01*
X-38833Y-11300D01*
Y-11800D01*
Y-11467D02*
X-38500Y-11134D01*
X-39500Y-10134D02*
X-39333Y-10467D01*
X-39000Y-10800D01*
X-38667D01*
X-38500Y-10634D01*
Y-10300D01*
X-38667Y-10134D01*
X-38833D01*
X-39000Y-10300D01*
Y-10800D01*
X25300Y-24600D02*
Y-25600D01*
X25800D01*
X25966Y-25433D01*
Y-25267D01*
X25800Y-25100D01*
X25300D01*
X25800D01*
X25966Y-24934D01*
Y-24767D01*
X25800Y-24600D01*
X25300D01*
X26966Y-25600D02*
X26300D01*
X26966Y-24934D01*
Y-24767D01*
X26800Y-24600D01*
X26466D01*
X26300Y-24767D01*
X-38600Y25000D02*
X-39600D01*
Y25500D01*
X-39433Y25666D01*
X-39100D01*
X-38933Y25500D01*
Y25000D01*
Y25333D02*
X-38600Y25666D01*
Y26500D02*
X-39600D01*
X-39100Y26000D01*
Y26666D01*
X-17500Y13900D02*
Y14900D01*
X-17000D01*
X-16834Y14733D01*
Y14400D01*
X-17000Y14233D01*
X-17500D01*
X-17167D02*
X-16834Y13900D01*
X-15834D02*
X-16500D01*
X-15834Y14566D01*
Y14733D01*
X-16000Y14900D01*
X-16334D01*
X-16500Y14733D01*
X-43100Y-8400D02*
X-43766D01*
X-44100Y-8067D01*
X-43766Y-7734D01*
X-43100D01*
X-43600D01*
Y-8400D01*
X-44100Y-6734D02*
X-43100D01*
Y-7234D01*
X-43267Y-7400D01*
X-43600D01*
X-43766Y-7234D01*
Y-6734D01*
Y-6234D02*
Y-5901D01*
X-43600Y-5734D01*
X-43100D01*
Y-6234D01*
X-43267Y-6401D01*
X-43433Y-6234D01*
Y-5734D01*
X-42767Y-5401D02*
X-43766D01*
Y-4901D01*
X-43600Y-4735D01*
X-43267D01*
X-43100Y-4901D01*
Y-5401D01*
X-43933Y-4235D02*
X-43766D01*
Y-4401D01*
Y-4068D01*
Y-4235D01*
X-43267D01*
X-43100Y-4068D01*
Y-3068D02*
Y-3402D01*
X-43267Y-3568D01*
X-43600D01*
X-43766Y-3402D01*
Y-3068D01*
X-43600Y-2902D01*
X-43433D01*
Y-3568D01*
X-43766Y-2569D02*
X-43100D01*
X-43433D01*
X-43600Y-2402D01*
X-43766Y-2235D01*
Y-2069D01*
X-43600Y-1569D02*
Y-902D01*
X-44100Y-569D02*
X-43100D01*
Y-69D01*
X-43267Y97D01*
X-43433D01*
X-43600D01*
X-43766Y-69D01*
Y-569D01*
X-43100Y597D02*
Y930D01*
X-43267Y1097D01*
X-43600D01*
X-43766Y930D01*
Y597D01*
X-43600Y430D01*
X-43267D01*
X-43100Y597D01*
X-43766Y1597D02*
Y1930D01*
X-43600Y2097D01*
X-43100D01*
Y1597D01*
X-43267Y1430D01*
X-43433Y1597D01*
Y2097D01*
X-43766Y2430D02*
X-43100D01*
X-43433D01*
X-43600Y2596D01*
X-43766Y2763D01*
Y2930D01*
X-44100Y4096D02*
X-43100D01*
Y3596D01*
X-43267Y3430D01*
X-43600D01*
X-43766Y3596D01*
Y4096D01*
X-44100Y5429D02*
X-43433D01*
X-43100Y5762D01*
X-43433Y6095D01*
X-44100D01*
X-43100Y6429D02*
Y6762D01*
Y6595D01*
X-44100D01*
X-43933Y6429D01*
X-43100Y7262D02*
X-43267D01*
Y7428D01*
X-43100D01*
Y7262D01*
X-43933Y8095D02*
X-44100Y8261D01*
Y8595D01*
X-43933Y8761D01*
X-43766D01*
X-43600Y8595D01*
Y8428D01*
Y8595D01*
X-43433Y8761D01*
X-43267D01*
X-43100Y8595D01*
Y8261D01*
X-43267Y8095D01*
D32*
X-7925Y17250D02*
G03*
X-7925Y17250I-125J0D01*
G01*
X-28925Y13055D02*
G03*
X-28925Y13055I-125J0D01*
G01*
D33*
X-13268Y-28124D02*
G03*
X-13268Y-28124I-254J0D01*
G01*
D34*
X27850Y-28700D02*
Y-21300D01*
X31400Y-26750D02*
X31700D01*
Y-23250D01*
X31400D02*
X31700D01*
X31400Y-28700D02*
Y-21300D01*
X27350D02*
X31400D01*
X24850D02*
X25350D01*
X24850Y-28700D02*
X25350D01*
X27350D02*
X31400D01*
X30850Y-19200D02*
Y-11800D01*
X34400Y-17250D02*
X34700D01*
Y-13750D01*
X34400D02*
X34700D01*
X34400Y-19200D02*
Y-11800D01*
X30350D02*
X34400D01*
X27850D02*
X28350D01*
X27850Y-19200D02*
X28350D01*
X30350D02*
X34400D01*
D35*
X-13936Y14019D02*
Y14781D01*
X-14064Y14019D02*
Y14781D01*
X-12540Y13511D02*
Y15289D01*
X-13175D02*
X-12540D01*
X-13175Y13511D02*
X-12540D01*
X-15460D02*
X-14825D01*
X-15460Y15289D02*
X-14825D01*
X-15460Y13511D02*
Y15289D01*
X-39481Y23264D02*
X-38719D01*
X-39481Y23136D02*
X-38719D01*
X-39989Y24660D02*
X-38211D01*
X-39989Y24025D02*
Y24660D01*
X-38211Y24025D02*
Y24660D01*
Y21740D02*
Y22375D01*
X-39989Y21740D02*
Y22375D01*
Y21740D02*
X-38211D01*
X-39381Y-13663D02*
X-38619D01*
X-39381Y-13536D02*
X-38619D01*
X-39889Y-15061D02*
X-38111D01*
Y-14425D01*
X-39889Y-15061D02*
Y-14425D01*
Y-12774D02*
Y-12139D01*
X-38111Y-12774D02*
Y-12139D01*
X-39889D02*
X-38111D01*
X-11837Y-13681D02*
Y-12919D01*
X-11964Y-13681D02*
Y-12919D01*
X-10439Y-14189D02*
Y-12411D01*
X-11075D02*
X-10439D01*
X-11075Y-14189D02*
X-10439D01*
X-13361D02*
X-12726D01*
X-13361Y-12411D02*
X-12726D01*
X-13361Y-14189D02*
Y-12411D01*
X-11837Y-11381D02*
Y-10619D01*
X-11964Y-11381D02*
Y-10619D01*
X-10439Y-11889D02*
Y-10111D01*
X-11075D02*
X-10439D01*
X-11075Y-11889D02*
X-10439D01*
X-13361D02*
X-12726D01*
X-13361Y-10111D02*
X-12726D01*
X-13361Y-11889D02*
Y-10111D01*
X-39381Y-20037D02*
X-38619D01*
X-39381Y-20163D02*
X-38619D01*
X-39889Y-18639D02*
X-38111D01*
X-39889Y-19274D02*
Y-18639D01*
X-38111Y-19274D02*
Y-18639D01*
Y-21560D02*
Y-20926D01*
X-39889Y-21560D02*
Y-20926D01*
Y-21560D02*
X-38111D01*
X-41381Y-20037D02*
X-40619D01*
X-41381Y-20163D02*
X-40619D01*
X-41889Y-18639D02*
X-40111D01*
X-41889Y-19274D02*
Y-18639D01*
X-40111Y-19274D02*
Y-18639D01*
Y-21560D02*
Y-20926D01*
X-41889Y-21560D02*
Y-20926D01*
Y-21560D02*
X-40111D01*
X-43381Y-20037D02*
X-42619D01*
X-43381Y-20163D02*
X-42619D01*
X-43889Y-18639D02*
X-42111D01*
X-43889Y-19274D02*
Y-18639D01*
X-42111Y-19274D02*
Y-18639D01*
Y-21560D02*
Y-20926D01*
X-43889Y-21560D02*
Y-20926D01*
Y-21560D02*
X-42111D01*
X-39381Y-24236D02*
X-38619D01*
X-39381Y-24364D02*
X-38619D01*
X-39889Y-22840D02*
X-38111D01*
X-39889Y-23475D02*
Y-22840D01*
X-38111Y-23475D02*
Y-22840D01*
Y-25760D02*
Y-25125D01*
X-39889Y-25760D02*
Y-25125D01*
Y-25760D02*
X-38111D01*
X-41381Y-24236D02*
X-40619D01*
X-41381Y-24364D02*
X-40619D01*
X-41889Y-22840D02*
X-40111D01*
X-41889Y-23475D02*
Y-22840D01*
X-40111Y-23475D02*
Y-22840D01*
Y-25760D02*
Y-25125D01*
X-41889Y-25760D02*
Y-25125D01*
Y-25760D02*
X-40111D01*
X-43381Y-24236D02*
X-42619D01*
X-43381Y-24364D02*
X-42619D01*
X-43889Y-22840D02*
X-42111D01*
X-43889Y-23475D02*
Y-22840D01*
X-42111Y-23475D02*
Y-22840D01*
Y-25760D02*
Y-25125D01*
X-43889Y-25760D02*
Y-25125D01*
Y-25760D02*
X-42111D01*
X-21181Y10837D02*
X-20419D01*
X-21181Y10964D02*
X-20419D01*
X-21689Y9439D02*
X-19911D01*
Y10075D01*
X-21689Y9439D02*
Y10075D01*
Y11726D02*
Y12361D01*
X-19911Y11726D02*
Y12361D01*
X-21689D02*
X-19911D01*
X-13936Y9219D02*
Y9981D01*
X-14064Y9219D02*
Y9981D01*
X-12540Y8711D02*
Y10489D01*
X-13175D02*
X-12540D01*
X-13175Y8711D02*
X-12540D01*
X-15460D02*
X-14825D01*
X-15460Y10489D02*
X-14825D01*
X-15460Y8711D02*
Y10489D01*
X-13936Y11619D02*
Y12381D01*
X-14064Y11619D02*
Y12381D01*
X-12540Y11111D02*
Y12889D01*
X-13175D02*
X-12540D01*
X-13175Y11111D02*
X-12540D01*
X-15460D02*
X-14825D01*
X-15460Y12889D02*
X-14825D01*
X-15460Y11111D02*
Y12889D01*
X-37181Y23264D02*
X-36419D01*
X-37181Y23136D02*
X-36419D01*
X-37689Y24660D02*
X-35911D01*
X-37689Y24025D02*
Y24660D01*
X-35911Y24025D02*
Y24660D01*
Y21740D02*
Y22375D01*
X-37689Y21740D02*
Y22375D01*
Y21740D02*
X-35911D01*
X-13936Y16419D02*
Y17181D01*
X-14064Y16419D02*
Y17181D01*
X-12540Y15911D02*
Y17689D01*
X-13175D02*
X-12540D01*
X-13175Y15911D02*
X-12540D01*
X-15460D02*
X-14825D01*
X-15460Y17689D02*
X-14825D01*
X-15460Y15911D02*
Y17689D01*
X-36981Y3737D02*
X-36219D01*
X-36981Y3864D02*
X-36219D01*
X-37489Y2339D02*
X-35711D01*
Y2974D01*
X-37489Y2339D02*
Y2974D01*
Y4626D02*
Y5260D01*
X-35711Y4626D02*
Y5260D01*
X-37489D02*
X-35711D01*
X-10036Y12419D02*
Y13181D01*
X-10163Y12419D02*
Y13181D01*
X-8639Y11911D02*
Y13689D01*
X-9274D02*
X-8639D01*
X-9274Y11911D02*
X-8639D01*
X-11561D02*
X-10925D01*
X-11561Y13689D02*
X-10925D01*
X-11561Y11911D02*
Y13689D01*
X-36489Y-25812D02*
X-34711D01*
X-36489Y-26448D02*
Y-25812D01*
X-34711Y-26448D02*
Y-25812D01*
Y-28987D02*
Y-28353D01*
X-36489Y-28987D02*
Y-28353D01*
Y-28987D02*
X-34711D01*
X-23312Y13811D02*
Y15589D01*
X-23948D02*
X-23312D01*
X-23948Y13811D02*
X-23312D01*
X-26487D02*
X-25853D01*
X-26487Y15589D02*
X-25853D01*
X-26487Y13811D02*
Y15589D01*
X-34389Y9337D02*
X-32611D01*
X-34389Y8703D02*
Y9337D01*
X-32611Y8703D02*
Y9337D01*
Y6162D02*
Y6798D01*
X-34389Y6162D02*
Y6798D01*
Y6162D02*
X-32611D01*
X-37489Y9337D02*
X-35711D01*
X-37489Y8703D02*
Y9337D01*
X-35711Y8703D02*
Y9337D01*
Y6162D02*
Y6798D01*
X-37489Y6162D02*
Y6798D01*
Y6162D02*
X-35711D01*
D36*
X11190Y-11278D02*
X12524D01*
X11173Y-11296D02*
X12542D01*
X11173Y-11313D02*
X12559D01*
X11155Y-11331D02*
X12559D01*
X11155Y-11349D02*
X12577D01*
X11137Y-11367D02*
X12577D01*
X11119Y-11384D02*
X12595D01*
X11119Y-11402D02*
X12613D01*
X11101Y-11420D02*
X12613D01*
X11101Y-11438D02*
X12631D01*
X11084Y-11456D02*
X12631D01*
X11084Y-11473D02*
X12648D01*
X11066Y-11491D02*
X12648D01*
X11048Y-11509D02*
X12666D01*
X11048Y-11527D02*
X12684D01*
X11030Y-11544D02*
X12684D01*
X11030Y-11562D02*
X12702D01*
X11013Y-11580D02*
X12702D01*
X10995Y-11598D02*
X12719D01*
X10995Y-11616D02*
X12737D01*
X10977Y-11633D02*
X12737D01*
X10977Y-11651D02*
X12755D01*
X10959Y-11669D02*
X12755D01*
X10959Y-11687D02*
X12773D01*
X10941Y-11704D02*
X12773D01*
X10924Y-11722D02*
X12791D01*
X10924Y-11740D02*
X12808D01*
X10906Y-11758D02*
X12808D01*
X10906Y-11776D02*
X12826D01*
X10888Y-11793D02*
X12826D01*
X10888Y-11811D02*
X12844D01*
X10870Y-11829D02*
X12844D01*
X10853Y-11847D02*
X12862D01*
X10853Y-11864D02*
X12879D01*
X10835Y-11882D02*
X12879D01*
X10835Y-11900D02*
X12897D01*
X10817Y-11918D02*
X12897D01*
X10799Y-11936D02*
X12915D01*
X10799Y-11953D02*
X12915D01*
X10781Y-11971D02*
X12933D01*
X10781Y-11989D02*
X12951D01*
X10764Y-12007D02*
X12951D01*
X10764Y-12025D02*
X12968D01*
X10746Y-12042D02*
X12968D01*
X10746Y-12060D02*
X12986D01*
X10728Y-12078D02*
X13004D01*
X10710Y-12096D02*
X13004D01*
X10710Y-12113D02*
X13022D01*
X10693Y-12131D02*
X13022D01*
X10675Y-12149D02*
X13040D01*
X10675Y-12167D02*
X13040D01*
X10657Y-12185D02*
X13057D01*
X10657Y-12202D02*
X13075D01*
X10639Y-12220D02*
X13075D01*
X10639Y-12238D02*
X13093D01*
X10621Y-12256D02*
X13093D01*
X10604Y-12273D02*
X13111D01*
X10604Y-12291D02*
X13128D01*
X10586Y-12309D02*
X13128D01*
X10586Y-12327D02*
X13146D01*
X10568Y-12345D02*
X13146D01*
X10568Y-12362D02*
X13164D01*
X10550Y-12380D02*
X13164D01*
X10533Y-12398D02*
X13182D01*
X10533Y-12416D02*
X13200D01*
X10533Y-12433D02*
X13200D01*
X10533Y-12451D02*
X13182D01*
X10550Y-12469D02*
X13182D01*
X10550Y-12487D02*
X13164D01*
X10568Y-12505D02*
X13146D01*
X10568Y-12522D02*
X13146D01*
X10586Y-12540D02*
X13128D01*
X13395D02*
X14729D01*
X10604Y-12558D02*
X13128D01*
X13377D02*
X14746D01*
X10604Y-12576D02*
X13111D01*
X13377D02*
X14746D01*
X10621Y-12593D02*
X13111D01*
X13360D02*
X14764D01*
X10621Y-12611D02*
X13093D01*
X13360D02*
X14764D01*
X10639Y-12629D02*
X13075D01*
X13342D02*
X14782D01*
X10657Y-12647D02*
X13075D01*
X13342D02*
X14800D01*
X10657Y-12665D02*
X13057D01*
X13324D02*
X14800D01*
X10675Y-12682D02*
X13057D01*
X13324D02*
X14818D01*
X10675Y-12700D02*
X13040D01*
X13306D02*
X14818D01*
X10693Y-12718D02*
X13022D01*
X13288D02*
X14835D01*
X8879Y-12736D02*
X10444D01*
X10693D02*
X13022D01*
X13288D02*
X14835D01*
X8861Y-12753D02*
X10444D01*
X10710D02*
X13022D01*
X13271D02*
X14853D01*
X8861Y-12771D02*
X10461D01*
X10728D02*
X13004D01*
X13253D02*
X14871D01*
X8843Y-12789D02*
X10461D01*
X10728D02*
X12986D01*
X13253D02*
X14871D01*
X8843Y-12807D02*
X10479D01*
X10746D02*
X12986D01*
X13235D02*
X14889D01*
X8826Y-12825D02*
X10497D01*
X10746D02*
X12968D01*
X13235D02*
X14889D01*
X8808Y-12842D02*
X10497D01*
X10764D02*
X12951D01*
X13217D02*
X14906D01*
X8808Y-12860D02*
X10515D01*
X10781D02*
X12951D01*
X13217D02*
X14924D01*
X8790Y-12878D02*
X10515D01*
X10781D02*
X12933D01*
X13200D02*
X14924D01*
X8790Y-12896D02*
X10533D01*
X10781D02*
X12933D01*
X13182D02*
X14942D01*
X8772Y-12914D02*
X10550D01*
X10799D02*
X12915D01*
X13182D02*
X14942D01*
X8772Y-12931D02*
X10550D01*
X10817D02*
X12915D01*
X13164D02*
X14960D01*
X8755Y-12949D02*
X10568D01*
X10817D02*
X12897D01*
X13164D02*
X14960D01*
X8737Y-12967D02*
X10568D01*
X10835D02*
X12897D01*
X13146D02*
X14978D01*
X8737Y-12985D02*
X10586D01*
X10853D02*
X12879D01*
X13128D02*
X14995D01*
X8719Y-13002D02*
X10586D01*
X10853D02*
X12862D01*
X13128D02*
X14995D01*
X8719Y-13020D02*
X10604D01*
X10870D02*
X12862D01*
X13128D02*
X15013D01*
X8701Y-13038D02*
X10621D01*
X10870D02*
X12844D01*
X13111D02*
X15013D01*
X8701Y-13056D02*
X10621D01*
X10888D02*
X12844D01*
X13093D02*
X15031D01*
X8683Y-13074D02*
X10639D01*
X10888D02*
X12826D01*
X13093D02*
X15031D01*
X8666Y-13091D02*
X10639D01*
X10906D02*
X12808D01*
X13075D02*
X15049D01*
X8666Y-13109D02*
X10657D01*
X10924D02*
X12808D01*
X13057D02*
X15066D01*
X8648Y-13127D02*
X10675D01*
X10924D02*
X12791D01*
X13057D02*
X15066D01*
X8648Y-13145D02*
X10675D01*
X10941D02*
X12791D01*
X13040D02*
X15084D01*
X8630Y-13162D02*
X10675D01*
X10941D02*
X12773D01*
X13040D02*
X15084D01*
X8630Y-13180D02*
X10693D01*
X10959D02*
X12773D01*
X13022D02*
X15102D01*
X8612Y-13198D02*
X10710D01*
X10977D02*
X12755D01*
X13022D02*
X15120D01*
X8594Y-13216D02*
X10710D01*
X10977D02*
X12737D01*
X13004D02*
X15120D01*
X8594Y-13234D02*
X10728D01*
X10995D02*
X12737D01*
X12986D02*
X15138D01*
X8577Y-13251D02*
X10746D01*
X10995D02*
X12719D01*
X12986D02*
X15138D01*
X8577Y-13269D02*
X10746D01*
X11013D02*
X12719D01*
X12968D02*
X15155D01*
X8559Y-13287D02*
X10764D01*
X11013D02*
X12702D01*
X12968D02*
X15155D01*
X8559Y-13305D02*
X10764D01*
X11030D02*
X12702D01*
X12951D02*
X15173D01*
X8541Y-13322D02*
X10781D01*
X11048D02*
X12684D01*
X12951D02*
X15191D01*
X8523Y-13340D02*
X10781D01*
X11048D02*
X12666D01*
X12933D02*
X15191D01*
X8523Y-13358D02*
X10799D01*
X11066D02*
X12666D01*
X12915D02*
X15209D01*
X8506Y-13376D02*
X10817D01*
X11066D02*
X12648D01*
X12915D02*
X15209D01*
X8488Y-13394D02*
X10817D01*
X11084D02*
X12631D01*
X12897D02*
X15226D01*
X8488Y-13411D02*
X10835D01*
X11084D02*
X12631D01*
X12897D02*
X15226D01*
X8470Y-13429D02*
X10835D01*
X11101D02*
X12631D01*
X12879D02*
X15244D01*
X8470Y-13447D02*
X10853D01*
X11119D02*
X12613D01*
X12879D02*
X15262D01*
X8452Y-13465D02*
X10870D01*
X11119D02*
X12595D01*
X12862D02*
X15262D01*
X8452Y-13482D02*
X10870D01*
X11137D02*
X12595D01*
X12844D02*
X15280D01*
X8434Y-13500D02*
X10888D01*
X11137D02*
X12577D01*
X12844D02*
X15280D01*
X8417Y-13518D02*
X10888D01*
X11155D02*
X12559D01*
X12826D02*
X15298D01*
X8417Y-13536D02*
X10906D01*
X11155D02*
X12559D01*
X12826D02*
X15298D01*
X8399Y-13554D02*
X10906D01*
X11173D02*
X12542D01*
X12808D02*
X15315D01*
X8399Y-13571D02*
X10924D01*
X11190D02*
X12542D01*
X12808D02*
X15333D01*
X8381Y-13589D02*
X10941D01*
X12791D02*
X15333D01*
X8381Y-13607D02*
X10941D01*
X12773D02*
X15351D01*
X8363Y-13625D02*
X10959D01*
X12773D02*
X15351D01*
X8346Y-13642D02*
X10959D01*
X12755D02*
X15369D01*
X8346Y-13660D02*
X10977D01*
X12737D02*
X15386D01*
X8328Y-13678D02*
X10977D01*
X12737D02*
X15386D01*
X8328Y-13696D02*
X10995D01*
X12737D02*
X15404D01*
X8328Y-13714D02*
X10995D01*
X12737D02*
X15386D01*
X8328Y-13731D02*
X10977D01*
X12737D02*
X15386D01*
X8346Y-13749D02*
X10959D01*
X12755D02*
X15369D01*
X8363Y-13767D02*
X10959D01*
X12755D02*
X15369D01*
X8363Y-13785D02*
X10941D01*
X12773D02*
X15351D01*
X8381Y-13803D02*
X10941D01*
X12791D02*
X15351D01*
X8399Y-13820D02*
X10924D01*
X11190D02*
X12542D01*
X12791D02*
X15333D01*
X8399Y-13838D02*
X10924D01*
X11173D02*
X12542D01*
X12808D02*
X15315D01*
X8417Y-13856D02*
X10906D01*
X11155D02*
X12559D01*
X12808D02*
X15315D01*
X8417Y-13874D02*
X10906D01*
X11155D02*
X12559D01*
X12826D02*
X15298D01*
X8434Y-13891D02*
X10888D01*
X11155D02*
X12577D01*
X12844D02*
X15298D01*
X8434Y-13909D02*
X10870D01*
X11137D02*
X12577D01*
X12844D02*
X15280D01*
X8452Y-13927D02*
X10870D01*
X11119D02*
X12595D01*
X12862D02*
X15280D01*
X8470Y-13945D02*
X10853D01*
X11119D02*
X12613D01*
X12862D02*
X15262D01*
X8470Y-13963D02*
X10835D01*
X11101D02*
X12613D01*
X12879D02*
X15244D01*
X8488Y-13980D02*
X10835D01*
X11101D02*
X12631D01*
X12879D02*
X15244D01*
X8488Y-13998D02*
X10835D01*
X11084D02*
X12631D01*
X12897D02*
X15226D01*
X8506Y-14016D02*
X10817D01*
X11066D02*
X12648D01*
X12915D02*
X15226D01*
X8506Y-14034D02*
X10799D01*
X11066D02*
X12648D01*
X12915D02*
X15209D01*
X8523Y-14051D02*
X10799D01*
X11048D02*
X12666D01*
X12933D02*
X15191D01*
X8541Y-14069D02*
X10781D01*
X11048D02*
X12684D01*
X12933D02*
X15191D01*
X8541Y-14087D02*
X10764D01*
X11030D02*
X12684D01*
X12951D02*
X15173D01*
X8559Y-14105D02*
X10764D01*
X11030D02*
X12702D01*
X12951D02*
X15173D01*
X8559Y-14123D02*
X10746D01*
X11013D02*
X12702D01*
X12968D02*
X15155D01*
X8577Y-14140D02*
X10746D01*
X10995D02*
X12719D01*
X12986D02*
X15155D01*
X8577Y-14158D02*
X10728D01*
X10995D02*
X12737D01*
X12986D02*
X15138D01*
X8594Y-14176D02*
X10728D01*
X10977D02*
X12737D01*
X13004D02*
X15120D01*
X8612Y-14194D02*
X10710D01*
X10977D02*
X12755D01*
X13004D02*
X15120D01*
X8612Y-14211D02*
X10693D01*
X10959D02*
X12755D01*
X13022D02*
X15102D01*
X8630Y-14229D02*
X10693D01*
X10941D02*
X12773D01*
X13040D02*
X15102D01*
X8630Y-14247D02*
X10675D01*
X10941D02*
X12773D01*
X13040D02*
X15084D01*
X8648Y-14265D02*
X10675D01*
X10924D02*
X12791D01*
X13057D02*
X15084D01*
X8648Y-14283D02*
X10657D01*
X10924D02*
X12808D01*
X13057D02*
X15066D01*
X8666Y-14300D02*
X10657D01*
X10906D02*
X12808D01*
X13075D02*
X15049D01*
X8683Y-14318D02*
X10639D01*
X10906D02*
X12826D01*
X13075D02*
X15049D01*
X8683Y-14336D02*
X10621D01*
X10888D02*
X12844D01*
X13093D02*
X15031D01*
X8701Y-14354D02*
X10621D01*
X10870D02*
X12844D01*
X13093D02*
X15031D01*
X8701Y-14371D02*
X10604D01*
X10870D02*
X12844D01*
X13111D02*
X15013D01*
X8719Y-14389D02*
X10604D01*
X10853D02*
X12862D01*
X13128D02*
X14995D01*
X8719Y-14407D02*
X10586D01*
X10853D02*
X12879D01*
X13128D02*
X14995D01*
X8737Y-14425D02*
X10568D01*
X10835D02*
X12879D01*
X13146D02*
X14978D01*
X8755Y-14443D02*
X10568D01*
X10835D02*
X12897D01*
X13164D02*
X14978D01*
X8755Y-14460D02*
X10550D01*
X10817D02*
X12915D01*
X13164D02*
X14960D01*
X8772Y-14478D02*
X10550D01*
X10799D02*
X12915D01*
X13164D02*
X14960D01*
X8772Y-14496D02*
X10533D01*
X10799D02*
X12933D01*
X13182D02*
X14942D01*
X8790Y-14514D02*
X10533D01*
X10781D02*
X12933D01*
X13200D02*
X14924D01*
X8808Y-14531D02*
X10515D01*
X10764D02*
X12951D01*
X13200D02*
X14924D01*
X8808Y-14549D02*
X10515D01*
X10764D02*
X12951D01*
X13217D02*
X14906D01*
X8826Y-14567D02*
X10497D01*
X10764D02*
X12968D01*
X13235D02*
X14906D01*
X8826Y-14585D02*
X10479D01*
X10746D02*
X12986D01*
X13235D02*
X14889D01*
X8843Y-14603D02*
X10479D01*
X10728D02*
X12986D01*
X13253D02*
X14871D01*
X8843Y-14620D02*
X10461D01*
X10728D02*
X13004D01*
X13253D02*
X14871D01*
X8861Y-14638D02*
X10444D01*
X10710D02*
X13004D01*
X13271D02*
X14871D01*
X8879Y-14656D02*
X10444D01*
X10710D02*
X13022D01*
X13271D02*
X14853D01*
X8879Y-14674D02*
X10444D01*
X10693D02*
X13022D01*
X13288D02*
X14835D01*
X10675Y-14692D02*
X13040D01*
X13306D02*
X14835D01*
X10675Y-14709D02*
X13057D01*
X13306D02*
X14818D01*
X10657Y-14727D02*
X13057D01*
X13324D02*
X14800D01*
X10657Y-14745D02*
X13075D01*
X13324D02*
X14800D01*
X10639Y-14763D02*
X13075D01*
X13342D02*
X14782D01*
X10639Y-14780D02*
X13093D01*
X13342D02*
X14782D01*
X10621Y-14798D02*
X13093D01*
X13360D02*
X14764D01*
X10604Y-14816D02*
X13111D01*
X13377D02*
X14764D01*
X10604Y-14834D02*
X13128D01*
X13377D02*
X14746D01*
X10586Y-14852D02*
X13128D01*
X13395D02*
X14729D01*
X10568Y-14869D02*
X13146D01*
X10568Y-14887D02*
X13146D01*
X10550Y-14905D02*
X13164D01*
X10550Y-14923D02*
X13164D01*
X10533Y-14940D02*
X13182D01*
X10533Y-14958D02*
X13200D01*
X10515Y-14976D02*
X13200D01*
X10533Y-14994D02*
X13182D01*
X10550Y-15012D02*
X13182D01*
X10550Y-15029D02*
X13164D01*
X10568Y-15047D02*
X13164D01*
X10568Y-15065D02*
X13146D01*
X10586Y-15083D02*
X13128D01*
X14231D02*
X14729D01*
X10604Y-15100D02*
X13128D01*
X13395D02*
X14746D01*
X10604Y-15118D02*
X13111D01*
X13377D02*
X14746D01*
X10621Y-15136D02*
X13111D01*
X13360D02*
X14764D01*
X10621Y-15154D02*
X13093D01*
X13360D02*
X14764D01*
X10639Y-15172D02*
X13075D01*
X13342D02*
X14782D01*
X10639Y-15189D02*
X13075D01*
X13324D02*
X14800D01*
X10657Y-15207D02*
X13075D01*
X13324D02*
X14800D01*
X10675Y-15225D02*
X13057D01*
X13306D02*
X14818D01*
X10675Y-15243D02*
X13040D01*
X13306D02*
X14818D01*
X10693Y-15260D02*
X13040D01*
X13288D02*
X14835D01*
X8879Y-15278D02*
X10444D01*
X10693D02*
X13022D01*
X13288D02*
X14853D01*
X8861Y-15296D02*
X10444D01*
X10710D02*
X13004D01*
X13271D02*
X14853D01*
X8861Y-15314D02*
X10461D01*
X10728D02*
X13004D01*
X13271D02*
X14871D01*
X8843Y-15332D02*
X10479D01*
X10728D02*
X12986D01*
X13253D02*
X14871D01*
X8843Y-15349D02*
X10479D01*
X10746D02*
X12986D01*
X13235D02*
X14889D01*
X8826Y-15367D02*
X10497D01*
X10746D02*
X12968D01*
X13235D02*
X14889D01*
X8808Y-15385D02*
X10497D01*
X10764D02*
X12968D01*
X13217D02*
X14906D01*
X8808Y-15403D02*
X10515D01*
X10764D02*
X12951D01*
X13217D02*
X14924D01*
X8790Y-15420D02*
X10515D01*
X10781D02*
X12933D01*
X13200D02*
X14924D01*
X8790Y-15438D02*
X10533D01*
X10799D02*
X12933D01*
X13182D02*
X14942D01*
X8772Y-15456D02*
X10550D01*
X10799D02*
X12915D01*
X13182D02*
X14942D01*
X8755Y-15474D02*
X10550D01*
X10817D02*
X12915D01*
X13164D02*
X14960D01*
X8755Y-15492D02*
X10568D01*
X10817D02*
X12897D01*
X13164D02*
X14960D01*
X8737Y-15509D02*
X10568D01*
X10835D02*
X12897D01*
X13146D02*
X14978D01*
X8737Y-15527D02*
X10586D01*
X10835D02*
X12879D01*
X13146D02*
X14995D01*
X8719Y-15545D02*
X10604D01*
X10853D02*
X12862D01*
X13128D02*
X14995D01*
X8719Y-15563D02*
X10604D01*
X10870D02*
X12862D01*
X13111D02*
X15013D01*
X8701Y-15581D02*
X10604D01*
X10870D02*
X12844D01*
X13111D02*
X15031D01*
X8683Y-15598D02*
X10621D01*
X10888D02*
X12844D01*
X13093D02*
X15031D01*
X8683Y-15616D02*
X10639D01*
X10888D02*
X12826D01*
X13093D02*
X15031D01*
X8666Y-15634D02*
X10639D01*
X10906D02*
X12808D01*
X13075D02*
X15049D01*
X8666Y-15652D02*
X10657D01*
X10924D02*
X12808D01*
X13075D02*
X15066D01*
X8648Y-15669D02*
X10675D01*
X10924D02*
X12791D01*
X13057D02*
X15066D01*
X8648Y-15687D02*
X10675D01*
X10924D02*
X12791D01*
X13040D02*
X15084D01*
X8630Y-15705D02*
X10693D01*
X10941D02*
X12773D01*
X13040D02*
X15084D01*
X8612Y-15723D02*
X10693D01*
X10959D02*
X12773D01*
X13022D02*
X15102D01*
X8612Y-15741D02*
X10710D01*
X10959D02*
X12755D01*
X13004D02*
X15120D01*
X8594Y-15758D02*
X10710D01*
X10977D02*
X12755D01*
X13004D02*
X15120D01*
X8594Y-15776D02*
X10728D01*
X10995D02*
X12737D01*
X13004D02*
X15138D01*
X8577Y-15794D02*
X10746D01*
X10995D02*
X12719D01*
X12986D02*
X15138D01*
X8559Y-15812D02*
X10746D01*
X11013D02*
X12719D01*
X12968D02*
X15155D01*
X8559Y-15829D02*
X10764D01*
X11013D02*
X12702D01*
X12968D02*
X15155D01*
X8541Y-15847D02*
X10764D01*
X11030D02*
X12684D01*
X12951D02*
X15173D01*
X8541Y-15865D02*
X10781D01*
X11030D02*
X12684D01*
X12933D02*
X15191D01*
X8523Y-15883D02*
X10781D01*
X11048D02*
X12684D01*
X12933D02*
X15191D01*
X8523Y-15901D02*
X10799D01*
X11066D02*
X12666D01*
X12915D02*
X15209D01*
X8506Y-15918D02*
X10817D01*
X11066D02*
X12648D01*
X12915D02*
X15209D01*
X8488Y-15936D02*
X10817D01*
X11084D02*
X12648D01*
X12897D02*
X15226D01*
X8488Y-15954D02*
X10835D01*
X11084D02*
X12631D01*
X12897D02*
X15244D01*
X8470Y-15972D02*
X10835D01*
X11101D02*
X12613D01*
X12879D02*
X15244D01*
X8470Y-15989D02*
X10853D01*
X11101D02*
X12613D01*
X12879D02*
X15262D01*
X8452Y-16007D02*
X10853D01*
X11119D02*
X12595D01*
X12862D02*
X15262D01*
X8452Y-16025D02*
X10870D01*
X11137D02*
X12595D01*
X12844D02*
X15280D01*
X8434Y-16043D02*
X10888D01*
X11137D02*
X12577D01*
X12844D02*
X15280D01*
X8417Y-16061D02*
X10888D01*
X11155D02*
X12577D01*
X12826D02*
X15298D01*
X8417Y-16078D02*
X10906D01*
X11155D02*
X12559D01*
X12826D02*
X15315D01*
X8399Y-16096D02*
X10906D01*
X11173D02*
X12542D01*
X12808D02*
X15315D01*
X8399Y-16114D02*
X10924D01*
X11190D02*
X12542D01*
X12791D02*
X15333D01*
X8381Y-16132D02*
X10924D01*
X11190D02*
X12524D01*
X12791D02*
X15333D01*
X8381Y-16149D02*
X10941D01*
X12773D02*
X15351D01*
X8363Y-16167D02*
X10959D01*
X12773D02*
X15351D01*
X8346Y-16185D02*
X10959D01*
X12755D02*
X15369D01*
X8346Y-16203D02*
X10977D01*
X12755D02*
X15386D01*
X8328Y-16221D02*
X10995D01*
X12737D02*
X15386D01*
X8328Y-16238D02*
X10995D01*
X12737D02*
X15404D01*
X8328Y-16256D02*
X10995D01*
X12737D02*
X15386D01*
X8346Y-16274D02*
X10977D01*
X12737D02*
X15386D01*
X8346Y-16292D02*
X10959D01*
X12755D02*
X15369D01*
X8363Y-16309D02*
X10959D01*
X12773D02*
X15369D01*
X8363Y-16327D02*
X10941D01*
X12773D02*
X15351D01*
X8381Y-16345D02*
X10941D01*
X12791D02*
X15351D01*
X8399Y-16363D02*
X10924D01*
X12791D02*
X15333D01*
X8399Y-16381D02*
X10924D01*
X12808D02*
X15315D01*
X8417Y-16398D02*
X10906D01*
X12808D02*
X15315D01*
X8417Y-16416D02*
X10888D01*
X12826D02*
X15298D01*
X8434Y-16434D02*
X10888D01*
X12826D02*
X15280D01*
X8434Y-16452D02*
X10870D01*
X12844D02*
X15280D01*
X8452Y-16470D02*
X10870D01*
X12862D02*
X15262D01*
X8452Y-16487D02*
X10853D01*
X12862D02*
X15262D01*
X8470Y-16505D02*
X10853D01*
X12879D02*
X15244D01*
X8488Y-16523D02*
X10835D01*
X12897D02*
X15244D01*
X8488Y-16541D02*
X10817D01*
X12897D02*
X15226D01*
X8506Y-16558D02*
X10817D01*
X12897D02*
X15209D01*
X8506Y-16576D02*
X10799D01*
X12915D02*
X15209D01*
X8523Y-16594D02*
X10799D01*
X12933D02*
X15191D01*
X8541Y-16612D02*
X10781D01*
X12933D02*
X15191D01*
X8541Y-16630D02*
X10781D01*
X12951D02*
X15173D01*
X8559Y-16647D02*
X10764D01*
X12968D02*
X15173D01*
X8559Y-16665D02*
X10746D01*
X12968D02*
X15155D01*
X8577Y-16683D02*
X10746D01*
X12986D02*
X15138D01*
X8577Y-16701D02*
X10728D01*
X12986D02*
X15138D01*
X8594Y-16718D02*
X10728D01*
X13004D02*
X15120D01*
X8612Y-16736D02*
X10710D01*
X13004D02*
X15120D01*
X8612Y-16754D02*
X10710D01*
X13022D02*
X15102D01*
X8630Y-16772D02*
X10693D01*
X13040D02*
X15102D01*
X8648Y-16790D02*
X10675D01*
X13040D02*
X15084D01*
X8648Y-16807D02*
X10675D01*
X13057D02*
X15066D01*
X8648Y-16825D02*
X10657D01*
X13057D02*
X15066D01*
X8666Y-16843D02*
X10657D01*
X13075D02*
X15049D01*
X8683Y-16861D02*
X10639D01*
X13075D02*
X15049D01*
X8683Y-16878D02*
X10621D01*
X13093D02*
X15031D01*
X8701Y-16896D02*
X10621D01*
X13111D02*
X15031D01*
X8719Y-16914D02*
X10604D01*
X13111D02*
X15013D01*
X8719Y-16932D02*
X10604D01*
X13128D02*
X14995D01*
X8737Y-16950D02*
X10586D01*
X13128D02*
X14995D01*
X8737Y-16967D02*
X10586D01*
X13146D02*
X14978D01*
X8755Y-16985D02*
X10568D01*
X13164D02*
X14978D01*
X8755Y-17003D02*
X10550D01*
X13164D02*
X14960D01*
X8772Y-17021D02*
X10550D01*
X13182D02*
X14960D01*
X8790Y-17038D02*
X10533D01*
X13182D02*
X14942D01*
X8790Y-17056D02*
X10515D01*
X13200D02*
X14924D01*
X8808Y-17074D02*
X10515D01*
X13200D02*
X14924D01*
X8808Y-17092D02*
X10497D01*
X13217D02*
X14906D01*
X8826Y-17110D02*
X10497D01*
X13217D02*
X14906D01*
X8826Y-17127D02*
X10479D01*
X13235D02*
X14889D01*
X8843Y-17145D02*
X10479D01*
X13253D02*
X14871D01*
X8861Y-17163D02*
X10461D01*
X13253D02*
X14871D01*
X8861Y-17181D02*
X10444D01*
X13271D02*
X14853D01*
X8879Y-17198D02*
X10444D01*
X13288D02*
X14853D01*
X8879Y-17216D02*
X10426D01*
X13288D02*
X14835D01*
X8897Y-17234D02*
X10426D01*
X13288D02*
X14835D01*
X8897Y-17252D02*
X10408D01*
X13306D02*
X14818D01*
X8915Y-17270D02*
X10408D01*
X13324D02*
X14800D01*
X8932Y-17287D02*
X10390D01*
X13324D02*
X14800D01*
X8932Y-17305D02*
X10390D01*
X13342D02*
X14782D01*
X8950Y-17323D02*
X10373D01*
X13342D02*
X14764D01*
X8950Y-17341D02*
X10355D01*
X13360D02*
X14764D01*
X8968Y-17359D02*
X10355D01*
X13377D02*
X14764D01*
X8968Y-17376D02*
X10337D01*
X13377D02*
X14746D01*
X8986Y-17394D02*
X10337D01*
X13395D02*
X14729D01*
X9003Y-12540D02*
X10319D01*
X8986Y-12558D02*
X10337D01*
X8968Y-12576D02*
X10355D01*
X8968Y-12593D02*
X10355D01*
X8950Y-12611D02*
X10373D01*
X8932Y-12629D02*
X10373D01*
X8932Y-12647D02*
X10390D01*
X8915Y-12665D02*
X10390D01*
X8915Y-12682D02*
X10408D01*
X8897Y-12700D02*
X10426D01*
X8879Y-12718D02*
X10426D01*
X8897Y-14692D02*
X10426D01*
X8897Y-14709D02*
X10408D01*
X8915Y-14727D02*
X10408D01*
X8915Y-14745D02*
X10390D01*
X8932Y-14763D02*
X10390D01*
X8950Y-14780D02*
X10373D01*
X8950Y-14798D02*
X10355D01*
X8968Y-14816D02*
X10355D01*
X8968Y-14834D02*
X10337D01*
X8986Y-14852D02*
X10319D01*
X9003Y-15083D02*
X9483D01*
X8968Y-15100D02*
X10337D01*
X8968Y-15118D02*
X10355D01*
X8968Y-15136D02*
X10355D01*
X8950Y-15154D02*
X10373D01*
X8932Y-15172D02*
X10373D01*
X8932Y-15189D02*
X10390D01*
X8915Y-15207D02*
X10390D01*
X8897Y-15225D02*
X10408D01*
X8897Y-15243D02*
X10408D01*
X8879Y-15260D02*
X10426D01*
D37*
X-25557Y28570D02*
X-24528D01*
X-25557Y28558D02*
X-24528D01*
X-25570Y28545D02*
X-24516D01*
X-25570Y28532D02*
X-24516D01*
X-25582Y28520D02*
X-24503D01*
X-25582Y28507D02*
X-24503D01*
X-25582Y28494D02*
X-24503D01*
X-25582Y28482D02*
X-24503D01*
X-25582Y28469D02*
X-24503D01*
X-25582Y28456D02*
X-24503D01*
X-25595Y28444D02*
X-24490D01*
X-25595Y28431D02*
X-24490D01*
X-25595Y28418D02*
X-24490D01*
X-25595Y28405D02*
X-24490D01*
X-25595Y28393D02*
X-24490D01*
X-25608Y28380D02*
X-24478D01*
X-25608Y28367D02*
X-24478D01*
X-25608Y28355D02*
X-24478D01*
X-25608Y28342D02*
X-24478D01*
X-25608Y28329D02*
X-24478D01*
X-25621Y28316D02*
X-24465D01*
X-25621Y28304D02*
X-24465D01*
X-25621Y28291D02*
X-24465D01*
X-25621Y28278D02*
X-24465D01*
X-25621Y28266D02*
X-24465D01*
X-25621Y28253D02*
X-24465D01*
X-25633Y28240D02*
X-24452D01*
X-25633Y28228D02*
X-24452D01*
X-25633Y28215D02*
X-24452D01*
X-25633Y28202D02*
X-24452D01*
X-25633Y28190D02*
X-24452D01*
X-25646Y28177D02*
X-24439D01*
X-25646Y28164D02*
X-24439D01*
X-25646Y28151D02*
X-24439D01*
X-25646Y28139D02*
X-24439D01*
X-25646Y28126D02*
X-24439D01*
X-25646Y28113D02*
X-24427D01*
X-25659Y28101D02*
X-24427D01*
X-25659Y28088D02*
X-24427D01*
X-25659Y28075D02*
X-24427D01*
X-25659Y28062D02*
X-24427D01*
X-25659Y28050D02*
X-24427D01*
X-25671Y28037D02*
X-24414D01*
X-25671Y28024D02*
X-24414D01*
X-25671Y28012D02*
X-24414D01*
X-25671Y27999D02*
X-24414D01*
X-25671Y27986D02*
X-24414D01*
X-25684Y27974D02*
X-24401D01*
X-25684Y27961D02*
X-24401D01*
X-25684Y27948D02*
X-24401D01*
X-25684Y27935D02*
X-24401D01*
X-25684Y27923D02*
X-24401D01*
X-25684Y27910D02*
X-24401D01*
X-25697Y27897D02*
X-24389D01*
X-25697Y27885D02*
X-24389D01*
X-25697Y27872D02*
X-24389D01*
X-25697Y27859D02*
X-24389D01*
X-25697Y27847D02*
X-24389D01*
X-25709Y27834D02*
X-24376D01*
X-27360Y27821D02*
X-27284D01*
X-25709D02*
X-24376D01*
X-22801D02*
X-22725D01*
X-27373Y27809D02*
X-27271D01*
X-25709D02*
X-24376D01*
X-22814D02*
X-22712D01*
X-27386Y27796D02*
X-27259D01*
X-25709D02*
X-24376D01*
X-22826D02*
X-22699D01*
X-27399Y27783D02*
X-27233D01*
X-25709D02*
X-24376D01*
X-22852D02*
X-22687D01*
X-27411Y27770D02*
X-27221D01*
X-25722D02*
X-24363D01*
X-22865D02*
X-22674D01*
X-27424Y27758D02*
X-27195D01*
X-25722D02*
X-24363D01*
X-22890D02*
X-22661D01*
X-27437Y27745D02*
X-27183D01*
X-25722D02*
X-24363D01*
X-22903D02*
X-22649D01*
X-27449Y27732D02*
X-27157D01*
X-25722D02*
X-24363D01*
X-22928D02*
X-22636D01*
X-27462Y27720D02*
X-27145D01*
X-25722D02*
X-24363D01*
X-22941D02*
X-22623D01*
X-27475Y27707D02*
X-27119D01*
X-25722D02*
X-24363D01*
X-22966D02*
X-22611D01*
X-27487Y27694D02*
X-27106D01*
X-25735D02*
X-24351D01*
X-22979D02*
X-22598D01*
X-27500Y27681D02*
X-27081D01*
X-25735D02*
X-24351D01*
X-23004D02*
X-22585D01*
X-27513Y27669D02*
X-27068D01*
X-25735D02*
X-24351D01*
X-23017D02*
X-22573D01*
X-27525Y27656D02*
X-27056D01*
X-25735D02*
X-24351D01*
X-23030D02*
X-22560D01*
X-27538Y27643D02*
X-27030D01*
X-25735D02*
X-24351D01*
X-23055D02*
X-22547D01*
X-27551Y27631D02*
X-27017D01*
X-25747D02*
X-24338D01*
X-23068D02*
X-22534D01*
X-27564Y27618D02*
X-26992D01*
X-25747D02*
X-24338D01*
X-23093D02*
X-22522D01*
X-27576Y27605D02*
X-26979D01*
X-25747D02*
X-24338D01*
X-23106D02*
X-22509D01*
X-27589Y27593D02*
X-26954D01*
X-25747D02*
X-24338D01*
X-23131D02*
X-22496D01*
X-27602Y27580D02*
X-26941D01*
X-25747D02*
X-24325D01*
X-23144D02*
X-22484D01*
X-27614Y27567D02*
X-26916D01*
X-25760D02*
X-24325D01*
X-23169D02*
X-22471D01*
X-27627Y27555D02*
X-26903D01*
X-25773D02*
X-24312D01*
X-23182D02*
X-22458D01*
X-27640Y27542D02*
X-26878D01*
X-25786D02*
X-24300D01*
X-23208D02*
X-22445D01*
X-27653Y27529D02*
X-26865D01*
X-25811D02*
X-24274D01*
X-23220D02*
X-22433D01*
X-27665Y27516D02*
X-26840D01*
X-25836D02*
X-24249D01*
X-23246D02*
X-22420D01*
X-27678Y27504D02*
X-26827D01*
X-25875D02*
X-24211D01*
X-23258D02*
X-22407D01*
X-27691Y27491D02*
X-26814D01*
X-25900D02*
X-24185D01*
X-23271D02*
X-22395D01*
X-27703Y27478D02*
X-26789D01*
X-25925D02*
X-24147D01*
X-23296D02*
X-22382D01*
X-27716Y27466D02*
X-26776D01*
X-25963D02*
X-24122D01*
X-23309D02*
X-22369D01*
X-27729Y27453D02*
X-26751D01*
X-25989D02*
X-24097D01*
X-23334D02*
X-22357D01*
X-27741Y27440D02*
X-26738D01*
X-26027D02*
X-24058D01*
X-23347D02*
X-22344D01*
X-27754Y27427D02*
X-26713D01*
X-26052D02*
X-24033D01*
X-23373D02*
X-22331D01*
X-27767Y27415D02*
X-26700D01*
X-26090D02*
X-23995D01*
X-23385D02*
X-22319D01*
X-27779Y27402D02*
X-26675D01*
X-26116D02*
X-23969D01*
X-23411D02*
X-22306D01*
X-27792Y27389D02*
X-26662D01*
X-26154D02*
X-23931D01*
X-23423D02*
X-22293D01*
X-27805Y27377D02*
X-26636D01*
X-26179D02*
X-23906D01*
X-23449D02*
X-22280D01*
X-27818Y27364D02*
X-26624D01*
X-26205D02*
X-23881D01*
X-23462D02*
X-22268D01*
X-27830Y27351D02*
X-26611D01*
X-26243D02*
X-23843D01*
X-23474D02*
X-22255D01*
X-27843Y27339D02*
X-26586D01*
X-26268D02*
X-23817D01*
X-23500D02*
X-22242D01*
X-27856Y27326D02*
X-26573D01*
X-26306D02*
X-23779D01*
X-23512D02*
X-22230D01*
X-27868Y27313D02*
X-26548D01*
X-26332D02*
X-23754D01*
X-23538D02*
X-22217D01*
X-27881Y27301D02*
X-26535D01*
X-26370D02*
X-23715D01*
X-23550D02*
X-22204D01*
X-27894Y27288D02*
X-26510D01*
X-26395D02*
X-23690D01*
X-23576D02*
X-22191D01*
X-27906Y27275D02*
X-26497D01*
X-26433D02*
X-23652D01*
X-23588D02*
X-22179D01*
X-27919Y27262D02*
X-22166D01*
X-27932Y27250D02*
X-22153D01*
X-27945Y27237D02*
X-22141D01*
X-27957Y27224D02*
X-22128D01*
X-27970Y27212D02*
X-22115D01*
X-27983Y27199D02*
X-22103D01*
X-27995Y27186D02*
X-22090D01*
X-28008Y27174D02*
X-22077D01*
X-28021Y27161D02*
X-22065D01*
X-28034Y27148D02*
X-22052D01*
X-28046Y27135D02*
X-22039D01*
X-28046Y27123D02*
X-22039D01*
X-28059Y27110D02*
X-22026D01*
X-28046Y27097D02*
X-22039D01*
X-28046Y27085D02*
X-22039D01*
X-28046Y27072D02*
X-22039D01*
X-28034Y27059D02*
X-22052D01*
X-28034Y27046D02*
X-22052D01*
X-28021Y27034D02*
X-22065D01*
X-28008Y27021D02*
X-22077D01*
X-28008Y27008D02*
X-22077D01*
X-27995Y26996D02*
X-22090D01*
X-27983Y26983D02*
X-22103D01*
X-27983Y26970D02*
X-22103D01*
X-27970Y26958D02*
X-22115D01*
X-27957Y26945D02*
X-22128D01*
X-27945Y26932D02*
X-22141D01*
X-27945Y26920D02*
X-22141D01*
X-27932Y26907D02*
X-22153D01*
X-27919Y26894D02*
X-22166D01*
X-27919Y26881D02*
X-22166D01*
X-27906Y26869D02*
X-22179D01*
X-27894Y26856D02*
X-22191D01*
X-27894Y26843D02*
X-22191D01*
X-27881Y26831D02*
X-22204D01*
X-27868Y26818D02*
X-22217D01*
X-27868Y26805D02*
X-22217D01*
X-27856Y26792D02*
X-22230D01*
X-27843Y26780D02*
X-22242D01*
X-27843Y26767D02*
X-22242D01*
X-27830Y26754D02*
X-22255D01*
X-27818Y26742D02*
X-22268D01*
X-27818Y26729D02*
X-22268D01*
X-27805Y26716D02*
X-22280D01*
X-27792Y26704D02*
X-22293D01*
X-27779Y26691D02*
X-22306D01*
X-27779Y26678D02*
X-22306D01*
X-27767Y26666D02*
X-22319D01*
X-27754Y26653D02*
X-22331D01*
X-27754Y26640D02*
X-22331D01*
X-27741Y26627D02*
X-22344D01*
X-27729Y26615D02*
X-22357D01*
X-27729Y26602D02*
X-22357D01*
X-27716Y26589D02*
X-22369D01*
X-27703Y26577D02*
X-22382D01*
X-27703Y26564D02*
X-22382D01*
X-27691Y26551D02*
X-22395D01*
X-27678Y26538D02*
X-22407D01*
X-27678Y26526D02*
X-22407D01*
X-27665Y26513D02*
X-22420D01*
X-27653Y26500D02*
X-22433D01*
X-27640Y26488D02*
X-22445D01*
X-27640Y26475D02*
X-22445D01*
X-27627Y26462D02*
X-22458D01*
X-27614Y26450D02*
X-22471D01*
X-27614Y26437D02*
X-22471D01*
X-27602Y26424D02*
X-22484D01*
X-27589Y26412D02*
X-22496D01*
X-27589Y26399D02*
X-22496D01*
X-27576Y26386D02*
X-22509D01*
X-27564Y26373D02*
X-22522D01*
X-27564Y26361D02*
X-22522D01*
X-27551Y26348D02*
X-22534D01*
X-27538Y26335D02*
X-22547D01*
X-27538Y26323D02*
X-22547D01*
X-27525Y26310D02*
X-22560D01*
X-27513Y26297D02*
X-22573D01*
X-27513Y26285D02*
X-22573D01*
X-27500Y26272D02*
X-22585D01*
X-27500Y26259D02*
X-22585D01*
X-27500Y26246D02*
X-22585D01*
X-27500Y26234D02*
X-22585D01*
X-27513Y26221D02*
X-22573D01*
X-27513Y26208D02*
X-22573D01*
X-27513Y26196D02*
X-22573D01*
X-27525Y26183D02*
X-22560D01*
X-27525Y26170D02*
X-22560D01*
X-27538Y26157D02*
X-22547D01*
X-27538Y26145D02*
X-22547D01*
X-27551Y26132D02*
X-22534D01*
X-27551Y26119D02*
X-22534D01*
X-27551Y26107D02*
X-22534D01*
X-27564Y26094D02*
X-22522D01*
X-27564Y26081D02*
X-22522D01*
X-27576Y26069D02*
X-22509D01*
X-27576Y26056D02*
X-22509D01*
X-27589Y26043D02*
X-22496D01*
X-27589Y26031D02*
X-22496D01*
X-27589Y26018D02*
X-22496D01*
X-27602Y26005D02*
X-22484D01*
X-27602Y25992D02*
X-22484D01*
X-27614Y25980D02*
X-22471D01*
X-27614Y25967D02*
X-22471D01*
X-27627Y25954D02*
X-22458D01*
X-27627Y25942D02*
X-22458D01*
X-27627Y25929D02*
X-22458D01*
X-27640Y25916D02*
X-22445D01*
X-27640Y25903D02*
X-22445D01*
X-27653Y25891D02*
X-22433D01*
X-27653Y25878D02*
X-22433D01*
X-27665Y25865D02*
X-22420D01*
X-27665Y25853D02*
X-25138D01*
X-24947D02*
X-22420D01*
X-27665Y25840D02*
X-25227D01*
X-24858D02*
X-22420D01*
X-27678Y25827D02*
X-25290D01*
X-24795D02*
X-22407D01*
X-27678Y25815D02*
X-25328D01*
X-24757D02*
X-22407D01*
X-27691Y25802D02*
X-25379D01*
X-24706D02*
X-22395D01*
X-27691Y25789D02*
X-25405D01*
X-24681D02*
X-22395D01*
X-27703Y25777D02*
X-25443D01*
X-24643D02*
X-22382D01*
X-27703Y25764D02*
X-25468D01*
X-24617D02*
X-22382D01*
X-27703Y25751D02*
X-25493D01*
X-24592D02*
X-22382D01*
X-27716Y25738D02*
X-25519D01*
X-24566D02*
X-22369D01*
X-27716Y25726D02*
X-25544D01*
X-24541D02*
X-22369D01*
X-27729Y25713D02*
X-25570D01*
X-24516D02*
X-22357D01*
X-27729Y25700D02*
X-25582D01*
X-24503D02*
X-22357D01*
X-27741Y25688D02*
X-25608D01*
X-24478D02*
X-22344D01*
X-27741Y25675D02*
X-25633D01*
X-24452D02*
X-22344D01*
X-27741Y25662D02*
X-25646D01*
X-24439D02*
X-22344D01*
X-27754Y25649D02*
X-25659D01*
X-24427D02*
X-22331D01*
X-27754Y25637D02*
X-25684D01*
X-24401D02*
X-22331D01*
X-27767Y25624D02*
X-25697D01*
X-24389D02*
X-22319D01*
X-27767Y25611D02*
X-25709D01*
X-24376D02*
X-22319D01*
X-27779Y25599D02*
X-25722D01*
X-24363D02*
X-22306D01*
X-27779Y25586D02*
X-25735D01*
X-24351D02*
X-22306D01*
X-27779Y25573D02*
X-25760D01*
X-24325D02*
X-22306D01*
X-27792Y25561D02*
X-25773D01*
X-24312D02*
X-22293D01*
X-27805Y25548D02*
X-25786D01*
X-24300D02*
X-22280D01*
X-27818Y25535D02*
X-25798D01*
X-24287D02*
X-22268D01*
X-27843Y25522D02*
X-25811D01*
X-24274D02*
X-22242D01*
X-27906Y25510D02*
X-25811D01*
X-24274D02*
X-22179D01*
X-27970Y25497D02*
X-25824D01*
X-24262D02*
X-22115D01*
X-28034Y25484D02*
X-25836D01*
X-24249D02*
X-22052D01*
X-28110Y25472D02*
X-25849D01*
X-24236D02*
X-21976D01*
X-28173Y25459D02*
X-25862D01*
X-24223D02*
X-21912D01*
X-28237Y25446D02*
X-25875D01*
X-24211D02*
X-21849D01*
X-28313Y25434D02*
X-25875D01*
X-24211D02*
X-21772D01*
X-28376Y25421D02*
X-25887D01*
X-24198D02*
X-21709D01*
X-28453Y25408D02*
X-25900D01*
X-24185D02*
X-21633D01*
X-28516Y25396D02*
X-25913D01*
X-24173D02*
X-21569D01*
X-28580Y25383D02*
X-25913D01*
X-24173D02*
X-21506D01*
X-28656Y25370D02*
X-25925D01*
X-24160D02*
X-21430D01*
X-28719Y25357D02*
X-25925D01*
X-24160D02*
X-21366D01*
X-28770Y25345D02*
X-25938D01*
X-24147D02*
X-21315D01*
X-28795Y25332D02*
X-25951D01*
X-24135D02*
X-21290D01*
X-28795Y25319D02*
X-25951D01*
X-24135D02*
X-21290D01*
X-28808Y25307D02*
X-25963D01*
X-24122D02*
X-21277D01*
X-28808Y25294D02*
X-25963D01*
X-24122D02*
X-21277D01*
X-28808Y25281D02*
X-25976D01*
X-24109D02*
X-21277D01*
X-28808Y25268D02*
X-25976D01*
X-24109D02*
X-21277D01*
X-28808Y25256D02*
X-25989D01*
X-24097D02*
X-21277D01*
X-28808Y25243D02*
X-25989D01*
X-24097D02*
X-21277D01*
X-28808Y25230D02*
X-26001D01*
X-24084D02*
X-21277D01*
X-28808Y25218D02*
X-26001D01*
X-24084D02*
X-21277D01*
X-28808Y25205D02*
X-26014D01*
X-24071D02*
X-21277D01*
X-28808Y25192D02*
X-26014D01*
X-24071D02*
X-21277D01*
X-28808Y25180D02*
X-26014D01*
X-24071D02*
X-21277D01*
X-28808Y25167D02*
X-26027D01*
X-24058D02*
X-21277D01*
X-28808Y25154D02*
X-26027D01*
X-24058D02*
X-21277D01*
X-28808Y25142D02*
X-26027D01*
X-24058D02*
X-21277D01*
X-28808Y25129D02*
X-26040D01*
X-24046D02*
X-21277D01*
X-28808Y25116D02*
X-26040D01*
X-24046D02*
X-21277D01*
X-28808Y25103D02*
X-26040D01*
X-24046D02*
X-21277D01*
X-28808Y25091D02*
X-26052D01*
X-24033D02*
X-21277D01*
X-28808Y25078D02*
X-26052D01*
X-24033D02*
X-21277D01*
X-28808Y25065D02*
X-26052D01*
X-24033D02*
X-21277D01*
X-28808Y25053D02*
X-26052D01*
X-24033D02*
X-21277D01*
X-28808Y25040D02*
X-26065D01*
X-24020D02*
X-21277D01*
X-28808Y25027D02*
X-26065D01*
X-24020D02*
X-21277D01*
X-28808Y25014D02*
X-26065D01*
X-24020D02*
X-21277D01*
X-28808Y25002D02*
X-26065D01*
X-24020D02*
X-21277D01*
X-28808Y24989D02*
X-26065D01*
X-24020D02*
X-21277D01*
X-28808Y24976D02*
X-26078D01*
X-24008D02*
X-21277D01*
X-28808Y24964D02*
X-26078D01*
X-24008D02*
X-21277D01*
X-28808Y24951D02*
X-26078D01*
X-24008D02*
X-21277D01*
X-28808Y24938D02*
X-26078D01*
X-24008D02*
X-21277D01*
X-28808Y24926D02*
X-26078D01*
X-24008D02*
X-21277D01*
X-28808Y24913D02*
X-26078D01*
X-24008D02*
X-21277D01*
X-28808Y24900D02*
X-26078D01*
X-24008D02*
X-21277D01*
X-28808Y24888D02*
X-26078D01*
X-24008D02*
X-21277D01*
X-28808Y24875D02*
X-26078D01*
X-24008D02*
X-21277D01*
X-28808Y24862D02*
X-26078D01*
X-24008D02*
X-21277D01*
X-28808Y24849D02*
X-26090D01*
X-23995D02*
X-21277D01*
X-28808Y24837D02*
X-26090D01*
X-23995D02*
X-21277D01*
X-28808Y24824D02*
X-26090D01*
X-23995D02*
X-21277D01*
X-28808Y24811D02*
X-26090D01*
X-23995D02*
X-21277D01*
X-28808Y24799D02*
X-26090D01*
X-23995D02*
X-21277D01*
X-28808Y24786D02*
X-26090D01*
X-23995D02*
X-21277D01*
X-28808Y24773D02*
X-26078D01*
X-24008D02*
X-21277D01*
X-28808Y24760D02*
X-26078D01*
X-24008D02*
X-21277D01*
X-28808Y24748D02*
X-26078D01*
X-24008D02*
X-21277D01*
X-28808Y24735D02*
X-26078D01*
X-24008D02*
X-21277D01*
X-28808Y24722D02*
X-26078D01*
X-24008D02*
X-21277D01*
X-28808Y24710D02*
X-26078D01*
X-24008D02*
X-21277D01*
X-28808Y24697D02*
X-26078D01*
X-24008D02*
X-21277D01*
X-28808Y24684D02*
X-26078D01*
X-24008D02*
X-21277D01*
X-28808Y24672D02*
X-26078D01*
X-24008D02*
X-21277D01*
X-28808Y24659D02*
X-26078D01*
X-24008D02*
X-21277D01*
X-28808Y24646D02*
X-26065D01*
X-24020D02*
X-21277D01*
X-28808Y24633D02*
X-26065D01*
X-24020D02*
X-21277D01*
X-28808Y24621D02*
X-26065D01*
X-24020D02*
X-21277D01*
X-28808Y24608D02*
X-26065D01*
X-24020D02*
X-21277D01*
X-28808Y24595D02*
X-26065D01*
X-24020D02*
X-21277D01*
X-28808Y24583D02*
X-26052D01*
X-24033D02*
X-21277D01*
X-28808Y24570D02*
X-26052D01*
X-24033D02*
X-21277D01*
X-28808Y24557D02*
X-26052D01*
X-24033D02*
X-21277D01*
X-28808Y24545D02*
X-26052D01*
X-24033D02*
X-21277D01*
X-28808Y24532D02*
X-26040D01*
X-24046D02*
X-21277D01*
X-28808Y24519D02*
X-26040D01*
X-24046D02*
X-21277D01*
X-28808Y24507D02*
X-26040D01*
X-24046D02*
X-21277D01*
X-28808Y24494D02*
X-26027D01*
X-24058D02*
X-21277D01*
X-28808Y24481D02*
X-26027D01*
X-24058D02*
X-21277D01*
X-28808Y24468D02*
X-26027D01*
X-24058D02*
X-21277D01*
X-28808Y24456D02*
X-26014D01*
X-24071D02*
X-21277D01*
X-28808Y24443D02*
X-26014D01*
X-24071D02*
X-21277D01*
X-28808Y24430D02*
X-26014D01*
X-24071D02*
X-21277D01*
X-28808Y24418D02*
X-26001D01*
X-24084D02*
X-21277D01*
X-28808Y24405D02*
X-26001D01*
X-24084D02*
X-21277D01*
X-28808Y24392D02*
X-25989D01*
X-24097D02*
X-21277D01*
X-28808Y24379D02*
X-25989D01*
X-24097D02*
X-21277D01*
X-28808Y24367D02*
X-25976D01*
X-24109D02*
X-21277D01*
X-28808Y24354D02*
X-25976D01*
X-24109D02*
X-21277D01*
X-28808Y24341D02*
X-25976D01*
X-24109D02*
X-21277D01*
X-28795Y24329D02*
X-25963D01*
X-24122D02*
X-21290D01*
X-28795Y24316D02*
X-25963D01*
X-24122D02*
X-21290D01*
X-28783Y24303D02*
X-25951D01*
X-28770Y24291D02*
X-25938D01*
X-24147D02*
X-21315D01*
X-28707Y24278D02*
X-25938D01*
X-24147D02*
X-21379D01*
X-28630Y24265D02*
X-25925D01*
X-24160D02*
X-21455D01*
X-28567Y24253D02*
X-25913D01*
X-24173D02*
X-21518D01*
X-28503Y24240D02*
X-25913D01*
X-24173D02*
X-21582D01*
X-28427Y24227D02*
X-25900D01*
X-24185D02*
X-21658D01*
X-28364Y24214D02*
X-25887D01*
X-24198D02*
X-21722D01*
X-28300Y24202D02*
X-25887D01*
X-24198D02*
X-21785D01*
X-28224Y24189D02*
X-25875D01*
X-24211D02*
X-21861D01*
X-28160Y24176D02*
X-25862D01*
X-24223D02*
X-21925D01*
X-28084Y24164D02*
X-25849D01*
X-24236D02*
X-22001D01*
X-28021Y24151D02*
X-25849D01*
X-24236D02*
X-22065D01*
X-27957Y24138D02*
X-25836D01*
X-24249D02*
X-22128D01*
X-27881Y24125D02*
X-25824D01*
X-24262D02*
X-22204D01*
X-27843Y24113D02*
X-25811D01*
X-24274D02*
X-22242D01*
X-27830Y24100D02*
X-25798D01*
X-24287D02*
X-22255D01*
X-27818Y24087D02*
X-25786D01*
X-24300D02*
X-22268D01*
X-27805Y24075D02*
X-25773D01*
X-24312D02*
X-22280D01*
X-27805Y24062D02*
X-25760D01*
X-24325D02*
X-22280D01*
X-27805Y24049D02*
X-25747D01*
X-24338D02*
X-22280D01*
X-27792Y24037D02*
X-25735D01*
X-24351D02*
X-22293D01*
X-27792Y24024D02*
X-25722D01*
X-24363D02*
X-22293D01*
X-27779Y24011D02*
X-25709D01*
X-24376D02*
X-22306D01*
X-27779Y23999D02*
X-25684D01*
X-24401D02*
X-22306D01*
X-27779Y23986D02*
X-25671D01*
X-24414D02*
X-22306D01*
X-27767Y23973D02*
X-25659D01*
X-24427D02*
X-22319D01*
X-27767Y23960D02*
X-25633D01*
X-24452D02*
X-22319D01*
X-27754Y23948D02*
X-25621D01*
X-24465D02*
X-22331D01*
X-27754Y23935D02*
X-25608D01*
X-24478D02*
X-22331D01*
X-27754Y23922D02*
X-25582D01*
X-24503D02*
X-22331D01*
X-27741Y23910D02*
X-25570D01*
X-24516D02*
X-22344D01*
X-27741Y23897D02*
X-25557D01*
X-24528D02*
X-22344D01*
X-27729Y23884D02*
X-25532D01*
X-24554D02*
X-22357D01*
X-27729Y23872D02*
X-25506D01*
X-24579D02*
X-22357D01*
X-27729Y23859D02*
X-25493D01*
X-24592D02*
X-22357D01*
X-27716Y23846D02*
X-25468D01*
X-24617D02*
X-22369D01*
X-27716Y23833D02*
X-25455D01*
X-24630D02*
X-22369D01*
X-27703Y23821D02*
X-25455D01*
X-24630D02*
X-22382D01*
X-27703Y23808D02*
X-25455D01*
X-24630D02*
X-22382D01*
X-27703Y23795D02*
X-25455D01*
X-24630D02*
X-22382D01*
X-27691Y23783D02*
X-25455D01*
X-24630D02*
X-22395D01*
X-27691Y23770D02*
X-25455D01*
X-24630D02*
X-22395D01*
X-27678Y23757D02*
X-25455D01*
X-24630D02*
X-22407D01*
X-27678Y23744D02*
X-25468D01*
X-24617D02*
X-22407D01*
X-27678Y23732D02*
X-25468D01*
X-24617D02*
X-22407D01*
X-27665Y23719D02*
X-25468D01*
X-24617D02*
X-22420D01*
X-27665Y23706D02*
X-25481D01*
X-24604D02*
X-22420D01*
X-27653Y23694D02*
X-25481D01*
X-24604D02*
X-22433D01*
X-27653Y23681D02*
X-25493D01*
X-24592D02*
X-22433D01*
X-27653Y23668D02*
X-25493D01*
X-24592D02*
X-22433D01*
X-27640Y23656D02*
X-25506D01*
X-24579D02*
X-22445D01*
X-27640Y23643D02*
X-25506D01*
X-24579D02*
X-22445D01*
X-27627Y23630D02*
X-25506D01*
X-24579D02*
X-22458D01*
X-27627Y23618D02*
X-25519D01*
X-24566D02*
X-22458D01*
X-27627Y23605D02*
X-25519D01*
X-24566D02*
X-22458D01*
X-27614Y23592D02*
X-25532D01*
X-24554D02*
X-22471D01*
X-27614Y23579D02*
X-25532D01*
X-24554D02*
X-22471D01*
X-27602Y23567D02*
X-25532D01*
X-24554D02*
X-22484D01*
X-27602Y23554D02*
X-25544D01*
X-24541D02*
X-22484D01*
X-27602Y23541D02*
X-25544D01*
X-24541D02*
X-22484D01*
X-27589Y23529D02*
X-25557D01*
X-24528D02*
X-22496D01*
X-27589Y23516D02*
X-25557D01*
X-24528D02*
X-22496D01*
X-27576Y23503D02*
X-25557D01*
X-24528D02*
X-22509D01*
X-27576Y23490D02*
X-25570D01*
X-24516D02*
X-22509D01*
X-27576Y23478D02*
X-25570D01*
X-24516D02*
X-22509D01*
X-27564Y23465D02*
X-25582D01*
X-24503D02*
X-22522D01*
X-27564Y23452D02*
X-25582D01*
X-24503D02*
X-22522D01*
X-27551Y23440D02*
X-25595D01*
X-24490D02*
X-22534D01*
X-27551Y23427D02*
X-25595D01*
X-24490D02*
X-22534D01*
X-27551Y23414D02*
X-25595D01*
X-24490D02*
X-22534D01*
X-27538Y23402D02*
X-25608D01*
X-24478D02*
X-22547D01*
X-27538Y23389D02*
X-25608D01*
X-24478D02*
X-22547D01*
X-27525Y23376D02*
X-25621D01*
X-24465D02*
X-22560D01*
X-27525Y23364D02*
X-25621D01*
X-24465D02*
X-22560D01*
X-27525Y23351D02*
X-25621D01*
X-24465D02*
X-22560D01*
X-27525Y23338D02*
X-25633D01*
X-24452D02*
X-22560D01*
X-27525Y23325D02*
X-25633D01*
X-24452D02*
X-22560D01*
X-27538Y23313D02*
X-25646D01*
X-24439D02*
X-22547D01*
X-27538Y23300D02*
X-25646D01*
X-24439D02*
X-22547D01*
X-27551Y23287D02*
X-25659D01*
X-24427D02*
X-22534D01*
X-27564Y23275D02*
X-25659D01*
X-24427D02*
X-22522D01*
X-27564Y23262D02*
X-25659D01*
X-24427D02*
X-22522D01*
X-27576Y23249D02*
X-25671D01*
X-24414D02*
X-22509D01*
X-27589Y23236D02*
X-25671D01*
X-24414D02*
X-22496D01*
X-27602Y23224D02*
X-25684D01*
X-24401D02*
X-22484D01*
X-27602Y23211D02*
X-25684D01*
X-24401D02*
X-22484D01*
X-27614Y23198D02*
X-25684D01*
X-24401D02*
X-22471D01*
X-27627Y23186D02*
X-25697D01*
X-24389D02*
X-22458D01*
X-27627Y23173D02*
X-25697D01*
X-24389D02*
X-22458D01*
X-27640Y23160D02*
X-25709D01*
X-24376D02*
X-22445D01*
X-27653Y23148D02*
X-25709D01*
X-24376D02*
X-22433D01*
X-27653Y23135D02*
X-25709D01*
X-24376D02*
X-22433D01*
X-27665Y23122D02*
X-25722D01*
X-24363D02*
X-22420D01*
X-27678Y23110D02*
X-25722D01*
X-24363D02*
X-22407D01*
X-27678Y23097D02*
X-25735D01*
X-24351D02*
X-22407D01*
X-27691Y23084D02*
X-25735D01*
X-24351D02*
X-22395D01*
X-27703Y23071D02*
X-25747D01*
X-24338D02*
X-22382D01*
X-27703Y23059D02*
X-25747D01*
X-24338D02*
X-22382D01*
X-27716Y23046D02*
X-25747D01*
X-24338D02*
X-22369D01*
X-27729Y23033D02*
X-25760D01*
X-24325D02*
X-22357D01*
X-27741Y23021D02*
X-25760D01*
X-24325D02*
X-22344D01*
X-27741Y23008D02*
X-25773D01*
X-24312D02*
X-22344D01*
X-27754Y22995D02*
X-25773D01*
X-24312D02*
X-22331D01*
X-27767Y22983D02*
X-25773D01*
X-24312D02*
X-22319D01*
X-27767Y22970D02*
X-25786D01*
X-24300D02*
X-22319D01*
X-27779Y22957D02*
X-25786D01*
X-24300D02*
X-22306D01*
X-27792Y22944D02*
X-25798D01*
X-24287D02*
X-22293D01*
X-27792Y22932D02*
X-25798D01*
X-24287D02*
X-22293D01*
X-27805Y22919D02*
X-25811D01*
X-24274D02*
X-22280D01*
X-27818Y22906D02*
X-25811D01*
X-24274D02*
X-22268D01*
X-27818Y22894D02*
X-25811D01*
X-24274D02*
X-22268D01*
X-27830Y22881D02*
X-25824D01*
X-24262D02*
X-22255D01*
X-27843Y22868D02*
X-25824D01*
X-24262D02*
X-22242D01*
X-27843Y22855D02*
X-25836D01*
X-24249D02*
X-22242D01*
X-27856Y22843D02*
X-25836D01*
X-24249D02*
X-22230D01*
X-27868Y22830D02*
X-25836D01*
X-24249D02*
X-22217D01*
X-27868Y22817D02*
X-25849D01*
X-24236D02*
X-22217D01*
X-27881Y22805D02*
X-25849D01*
X-24236D02*
X-22204D01*
X-27894Y22792D02*
X-25862D01*
X-24223D02*
X-22191D01*
X-27906Y22779D02*
X-25862D01*
X-24223D02*
X-22179D01*
X-27906Y22767D02*
X-25862D01*
X-24223D02*
X-22179D01*
X-27919Y22754D02*
X-25875D01*
X-24211D02*
X-22166D01*
X-27932Y22741D02*
X-25875D01*
X-24211D02*
X-22153D01*
X-27932Y22729D02*
X-25887D01*
X-24198D02*
X-22153D01*
X-27945Y22716D02*
X-25887D01*
X-24198D02*
X-22141D01*
X-27957Y22703D02*
X-25900D01*
X-24185D02*
X-22128D01*
X-27957Y22690D02*
X-25900D01*
X-24185D02*
X-22128D01*
X-27970Y22678D02*
X-25900D01*
X-24185D02*
X-22115D01*
X-27983Y22665D02*
X-25913D01*
X-24173D02*
X-22103D01*
X-27983Y22652D02*
X-25913D01*
X-24173D02*
X-22103D01*
X-27995Y22640D02*
X-25925D01*
X-24160D02*
X-22090D01*
X-28008Y22627D02*
X-25925D01*
X-24160D02*
X-22077D01*
X-28008Y22614D02*
X-25925D01*
X-24160D02*
X-22077D01*
X-28021Y22601D02*
X-25938D01*
X-24147D02*
X-22065D01*
X-28034Y22589D02*
X-25938D01*
X-24147D02*
X-22052D01*
X-28046Y22576D02*
X-25951D01*
X-24135D02*
X-22039D01*
X-28046Y22563D02*
X-25951D01*
X-24135D02*
X-22039D01*
X-28046Y22551D02*
X-25963D01*
X-24122D02*
X-22039D01*
X-28059Y22538D02*
X-25963D01*
X-24122D02*
X-22026D01*
X-28059Y22525D02*
X-25963D01*
X-24122D02*
X-22026D01*
X-28046Y22513D02*
X-25976D01*
X-24109D02*
X-22039D01*
X-28046Y22500D02*
X-25976D01*
X-24109D02*
X-22039D01*
X-28034Y22487D02*
X-25989D01*
X-24097D02*
X-22052D01*
X-28021Y22475D02*
X-25989D01*
X-24097D02*
X-22065D01*
X-28008Y22462D02*
X-25989D01*
X-24097D02*
X-22077D01*
X-27995Y22449D02*
X-26001D01*
X-24084D02*
X-22090D01*
X-27983Y22436D02*
X-26001D01*
X-24084D02*
X-22103D01*
X-27970Y22424D02*
X-26014D01*
X-24071D02*
X-22115D01*
X-27957Y22411D02*
X-26014D01*
X-24071D02*
X-22128D01*
X-27945Y22398D02*
X-26014D01*
X-24071D02*
X-22141D01*
X-27932Y22386D02*
X-26027D01*
X-24058D02*
X-22153D01*
X-27919Y22373D02*
X-26027D01*
X-24058D02*
X-22166D01*
X-27906Y22360D02*
X-26040D01*
X-24046D02*
X-22179D01*
X-27894Y22347D02*
X-26040D01*
X-24046D02*
X-22191D01*
X-27881Y22335D02*
X-26052D01*
X-24033D02*
X-22204D01*
X-27868Y22322D02*
X-26548D01*
X-26522D02*
X-26052D01*
X-24033D02*
X-23563D01*
X-23538D02*
X-22217D01*
X-27856Y22309D02*
X-26573D01*
X-26484D02*
X-26052D01*
X-24033D02*
X-23601D01*
X-23512D02*
X-22230D01*
X-27843Y22297D02*
X-26586D01*
X-26459D02*
X-26065D01*
X-24020D02*
X-23627D01*
X-23500D02*
X-22242D01*
X-27830Y22284D02*
X-26611D01*
X-26433D02*
X-26065D01*
X-24020D02*
X-23652D01*
X-23474D02*
X-22255D01*
X-27818Y22271D02*
X-26624D01*
X-26408D02*
X-26078D01*
X-24008D02*
X-23677D01*
X-23462D02*
X-22268D01*
X-27805Y22259D02*
X-26649D01*
X-26395D02*
X-26078D01*
X-24008D02*
X-23690D01*
X-23436D02*
X-22280D01*
X-27792Y22246D02*
X-26662D01*
X-26370D02*
X-26078D01*
X-24008D02*
X-23715D01*
X-23423D02*
X-22293D01*
X-27779Y22233D02*
X-26687D01*
X-26344D02*
X-26090D01*
X-23995D02*
X-23741D01*
X-23398D02*
X-22306D01*
X-27767Y22221D02*
X-26700D01*
X-26319D02*
X-26090D01*
X-23995D02*
X-23766D01*
X-23385D02*
X-22319D01*
X-27754Y22208D02*
X-26725D01*
X-26294D02*
X-26103D01*
X-23982D02*
X-23792D01*
X-23360D02*
X-22331D01*
X-27741Y22195D02*
X-26738D01*
X-26268D02*
X-26103D01*
X-23982D02*
X-23817D01*
X-23347D02*
X-22344D01*
X-27729Y22182D02*
X-26764D01*
X-26243D02*
X-26116D01*
X-23969D02*
X-23843D01*
X-23322D02*
X-22357D01*
X-27716Y22170D02*
X-26776D01*
X-26217D02*
X-26116D01*
X-23969D02*
X-23868D01*
X-23309D02*
X-22369D01*
X-27703Y22157D02*
X-26789D01*
X-26205D02*
X-26128D01*
X-23957D02*
X-23881D01*
X-23296D02*
X-22382D01*
X-27691Y22144D02*
X-26814D01*
X-26167D02*
X-26141D01*
X-23944D02*
X-23919D01*
X-23271D02*
X-22395D01*
X-27678Y22132D02*
X-26827D01*
X-23258D02*
X-22407D01*
X-27665Y22119D02*
X-26852D01*
X-23233D02*
X-22420D01*
X-27653Y22106D02*
X-26865D01*
X-23220D02*
X-22433D01*
X-27640Y22094D02*
X-26890D01*
X-23195D02*
X-22445D01*
X-27627Y22081D02*
X-26903D01*
X-23182D02*
X-22458D01*
X-27614Y22068D02*
X-26929D01*
X-23157D02*
X-22471D01*
X-27602Y22055D02*
X-26941D01*
X-23144D02*
X-22484D01*
X-27589Y22043D02*
X-26967D01*
X-23119D02*
X-22496D01*
X-27576Y22030D02*
X-26979D01*
X-23106D02*
X-22509D01*
X-27564Y22017D02*
X-26992D01*
X-23093D02*
X-22522D01*
X-27551Y22005D02*
X-27017D01*
X-23068D02*
X-22534D01*
X-27538Y21992D02*
X-27030D01*
X-23055D02*
X-22547D01*
X-27525Y21979D02*
X-27056D01*
X-23030D02*
X-22560D01*
X-27513Y21966D02*
X-27068D01*
X-23017D02*
X-22573D01*
X-27500Y21954D02*
X-27094D01*
X-22992D02*
X-22585D01*
X-27487Y21941D02*
X-27106D01*
X-22979D02*
X-22598D01*
X-27475Y21928D02*
X-27132D01*
X-22954D02*
X-22611D01*
X-27462Y21916D02*
X-27145D01*
X-22941D02*
X-22623D01*
X-27449Y21903D02*
X-27170D01*
X-22915D02*
X-22636D01*
X-27437Y21890D02*
X-27183D01*
X-22903D02*
X-22649D01*
X-27424Y21878D02*
X-27195D01*
X-22890D02*
X-22661D01*
X-27411Y21865D02*
X-27221D01*
X-22865D02*
X-22674D01*
X-27399Y21852D02*
X-27233D01*
X-22852D02*
X-22687D01*
X-27386Y21840D02*
X-27259D01*
X-22826D02*
X-22699D01*
X-27373Y21827D02*
X-27271D01*
X-22814D02*
X-22712D01*
X-27360Y21814D02*
X-27297D01*
X-22788D02*
X-22725D01*
X-29545Y21039D02*
X-29367D01*
X-28478D02*
X-28338D01*
X-27602D02*
X-27424D01*
X-26535D02*
X-26382D01*
X-25227D02*
X-25036D01*
X-24274D02*
X-24097D01*
X-22179D02*
X-22026D01*
X-21544D02*
X-21366D01*
X-20706D02*
X-20541D01*
X-29596Y21027D02*
X-29329D01*
X-28884D02*
X-28669D01*
X-28516D02*
X-28288D01*
X-27640D02*
X-27386D01*
X-26929D02*
X-26713D01*
X-26586D02*
X-26344D01*
X-25290D02*
X-24960D01*
X-24312D02*
X-24046D01*
X-23601D02*
X-23385D01*
X-22992D02*
X-22788D01*
X-22573D02*
X-22357D01*
X-22217D02*
X-21988D01*
X-21595D02*
X-21328D01*
X-20756D02*
X-20490D01*
X-29634Y21014D02*
X-29291D01*
X-28884D02*
X-28669D01*
X-28554D02*
X-28262D01*
X-27678D02*
X-27348D01*
X-26929D02*
X-26713D01*
X-26611D02*
X-26306D01*
X-25316D02*
X-24922D01*
X-24351D02*
X-24008D01*
X-23601D02*
X-23385D01*
X-22992D02*
X-22788D01*
X-22573D02*
X-22357D01*
X-22255D02*
X-21950D01*
X-21633D02*
X-21290D01*
X-20795D02*
X-20452D01*
X-29659Y21001D02*
X-29253D01*
X-28884D02*
X-28669D01*
X-28580D02*
X-28237D01*
X-27703D02*
X-27322D01*
X-26929D02*
X-26713D01*
X-26636D02*
X-26281D01*
X-25354D02*
X-24884D01*
X-24389D02*
X-23982D01*
X-23601D02*
X-23385D01*
X-22992D02*
X-22788D01*
X-22573D02*
X-22357D01*
X-22280D02*
X-21925D01*
X-21658D02*
X-21252D01*
X-20820D02*
X-20426D01*
X-29684Y20989D02*
X-29240D01*
X-28884D02*
X-28669D01*
X-28605D02*
X-28211D01*
X-27729D02*
X-27297D01*
X-26929D02*
X-26713D01*
X-26662D02*
X-26268D01*
X-25367D02*
X-24858D01*
X-24401D02*
X-23957D01*
X-23601D02*
X-23385D01*
X-22992D02*
X-22788D01*
X-22573D02*
X-22357D01*
X-22293D02*
X-21912D01*
X-21696D02*
X-21226D01*
X-20845D02*
X-20401D01*
X-29697Y20976D02*
X-29215D01*
X-28884D02*
X-28669D01*
X-28618D02*
X-28199D01*
X-27754D02*
X-27271D01*
X-26929D02*
X-26713D01*
X-26675D02*
X-26256D01*
X-25392D02*
X-24833D01*
X-24427D02*
X-23944D01*
X-23601D02*
X-23385D01*
X-22992D02*
X-22788D01*
X-22573D02*
X-22357D01*
X-22319D02*
X-21887D01*
X-21709D02*
X-21214D01*
X-20858D02*
X-20388D01*
X-29723Y20963D02*
X-29202D01*
X-28884D02*
X-28669D01*
X-28630D02*
X-28173D01*
X-27767D02*
X-27259D01*
X-26929D02*
X-26713D01*
X-26687D02*
X-26230D01*
X-25405D02*
X-24808D01*
X-24439D02*
X-23919D01*
X-23601D02*
X-23385D01*
X-22992D02*
X-22788D01*
X-22573D02*
X-22357D01*
X-22331D02*
X-21887D01*
X-21734D02*
X-21188D01*
X-20871D02*
X-20363D01*
X-29735Y20951D02*
X-29189D01*
X-28884D02*
X-28669D01*
X-28656D02*
X-28160D01*
X-27779D02*
X-27246D01*
X-26929D02*
X-26713D01*
X-26700D02*
X-26217D01*
X-25430D02*
X-24782D01*
X-24465D02*
X-23906D01*
X-23601D02*
X-23385D01*
X-22992D02*
X-22788D01*
X-22573D02*
X-22357D01*
X-22344D02*
X-21887D01*
X-21747D02*
X-21176D01*
X-20896D02*
X-20350D01*
X-29748Y20938D02*
X-29164D01*
X-28884D02*
X-28148D01*
X-27792D02*
X-27221D01*
X-26929D02*
X-26205D01*
X-25443D02*
X-24770D01*
X-24478D02*
X-23893D01*
X-23601D02*
X-23385D01*
X-22992D02*
X-22788D01*
X-22573D02*
X-21899D01*
X-21760D02*
X-21150D01*
X-20909D02*
X-20337D01*
X-29761Y20925D02*
X-29151D01*
X-28884D02*
X-28135D01*
X-27805D02*
X-27208D01*
X-26929D02*
X-26192D01*
X-25455D02*
X-24757D01*
X-24490D02*
X-23881D01*
X-23601D02*
X-23385D01*
X-22992D02*
X-22788D01*
X-22573D02*
X-21912D01*
X-21772D02*
X-21137D01*
X-20921D02*
X-20325D01*
X-29773Y20912D02*
X-29138D01*
X-28884D02*
X-28135D01*
X-27818D02*
X-27208D01*
X-26929D02*
X-26179D01*
X-25455D02*
X-24732D01*
X-24503D02*
X-23868D01*
X-23601D02*
X-23385D01*
X-22992D02*
X-22788D01*
X-22573D02*
X-21925D01*
X-21785D02*
X-21125D01*
X-20934D02*
X-20312D01*
X-29786Y20900D02*
X-29138D01*
X-28884D02*
X-28122D01*
X-27830D02*
X-27195D01*
X-26929D02*
X-26179D01*
X-25468D02*
X-24732D01*
X-24503D02*
X-23855D01*
X-23601D02*
X-23385D01*
X-22992D02*
X-22788D01*
X-22573D02*
X-21925D01*
X-21798D02*
X-21112D01*
X-20934D02*
X-20299D01*
X-29799Y20887D02*
X-29126D01*
X-28884D02*
X-28110D01*
X-27843D02*
X-27183D01*
X-26929D02*
X-26167D01*
X-25481D02*
X-24744D01*
X-24516D02*
X-23843D01*
X-23601D02*
X-23385D01*
X-22992D02*
X-22788D01*
X-22573D02*
X-21938D01*
X-21810D02*
X-21099D01*
X-20947D02*
X-20287D01*
X-29799Y20874D02*
X-29113D01*
X-28884D02*
X-28110D01*
X-27843D02*
X-27170D01*
X-26929D02*
X-26167D01*
X-25481D02*
X-24757D01*
X-24528D02*
X-23843D01*
X-23601D02*
X-23385D01*
X-22992D02*
X-22788D01*
X-22573D02*
X-21950D01*
X-21823D02*
X-21087D01*
X-20960D02*
X-20287D01*
X-29812Y20862D02*
X-29100D01*
X-28884D02*
X-28097D01*
X-27856D02*
X-27157D01*
X-26929D02*
X-26154D01*
X-25493D02*
X-24757D01*
X-24541D02*
X-23830D01*
X-23601D02*
X-23385D01*
X-22992D02*
X-22788D01*
X-22573D02*
X-21963D01*
X-21823D02*
X-21087D01*
X-20972D02*
X-20274D01*
X-29824Y20849D02*
X-29100D01*
X-28884D02*
X-28097D01*
X-27868D02*
X-27157D01*
X-26929D02*
X-26141D01*
X-25493D02*
X-24770D01*
X-24541D02*
X-23817D01*
X-23601D02*
X-23385D01*
X-22992D02*
X-22788D01*
X-22573D02*
X-21976D01*
X-21836D02*
X-21099D01*
X-20972D02*
X-20261D01*
X-29824Y20836D02*
X-29088D01*
X-28884D02*
X-28084D01*
X-27868D02*
X-27564D01*
X-27462D02*
X-27145D01*
X-26929D02*
X-26141D01*
X-25493D02*
X-25189D01*
X-25062D02*
X-24782D01*
X-24554D02*
X-23817D01*
X-23601D02*
X-23385D01*
X-22992D02*
X-22788D01*
X-22573D02*
X-21988D01*
X-21849D02*
X-21112D01*
X-20985D02*
X-20680D01*
X-20579D02*
X-20261D01*
X-29837Y20823D02*
X-29507D01*
X-29405D02*
X-29088D01*
X-28884D02*
X-28529D01*
X-28414D02*
X-28084D01*
X-27868D02*
X-27602D01*
X-27424D02*
X-27145D01*
X-26929D02*
X-26573D01*
X-26471D02*
X-26141D01*
X-25506D02*
X-25227D01*
X-25011D02*
X-24795D01*
X-24554D02*
X-24236D01*
X-24135D02*
X-23804D01*
X-23601D02*
X-23385D01*
X-22992D02*
X-22788D01*
X-22573D02*
X-22217D01*
X-22115D02*
X-21988D01*
X-21849D02*
X-21518D01*
X-21391D02*
X-21125D01*
X-20985D02*
X-20718D01*
X-20541D02*
X-20248D01*
X-29837Y20811D02*
X-29545D01*
X-29367D02*
X-29075D01*
X-28884D02*
X-28554D01*
X-28376D02*
X-28084D01*
X-27881D02*
X-27627D01*
X-27399D02*
X-27132D01*
X-26929D02*
X-26611D01*
X-26433D02*
X-26128D01*
X-25506D02*
X-25252D01*
X-24973D02*
X-24808D01*
X-24566D02*
X-24274D01*
X-24097D02*
X-23804D01*
X-23601D02*
X-23385D01*
X-22992D02*
X-22788D01*
X-22573D02*
X-22255D01*
X-22090D02*
X-22001D01*
X-21861D02*
X-21556D01*
X-21353D02*
X-21137D01*
X-20998D02*
X-20731D01*
X-20515D02*
X-20248D01*
X-29850Y20798D02*
X-29570D01*
X-29354D02*
X-29075D01*
X-28884D02*
X-28580D01*
X-28351D02*
X-28084D01*
X-27881D02*
X-27640D01*
X-27386D02*
X-27132D01*
X-26929D02*
X-26636D01*
X-26408D02*
X-26128D01*
X-25506D02*
X-25278D01*
X-24947D02*
X-24820D01*
X-24566D02*
X-24300D01*
X-24071D02*
X-23792D01*
X-23601D02*
X-23385D01*
X-22992D02*
X-22788D01*
X-22573D02*
X-22280D01*
X-22065D02*
X-22014D01*
X-21861D02*
X-21582D01*
X-21328D02*
X-21150D01*
X-20998D02*
X-20756D01*
X-20502D02*
X-20236D01*
X-29850Y20785D02*
X-29596D01*
X-29329D02*
X-29075D01*
X-28884D02*
X-28592D01*
X-28338D02*
X-28072D01*
X-27894D02*
X-27653D01*
X-27373D02*
X-27119D01*
X-26929D02*
X-26649D01*
X-26395D02*
X-26128D01*
X-25506D02*
X-25278D01*
X-24922D02*
X-24820D01*
X-24566D02*
X-24312D01*
X-24046D02*
X-23792D01*
X-23601D02*
X-23385D01*
X-22992D02*
X-22788D01*
X-22573D02*
X-22293D01*
X-22039D02*
X-22026D01*
X-21874D02*
X-21607D01*
X-21315D02*
X-21176D01*
X-20998D02*
X-20769D01*
X-20490D02*
X-20236D01*
X-29850Y20773D02*
X-29608D01*
X-29316D02*
X-29062D01*
X-28884D02*
X-28605D01*
X-28326D02*
X-28072D01*
X-27894D02*
X-27665D01*
X-27360D02*
X-27119D01*
X-26929D02*
X-26662D01*
X-26382D02*
X-26128D01*
X-25506D02*
X-25290D01*
X-24897D02*
X-24833D01*
X-24579D02*
X-24325D01*
X-24033D02*
X-23792D01*
X-23601D02*
X-23385D01*
X-22992D02*
X-22788D01*
X-22573D02*
X-22306D01*
X-21874D02*
X-21620D01*
X-21290D02*
X-21188D01*
X-21010D02*
X-20782D01*
X-20477D02*
X-20236D01*
X-29862Y20760D02*
X-29621D01*
X-29303D02*
X-29062D01*
X-28884D02*
X-28618D01*
X-28326D02*
X-28072D01*
X-27906D02*
X-27678D01*
X-27348D02*
X-27119D01*
X-26929D02*
X-26675D01*
X-26370D02*
X-26116D01*
X-25506D02*
X-25290D01*
X-24884D02*
X-24846D01*
X-24579D02*
X-24338D01*
X-24020D02*
X-23779D01*
X-23601D02*
X-23385D01*
X-22992D02*
X-22788D01*
X-22573D02*
X-22319D01*
X-21874D02*
X-21633D01*
X-21277D02*
X-21201D01*
X-21010D02*
X-20782D01*
X-20464D02*
X-20223D01*
X-29862Y20747D02*
X-29621D01*
X-29291D02*
X-29062D01*
X-28884D02*
X-28630D01*
X-28313D02*
X-28072D01*
X-27906D02*
X-27691D01*
X-27348D02*
X-27106D01*
X-26929D02*
X-26687D01*
X-26370D02*
X-26116D01*
X-25519D02*
X-25290D01*
X-24579D02*
X-24351D01*
X-24020D02*
X-23779D01*
X-23601D02*
X-23385D01*
X-22992D02*
X-22788D01*
X-22573D02*
X-22331D01*
X-21887D02*
X-21645D01*
X-21264D02*
X-21214D01*
X-21010D02*
X-20795D01*
X-20452D02*
X-20223D01*
X-29862Y20735D02*
X-29634D01*
X-29291D02*
X-29062D01*
X-28884D02*
X-28630D01*
X-28300D02*
X-28072D01*
X-27906D02*
X-27691D01*
X-27335D02*
X-27106D01*
X-26929D02*
X-26687D01*
X-26357D02*
X-26116D01*
X-25519D02*
X-25303D01*
X-24579D02*
X-24351D01*
X-24008D02*
X-23779D01*
X-23601D02*
X-23385D01*
X-22992D02*
X-22788D01*
X-22573D02*
X-22331D01*
X-21887D02*
X-21645D01*
X-21252D02*
X-21226D01*
X-21023D02*
X-20807D01*
X-20452D02*
X-20223D01*
X-29862Y20722D02*
X-29634D01*
X-29278D02*
X-29049D01*
X-28884D02*
X-28630D01*
X-28300D02*
X-28072D01*
X-27906D02*
X-27703D01*
X-27335D02*
X-27106D01*
X-26929D02*
X-26700D01*
X-26357D02*
X-26116D01*
X-25519D02*
X-25290D01*
X-24592D02*
X-24363D01*
X-24008D02*
X-23779D01*
X-23601D02*
X-23385D01*
X-22992D02*
X-22788D01*
X-22573D02*
X-22344D01*
X-21887D02*
X-21658D01*
X-21023D02*
X-20807D01*
X-20439D02*
X-20210D01*
X-29862Y20709D02*
X-29646D01*
X-29278D02*
X-29049D01*
X-28884D02*
X-28643D01*
X-28300D02*
X-28072D01*
X-27919D02*
X-27703D01*
X-27322D02*
X-27106D01*
X-26929D02*
X-26700D01*
X-26344D02*
X-26116D01*
X-25506D02*
X-25290D01*
X-24592D02*
X-24363D01*
X-23995D02*
X-23779D01*
X-23601D02*
X-23385D01*
X-22992D02*
X-22788D01*
X-22573D02*
X-22344D01*
X-21899D02*
X-21671D01*
X-21023D02*
X-20820D01*
X-20439D02*
X-20210D01*
X-29875Y20697D02*
X-29646D01*
X-29265D02*
X-29049D01*
X-28884D02*
X-28643D01*
X-28288D02*
X-28072D01*
X-27919D02*
X-27703D01*
X-27322D02*
X-27106D01*
X-26929D02*
X-26700D01*
X-26344D02*
X-26116D01*
X-25506D02*
X-25290D01*
X-24592D02*
X-24376D01*
X-23995D02*
X-23766D01*
X-23601D02*
X-23385D01*
X-22992D02*
X-22788D01*
X-22573D02*
X-22344D01*
X-21899D02*
X-21671D01*
X-21023D02*
X-20820D01*
X-20439D02*
X-20210D01*
X-29875Y20684D02*
X-29646D01*
X-29265D02*
X-29049D01*
X-28884D02*
X-28643D01*
X-28288D02*
X-28059D01*
X-27919D02*
X-27716D01*
X-27322D02*
X-27094D01*
X-26929D02*
X-26713D01*
X-26344D02*
X-26116D01*
X-25506D02*
X-25278D01*
X-24592D02*
X-24376D01*
X-23995D02*
X-23766D01*
X-23601D02*
X-23385D01*
X-22992D02*
X-22788D01*
X-22573D02*
X-22357D01*
X-21899D02*
X-21671D01*
X-21036D02*
X-20820D01*
X-20426D02*
X-20210D01*
X-29875Y20671D02*
X-29659D01*
X-29265D02*
X-29049D01*
X-28884D02*
X-28656D01*
X-28288D02*
X-28059D01*
X-27919D02*
X-27716D01*
X-27310D02*
X-27094D01*
X-26929D02*
X-26713D01*
X-26332D02*
X-26116D01*
X-25506D02*
X-25265D01*
X-24592D02*
X-24376D01*
X-23982D02*
X-23766D01*
X-23601D02*
X-23385D01*
X-22992D02*
X-22788D01*
X-22573D02*
X-22357D01*
X-21899D02*
X-21684D01*
X-21036D02*
X-20820D01*
X-20426D02*
X-20210D01*
X-29875Y20658D02*
X-29659D01*
X-29265D02*
X-29049D01*
X-28884D02*
X-28656D01*
X-28288D02*
X-28059D01*
X-27932D02*
X-27716D01*
X-27310D02*
X-27094D01*
X-26929D02*
X-26713D01*
X-26332D02*
X-26116D01*
X-25506D02*
X-25240D01*
X-24592D02*
X-24376D01*
X-23982D02*
X-23766D01*
X-23601D02*
X-23385D01*
X-22992D02*
X-22788D01*
X-22573D02*
X-22357D01*
X-21912D02*
X-21684D01*
X-21036D02*
X-20833D01*
X-20426D02*
X-20210D01*
X-29875Y20646D02*
X-29659D01*
X-29265D02*
X-29049D01*
X-28884D02*
X-28656D01*
X-28288D02*
X-28059D01*
X-27932D02*
X-27716D01*
X-27310D02*
X-27094D01*
X-26929D02*
X-26713D01*
X-26332D02*
X-26116D01*
X-25506D02*
X-25201D01*
X-24604D02*
X-24376D01*
X-23982D02*
X-23766D01*
X-23601D02*
X-23385D01*
X-22992D02*
X-22788D01*
X-22573D02*
X-22357D01*
X-21912D02*
X-21684D01*
X-21036D02*
X-20833D01*
X-20426D02*
X-20210D01*
X-29875Y20633D02*
X-29659D01*
X-29253D02*
X-29037D01*
X-28884D02*
X-28656D01*
X-28275D02*
X-28059D01*
X-27932D02*
X-27716D01*
X-27310D02*
X-27094D01*
X-26929D02*
X-26713D01*
X-26332D02*
X-26116D01*
X-25493D02*
X-25087D01*
X-24604D02*
X-24389D01*
X-23982D02*
X-23766D01*
X-23601D02*
X-23385D01*
X-22992D02*
X-22788D01*
X-22573D02*
X-22357D01*
X-21912D02*
X-21696D01*
X-21036D02*
X-20833D01*
X-20426D02*
X-20210D01*
X-29875Y20620D02*
X-29659D01*
X-29253D02*
X-29037D01*
X-28884D02*
X-28656D01*
X-28275D02*
X-28059D01*
X-27932D02*
X-27094D01*
X-26929D02*
X-26713D01*
X-26332D02*
X-26116D01*
X-25493D02*
X-24947D01*
X-24604D02*
X-24389D01*
X-23982D02*
X-23766D01*
X-23601D02*
X-23385D01*
X-22992D02*
X-22788D01*
X-22573D02*
X-22357D01*
X-21912D02*
X-21696D01*
X-21036D02*
X-20210D01*
X-29875Y20608D02*
X-29659D01*
X-29253D02*
X-29037D01*
X-28884D02*
X-28656D01*
X-28275D02*
X-28059D01*
X-27932D02*
X-27094D01*
X-26929D02*
X-26713D01*
X-26332D02*
X-26116D01*
X-25493D02*
X-24897D01*
X-24604D02*
X-24389D01*
X-23982D02*
X-23766D01*
X-23601D02*
X-23385D01*
X-22992D02*
X-22788D01*
X-22573D02*
X-22357D01*
X-21912D02*
X-21696D01*
X-21036D02*
X-20210D01*
X-29875Y20595D02*
X-29659D01*
X-29253D02*
X-29037D01*
X-28884D02*
X-28656D01*
X-28275D02*
X-28059D01*
X-27932D02*
X-27094D01*
X-26929D02*
X-26713D01*
X-26332D02*
X-26116D01*
X-25481D02*
X-24858D01*
X-24604D02*
X-24389D01*
X-23982D02*
X-23766D01*
X-23601D02*
X-23385D01*
X-22992D02*
X-22788D01*
X-22573D02*
X-22357D01*
X-21912D02*
X-21696D01*
X-21036D02*
X-20210D01*
X-29875Y20582D02*
X-29659D01*
X-29253D02*
X-29037D01*
X-28884D02*
X-28656D01*
X-28275D02*
X-28059D01*
X-27932D02*
X-27094D01*
X-26929D02*
X-26713D01*
X-26332D02*
X-26116D01*
X-25481D02*
X-24846D01*
X-24604D02*
X-24389D01*
X-23982D02*
X-23766D01*
X-23601D02*
X-23385D01*
X-22992D02*
X-22788D01*
X-22573D02*
X-22357D01*
X-21912D02*
X-21696D01*
X-21049D02*
X-20210D01*
X-29875Y20569D02*
X-29659D01*
X-29253D02*
X-29037D01*
X-28884D02*
X-28656D01*
X-28275D02*
X-28059D01*
X-27932D02*
X-27094D01*
X-26929D02*
X-26713D01*
X-26332D02*
X-26116D01*
X-25468D02*
X-24820D01*
X-24604D02*
X-24389D01*
X-23982D02*
X-23766D01*
X-23601D02*
X-23385D01*
X-22992D02*
X-22788D01*
X-22573D02*
X-22357D01*
X-21912D02*
X-21696D01*
X-21049D02*
X-20210D01*
X-29875Y20557D02*
X-29659D01*
X-29253D02*
X-29037D01*
X-28884D02*
X-28656D01*
X-28275D02*
X-28059D01*
X-27932D02*
X-27094D01*
X-26929D02*
X-26713D01*
X-26332D02*
X-26116D01*
X-25455D02*
X-24808D01*
X-24604D02*
X-24389D01*
X-23982D02*
X-23766D01*
X-23601D02*
X-23385D01*
X-22992D02*
X-22788D01*
X-22573D02*
X-22357D01*
X-21912D02*
X-21696D01*
X-21049D02*
X-20210D01*
X-29875Y20544D02*
X-29659D01*
X-29253D02*
X-29037D01*
X-28884D02*
X-28656D01*
X-28275D02*
X-28059D01*
X-27932D02*
X-27094D01*
X-26929D02*
X-26713D01*
X-26332D02*
X-26116D01*
X-25455D02*
X-24795D01*
X-24604D02*
X-24389D01*
X-23982D02*
X-23766D01*
X-23601D02*
X-23385D01*
X-22992D02*
X-22788D01*
X-22573D02*
X-22357D01*
X-21912D02*
X-21696D01*
X-21049D02*
X-20210D01*
X-29875Y20531D02*
X-29672D01*
X-29253D02*
X-29037D01*
X-28884D02*
X-28656D01*
X-28275D02*
X-28059D01*
X-27932D02*
X-27094D01*
X-26929D02*
X-26713D01*
X-26332D02*
X-26116D01*
X-25443D02*
X-24770D01*
X-24604D02*
X-24389D01*
X-23982D02*
X-23766D01*
X-23601D02*
X-23385D01*
X-22992D02*
X-22788D01*
X-22573D02*
X-22357D01*
X-21912D02*
X-21696D01*
X-21049D02*
X-20210D01*
X-29875Y20519D02*
X-29672D01*
X-29253D02*
X-29037D01*
X-28884D02*
X-28656D01*
X-28275D02*
X-28059D01*
X-27932D02*
X-27094D01*
X-26929D02*
X-26713D01*
X-26332D02*
X-26116D01*
X-25430D02*
X-24770D01*
X-24604D02*
X-24389D01*
X-23982D02*
X-23766D01*
X-23601D02*
X-23385D01*
X-22992D02*
X-22788D01*
X-22573D02*
X-22357D01*
X-21912D02*
X-21696D01*
X-21049D02*
X-20210D01*
X-29875Y20506D02*
X-29659D01*
X-29253D02*
X-29037D01*
X-28884D02*
X-28656D01*
X-28275D02*
X-28059D01*
X-27932D02*
X-27094D01*
X-26929D02*
X-26713D01*
X-26332D02*
X-26116D01*
X-25405D02*
X-24757D01*
X-24604D02*
X-24389D01*
X-23982D02*
X-23766D01*
X-23601D02*
X-23385D01*
X-22992D02*
X-22788D01*
X-22573D02*
X-22357D01*
X-21912D02*
X-21696D01*
X-21049D02*
X-20210D01*
X-29875Y20493D02*
X-29659D01*
X-29253D02*
X-29037D01*
X-28884D02*
X-28656D01*
X-28275D02*
X-28059D01*
X-27932D02*
X-27094D01*
X-26929D02*
X-26713D01*
X-26332D02*
X-26116D01*
X-25392D02*
X-24744D01*
X-24604D02*
X-24389D01*
X-23982D02*
X-23766D01*
X-23601D02*
X-23385D01*
X-22992D02*
X-22788D01*
X-22573D02*
X-22357D01*
X-21912D02*
X-21696D01*
X-21049D02*
X-20210D01*
X-29875Y20481D02*
X-29659D01*
X-29253D02*
X-29037D01*
X-28884D02*
X-28656D01*
X-28275D02*
X-28059D01*
X-27932D02*
X-27094D01*
X-26929D02*
X-26713D01*
X-26332D02*
X-26116D01*
X-25367D02*
X-24744D01*
X-24604D02*
X-24389D01*
X-23982D02*
X-23766D01*
X-23601D02*
X-23385D01*
X-22992D02*
X-22788D01*
X-22573D02*
X-22357D01*
X-21912D02*
X-21696D01*
X-21049D02*
X-20210D01*
X-29875Y20468D02*
X-29659D01*
X-29253D02*
X-29037D01*
X-28884D02*
X-28656D01*
X-28275D02*
X-28059D01*
X-27932D02*
X-27094D01*
X-26929D02*
X-26713D01*
X-26332D02*
X-26116D01*
X-25341D02*
X-24732D01*
X-24604D02*
X-24389D01*
X-23982D02*
X-23766D01*
X-23601D02*
X-23385D01*
X-22992D02*
X-22788D01*
X-22573D02*
X-22357D01*
X-21912D02*
X-21696D01*
X-21049D02*
X-20210D01*
X-29875Y20455D02*
X-29659D01*
X-29253D02*
X-29037D01*
X-28884D02*
X-28656D01*
X-28275D02*
X-28059D01*
X-27932D02*
X-27094D01*
X-26929D02*
X-26713D01*
X-26332D02*
X-26116D01*
X-25303D02*
X-24732D01*
X-24604D02*
X-24389D01*
X-23982D02*
X-23766D01*
X-23601D02*
X-23385D01*
X-22992D02*
X-22788D01*
X-22573D02*
X-22357D01*
X-21912D02*
X-21696D01*
X-21049D02*
X-20210D01*
X-29875Y20442D02*
X-29659D01*
X-29253D02*
X-29037D01*
X-28884D02*
X-28656D01*
X-28275D02*
X-28059D01*
X-27932D02*
X-27094D01*
X-26929D02*
X-26713D01*
X-26332D02*
X-26116D01*
X-25252D02*
X-24732D01*
X-24604D02*
X-24389D01*
X-23982D02*
X-23766D01*
X-23601D02*
X-23385D01*
X-22992D02*
X-22788D01*
X-22573D02*
X-22357D01*
X-21912D02*
X-21696D01*
X-21036D02*
X-20210D01*
X-29875Y20430D02*
X-29659D01*
X-29253D02*
X-29037D01*
X-28884D02*
X-28656D01*
X-28275D02*
X-28059D01*
X-27932D02*
X-27716D01*
X-26929D02*
X-26713D01*
X-26332D02*
X-26116D01*
X-25125D02*
X-24719D01*
X-24604D02*
X-24389D01*
X-23982D02*
X-23766D01*
X-23601D02*
X-23385D01*
X-23004D02*
X-22788D01*
X-22573D02*
X-22357D01*
X-21912D02*
X-21696D01*
X-21036D02*
X-20833D01*
X-29875Y20417D02*
X-29659D01*
X-29253D02*
X-29037D01*
X-28884D02*
X-28656D01*
X-28275D02*
X-28059D01*
X-27932D02*
X-27716D01*
X-26929D02*
X-26713D01*
X-26332D02*
X-26116D01*
X-25011D02*
X-24719D01*
X-24604D02*
X-24389D01*
X-23982D02*
X-23766D01*
X-23601D02*
X-23385D01*
X-23004D02*
X-22788D01*
X-22573D02*
X-22357D01*
X-21912D02*
X-21696D01*
X-21036D02*
X-20833D01*
X-29875Y20404D02*
X-29659D01*
X-29265D02*
X-29049D01*
X-28884D02*
X-28656D01*
X-28288D02*
X-28059D01*
X-27932D02*
X-27716D01*
X-26929D02*
X-26713D01*
X-26332D02*
X-26116D01*
X-24973D02*
X-24719D01*
X-24604D02*
X-24376D01*
X-23982D02*
X-23766D01*
X-23601D02*
X-23385D01*
X-23004D02*
X-22788D01*
X-22573D02*
X-22357D01*
X-21912D02*
X-21684D01*
X-21036D02*
X-20833D01*
X-29875Y20392D02*
X-29659D01*
X-29265D02*
X-29049D01*
X-28884D02*
X-28656D01*
X-28288D02*
X-28059D01*
X-27932D02*
X-27716D01*
X-26929D02*
X-26713D01*
X-26332D02*
X-26116D01*
X-24947D02*
X-24719D01*
X-24592D02*
X-24376D01*
X-23982D02*
X-23766D01*
X-23601D02*
X-23385D01*
X-23004D02*
X-22788D01*
X-22573D02*
X-22357D01*
X-21912D02*
X-21684D01*
X-21036D02*
X-20833D01*
X-29875Y20379D02*
X-29659D01*
X-29265D02*
X-29049D01*
X-28884D02*
X-28656D01*
X-28288D02*
X-28059D01*
X-27932D02*
X-27716D01*
X-26929D02*
X-26713D01*
X-26332D02*
X-26116D01*
X-24935D02*
X-24706D01*
X-24592D02*
X-24376D01*
X-23982D02*
X-23766D01*
X-23601D02*
X-23385D01*
X-23004D02*
X-22788D01*
X-22573D02*
X-22357D01*
X-21899D02*
X-21684D01*
X-21036D02*
X-20820D01*
X-29875Y20366D02*
X-29646D01*
X-29265D02*
X-29049D01*
X-28884D02*
X-28643D01*
X-28288D02*
X-28059D01*
X-27919D02*
X-27703D01*
X-26929D02*
X-26713D01*
X-26332D02*
X-26116D01*
X-24935D02*
X-24706D01*
X-24592D02*
X-24376D01*
X-23995D02*
X-23766D01*
X-23601D02*
X-23373D01*
X-23004D02*
X-22788D01*
X-22573D02*
X-22357D01*
X-21899D02*
X-21671D01*
X-21036D02*
X-20820D01*
X-29875Y20354D02*
X-29646D01*
X-29265D02*
X-29049D01*
X-28884D02*
X-28643D01*
X-28288D02*
X-28059D01*
X-27919D02*
X-27703D01*
X-26929D02*
X-26713D01*
X-26332D02*
X-26116D01*
X-24922D02*
X-24706D01*
X-24592D02*
X-24376D01*
X-23995D02*
X-23766D01*
X-23601D02*
X-23373D01*
X-23004D02*
X-22788D01*
X-22573D02*
X-22357D01*
X-21899D02*
X-21671D01*
X-21036D02*
X-20820D01*
X-29862Y20341D02*
X-29646D01*
X-29278D02*
X-29049D01*
X-28884D02*
X-28643D01*
X-28300D02*
X-28072D01*
X-27919D02*
X-27703D01*
X-26929D02*
X-26713D01*
X-26332D02*
X-26116D01*
X-24922D02*
X-24706D01*
X-24592D02*
X-24363D01*
X-23995D02*
X-23779D01*
X-23601D02*
X-23373D01*
X-23017D02*
X-22788D01*
X-22573D02*
X-22357D01*
X-21899D02*
X-21671D01*
X-21023D02*
X-20807D01*
X-29862Y20328D02*
X-29634D01*
X-29278D02*
X-29049D01*
X-28884D02*
X-28643D01*
X-28300D02*
X-28072D01*
X-27906D02*
X-27691D01*
X-26929D02*
X-26713D01*
X-26332D02*
X-26116D01*
X-25443D02*
X-25417D01*
X-24922D02*
X-24706D01*
X-24592D02*
X-24363D01*
X-24008D02*
X-23779D01*
X-23601D02*
X-23360D01*
X-23017D02*
X-22788D01*
X-22573D02*
X-22357D01*
X-21887D02*
X-21658D01*
X-21023D02*
X-20807D01*
X-29862Y20316D02*
X-29634D01*
X-29291D02*
X-29062D01*
X-28884D02*
X-28630D01*
X-28300D02*
X-28072D01*
X-27906D02*
X-27691D01*
X-26929D02*
X-26713D01*
X-26332D02*
X-26116D01*
X-25455D02*
X-25405D01*
X-24922D02*
X-24706D01*
X-24579D02*
X-24351D01*
X-24008D02*
X-23779D01*
X-23601D02*
X-23360D01*
X-23030D02*
X-22788D01*
X-22573D02*
X-22357D01*
X-21887D02*
X-21645D01*
X-21252D02*
X-21226D01*
X-21023D02*
X-20795D01*
X-29862Y20303D02*
X-29621D01*
X-29291D02*
X-29062D01*
X-28884D02*
X-28630D01*
X-28313D02*
X-28072D01*
X-27906D02*
X-27678D01*
X-27271D02*
X-27259D01*
X-26929D02*
X-26713D01*
X-26332D02*
X-26116D01*
X-25468D02*
X-25392D01*
X-24922D02*
X-24706D01*
X-24579D02*
X-24351D01*
X-24020D02*
X-23779D01*
X-23588D02*
X-23347D01*
X-23030D02*
X-22788D01*
X-22573D02*
X-22357D01*
X-21887D02*
X-21645D01*
X-21264D02*
X-21214D01*
X-21023D02*
X-20795D01*
X-20388D02*
X-20375D01*
X-29862Y20290D02*
X-29621D01*
X-29303D02*
X-29062D01*
X-28884D02*
X-28618D01*
X-28313D02*
X-28072D01*
X-27906D02*
X-27678D01*
X-27284D02*
X-27246D01*
X-26929D02*
X-26713D01*
X-26332D02*
X-26116D01*
X-25481D02*
X-25367D01*
X-24935D02*
X-24706D01*
X-24579D02*
X-24338D01*
X-24020D02*
X-23779D01*
X-23588D02*
X-23334D01*
X-23042D02*
X-22788D01*
X-22573D02*
X-22357D01*
X-21887D02*
X-21633D01*
X-21277D02*
X-21201D01*
X-21010D02*
X-20782D01*
X-20401D02*
X-20363D01*
X-29850Y20277D02*
X-29608D01*
X-29316D02*
X-29062D01*
X-28884D02*
X-28605D01*
X-28326D02*
X-28072D01*
X-27894D02*
X-27665D01*
X-27297D02*
X-27233D01*
X-26929D02*
X-26713D01*
X-26332D02*
X-26116D01*
X-25493D02*
X-25354D01*
X-24935D02*
X-24706D01*
X-24579D02*
X-24325D01*
X-24033D02*
X-23792D01*
X-23588D02*
X-23334D01*
X-23055D02*
X-22788D01*
X-22573D02*
X-22357D01*
X-21874D02*
X-21620D01*
X-21290D02*
X-21188D01*
X-21010D02*
X-20769D01*
X-20413D02*
X-20337D01*
X-29850Y20265D02*
X-29596D01*
X-29329D02*
X-29075D01*
X-28884D02*
X-28592D01*
X-28338D02*
X-28072D01*
X-27894D02*
X-27653D01*
X-27322D02*
X-27221D01*
X-26929D02*
X-26713D01*
X-26332D02*
X-26116D01*
X-25506D02*
X-25328D01*
X-24947D02*
X-24719D01*
X-24566D02*
X-24312D01*
X-24046D02*
X-23792D01*
X-23588D02*
X-23322D01*
X-23068D02*
X-22788D01*
X-22573D02*
X-22357D01*
X-21874D02*
X-21607D01*
X-21315D02*
X-21176D01*
X-21010D02*
X-20756D01*
X-20426D02*
X-20325D01*
X-29850Y20252D02*
X-29570D01*
X-29342D02*
X-29075D01*
X-28884D02*
X-28580D01*
X-28351D02*
X-28084D01*
X-27894D02*
X-27627D01*
X-27335D02*
X-27195D01*
X-26929D02*
X-26713D01*
X-26332D02*
X-26116D01*
X-25519D02*
X-25316D01*
X-24960D02*
X-24719D01*
X-24566D02*
X-24300D01*
X-24071D02*
X-23792D01*
X-23588D02*
X-23296D01*
X-23080D02*
X-22788D01*
X-22573D02*
X-22357D01*
X-21861D02*
X-21582D01*
X-21328D02*
X-21163D01*
X-20998D02*
X-20744D01*
X-20452D02*
X-20312D01*
X-29837Y20239D02*
X-29558D01*
X-29367D02*
X-29075D01*
X-28884D02*
X-28554D01*
X-28376D02*
X-28084D01*
X-27881D02*
X-27614D01*
X-27360D02*
X-27183D01*
X-26929D02*
X-26713D01*
X-26332D02*
X-26116D01*
X-25532D02*
X-25290D01*
X-24973D02*
X-24719D01*
X-24566D02*
X-24274D01*
X-24097D02*
X-23804D01*
X-23576D02*
X-23284D01*
X-23106D02*
X-22788D01*
X-22573D02*
X-22357D01*
X-21861D02*
X-21556D01*
X-21353D02*
X-21137D01*
X-20998D02*
X-20731D01*
X-20477D02*
X-20299D01*
X-29837Y20227D02*
X-29519D01*
X-29405D02*
X-29088D01*
X-28884D02*
X-28529D01*
X-28402D02*
X-28084D01*
X-27881D02*
X-27589D01*
X-27386D02*
X-27170D01*
X-26929D02*
X-26713D01*
X-26332D02*
X-26116D01*
X-25544D02*
X-25252D01*
X-25011D02*
X-24719D01*
X-24554D02*
X-24236D01*
X-24122D02*
X-23804D01*
X-23576D02*
X-23246D01*
X-23131D02*
X-22788D01*
X-22573D02*
X-22357D01*
X-21849D02*
X-21518D01*
X-21391D02*
X-21125D01*
X-20985D02*
X-20706D01*
X-20502D02*
X-20287D01*
X-29824Y20214D02*
X-29088D01*
X-28884D02*
X-28084D01*
X-27868D02*
X-27551D01*
X-27424D02*
X-27157D01*
X-26929D02*
X-26713D01*
X-26332D02*
X-26116D01*
X-25557D02*
X-25201D01*
X-25036D02*
X-24732D01*
X-24554D02*
X-23817D01*
X-23576D02*
X-22788D01*
X-22573D02*
X-22357D01*
X-21849D02*
X-21112D01*
X-20985D02*
X-20655D01*
X-20541D02*
X-20261D01*
X-29824Y20201D02*
X-29100D01*
X-28884D02*
X-28097D01*
X-27868D02*
X-27145D01*
X-26929D02*
X-26713D01*
X-26332D02*
X-26116D01*
X-25570D02*
X-24732D01*
X-24541D02*
X-23817D01*
X-23563D02*
X-22788D01*
X-22573D02*
X-22357D01*
X-21836D02*
X-21099D01*
X-20972D02*
X-20248D01*
X-29812Y20188D02*
X-29100D01*
X-28884D02*
X-28097D01*
X-27856D02*
X-27132D01*
X-26929D02*
X-26713D01*
X-26332D02*
X-26116D01*
X-25582D02*
X-24732D01*
X-24541D02*
X-23830D01*
X-23563D02*
X-22788D01*
X-22573D02*
X-22357D01*
X-21836D02*
X-21087D01*
X-20972D02*
X-20236D01*
X-29799Y20176D02*
X-29113D01*
X-28884D02*
X-28110D01*
X-27856D02*
X-27119D01*
X-26929D02*
X-26713D01*
X-26332D02*
X-26116D01*
X-25570D02*
X-24744D01*
X-24528D02*
X-23843D01*
X-23550D02*
X-22788D01*
X-22573D02*
X-22357D01*
X-21823D02*
X-21087D01*
X-20960D02*
X-20223D01*
X-29799Y20163D02*
X-29126D01*
X-28884D02*
X-28110D01*
X-27843D02*
X-27119D01*
X-26929D02*
X-26713D01*
X-26332D02*
X-26116D01*
X-25557D02*
X-24757D01*
X-24516D02*
X-23843D01*
X-23550D02*
X-22788D01*
X-22573D02*
X-22357D01*
X-21810D02*
X-21099D01*
X-20947D02*
X-20223D01*
X-29786Y20150D02*
X-29138D01*
X-28884D02*
X-28122D01*
X-27830D02*
X-27132D01*
X-26929D02*
X-26713D01*
X-26332D02*
X-26116D01*
X-25532D02*
X-24757D01*
X-24503D02*
X-23855D01*
X-23538D02*
X-22788D01*
X-22573D02*
X-22357D01*
X-21798D02*
X-21112D01*
X-20947D02*
X-20236D01*
X-29773Y20138D02*
X-29138D01*
X-28884D02*
X-28135D01*
X-27818D02*
X-27145D01*
X-26929D02*
X-26713D01*
X-26332D02*
X-26116D01*
X-25519D02*
X-24770D01*
X-24503D02*
X-23868D01*
X-23525D02*
X-22788D01*
X-22573D02*
X-22357D01*
X-21785D02*
X-21125D01*
X-20934D02*
X-20261D01*
X-29761Y20125D02*
X-29151D01*
X-28884D02*
X-28135D01*
X-27805D02*
X-27157D01*
X-26929D02*
X-26713D01*
X-26332D02*
X-26116D01*
X-25506D02*
X-24782D01*
X-24490D02*
X-23881D01*
X-23525D02*
X-22788D01*
X-22573D02*
X-22357D01*
X-21772D02*
X-21137D01*
X-20921D02*
X-20274D01*
X-29748Y20112D02*
X-29164D01*
X-28884D02*
X-28148D01*
X-27792D02*
X-27170D01*
X-26929D02*
X-26713D01*
X-26332D02*
X-26116D01*
X-25493D02*
X-24795D01*
X-24478D02*
X-23893D01*
X-23512D02*
X-23004D01*
X-22992D02*
X-22788D01*
X-22573D02*
X-22357D01*
X-21760D02*
X-21150D01*
X-20909D02*
X-20287D01*
X-29735Y20100D02*
X-29177D01*
X-28884D02*
X-28669D01*
X-28643D02*
X-28160D01*
X-27779D02*
X-27183D01*
X-26929D02*
X-26713D01*
X-26332D02*
X-26116D01*
X-25468D02*
X-24808D01*
X-24465D02*
X-23906D01*
X-23500D02*
X-23017D01*
X-22992D02*
X-22788D01*
X-22573D02*
X-22357D01*
X-21747D02*
X-21176D01*
X-20896D02*
X-20299D01*
X-29723Y20087D02*
X-29202D01*
X-28884D02*
X-28669D01*
X-28630D02*
X-28173D01*
X-27767D02*
X-27208D01*
X-26929D02*
X-26713D01*
X-26332D02*
X-26116D01*
X-25443D02*
X-24820D01*
X-24439D02*
X-23919D01*
X-23487D02*
X-23030D01*
X-22992D02*
X-22788D01*
X-22573D02*
X-22357D01*
X-21734D02*
X-21188D01*
X-20871D02*
X-20312D01*
X-29697Y20074D02*
X-29215D01*
X-28884D02*
X-28669D01*
X-28618D02*
X-28199D01*
X-27741D02*
X-27221D01*
X-26929D02*
X-26713D01*
X-26332D02*
X-26116D01*
X-25417D02*
X-24846D01*
X-24427D02*
X-23944D01*
X-23462D02*
X-23042D01*
X-22992D02*
X-22788D01*
X-22573D02*
X-22357D01*
X-21709D02*
X-21214D01*
X-20858D02*
X-20337D01*
X-29684Y20062D02*
X-29240D01*
X-28884D02*
X-28669D01*
X-28592D02*
X-28211D01*
X-27729D02*
X-27246D01*
X-26929D02*
X-26713D01*
X-26332D02*
X-26116D01*
X-25392D02*
X-24871D01*
X-24401D02*
X-23957D01*
X-23449D02*
X-23055D01*
X-22992D02*
X-22788D01*
X-22573D02*
X-22357D01*
X-21696D02*
X-21226D01*
X-20845D02*
X-20363D01*
X-29659Y20049D02*
X-29253D01*
X-28884D02*
X-28669D01*
X-28580D02*
X-28224D01*
X-27703D02*
X-27271D01*
X-26929D02*
X-26713D01*
X-26332D02*
X-26116D01*
X-25367D02*
X-24897D01*
X-24389D02*
X-23982D01*
X-23423D02*
X-23080D01*
X-22992D02*
X-22788D01*
X-22573D02*
X-22357D01*
X-21671D02*
X-21252D01*
X-20820D02*
X-20375D01*
X-29634Y20036D02*
X-29291D01*
X-28884D02*
X-28669D01*
X-28554D02*
X-28249D01*
X-27678D02*
X-27297D01*
X-26929D02*
X-26713D01*
X-26332D02*
X-26116D01*
X-25328D02*
X-24922D01*
X-24351D02*
X-24008D01*
X-23398D02*
X-23093D01*
X-22992D02*
X-22788D01*
X-22573D02*
X-22357D01*
X-21633D02*
X-21290D01*
X-20782D02*
X-20413D01*
X-29596Y20023D02*
X-29329D01*
X-28884D02*
X-28669D01*
X-28516D02*
X-28288D01*
X-27640D02*
X-27335D01*
X-26929D02*
X-26713D01*
X-26332D02*
X-26116D01*
X-25290D02*
X-24960D01*
X-24325D02*
X-24046D01*
X-23373D02*
X-23131D01*
X-22992D02*
X-22788D01*
X-22573D02*
X-22357D01*
X-21595D02*
X-21315D01*
X-20744D02*
X-20452D01*
X-29532Y20011D02*
X-29380D01*
X-28884D02*
X-28669D01*
X-28478D02*
X-28338D01*
X-27576D02*
X-27399D01*
X-25214D02*
X-25024D01*
X-24262D02*
X-24109D01*
X-23334D02*
X-23169D01*
X-21544D02*
X-21366D01*
X-20693D02*
X-20502D01*
X-28884Y19998D02*
X-28669D01*
X-28884Y19985D02*
X-28669D01*
X-28884Y19973D02*
X-28669D01*
X-28884Y19960D02*
X-28669D01*
X-28884Y19947D02*
X-28669D01*
X-28884Y19934D02*
X-28669D01*
X-28884Y19922D02*
X-28669D01*
X-28884Y19909D02*
X-28669D01*
X-28884Y19896D02*
X-28669D01*
X-28884Y19884D02*
X-28669D01*
X-28884Y19871D02*
X-28669D01*
X-28884Y19858D02*
X-28669D01*
X-28884Y19846D02*
X-28669D01*
X-25608D02*
X-25392D01*
X-28884Y19833D02*
X-28669D01*
X-25608D02*
X-25392D01*
X-28884Y19820D02*
X-28669D01*
X-25608D02*
X-25392D01*
X-28884Y19808D02*
X-28669D01*
X-25608D02*
X-25392D01*
X-28884Y19795D02*
X-28669D01*
X-25608D02*
X-25392D01*
X-28884Y19782D02*
X-28669D01*
X-25608D02*
X-25392D01*
X-28884Y19769D02*
X-28669D01*
X-25608D02*
X-25392D01*
X-28884Y19757D02*
X-28669D01*
X-25608D02*
X-25392D01*
X-28884Y19744D02*
X-28669D01*
X-25608D02*
X-25392D01*
X-28884Y19731D02*
X-28669D01*
X-25608D02*
X-25392D01*
X-28884Y19719D02*
X-28669D01*
X-25608D02*
X-25392D01*
X-28884Y19706D02*
X-28669D01*
X-25608D02*
X-25392D01*
X-28884Y19693D02*
X-28669D01*
X-25608D02*
X-25392D01*
X-28884Y19681D02*
X-28669D01*
X-25608D02*
X-25392D01*
X-28884Y19668D02*
X-28669D01*
X-25608D02*
X-25392D01*
X-28884Y19655D02*
X-28669D01*
X-25608D02*
X-25392D01*
X-28884Y19642D02*
X-28669D01*
X-25608D02*
X-25392D01*
X-28884Y19630D02*
X-28669D01*
X-25608D02*
X-25392D01*
X-28884Y19617D02*
X-28669D01*
X-25608D02*
X-25392D01*
X-28884Y19604D02*
X-28669D01*
X-25608D02*
X-25392D01*
X-28884Y19592D02*
X-28669D01*
X-25608D02*
X-25392D01*
X-28884Y19579D02*
X-28669D01*
X-25608D02*
X-25392D01*
X-28884Y19566D02*
X-28669D01*
X-25608D02*
X-25392D01*
X-28884Y19553D02*
X-28669D01*
X-25608D02*
X-25392D01*
X-28884Y19541D02*
X-28669D01*
X-25608D02*
X-25392D01*
X-28884Y19528D02*
X-28669D01*
X-25608D02*
X-25392D01*
X-28884Y19515D02*
X-28669D01*
X-25608D02*
X-25392D01*
X-28884Y19503D02*
X-28669D01*
X-25608D02*
X-25392D01*
X-28884Y19490D02*
X-28669D01*
X-25608D02*
X-25392D01*
X-28884Y19477D02*
X-28669D01*
X-25608D02*
X-25392D01*
X-28884Y19465D02*
X-28669D01*
X-25608D02*
X-25392D01*
X-28884Y19452D02*
X-28669D01*
X-28440D02*
X-28364D01*
X-27576D02*
X-27462D01*
X-26459D02*
X-26382D01*
X-25900D02*
X-25836D01*
X-25608D02*
X-25392D01*
X-23500D02*
X-23385D01*
X-22382D02*
X-22319D01*
X-21760D02*
X-21684D01*
X-28884Y19439D02*
X-28669D01*
X-28516D02*
X-28300D01*
X-27678D02*
X-27360D01*
X-26903D02*
X-26687D01*
X-26535D02*
X-26319D01*
X-25976D02*
X-25773D01*
X-25608D02*
X-25392D01*
X-25303D02*
X-25074D01*
X-24655D02*
X-24503D01*
X-24084D02*
X-23855D01*
X-23601D02*
X-23296D01*
X-22826D02*
X-22611D01*
X-22458D02*
X-22255D01*
X-21836D02*
X-21607D01*
X-28884Y19427D02*
X-28669D01*
X-28554D02*
X-28262D01*
X-27716D02*
X-27322D01*
X-26903D02*
X-26687D01*
X-26573D02*
X-26294D01*
X-26001D02*
X-25735D01*
X-25608D02*
X-25392D01*
X-25303D02*
X-25074D01*
X-24668D02*
X-24490D01*
X-24097D02*
X-23868D01*
X-23639D02*
X-23246D01*
X-22826D02*
X-22611D01*
X-22496D02*
X-22217D01*
X-21874D02*
X-21556D01*
X-28884Y19414D02*
X-28669D01*
X-28580D02*
X-28237D01*
X-27754D02*
X-27284D01*
X-26903D02*
X-26687D01*
X-26598D02*
X-26268D01*
X-26040D02*
X-25709D01*
X-25608D02*
X-25392D01*
X-25290D02*
X-25062D01*
X-24668D02*
X-24490D01*
X-24097D02*
X-23868D01*
X-23677D02*
X-23208D01*
X-22826D02*
X-22611D01*
X-22522D02*
X-22191D01*
X-21899D02*
X-21531D01*
X-28884Y19401D02*
X-28669D01*
X-28592D02*
X-28224D01*
X-27779D02*
X-27259D01*
X-26903D02*
X-26687D01*
X-26611D02*
X-26243D01*
X-26052D02*
X-25684D01*
X-25608D02*
X-25392D01*
X-25290D02*
X-25062D01*
X-24668D02*
X-24490D01*
X-24097D02*
X-23868D01*
X-23703D02*
X-23182D01*
X-22826D02*
X-22611D01*
X-22547D02*
X-22166D01*
X-21925D02*
X-21506D01*
X-28884Y19388D02*
X-28669D01*
X-28618D02*
X-28199D01*
X-27792D02*
X-27233D01*
X-26903D02*
X-26687D01*
X-26636D02*
X-26217D01*
X-26078D02*
X-25659D01*
X-25608D02*
X-25392D01*
X-25290D02*
X-25062D01*
X-24681D02*
X-24478D01*
X-24097D02*
X-23881D01*
X-23728D02*
X-23169D01*
X-22826D02*
X-22611D01*
X-22560D02*
X-22153D01*
X-21950D02*
X-21480D01*
X-28884Y19376D02*
X-28669D01*
X-28630D02*
X-28186D01*
X-27818D02*
X-27221D01*
X-26903D02*
X-26687D01*
X-26649D02*
X-26205D01*
X-26090D02*
X-25646D01*
X-25608D02*
X-25392D01*
X-25278D02*
X-25062D01*
X-24681D02*
X-24478D01*
X-24109D02*
X-23881D01*
X-23741D02*
X-23144D01*
X-22826D02*
X-22611D01*
X-22573D02*
X-22128D01*
X-21963D02*
X-21468D01*
X-28884Y19363D02*
X-28669D01*
X-28643D02*
X-28173D01*
X-27830D02*
X-27208D01*
X-26903D02*
X-26687D01*
X-26662D02*
X-26205D01*
X-26103D02*
X-25633D01*
X-25608D02*
X-25392D01*
X-25278D02*
X-25049D01*
X-24681D02*
X-24478D01*
X-24109D02*
X-23881D01*
X-23754D02*
X-23131D01*
X-22826D02*
X-22611D01*
X-22585D02*
X-22141D01*
X-21976D02*
X-21455D01*
X-28884Y19350D02*
X-28669D01*
X-28656D02*
X-28160D01*
X-27843D02*
X-27195D01*
X-26903D02*
X-26687D01*
X-26675D02*
X-26217D01*
X-26116D02*
X-25621D01*
X-25608D02*
X-25392D01*
X-25278D02*
X-25049D01*
X-24693D02*
X-24465D01*
X-24109D02*
X-23893D01*
X-23766D02*
X-23119D01*
X-22826D02*
X-22611D01*
X-22598D02*
X-22141D01*
X-22001D02*
X-21430D01*
X-28884Y19338D02*
X-28148D01*
X-27856D02*
X-27183D01*
X-26903D02*
X-26230D01*
X-26128D02*
X-25392D01*
X-25265D02*
X-25049D01*
X-24693D02*
X-24465D01*
X-24122D02*
X-23893D01*
X-23779D02*
X-23106D01*
X-22826D02*
X-22153D01*
X-22014D02*
X-21417D01*
X-28884Y19325D02*
X-28135D01*
X-27868D02*
X-27170D01*
X-26903D02*
X-26243D01*
X-26141D02*
X-25392D01*
X-25265D02*
X-25036D01*
X-24693D02*
X-24465D01*
X-24122D02*
X-23893D01*
X-23792D02*
X-23093D01*
X-22826D02*
X-22166D01*
X-22014D02*
X-21404D01*
X-28884Y19312D02*
X-28122D01*
X-27868D02*
X-27157D01*
X-26903D02*
X-26256D01*
X-26154D02*
X-25392D01*
X-25265D02*
X-25036D01*
X-24706D02*
X-24465D01*
X-24122D02*
X-23893D01*
X-23804D02*
X-23080D01*
X-22826D02*
X-22179D01*
X-22026D02*
X-21404D01*
X-28884Y19299D02*
X-28122D01*
X-27881D02*
X-27157D01*
X-26903D02*
X-26256D01*
X-26154D02*
X-25392D01*
X-25252D02*
X-25036D01*
X-24706D02*
X-24452D01*
X-24122D02*
X-23906D01*
X-23804D02*
X-23080D01*
X-22826D02*
X-22191D01*
X-22039D02*
X-21391D01*
X-28884Y19287D02*
X-28110D01*
X-27868D02*
X-27145D01*
X-26903D02*
X-26268D01*
X-26167D02*
X-25392D01*
X-25252D02*
X-25036D01*
X-24706D02*
X-24452D01*
X-24135D02*
X-23906D01*
X-23792D02*
X-23068D01*
X-22826D02*
X-22204D01*
X-22052D02*
X-21379D01*
X-28884Y19274D02*
X-28097D01*
X-27856D02*
X-27132D01*
X-26903D02*
X-26281D01*
X-26167D02*
X-25392D01*
X-25252D02*
X-25024D01*
X-24719D02*
X-24452D01*
X-24135D02*
X-23906D01*
X-23779D02*
X-23068D01*
X-22826D02*
X-22204D01*
X-22065D02*
X-21366D01*
X-28884Y19261D02*
X-28097D01*
X-27830D02*
X-27132D01*
X-26903D02*
X-26294D01*
X-26179D02*
X-25392D01*
X-25240D02*
X-25024D01*
X-24719D02*
X-24439D01*
X-24135D02*
X-23919D01*
X-23766D02*
X-23055D01*
X-22826D02*
X-22217D01*
X-22065D02*
X-21366D01*
X-28884Y19249D02*
X-28084D01*
X-27818D02*
X-27564D01*
X-27487D02*
X-27132D01*
X-26903D02*
X-26306D01*
X-26179D02*
X-25392D01*
X-25240D02*
X-25024D01*
X-24719D02*
X-24439D01*
X-24135D02*
X-23919D01*
X-23741D02*
X-23500D01*
X-23411D02*
X-23055D01*
X-22826D02*
X-22230D01*
X-22077D02*
X-21747D01*
X-21684D02*
X-21353D01*
X-28884Y19236D02*
X-28503D01*
X-28427D02*
X-28084D01*
X-27805D02*
X-27640D01*
X-27411D02*
X-27119D01*
X-26903D02*
X-26522D01*
X-26459D02*
X-26319D01*
X-26192D02*
X-25836D01*
X-25773D02*
X-25392D01*
X-25240D02*
X-25011D01*
X-24732D02*
X-24439D01*
X-24147D02*
X-23919D01*
X-23728D02*
X-23563D01*
X-23334D02*
X-23055D01*
X-22826D02*
X-22458D01*
X-22382D02*
X-22242D01*
X-22077D02*
X-21798D01*
X-21645D02*
X-21353D01*
X-28884Y19223D02*
X-28542D01*
X-28389D02*
X-28084D01*
X-27779D02*
X-27653D01*
X-27373D02*
X-27119D01*
X-26903D02*
X-26573D01*
X-26421D02*
X-26319D01*
X-26192D02*
X-25887D01*
X-25722D02*
X-25392D01*
X-25240D02*
X-25011D01*
X-24732D02*
X-24427D01*
X-24147D02*
X-23931D01*
X-23715D02*
X-23588D01*
X-23296D02*
X-23042D01*
X-22826D02*
X-22496D01*
X-22344D02*
X-22255D01*
X-22077D02*
X-21823D01*
X-21620D02*
X-21341D01*
X-28884Y19211D02*
X-28567D01*
X-28364D02*
X-28072D01*
X-27767D02*
X-27678D01*
X-27360D02*
X-27119D01*
X-26903D02*
X-26598D01*
X-26395D02*
X-26332D01*
X-26192D02*
X-25913D01*
X-25697D02*
X-25392D01*
X-25227D02*
X-25011D01*
X-24732D02*
X-24427D01*
X-24147D02*
X-23931D01*
X-23690D02*
X-23601D01*
X-23284D02*
X-23042D01*
X-22826D02*
X-22522D01*
X-22331D02*
X-22268D01*
X-22090D02*
X-21836D01*
X-21595D02*
X-21341D01*
X-28884Y19198D02*
X-28592D01*
X-28351D02*
X-28072D01*
X-27754D02*
X-27691D01*
X-27348D02*
X-27119D01*
X-26903D02*
X-26611D01*
X-26382D02*
X-26344D01*
X-26192D02*
X-25925D01*
X-25684D02*
X-25392D01*
X-25227D02*
X-25011D01*
X-24744D02*
X-24427D01*
X-24160D02*
X-23931D01*
X-23677D02*
X-23614D01*
X-23271D02*
X-23042D01*
X-22826D02*
X-22534D01*
X-22306D02*
X-22268D01*
X-22090D02*
X-21861D01*
X-21582D02*
X-21328D01*
X-28884Y19185D02*
X-28605D01*
X-28338D02*
X-28072D01*
X-27729D02*
X-27703D01*
X-27335D02*
X-27119D01*
X-26903D02*
X-26624D01*
X-26205D02*
X-25938D01*
X-25671D02*
X-25392D01*
X-25227D02*
X-24998D01*
X-24744D02*
X-24414D01*
X-24160D02*
X-23944D01*
X-23665D02*
X-23627D01*
X-23258D02*
X-23042D01*
X-22826D02*
X-22547D01*
X-22103D02*
X-21874D01*
X-21569D02*
X-21328D01*
X-28884Y19173D02*
X-28618D01*
X-28326D02*
X-28072D01*
X-27335D02*
X-27106D01*
X-26903D02*
X-26636D01*
X-26205D02*
X-25951D01*
X-25659D02*
X-25392D01*
X-25214D02*
X-24998D01*
X-24744D02*
X-24414D01*
X-24160D02*
X-23944D01*
X-23258D02*
X-23042D01*
X-22826D02*
X-22560D01*
X-22103D02*
X-21874D01*
X-21556D02*
X-21328D01*
X-28884Y19160D02*
X-28630D01*
X-28313D02*
X-28072D01*
X-27322D02*
X-27106D01*
X-26903D02*
X-26649D01*
X-26205D02*
X-25963D01*
X-25646D02*
X-25392D01*
X-25214D02*
X-24998D01*
X-24757D02*
X-24414D01*
X-24160D02*
X-23944D01*
X-23258D02*
X-23042D01*
X-22826D02*
X-22573D01*
X-22103D02*
X-21887D01*
X-21556D02*
X-21315D01*
X-28884Y19147D02*
X-28630D01*
X-28300D02*
X-28072D01*
X-27322D02*
X-27106D01*
X-26903D02*
X-26649D01*
X-26205D02*
X-25963D01*
X-25646D02*
X-25392D01*
X-25214D02*
X-24998D01*
X-24757D02*
X-24401D01*
X-24173D02*
X-23957D01*
X-23246D02*
X-23042D01*
X-22826D02*
X-22585D01*
X-22115D02*
X-21899D01*
X-21544D02*
X-21315D01*
X-28884Y19134D02*
X-28643D01*
X-28300D02*
X-28059D01*
X-27322D02*
X-27106D01*
X-26903D02*
X-26662D01*
X-26205D02*
X-25976D01*
X-25633D02*
X-25392D01*
X-25201D02*
X-24986D01*
X-24757D02*
X-24401D01*
X-24173D02*
X-23957D01*
X-23246D02*
X-23030D01*
X-22826D02*
X-22585D01*
X-22115D02*
X-21899D01*
X-21544D02*
X-21315D01*
X-28884Y19122D02*
X-28643D01*
X-28300D02*
X-28059D01*
X-27322D02*
X-27106D01*
X-26903D02*
X-26662D01*
X-26205D02*
X-25976D01*
X-25633D02*
X-25392D01*
X-25201D02*
X-24986D01*
X-24770D02*
X-24401D01*
X-24173D02*
X-23957D01*
X-23246D02*
X-23030D01*
X-22826D02*
X-22598D01*
X-22115D02*
X-21912D01*
X-21531D02*
X-21302D01*
X-28884Y19109D02*
X-28656D01*
X-28288D02*
X-28059D01*
X-27322D02*
X-27106D01*
X-26903D02*
X-26675D01*
X-26205D02*
X-25976D01*
X-25633D02*
X-25392D01*
X-25201D02*
X-24986D01*
X-24770D02*
X-24389D01*
X-24173D02*
X-23969D01*
X-23246D02*
X-23030D01*
X-22826D02*
X-22598D01*
X-22115D02*
X-21912D01*
X-21531D02*
X-21302D01*
X-28884Y19096D02*
X-28656D01*
X-28288D02*
X-28059D01*
X-27322D02*
X-27106D01*
X-26903D02*
X-26675D01*
X-26205D02*
X-25989D01*
X-25621D02*
X-25392D01*
X-25189D02*
X-24973D01*
X-24770D02*
X-24592D01*
X-24579D02*
X-24389D01*
X-24185D02*
X-23969D01*
X-23246D02*
X-23030D01*
X-22826D02*
X-22598D01*
X-22128D02*
X-21912D01*
X-21531D02*
X-21302D01*
X-28884Y19084D02*
X-28656D01*
X-28288D02*
X-28059D01*
X-27322D02*
X-27106D01*
X-26903D02*
X-26675D01*
X-26205D02*
X-25989D01*
X-25621D02*
X-25392D01*
X-25189D02*
X-24973D01*
X-24782D02*
X-24592D01*
X-24566D02*
X-24389D01*
X-24185D02*
X-23969D01*
X-23246D02*
X-23030D01*
X-22826D02*
X-22598D01*
X-22128D02*
X-21912D01*
X-21518D02*
X-21302D01*
X-28884Y19071D02*
X-28656D01*
X-28275D02*
X-28059D01*
X-27322D02*
X-27106D01*
X-26903D02*
X-26675D01*
X-26205D02*
X-25989D01*
X-25621D02*
X-25392D01*
X-25189D02*
X-24973D01*
X-24782D02*
X-24592D01*
X-24566D02*
X-24376D01*
X-24185D02*
X-23982D01*
X-23246D02*
X-23030D01*
X-22826D02*
X-22611D01*
X-22128D02*
X-21925D01*
X-21518D02*
X-21302D01*
X-28884Y19058D02*
X-28656D01*
X-28275D02*
X-28059D01*
X-27322D02*
X-27106D01*
X-26903D02*
X-26675D01*
X-26205D02*
X-25989D01*
X-25621D02*
X-25392D01*
X-25176D02*
X-24973D01*
X-24782D02*
X-24592D01*
X-24566D02*
X-24376D01*
X-24198D02*
X-23982D01*
X-23246D02*
X-23030D01*
X-22826D02*
X-22611D01*
X-22128D02*
X-21925D01*
X-21518D02*
X-21302D01*
X-28884Y19045D02*
X-28656D01*
X-28275D02*
X-28059D01*
X-27322D02*
X-27106D01*
X-26903D02*
X-26687D01*
X-26217D02*
X-25989D01*
X-25621D02*
X-25392D01*
X-25176D02*
X-24960D01*
X-24782D02*
X-24604D01*
X-24554D02*
X-24376D01*
X-24198D02*
X-23982D01*
X-23246D02*
X-23030D01*
X-22826D02*
X-22611D01*
X-22128D02*
X-21925D01*
X-21518D02*
X-21302D01*
X-28884Y19033D02*
X-28669D01*
X-28275D02*
X-28059D01*
X-27322D02*
X-27106D01*
X-26903D02*
X-26687D01*
X-26217D02*
X-25989D01*
X-25621D02*
X-25392D01*
X-25176D02*
X-24960D01*
X-24795D02*
X-24604D01*
X-24554D02*
X-24363D01*
X-24198D02*
X-23982D01*
X-23246D02*
X-23030D01*
X-22826D02*
X-22611D01*
X-22128D02*
X-21925D01*
X-21518D02*
X-21302D01*
X-28884Y19020D02*
X-28669D01*
X-28275D02*
X-28059D01*
X-27691D02*
X-27106D01*
X-26903D02*
X-26687D01*
X-26217D02*
X-25989D01*
X-25621D02*
X-25392D01*
X-25163D02*
X-24960D01*
X-24795D02*
X-24604D01*
X-24554D02*
X-24363D01*
X-24198D02*
X-23995D01*
X-23614D02*
X-23030D01*
X-22826D02*
X-22611D01*
X-22141D02*
X-21302D01*
X-28884Y19007D02*
X-28669D01*
X-28275D02*
X-28059D01*
X-27741D02*
X-27106D01*
X-26903D02*
X-26687D01*
X-26217D02*
X-26001D01*
X-25621D02*
X-25392D01*
X-25163D02*
X-24960D01*
X-24795D02*
X-24617D01*
X-24554D02*
X-24363D01*
X-24211D02*
X-23995D01*
X-23665D02*
X-23030D01*
X-22826D02*
X-22611D01*
X-22141D02*
X-21302D01*
X-28884Y18995D02*
X-28669D01*
X-28275D02*
X-28059D01*
X-27767D02*
X-27106D01*
X-26903D02*
X-26687D01*
X-26217D02*
X-26001D01*
X-25608D02*
X-25392D01*
X-25163D02*
X-24947D01*
X-24808D02*
X-24617D01*
X-24541D02*
X-24351D01*
X-24211D02*
X-23995D01*
X-23690D02*
X-23030D01*
X-22826D02*
X-22611D01*
X-22141D02*
X-21302D01*
X-28884Y18982D02*
X-28669D01*
X-28275D02*
X-28059D01*
X-27792D02*
X-27106D01*
X-26903D02*
X-26687D01*
X-26217D02*
X-26001D01*
X-25608D02*
X-25392D01*
X-25151D02*
X-24947D01*
X-24808D02*
X-24617D01*
X-24541D02*
X-24351D01*
X-24211D02*
X-24008D01*
X-23715D02*
X-23030D01*
X-22826D02*
X-22611D01*
X-22141D02*
X-21302D01*
X-28884Y18969D02*
X-28669D01*
X-28275D02*
X-28059D01*
X-27818D02*
X-27106D01*
X-26903D02*
X-26687D01*
X-26217D02*
X-26001D01*
X-25608D02*
X-25392D01*
X-25151D02*
X-24947D01*
X-24808D02*
X-24630D01*
X-24541D02*
X-24351D01*
X-24211D02*
X-24008D01*
X-23741D02*
X-23030D01*
X-22826D02*
X-22611D01*
X-22141D02*
X-21302D01*
X-28884Y18957D02*
X-28669D01*
X-28275D02*
X-28059D01*
X-27830D02*
X-27106D01*
X-26903D02*
X-26687D01*
X-26217D02*
X-26001D01*
X-25608D02*
X-25392D01*
X-25151D02*
X-24935D01*
X-24820D02*
X-24630D01*
X-24528D02*
X-24338D01*
X-24223D02*
X-24008D01*
X-23754D02*
X-23030D01*
X-22826D02*
X-22611D01*
X-22141D02*
X-21302D01*
X-28884Y18944D02*
X-28669D01*
X-28275D02*
X-28059D01*
X-27843D02*
X-27106D01*
X-26903D02*
X-26687D01*
X-26217D02*
X-26001D01*
X-25608D02*
X-25392D01*
X-25138D02*
X-24935D01*
X-24820D02*
X-24630D01*
X-24528D02*
X-24338D01*
X-24223D02*
X-24020D01*
X-23766D02*
X-23030D01*
X-22826D02*
X-22611D01*
X-22141D02*
X-21302D01*
X-28884Y18931D02*
X-28669D01*
X-28275D02*
X-28059D01*
X-27856D02*
X-27106D01*
X-26903D02*
X-26687D01*
X-26217D02*
X-26001D01*
X-25608D02*
X-25392D01*
X-25138D02*
X-24935D01*
X-24820D02*
X-24630D01*
X-24528D02*
X-24338D01*
X-24223D02*
X-24020D01*
X-23779D02*
X-23030D01*
X-22826D02*
X-22611D01*
X-22141D02*
X-21302D01*
X-28884Y18919D02*
X-28669D01*
X-28275D02*
X-28059D01*
X-27868D02*
X-27106D01*
X-26903D02*
X-26687D01*
X-26217D02*
X-26001D01*
X-25608D02*
X-25392D01*
X-25138D02*
X-24935D01*
X-24833D02*
X-24643D01*
X-24516D02*
X-24338D01*
X-24236D02*
X-24020D01*
X-23792D02*
X-23030D01*
X-22826D02*
X-22611D01*
X-22141D02*
X-21302D01*
X-28884Y18906D02*
X-28669D01*
X-28275D02*
X-28059D01*
X-27881D02*
X-27106D01*
X-26903D02*
X-26687D01*
X-26217D02*
X-26001D01*
X-25608D02*
X-25392D01*
X-25138D02*
X-24922D01*
X-24833D02*
X-24643D01*
X-24516D02*
X-24325D01*
X-24236D02*
X-24033D01*
X-23804D02*
X-23030D01*
X-22826D02*
X-22611D01*
X-22141D02*
X-21302D01*
X-28884Y18893D02*
X-28669D01*
X-28275D02*
X-28059D01*
X-27881D02*
X-27106D01*
X-26903D02*
X-26687D01*
X-26217D02*
X-26001D01*
X-25608D02*
X-25392D01*
X-25125D02*
X-24922D01*
X-24833D02*
X-24643D01*
X-24516D02*
X-24325D01*
X-24236D02*
X-24033D01*
X-23817D02*
X-23030D01*
X-22826D02*
X-22611D01*
X-22141D02*
X-21302D01*
X-28884Y18880D02*
X-28669D01*
X-28275D02*
X-28059D01*
X-27894D02*
X-27106D01*
X-26903D02*
X-26687D01*
X-26217D02*
X-26001D01*
X-25608D02*
X-25392D01*
X-25125D02*
X-24922D01*
X-24846D02*
X-24655D01*
X-24516D02*
X-24325D01*
X-24236D02*
X-24033D01*
X-23817D02*
X-23030D01*
X-22826D02*
X-22611D01*
X-22141D02*
X-21302D01*
X-28884Y18868D02*
X-28669D01*
X-28275D02*
X-28059D01*
X-27894D02*
X-27106D01*
X-26903D02*
X-26687D01*
X-26217D02*
X-26001D01*
X-25621D02*
X-25392D01*
X-25125D02*
X-24922D01*
X-24846D02*
X-24655D01*
X-24503D02*
X-24312D01*
X-24249D02*
X-24046D01*
X-23830D02*
X-23030D01*
X-22826D02*
X-22611D01*
X-22141D02*
X-21302D01*
X-28884Y18855D02*
X-28669D01*
X-28275D02*
X-28059D01*
X-27906D02*
X-27106D01*
X-26903D02*
X-26687D01*
X-26217D02*
X-25989D01*
X-25621D02*
X-25392D01*
X-25112D02*
X-24909D01*
X-24846D02*
X-24655D01*
X-24503D02*
X-24312D01*
X-24249D02*
X-24046D01*
X-23830D02*
X-23030D01*
X-22826D02*
X-22611D01*
X-22141D02*
X-21302D01*
X-28884Y18842D02*
X-28669D01*
X-28275D02*
X-28059D01*
X-27906D02*
X-27627D01*
X-27322D02*
X-27106D01*
X-26903D02*
X-26687D01*
X-26217D02*
X-25989D01*
X-25621D02*
X-25392D01*
X-25112D02*
X-24909D01*
X-24858D02*
X-24668D01*
X-24503D02*
X-24312D01*
X-24249D02*
X-24046D01*
X-23843D02*
X-23550D01*
X-23246D02*
X-23030D01*
X-22826D02*
X-22611D01*
X-22128D02*
X-21925D01*
X-28884Y18830D02*
X-28669D01*
X-28275D02*
X-28059D01*
X-27919D02*
X-27653D01*
X-27322D02*
X-27106D01*
X-26903D02*
X-26687D01*
X-26217D02*
X-25989D01*
X-25621D02*
X-25392D01*
X-25112D02*
X-24909D01*
X-24858D02*
X-24668D01*
X-24490D02*
X-24300D01*
X-24249D02*
X-24058D01*
X-23843D02*
X-23588D01*
X-23246D02*
X-23030D01*
X-22826D02*
X-22611D01*
X-22128D02*
X-21925D01*
X-28884Y18817D02*
X-28669D01*
X-28275D02*
X-28059D01*
X-27919D02*
X-27691D01*
X-27322D02*
X-27106D01*
X-26903D02*
X-26687D01*
X-26205D02*
X-25989D01*
X-25621D02*
X-25392D01*
X-25100D02*
X-24897D01*
X-24858D02*
X-24668D01*
X-24490D02*
X-24300D01*
X-24262D02*
X-24058D01*
X-23843D02*
X-23614D01*
X-23246D02*
X-23030D01*
X-22826D02*
X-22611D01*
X-22128D02*
X-21925D01*
X-28884Y18804D02*
X-28669D01*
X-28275D02*
X-28059D01*
X-27919D02*
X-27691D01*
X-27322D02*
X-27106D01*
X-26903D02*
X-26687D01*
X-26205D02*
X-25989D01*
X-25621D02*
X-25392D01*
X-25100D02*
X-24897D01*
X-24871D02*
X-24668D01*
X-24490D02*
X-24300D01*
X-24262D02*
X-24058D01*
X-23843D02*
X-23627D01*
X-23246D02*
X-23030D01*
X-22826D02*
X-22611D01*
X-22128D02*
X-21925D01*
X-28884Y18792D02*
X-28669D01*
X-28275D02*
X-28059D01*
X-27919D02*
X-27703D01*
X-27322D02*
X-27106D01*
X-26903D02*
X-26687D01*
X-26205D02*
X-25989D01*
X-25621D02*
X-25392D01*
X-25100D02*
X-24897D01*
X-24871D02*
X-24681D01*
X-24490D02*
X-24287D01*
X-24262D02*
X-24071D01*
X-23855D02*
X-23639D01*
X-23246D02*
X-23030D01*
X-22826D02*
X-22611D01*
X-22128D02*
X-21912D01*
X-28884Y18779D02*
X-28669D01*
X-28275D02*
X-28059D01*
X-27932D02*
X-27716D01*
X-27322D02*
X-27106D01*
X-26903D02*
X-26687D01*
X-26205D02*
X-25989D01*
X-25621D02*
X-25392D01*
X-25087D02*
X-24897D01*
X-24871D02*
X-24681D01*
X-24478D02*
X-24287D01*
X-24274D02*
X-24071D01*
X-23855D02*
X-23639D01*
X-23246D02*
X-23030D01*
X-22826D02*
X-22611D01*
X-22128D02*
X-21912D01*
X-28884Y18766D02*
X-28669D01*
X-28275D02*
X-28059D01*
X-27932D02*
X-27716D01*
X-27322D02*
X-27106D01*
X-26903D02*
X-26687D01*
X-26205D02*
X-25989D01*
X-25633D02*
X-25392D01*
X-25087D02*
X-24681D01*
X-24478D02*
X-24287D01*
X-24274D02*
X-24071D01*
X-23855D02*
X-23652D01*
X-23246D02*
X-23030D01*
X-22826D02*
X-22611D01*
X-22128D02*
X-21912D01*
X-28884Y18753D02*
X-28669D01*
X-28275D02*
X-28059D01*
X-27932D02*
X-27729D01*
X-27322D02*
X-27106D01*
X-26903D02*
X-26687D01*
X-26205D02*
X-25976D01*
X-25633D02*
X-25392D01*
X-25087D02*
X-24693D01*
X-24478D02*
X-24084D01*
X-23855D02*
X-23652D01*
X-23246D02*
X-23030D01*
X-22826D02*
X-22611D01*
X-22128D02*
X-21912D01*
X-28884Y18741D02*
X-28669D01*
X-28275D02*
X-28059D01*
X-27932D02*
X-27729D01*
X-27322D02*
X-27106D01*
X-26903D02*
X-26687D01*
X-26205D02*
X-25976D01*
X-25633D02*
X-25392D01*
X-25074D02*
X-24693D01*
X-24465D02*
X-24084D01*
X-23855D02*
X-23652D01*
X-23246D02*
X-23030D01*
X-22826D02*
X-22611D01*
X-22115D02*
X-21899D01*
X-28884Y18728D02*
X-28669D01*
X-28275D02*
X-28059D01*
X-27932D02*
X-27729D01*
X-27322D02*
X-27106D01*
X-26903D02*
X-26687D01*
X-26205D02*
X-25976D01*
X-25633D02*
X-25392D01*
X-25074D02*
X-24693D01*
X-24465D02*
X-24084D01*
X-23855D02*
X-23652D01*
X-23258D02*
X-23030D01*
X-22826D02*
X-22611D01*
X-22115D02*
X-21899D01*
X-28884Y18715D02*
X-28669D01*
X-28275D02*
X-28059D01*
X-27932D02*
X-27716D01*
X-27335D02*
X-27106D01*
X-26903D02*
X-26687D01*
X-26205D02*
X-25963D01*
X-25646D02*
X-25392D01*
X-25074D02*
X-24706D01*
X-24465D02*
X-24084D01*
X-23855D02*
X-23652D01*
X-23258D02*
X-23030D01*
X-22826D02*
X-22611D01*
X-22115D02*
X-21887D01*
X-28884Y18703D02*
X-28669D01*
X-28275D02*
X-28059D01*
X-27932D02*
X-27716D01*
X-27335D02*
X-27106D01*
X-26903D02*
X-26687D01*
X-26205D02*
X-25963D01*
X-25659D02*
X-25392D01*
X-25062D02*
X-24706D01*
X-24452D02*
X-24097D01*
X-23855D02*
X-23652D01*
X-23258D02*
X-23030D01*
X-22826D02*
X-22611D01*
X-22103D02*
X-21874D01*
X-21493D02*
X-21455D01*
X-28884Y18690D02*
X-28669D01*
X-28275D02*
X-28059D01*
X-27932D02*
X-27716D01*
X-27335D02*
X-27106D01*
X-26903D02*
X-26687D01*
X-26205D02*
X-25951D01*
X-25659D02*
X-25392D01*
X-25062D02*
X-24706D01*
X-24452D02*
X-24097D01*
X-23855D02*
X-23639D01*
X-23258D02*
X-23030D01*
X-22826D02*
X-22611D01*
X-22103D02*
X-21874D01*
X-21506D02*
X-21442D01*
X-28884Y18677D02*
X-28669D01*
X-28275D02*
X-28059D01*
X-27932D02*
X-27703D01*
X-27348D02*
X-27106D01*
X-26903D02*
X-26687D01*
X-26205D02*
X-25938D01*
X-25671D02*
X-25392D01*
X-25062D02*
X-24706D01*
X-24452D02*
X-24097D01*
X-23855D02*
X-23639D01*
X-23271D02*
X-23030D01*
X-22826D02*
X-22611D01*
X-22103D02*
X-21861D01*
X-21518D02*
X-21430D01*
X-28884Y18664D02*
X-28669D01*
X-28275D02*
X-28059D01*
X-27919D02*
X-27703D01*
X-27348D02*
X-27106D01*
X-26903D02*
X-26687D01*
X-26192D02*
X-25925D01*
X-25684D02*
X-25392D01*
X-25049D02*
X-24719D01*
X-24452D02*
X-24109D01*
X-23855D02*
X-23627D01*
X-23271D02*
X-23030D01*
X-22826D02*
X-22611D01*
X-22103D02*
X-21849D01*
X-21531D02*
X-21404D01*
X-28884Y18652D02*
X-28669D01*
X-28275D02*
X-28059D01*
X-27919D02*
X-27678D01*
X-27360D02*
X-27106D01*
X-26903D02*
X-26687D01*
X-26192D02*
X-25913D01*
X-25709D02*
X-25392D01*
X-25049D02*
X-24719D01*
X-24439D02*
X-24109D01*
X-23855D02*
X-23614D01*
X-23284D02*
X-23030D01*
X-22826D02*
X-22611D01*
X-22090D02*
X-21823D01*
X-21556D02*
X-21391D01*
X-28884Y18639D02*
X-28669D01*
X-28275D02*
X-28059D01*
X-27919D02*
X-27665D01*
X-27373D02*
X-27106D01*
X-26903D02*
X-26687D01*
X-26192D02*
X-25875D01*
X-25735D02*
X-25392D01*
X-25049D02*
X-24719D01*
X-24439D02*
X-24109D01*
X-23843D02*
X-23588D01*
X-23309D02*
X-23030D01*
X-22826D02*
X-22611D01*
X-22090D02*
X-21798D01*
X-21582D02*
X-21379D01*
X-28884Y18626D02*
X-28669D01*
X-28275D02*
X-28059D01*
X-27919D02*
X-27627D01*
X-27411D02*
X-27106D01*
X-26903D02*
X-26687D01*
X-26179D02*
X-25392D01*
X-25049D02*
X-24732D01*
X-24439D02*
X-24122D01*
X-23843D02*
X-23563D01*
X-23334D02*
X-23030D01*
X-22826D02*
X-22611D01*
X-22077D02*
X-21772D01*
X-21620D02*
X-21366D01*
X-28884Y18614D02*
X-28669D01*
X-28275D02*
X-28059D01*
X-27906D02*
X-27106D01*
X-26903D02*
X-26687D01*
X-26179D02*
X-25392D01*
X-25036D02*
X-24732D01*
X-24427D02*
X-24122D01*
X-23843D02*
X-23030D01*
X-22826D02*
X-22611D01*
X-22065D02*
X-21353D01*
X-28884Y18601D02*
X-28669D01*
X-28275D02*
X-28059D01*
X-27906D02*
X-27106D01*
X-26903D02*
X-26687D01*
X-26179D02*
X-25392D01*
X-25036D02*
X-24732D01*
X-24427D02*
X-24122D01*
X-23830D02*
X-23030D01*
X-22826D02*
X-22611D01*
X-22065D02*
X-21341D01*
X-28884Y18588D02*
X-28669D01*
X-28275D02*
X-28059D01*
X-27906D02*
X-27106D01*
X-26903D02*
X-26687D01*
X-26167D02*
X-25392D01*
X-25036D02*
X-24744D01*
X-24427D02*
X-24135D01*
X-23830D02*
X-23030D01*
X-22826D02*
X-22611D01*
X-22052D02*
X-21315D01*
X-28884Y18576D02*
X-28669D01*
X-28275D02*
X-28059D01*
X-27894D02*
X-27106D01*
X-26903D02*
X-26687D01*
X-26167D02*
X-25392D01*
X-25024D02*
X-24744D01*
X-24414D02*
X-24135D01*
X-23817D02*
X-23030D01*
X-22826D02*
X-22611D01*
X-22052D02*
X-21315D01*
X-28884Y18563D02*
X-28669D01*
X-28275D02*
X-28059D01*
X-27881D02*
X-27106D01*
X-26903D02*
X-26687D01*
X-26154D02*
X-25392D01*
X-25024D02*
X-24744D01*
X-24414D02*
X-24135D01*
X-23817D02*
X-23030D01*
X-22826D02*
X-22611D01*
X-22039D02*
X-21328D01*
X-28884Y18550D02*
X-28669D01*
X-28275D02*
X-28059D01*
X-27881D02*
X-27106D01*
X-26903D02*
X-26687D01*
X-26141D02*
X-25392D01*
X-25024D02*
X-24744D01*
X-24414D02*
X-24147D01*
X-23804D02*
X-23030D01*
X-22826D02*
X-22611D01*
X-22026D02*
X-21341D01*
X-28884Y18538D02*
X-28669D01*
X-28275D02*
X-28059D01*
X-27868D02*
X-27106D01*
X-26903D02*
X-26687D01*
X-26141D02*
X-25392D01*
X-25011D02*
X-24757D01*
X-24414D02*
X-24147D01*
X-23792D02*
X-23030D01*
X-22826D02*
X-22611D01*
X-22014D02*
X-21353D01*
X-28884Y18525D02*
X-28669D01*
X-28275D02*
X-28059D01*
X-27856D02*
X-27106D01*
X-26903D02*
X-26687D01*
X-26128D02*
X-25392D01*
X-25011D02*
X-24757D01*
X-24401D02*
X-24147D01*
X-23792D02*
X-23030D01*
X-22826D02*
X-22611D01*
X-22001D02*
X-21366D01*
X-28884Y18512D02*
X-28669D01*
X-28275D02*
X-28059D01*
X-27843D02*
X-27106D01*
X-26903D02*
X-26687D01*
X-26116D02*
X-25621D01*
X-25608D02*
X-25392D01*
X-25011D02*
X-24757D01*
X-24401D02*
X-24160D01*
X-23779D02*
X-23030D01*
X-22826D02*
X-22611D01*
X-21988D02*
X-21379D01*
X-28884Y18499D02*
X-28669D01*
X-28275D02*
X-28059D01*
X-27830D02*
X-27106D01*
X-26903D02*
X-26687D01*
X-26103D02*
X-25633D01*
X-25608D02*
X-25392D01*
X-24998D02*
X-24770D01*
X-24401D02*
X-24160D01*
X-23766D02*
X-23258D01*
X-23246D02*
X-23030D01*
X-22826D02*
X-22611D01*
X-21976D02*
X-21404D01*
X-28884Y18487D02*
X-28669D01*
X-28275D02*
X-28059D01*
X-27818D02*
X-27335D01*
X-27322D02*
X-27106D01*
X-26903D02*
X-26687D01*
X-26090D02*
X-25646D01*
X-25608D02*
X-25392D01*
X-24998D02*
X-24770D01*
X-24389D02*
X-24160D01*
X-23741D02*
X-23258D01*
X-23246D02*
X-23030D01*
X-22826D02*
X-22611D01*
X-21963D02*
X-21417D01*
X-28884Y18474D02*
X-28669D01*
X-28275D02*
X-28059D01*
X-27805D02*
X-27348D01*
X-27322D02*
X-27106D01*
X-26903D02*
X-26687D01*
X-26065D02*
X-25659D01*
X-25608D02*
X-25392D01*
X-24998D02*
X-24770D01*
X-24389D02*
X-24173D01*
X-23728D02*
X-23271D01*
X-23246D02*
X-23030D01*
X-22826D02*
X-22611D01*
X-21938D02*
X-21442D01*
X-28884Y18461D02*
X-28669D01*
X-28275D02*
X-28059D01*
X-27779D02*
X-27360D01*
X-27322D02*
X-27106D01*
X-26903D02*
X-26687D01*
X-26052D02*
X-25684D01*
X-25608D02*
X-25392D01*
X-24986D02*
X-24782D01*
X-24389D02*
X-24173D01*
X-23715D02*
X-23284D01*
X-23246D02*
X-23030D01*
X-22826D02*
X-22611D01*
X-21912D02*
X-21468D01*
X-28884Y18449D02*
X-28669D01*
X-28275D02*
X-28059D01*
X-27754D02*
X-27386D01*
X-27322D02*
X-27106D01*
X-26903D02*
X-26687D01*
X-26027D02*
X-25709D01*
X-25608D02*
X-25392D01*
X-24986D02*
X-24782D01*
X-24376D02*
X-24173D01*
X-23677D02*
X-23309D01*
X-23246D02*
X-23030D01*
X-22826D02*
X-22611D01*
X-21887D02*
X-21493D01*
X-28884Y18436D02*
X-28669D01*
X-28275D02*
X-28059D01*
X-27729D02*
X-27399D01*
X-27322D02*
X-27106D01*
X-26903D02*
X-26687D01*
X-26001D02*
X-25735D01*
X-25608D02*
X-25392D01*
X-24986D02*
X-24782D01*
X-24376D02*
X-24173D01*
X-23652D02*
X-23334D01*
X-23246D02*
X-23030D01*
X-22826D02*
X-22611D01*
X-21861D02*
X-21531D01*
X-28872Y18423D02*
X-28669D01*
X-28275D02*
X-28059D01*
X-27678D02*
X-27449D01*
X-27322D02*
X-27106D01*
X-26890D02*
X-26687D01*
X-25963D02*
X-25773D01*
X-25608D02*
X-25392D01*
X-24973D02*
X-24782D01*
X-24376D02*
X-24185D01*
X-23601D02*
X-23373D01*
X-23246D02*
X-23030D01*
X-22826D02*
X-22611D01*
X-21810D02*
X-21569D01*
X-24135Y24303D02*
X-21302D01*
D38*
X21966Y-20367D02*
X21800Y-20200D01*
X21467D01*
X21300Y-20367D01*
Y-20534D01*
X21467Y-20700D01*
X21800D01*
X21966Y-20867D01*
Y-21033D01*
X21800Y-21200D01*
X21467D01*
X21300Y-21033D01*
X22966Y-21200D02*
X22300D01*
X22966Y-20534D01*
Y-20367D01*
X22800Y-20200D01*
X22466D01*
X22300Y-20367D01*
X-42534Y25233D02*
X-42700Y25400D01*
X-43033D01*
X-43200Y25233D01*
Y25066D01*
X-43033Y24900D01*
X-42700D01*
X-42534Y24733D01*
Y24567D01*
X-42700Y24400D01*
X-43033D01*
X-43200Y24567D01*
X-42200Y24400D02*
X-41867D01*
X-42034D01*
Y25400D01*
X-42200Y25233D01*
D39*
X-2600Y-23550D02*
X-2850Y-23300D01*
X-3350D01*
X-3600Y-23550D01*
Y-23800D01*
X-3350Y-24050D01*
X-2850D01*
X-2600Y-24300D01*
Y-24550D01*
X-2850Y-24800D01*
X-3350D01*
X-3600Y-24550D01*
X-2100Y-24800D02*
X-1101Y-23800D01*
X-601Y-24800D02*
Y-23300D01*
X399Y-24800D01*
Y-23300D01*
X899Y-23800D02*
X1148D01*
Y-24050D01*
X899D01*
Y-23800D01*
Y-24550D02*
X1148D01*
Y-24800D01*
X899D01*
Y-24550D01*
D40*
X-19085Y-5930D02*
X-19252Y-5763D01*
Y-5430D01*
X-19085Y-5264D01*
X-18918D01*
X-18752Y-5430D01*
Y-5597D01*
Y-5430D01*
X-18585Y-5264D01*
X-18419D01*
X-18252Y-5430D01*
Y-5763D01*
X-18419Y-5930D01*
X-18252Y-4930D02*
X-18419D01*
Y-4764D01*
X-18252D01*
Y-4930D01*
X-19085Y-4097D02*
X-19252Y-3931D01*
Y-3597D01*
X-19085Y-3431D01*
X-18918D01*
X-18752Y-3597D01*
Y-3764D01*
Y-3597D01*
X-18585Y-3431D01*
X-18419D01*
X-18252Y-3597D01*
Y-3931D01*
X-18419Y-4097D01*
X-19252Y-3098D02*
X-18585D01*
X-18252Y-2764D01*
X-18585Y-2431D01*
X-19252D01*
X-16545Y-5264D02*
X-16712Y-5430D01*
Y-5763D01*
X-16545Y-5930D01*
X-16378D01*
X-16212Y-5763D01*
Y-5430D01*
X-16045Y-5264D01*
X-15879D01*
X-15712Y-5430D01*
Y-5763D01*
X-15879Y-5930D01*
X-16712Y-4930D02*
X-15712D01*
Y-4430D01*
X-15879Y-4264D01*
X-16545D01*
X-16712Y-4430D01*
Y-4930D01*
X-15712Y-3931D02*
X-16378D01*
X-16712Y-3597D01*
X-16378Y-3264D01*
X-15712D01*
X-16212D01*
Y-3931D01*
X-14005Y-5264D02*
X-14172Y-5430D01*
Y-5763D01*
X-14005Y-5930D01*
X-13838D01*
X-13672Y-5763D01*
Y-5430D01*
X-13505Y-5264D01*
X-13339D01*
X-13172Y-5430D01*
Y-5763D01*
X-13339Y-5930D01*
X-14005Y-4264D02*
X-14172Y-4430D01*
Y-4764D01*
X-14005Y-4930D01*
X-13339D01*
X-13172Y-4764D01*
Y-4430D01*
X-13339Y-4264D01*
X-14172Y-3931D02*
X-13172D01*
Y-3264D01*
X-11465Y-5264D02*
X-11632Y-5430D01*
Y-5763D01*
X-11465Y-5930D01*
X-10799D01*
X-10632Y-5763D01*
Y-5430D01*
X-10799Y-5264D01*
X-11132D01*
Y-5597D01*
X-10632Y-4930D02*
X-11632D01*
X-10632Y-4264D01*
X-11632D01*
Y-3931D02*
X-10632D01*
Y-3431D01*
X-10799Y-3264D01*
X-11465D01*
X-11632Y-3431D01*
Y-3931D01*
X-9092Y-5930D02*
X-8425D01*
X-8092Y-5597D01*
X-8425Y-5264D01*
X-9092D01*
X-8758Y-4264D02*
Y-4764D01*
X-8592Y-4930D01*
X-8259D01*
X-8092Y-4764D01*
Y-4264D01*
X-8758Y-3264D02*
Y-3764D01*
X-8592Y-3931D01*
X-8259D01*
X-8092Y-3764D01*
Y-3264D01*
X-7800Y5300D02*
Y6300D01*
X-8300D01*
X-8466Y6133D01*
Y5967D01*
X-8300Y5800D01*
X-7800D01*
X-8300D01*
X-8466Y5634D01*
Y5467D01*
X-8300Y5300D01*
X-7800D01*
X-8800Y6300D02*
Y5300D01*
X-9133Y5634D01*
X-9466Y5300D01*
Y6300D01*
X-9799D02*
Y5300D01*
X-10299D01*
X-10466Y5467D01*
Y5800D01*
X-10299Y5967D01*
X-9799D01*
X-10799Y6300D02*
X-11132D01*
X-10966D01*
Y5300D01*
X-10799Y5467D01*
X-11632D02*
X-11799Y5300D01*
X-12132D01*
X-12299Y5467D01*
Y5634D01*
X-12132Y5800D01*
X-12299Y5967D01*
Y6133D01*
X-12132Y6300D01*
X-11799D01*
X-11632Y6133D01*
Y5967D01*
X-11799Y5800D01*
X-11632Y5634D01*
Y5467D01*
X-11799Y5800D02*
X-12132D01*
X-12632Y5467D02*
X-12798Y5300D01*
X-13132D01*
X-13298Y5467D01*
Y6133D01*
X-13132Y6300D01*
X-12798D01*
X-12632Y6133D01*
Y5467D01*
D41*
X7000Y-18601D02*
Y-20600D01*
X8000D01*
X8333Y-20267D01*
Y-19934D01*
X8000Y-19600D01*
X7000D01*
X8000D01*
X8333Y-19267D01*
Y-18934D01*
X8000Y-18601D01*
X7000D01*
X9999Y-20600D02*
X9333D01*
X8999Y-20267D01*
Y-19600D01*
X9333Y-19267D01*
X9999D01*
X10332Y-19600D01*
Y-19934D01*
X8999D01*
X11998Y-20600D02*
X11332D01*
X10999Y-20267D01*
Y-19600D01*
X11332Y-19267D01*
X11998D01*
X12332Y-19600D01*
Y-19934D01*
X10999D01*
X13998Y-20600D02*
X13331D01*
X12998Y-20267D01*
Y-19600D01*
X13331Y-19267D01*
X13998D01*
X14331Y-19600D01*
Y-19934D01*
X12998D01*
X15997Y-18601D02*
X15331D01*
X14997Y-18934D01*
Y-20267D01*
X15331Y-20600D01*
X15997D01*
X16330Y-20267D01*
Y-18934D01*
X15997Y-18601D01*
X16997Y-20600D02*
Y-19267D01*
X17996D01*
X18330Y-19600D01*
Y-20600D01*
D42*
X10050Y-27650D02*
D03*
M02*
