M48
;Layer_Color=9474304
;FILE_FORMAT=4:3
METRIC,TZ
;TYPE=PLATED
T1F00S00C0.400
T2F00S00C0.700
T3F00S00C0.800
T4F00S00C0.900
T5F00S00C1.000
T6F00S00C1.200
T7F00S00C6.000
%
T01
X-27300Y-13000
X-26000
X-20800
X-19500
X-18500Y-12300
X-17500Y-11600
X-16500Y-10900
X-11900Y-16500
X-13305Y-24805
X-30984Y-25584
X-35700Y-25400
X-38980Y-22220
X-41000Y-22200
X-43000
Y-17700
X-36500Y-14900
X-35700Y-13400
X-34800Y-12600
X-35100Y7000
X-29200Y7000
X-38500Y16800
X-37480Y18320
X-34895Y24195
X-27100Y14700
X-20900Y16400
X-19600
X-18300
X-16900Y16400
X-11900Y15700
X-19295Y11200
T02
X-34900Y10450
Y13550
T03
X23400Y-11500
Y-9500
Y-7500
Y-5500
X-12670Y-20320
X-35530
Y20320
X-12670
T04
X-18760Y-7200
X-16220
X-13680
X-11140
X-8600
X-29200Y-9300
Y700
T05
X28850Y-27250
Y-22750
X31850Y-17750
Y-13250
T06
X26350Y-28500
Y-21500
X29350Y-19000
Y-12000
T07
X-1200Y-14000
Y14000
M30
