%FSLAX43Y43*%
%MOMM*%
G71*
G01*
G75*
G04 Layer_Color=16711935*
%ADD10C,0.600*%
%ADD11R,0.550X1.450*%
%ADD12R,1.000X1.000*%
%ADD13R,0.900X0.950*%
%ADD14R,0.900X0.950*%
%ADD15R,0.762X1.372*%
%ADD16R,1.372X0.762*%
%ADD17R,1.372X0.864*%
%ADD18R,0.864X1.372*%
%ADD19O,2.500X0.700*%
%ADD20R,2.032X2.032*%
%ADD21C,0.300*%
%ADD22C,0.200*%
%ADD23C,1.500*%
%ADD24C,1.400*%
%ADD25C,1.600*%
%ADD26C,1.800*%
%ADD27C,1.300*%
%ADD28R,1.500X1.500*%
%ADD29C,6.000*%
%ADD30C,0.800*%
%ADD31R,0.800X2.000*%
%ADD32C,0.250*%
%ADD33C,0.508*%
%ADD34C,0.100*%
%ADD35C,0.152*%
%ADD36C,0.018*%
%ADD37C,0.013*%
%ADD38C,0.254*%
%ADD39C,0.400*%
%ADD40C,0.150*%
%ADD41C,0.500*%
%ADD42R,28.300X4.300*%
%ADD43C,1.500*%
%ADD44R,0.753X1.653*%
%ADD45R,1.203X1.203*%
%ADD46R,1.103X1.153*%
%ADD47R,1.103X1.153*%
%ADD48R,0.965X1.575*%
%ADD49R,1.575X0.965*%
%ADD50R,1.575X1.067*%
%ADD51R,1.067X1.575*%
%ADD52O,2.703X0.903*%
%ADD53R,2.235X2.235*%
%ADD54C,1.703*%
%ADD55C,1.603*%
%ADD56C,1.803*%
%ADD57C,2.003*%
%ADD58C,1.503*%
%ADD59R,1.703X1.703*%
%ADD60C,6.203*%
%ADD61R,1.003X2.203*%
D54*
X-29200Y-9300D02*
D03*
Y700D02*
D03*
X-18760Y-7200D02*
D03*
X-16220D02*
D03*
X-13680D02*
D03*
X-11140D02*
D03*
D55*
X23400Y-11500D02*
D03*
Y-5500D02*
D03*
Y-7500D02*
D03*
Y-9500D02*
D03*
D56*
X28850Y-22750D02*
D03*
Y-27250D02*
D03*
X31850Y-13250D02*
D03*
Y-17750D02*
D03*
D57*
X26350Y-21500D02*
D03*
Y-28500D02*
D03*
X29350Y-12000D02*
D03*
Y-19000D02*
D03*
D58*
X-34900Y10450D02*
D03*
Y13550D02*
D03*
D59*
X-8600Y-7200D02*
D03*
D60*
X-1200Y-14000D02*
D03*
Y14000D02*
D03*
D61*
X-36165Y22320D02*
D03*
X-33625D02*
D03*
X-34895D02*
D03*
X-32355D02*
D03*
X-31085D02*
D03*
X-28545D02*
D03*
X-29815D02*
D03*
X-27275D02*
D03*
X-26005D02*
D03*
X-13305D02*
D03*
X-14575D02*
D03*
X-12035D02*
D03*
X-18385D02*
D03*
X-19655D02*
D03*
X-17115D02*
D03*
X-15845D02*
D03*
X-20925D02*
D03*
X-22195D02*
D03*
X-24735D02*
D03*
X-23465D02*
D03*
X-22195Y18320D02*
D03*
X-23465D02*
D03*
X-20925D02*
D03*
X-19655D02*
D03*
X-15845D02*
D03*
X-17115D02*
D03*
X-36165D02*
D03*
X-18385D02*
D03*
X-12035D02*
D03*
X-14575D02*
D03*
X-13305D02*
D03*
X-24735D02*
D03*
X-26005D02*
D03*
X-28545D02*
D03*
X-27275D02*
D03*
X-29815D02*
D03*
X-31085D02*
D03*
X-33625D02*
D03*
X-32355D02*
D03*
X-34895D02*
D03*
X-36165Y-18320D02*
D03*
X-33625D02*
D03*
X-34895D02*
D03*
X-32355D02*
D03*
X-31085D02*
D03*
X-28545D02*
D03*
X-29815D02*
D03*
X-27275D02*
D03*
X-26005D02*
D03*
X-13305D02*
D03*
X-14575D02*
D03*
X-12035D02*
D03*
X-18385D02*
D03*
X-19655D02*
D03*
X-17115D02*
D03*
X-15845D02*
D03*
X-20925D02*
D03*
X-22195D02*
D03*
X-24735D02*
D03*
X-23465D02*
D03*
X-22195Y-22320D02*
D03*
X-23465D02*
D03*
X-20925D02*
D03*
X-19655D02*
D03*
X-15845D02*
D03*
X-17115D02*
D03*
X-36165D02*
D03*
X-18385D02*
D03*
X-12035D02*
D03*
X-14575D02*
D03*
X-13305D02*
D03*
X-24735D02*
D03*
X-26005D02*
D03*
X-28545D02*
D03*
X-27275D02*
D03*
X-29815D02*
D03*
X-31085D02*
D03*
X-33625D02*
D03*
X-32355D02*
D03*
X-34895D02*
D03*
M02*
