%FSLAX43Y43*%
%MOMM*%
G71*
G01*
G75*
G04 Layer_Physical_Order=1*
G04 Layer_Color=255*
%ADD10C,0.600*%
%ADD11R,0.550X1.450*%
%ADD12R,1.000X1.000*%
%ADD13R,0.900X0.950*%
%ADD14R,0.900X0.950*%
%ADD15R,0.762X1.372*%
%ADD16R,1.372X0.762*%
%ADD17R,1.372X0.864*%
%ADD18R,0.864X1.372*%
%ADD19O,2.500X0.700*%
%ADD20R,2.032X2.032*%
%ADD21C,0.300*%
%ADD22C,0.200*%
%ADD23C,1.500*%
%ADD24C,1.400*%
%ADD25C,1.600*%
%ADD26C,1.800*%
%ADD27C,1.300*%
%ADD28R,1.500X1.500*%
%ADD29C,6.000*%
%ADD30C,0.800*%
D10*
X22400Y-23100D02*
G03*
X22400Y-23100I-200J0D01*
G01*
X-42300Y27500D02*
G03*
X-42300Y27500I-200J0D01*
G01*
D11*
X-36600Y-1875D02*
D03*
Y475D02*
D03*
D12*
X-8500Y-300D02*
D03*
X-11500D02*
D03*
Y-1900D02*
D03*
X-8500D02*
D03*
Y1300D02*
D03*
X-11500D02*
D03*
X-10000D02*
D03*
D13*
X-10000Y14750D02*
D03*
X-9050Y17250D02*
D03*
D14*
X-10950Y17250D02*
D03*
D15*
X-13047Y14400D02*
D03*
X-14953D02*
D03*
X-10948Y-13300D02*
D03*
X-12852D02*
D03*
X-10948Y-11000D02*
D03*
X-12852D02*
D03*
X-13047Y9600D02*
D03*
X-14953D02*
D03*
X-13047Y12000D02*
D03*
X-14953D02*
D03*
X-13047Y16800D02*
D03*
X-14953D02*
D03*
X-9148Y12800D02*
D03*
X-11052D02*
D03*
D16*
X-39100Y24153D02*
D03*
Y22247D02*
D03*
X-39000Y-14552D02*
D03*
Y-12648D02*
D03*
X-39000Y-19147D02*
D03*
Y-21052D02*
D03*
X-41000Y-19147D02*
D03*
Y-21052D02*
D03*
X-43000Y-19147D02*
D03*
Y-21052D02*
D03*
X-39000Y-23347D02*
D03*
Y-25253D02*
D03*
X-41000Y-23347D02*
D03*
Y-25253D02*
D03*
X-43000Y-23347D02*
D03*
Y-25253D02*
D03*
X-20800Y9948D02*
D03*
Y11852D02*
D03*
X-36800Y24153D02*
D03*
Y22247D02*
D03*
X-36600Y2848D02*
D03*
Y4753D02*
D03*
D17*
X-35600Y-26448D02*
D03*
Y-28353D02*
D03*
X-33500Y8703D02*
D03*
Y6798D02*
D03*
X-36600Y8703D02*
D03*
Y6798D02*
D03*
D18*
X-23948Y14700D02*
D03*
X-25853D02*
D03*
D19*
X-29050Y12155D02*
D03*
Y10885D02*
D03*
Y9615D02*
D03*
Y8345D02*
D03*
X-24150Y12155D02*
D03*
Y10885D02*
D03*
Y9615D02*
D03*
Y8345D02*
D03*
D20*
X-33080Y-28124D02*
D03*
Y-25584D02*
D03*
Y-23044D02*
D03*
Y-20504D02*
D03*
Y-17964D02*
D03*
Y-15424D02*
D03*
X-15300Y-28124D02*
D03*
Y-25584D02*
D03*
Y-23044D02*
D03*
Y-20504D02*
D03*
Y-17964D02*
D03*
Y-15424D02*
D03*
D21*
X-43100Y-16700D02*
X-41147D01*
X-44100Y-17700D02*
X-43100Y-16700D01*
X-44100Y-25000D02*
Y-17700D01*
X-41147Y-16700D02*
X-39000Y-14552D01*
X-44100Y-25000D02*
X-43847Y-25253D01*
X-18900Y-6940D02*
X-18700Y-7140D01*
X-24150Y12155D02*
Y14700D01*
X-24150Y12155D02*
X-20796Y12104D01*
X-35700Y-26550D02*
Y-25400D01*
X-13450Y-24660D02*
Y-16650D01*
Y-24660D02*
X-13305Y-24805D01*
X-13450Y-16650D02*
X-10948Y-14148D01*
X-19295Y11200D02*
X-18900Y10805D01*
Y-6940D02*
Y10805D01*
X-25200Y16000D02*
X-24150Y14950D01*
X-36400Y16000D02*
X-25200D01*
X-40200Y19800D02*
X-36400Y16000D01*
X-40200Y19800D02*
Y23400D01*
X-39447Y24153D01*
X-27100Y12300D02*
X-25650Y13750D01*
X-27100Y8900D02*
Y12300D01*
X-27655Y8345D02*
X-27100Y8900D01*
X-29000Y8345D02*
X-27655D01*
X-10000Y-6060D02*
Y1300D01*
X-11140Y-7200D02*
X-10000Y-6060D01*
X-8500Y-1900D02*
Y-300D01*
Y-7100D02*
Y-1900D01*
X-41000Y-25253D02*
X-39000D01*
X-43000D02*
X-41000D01*
X-25650Y13750D02*
Y14700D01*
X-36600Y7000D02*
X-35100D01*
X-33500D01*
X-29200Y7000D02*
Y8195D01*
X-33080Y-25584D02*
X-30984D01*
X-35600Y-28150D02*
X-33106D01*
X-33080Y-28124D02*
Y-25584D01*
X-35436Y-25400D02*
X-33080Y-23044D01*
Y-28124D02*
X-15300D01*
X-41000Y-19147D02*
X-39000D01*
X-43000D02*
X-41000D01*
X-39000Y-25253D02*
X-35847D01*
X-10948Y-13300D02*
Y-11000D01*
Y-9547D01*
X-8600Y-7200D01*
X-11900Y-24724D02*
Y-16500D01*
X-15300Y-28124D02*
X-11900Y-24724D01*
X-10948Y-14148D02*
Y-13300D01*
X-15352Y16400D02*
X-14953Y16800D01*
X-27100Y14700D02*
X-25650D01*
X-16900Y16400D02*
X-15352D01*
X-20800Y11852D02*
X-19948D01*
X-19295Y11200D01*
X-11900Y15700D02*
Y16300D01*
X-10950Y17250D01*
X-39100Y24153D02*
X-36800D01*
X-43000Y-19147D02*
Y-17700D01*
X-43847Y-25253D02*
X-43000D01*
D22*
X-20796Y12104D02*
X-20500Y12100D01*
X-35600Y-26650D02*
X-35100Y-26150D01*
X-18300Y9100D02*
Y11500D01*
Y9100D02*
X-17300Y8100D01*
X-17900Y9300D02*
X-17100Y8500D01*
X-17900Y9300D02*
Y11666D01*
X-35660Y16500D02*
X-23300D01*
X-37480Y18320D02*
X-35660Y16500D01*
X-31780Y16900D02*
X-23134D01*
X-34830Y19950D02*
X-31780Y16900D01*
X-23300Y16500D02*
X-18300Y11500D01*
X-23134Y16900D02*
X-17900Y11666D01*
X-32500Y5900D02*
Y7650D01*
X-33647Y4753D02*
X-32500Y5900D01*
X-36600Y4753D02*
X-33647D01*
X-11163Y8100D02*
X4037Y-7100D01*
X4203Y-6700D02*
X16869D01*
X-10997Y8500D02*
X4203Y-6700D01*
X-15269Y9600D02*
X-14953D01*
X-19600Y13931D02*
X-15269Y9600D01*
X-19600Y13931D02*
Y16400D01*
X-11531Y9600D02*
X4369Y-6300D01*
X-13047Y9600D02*
X-11531D01*
X-17100Y8500D02*
X-10997D01*
X4369Y-6300D02*
X17034D01*
X22234Y-11500D01*
X16869Y-6700D02*
X23419Y-13250D01*
X4037Y-7100D02*
X16703D01*
X23419Y-13250D02*
X31850D01*
X22234Y-11500D02*
X23400D01*
X-13047Y11682D02*
X4534Y-5900D01*
X-11052Y10252D02*
Y12800D01*
Y10252D02*
X4700Y-5500D01*
X-9148Y12800D02*
Y13153D01*
X-8200Y14100D01*
Y17900D01*
X-8600Y18300D02*
X-8200Y17900D01*
X-20000Y18300D02*
X-8600D01*
X-14953Y12000D02*
Y12248D01*
X-13900Y13300D01*
X-12400D01*
X-10950Y14750D01*
X-10000D01*
X-14953Y14748D02*
X-13047Y16653D01*
X-14953Y14400D02*
Y14748D01*
X-13047Y16800D02*
Y17048D01*
X-13800Y17800D02*
X-13047Y17048D01*
X-16900Y17800D02*
X-13800D01*
X-18300Y16400D02*
X-16900Y17800D01*
X-20900Y17400D02*
X-20000Y18300D01*
X-20900Y16400D02*
Y17400D01*
X4700Y-5500D02*
X23400D01*
X4534Y-5900D02*
X17200D01*
X25250Y-22750D02*
X28850D01*
X23400Y-20900D02*
X25250Y-22750D01*
X23400Y-20900D02*
Y-13797D01*
X-16220Y-7200D02*
X-14080Y-5060D01*
Y-2314D01*
X-12300Y-534D01*
Y500D01*
X-11500Y1300D01*
X-13680Y-7200D02*
Y-2480D01*
X-11500Y-300D01*
X-34900Y9900D02*
X-33500Y8500D01*
X-34900Y9900D02*
Y10450D01*
X-34465Y10885D01*
X-29050D01*
X-33505Y12155D02*
X-29050D01*
X-34900Y13550D02*
X-33505Y12155D01*
X-36600Y11850D02*
X-34900Y13550D01*
X-36600Y10900D02*
Y11850D01*
X-37600Y3800D02*
X-31300D01*
X-26600Y8500D01*
Y10000D01*
X-25715Y10885D01*
X-24150D01*
X-30400Y-9300D02*
X-29200D01*
X-36600Y-3100D02*
X-30400Y-9300D01*
X-36600Y-3100D02*
Y-1875D01*
Y475D02*
Y2848D01*
X-30535Y9615D02*
X-29050D01*
X-32500Y7650D02*
X-30535Y9615D01*
X-36600Y8500D02*
Y10900D01*
X-29200Y8195D02*
X-29050Y8345D01*
X-26100Y9200D02*
X-25685Y9615D01*
X-24150D01*
X-39000Y-22200D02*
Y-21052D01*
Y-22200D02*
X-38980Y-22220D01*
X-35700Y-26550D02*
X-35600Y-26650D01*
X-35700Y-25400D02*
X-35436D01*
X-41000Y-22200D02*
X-41000Y-22200D01*
X-41000Y-23347D02*
Y-22200D01*
Y-22200D02*
Y-21052D01*
X-43000Y-23347D02*
Y-22200D01*
Y-21052D01*
X-39000Y-23347D02*
Y-22200D01*
X-24150Y9615D02*
X-23170D01*
X-35847Y-25253D02*
X-35700Y-25400D01*
X-21737Y10885D02*
X-20800Y9948D01*
X-24150Y10885D02*
X-21737D01*
X-35700Y-15344D02*
X-33080Y-17964D01*
X-35700Y-15344D02*
Y-13400D01*
X-34800Y-13704D02*
Y-12600D01*
Y-13704D02*
X-33080Y-15424D01*
X-18500Y-12300D02*
X-18424D01*
X-15300Y-15424D01*
X-19500Y-13764D02*
X-15300Y-17964D01*
X-19500Y-13764D02*
Y-13000D01*
X-16500Y-10900D02*
X-13900Y-13500D01*
X-15300Y-25584D02*
X-13900Y-24184D01*
X-27300Y7200D02*
X-26100Y8400D01*
Y9200D01*
X-25589Y8345D02*
X-24150D01*
X-26900Y7034D02*
X-25589Y8345D01*
X-15180Y-8700D02*
X-13680Y-7200D01*
X-16220Y-7554D02*
Y-7200D01*
X-13900Y-24184D02*
Y-13500D01*
X-17583Y-10083D02*
X-16117D01*
X-19100Y-11600D02*
X-17583Y-10083D01*
X-13900Y-13500D02*
X-13052D01*
X-15200Y-11000D02*
X-12852D01*
X-16117Y-10083D02*
X-15200Y-11000D01*
X-18200Y-20144D02*
X-15300Y-23044D01*
X-18200Y-20144D02*
Y-17300D01*
X-16966Y-8300D02*
X-16220Y-7554D01*
X-21800Y-13700D02*
X-18200Y-17300D01*
X-18866Y-8300D02*
X-16966D01*
X-18700Y-8700D02*
X-15180D01*
X-23566Y-13000D02*
X-18866Y-8300D01*
X-21800Y-13700D02*
Y-12500D01*
X-20900Y-11600D01*
X-17500D01*
X-16800Y-19004D02*
X-15300Y-20504D01*
X-16800Y-19004D02*
Y-17030D01*
X-20900Y-13000D02*
X-20830D01*
X-16800Y-17030D01*
X-27300Y-13000D02*
Y7200D01*
X-26900Y-12100D02*
X-26000Y-13000D01*
X-26900Y-12100D02*
Y7034D01*
X-26000Y-13000D02*
X-23566D01*
X-26600Y-13700D02*
X-23700D01*
X-27300Y-13000D02*
X-26600Y-13700D01*
X-23700D02*
X-18700Y-8700D01*
X-36500Y-17084D02*
X-33080Y-20504D01*
X-36500Y-17084D02*
Y-14900D01*
X-13047Y14400D02*
Y14852D01*
X-34895Y24195D02*
X-34830Y24130D01*
X-16900Y16400D02*
X-16900Y16400D01*
X-13047Y14400D02*
X-11900D01*
X-9050Y17250D01*
X-13047Y11682D02*
Y12000D01*
X17200Y-5900D02*
X18800Y-7500D01*
X23400D01*
X-17300Y8100D02*
X-11163D01*
X16703Y-7100D02*
X23400Y-13797D01*
X-36800Y22247D02*
X-34877D01*
X-34830Y19950D02*
Y24130D01*
X-39100Y22247D02*
X-38748D01*
X-37480Y20980D01*
Y18320D02*
Y20980D01*
X-39447Y24153D02*
X-39100D01*
X-24150Y14700D02*
Y14950D01*
X-39000Y-12648D02*
X-36452D01*
X-35700Y-13400D01*
X-38500Y4700D02*
Y16800D01*
Y4700D02*
X-37600Y3800D01*
D23*
X-29200Y-9300D02*
D03*
Y700D02*
D03*
X-18760Y-7200D02*
D03*
X-16220D02*
D03*
X-13680D02*
D03*
X-11140D02*
D03*
D24*
X23400Y-11500D02*
D03*
Y-5500D02*
D03*
Y-7500D02*
D03*
Y-9500D02*
D03*
D25*
X28850Y-22750D02*
D03*
Y-27250D02*
D03*
X31850Y-13250D02*
D03*
Y-17750D02*
D03*
D26*
X26350Y-21500D02*
D03*
Y-28500D02*
D03*
X29350Y-12000D02*
D03*
Y-19000D02*
D03*
D27*
X-34900Y10450D02*
D03*
Y13550D02*
D03*
D28*
X-8600Y-7200D02*
D03*
D29*
X-1200Y-14000D02*
D03*
Y14000D02*
D03*
D30*
X-29200Y7000D02*
D03*
X-35100Y7000D02*
D03*
X-30984Y-25584D02*
D03*
X-35700Y-25400D02*
D03*
X-38980Y-22220D02*
D03*
X-41000Y-22200D02*
D03*
X-43000D02*
D03*
X-12670Y20320D02*
D03*
X-35530D02*
D03*
X-12670Y-20320D02*
D03*
X-35530D02*
D03*
X-34895Y24195D02*
D03*
X-34800Y-12600D02*
D03*
X-35700Y-13400D02*
D03*
X-36500Y-14900D02*
D03*
X-19500Y-13000D02*
D03*
X-18500Y-12300D02*
D03*
X-17500Y-11600D02*
D03*
X-16500Y-10900D02*
D03*
X-27300Y-13000D02*
D03*
X-26000D02*
D03*
X-20800D02*
D03*
X-11900Y-16500D02*
D03*
X-13305Y-24805D02*
D03*
X-18300Y16400D02*
D03*
X-19600D02*
D03*
X-20900D02*
D03*
X-37480Y18320D02*
D03*
X-27100Y14700D02*
D03*
X-16900Y16400D02*
D03*
X-19295Y11200D02*
D03*
X-11900Y15700D02*
D03*
X-43000Y-17700D02*
D03*
X-38500Y16800D02*
D03*
M02*
