%FSLAX43Y43*%
%MOMM*%
G71*
G01*
G75*
G04 Layer_Physical_Order=2*
G04 Layer_Color=16711680*
%ADD10R,2.700X1.000*%
%ADD11R,0.762X1.372*%
%ADD12R,0.650X1.100*%
%ADD13R,0.864X1.372*%
%ADD14R,1.372X0.762*%
%ADD15R,2.032X2.032*%
%ADD16R,1.372X0.864*%
%ADD17C,0.200*%
%ADD18C,1.200*%
%ADD19C,3.000*%
%ADD20C,0.800*%
%ADD21O,2.100X0.300*%
%ADD22O,0.300X2.100*%
%ADD23R,1.300X1.000*%
D11*
X22052Y14900D02*
D03*
X20147D02*
D03*
X22052Y12500D02*
D03*
X20147D02*
D03*
D13*
X26853Y3800D02*
D03*
X24948D02*
D03*
X26853Y1600D02*
D03*
X24948D02*
D03*
X26853Y6000D02*
D03*
X24948D02*
D03*
X26853Y8200D02*
D03*
X24948D02*
D03*
X26853Y10400D02*
D03*
X24948D02*
D03*
X22153Y17400D02*
D03*
X20247D02*
D03*
X22153Y19700D02*
D03*
X20247D02*
D03*
D14*
X43800Y7452D02*
D03*
Y5548D02*
D03*
X41500Y7452D02*
D03*
Y5548D02*
D03*
D16*
X43800Y2852D02*
D03*
Y947D02*
D03*
X41500Y2852D02*
D03*
Y947D02*
D03*
X18700Y3253D02*
D03*
Y1347D02*
D03*
D17*
X32000Y9700D02*
X35400D01*
X32000Y8800D02*
Y9700D01*
X35400D02*
X36950Y8150D01*
X36600Y14950D02*
X37450D01*
X31500Y9700D02*
X32000D01*
X33300Y8800D02*
X33650Y8450D01*
Y6800D02*
Y8450D01*
X36100Y10700D02*
X36550Y11150D01*
X38000D01*
X36100Y12000D02*
Y12400D01*
X36850Y13150D01*
X38000D01*
X20500Y9200D02*
X21700Y10400D01*
X20147Y11153D02*
Y12500D01*
Y11153D02*
X20500Y10800D01*
X37450Y14950D02*
X37700Y15200D01*
X38000Y13650D02*
X38950D01*
X39000Y13700D01*
Y14934D01*
X37734Y16200D02*
X39000Y14934D01*
X37310Y16200D02*
X37734D01*
X36610Y16900D02*
X37310Y16200D01*
X17736Y18550D02*
X20247D01*
X17700Y18514D02*
X17736Y18550D01*
X21700Y10400D02*
Y12148D01*
X22052Y12500D01*
X22100Y8300D02*
Y10791D01*
X22500Y9200D02*
Y10626D01*
X22100Y10791D02*
X23909Y12600D01*
X27331D01*
X24240Y11800D02*
X27000D01*
X23200Y10760D02*
X24240Y11800D01*
X23200Y9800D02*
Y10760D01*
X24074Y12200D02*
X27166D01*
X22500Y10626D02*
X24074Y12200D01*
X24391Y11386D02*
X26114D01*
X24216Y7016D02*
Y11210D01*
X24391Y11386D01*
X23500Y6300D02*
X24216Y7016D01*
X26114Y11386D02*
X26853Y10648D01*
Y10400D02*
Y10648D01*
X27166Y12200D02*
X27716Y11650D01*
X27746Y12186D02*
X29764D01*
X27331Y12600D02*
X27746Y12186D01*
X27000Y11800D02*
X27650Y11150D01*
X22052Y14900D02*
Y15347D01*
X20247Y17153D02*
X22052Y15347D01*
X20247Y17153D02*
Y17400D01*
X22052Y12500D02*
Y14900D01*
X18700Y15700D02*
X19700D01*
X20147Y15252D01*
Y14900D02*
Y15252D01*
X24948Y1600D02*
Y3800D01*
Y6000D02*
Y8200D01*
X27650Y11150D02*
X29800D01*
X27716Y11650D02*
X29800D01*
X22500Y9200D02*
X23200Y8500D01*
X29764Y12186D02*
X29800Y12150D01*
X22100Y8300D02*
X23200Y7200D01*
X26853Y10400D02*
X27603Y9650D01*
X29800D01*
X26853Y6000D02*
Y8200D01*
X27550Y9150D02*
X29800D01*
X26853Y8453D02*
X27550Y9150D01*
X26853Y8200D02*
Y8453D01*
Y3800D02*
X27584Y4532D01*
Y7984D01*
X28250Y8650D01*
X29800D01*
X26853Y1600D02*
X27984Y2732D01*
Y7819D01*
X28316Y8150D01*
X29800D01*
X24948Y8200D02*
Y10400D01*
X28350Y10650D02*
X29800D01*
X28350Y10150D02*
X29800D01*
X28100Y10400D02*
X28350Y10650D01*
X24948Y3800D02*
Y5500D01*
Y6000D01*
X43800Y2852D02*
Y5548D01*
X41500Y2852D02*
Y5548D01*
X21100Y1600D02*
X22086Y614D01*
X27614D01*
X32150Y5150D01*
Y6800D01*
X31150Y15000D02*
Y16700D01*
X30650Y17200D02*
X31150Y16700D01*
X29050Y17200D02*
X30650D01*
X30800Y17600D02*
X30816D01*
X31650Y15000D02*
Y16766D01*
X30816Y17600D02*
X31650Y16766D01*
X29900Y18500D02*
X30800Y17600D01*
X26450Y18500D02*
X29900D01*
X41500Y947D02*
X43800D01*
X22153Y19700D02*
X25050D01*
X25150Y19800D02*
X26450Y18500D01*
X22153Y17400D02*
X22753Y18000D01*
X28000D01*
X28800Y17200D01*
X29050D01*
X34150Y13350D02*
Y15000D01*
Y13350D02*
X34400Y13100D01*
X33650Y13150D02*
Y15000D01*
X33200Y12700D02*
X33650Y13150D01*
X34150Y5550D02*
Y6800D01*
X32150Y15000D02*
Y16650D01*
X32400Y16900D01*
X34650Y15000D02*
Y16250D01*
X34000Y16900D02*
X34650Y16250D01*
X33700Y16900D02*
X34000D01*
X20247Y17400D02*
Y18550D01*
Y19700D01*
X32014Y12386D02*
Y12614D01*
X33150Y13750D01*
Y15000D01*
X29800Y13650D02*
X32450D01*
X32650Y13850D01*
Y15000D01*
X32700Y15050D01*
Y16086D01*
X33200Y16586D01*
Y17090D01*
X33710Y17600D01*
X35150Y15000D02*
X35650D01*
X36150D01*
X35900Y16900D02*
X36610D01*
X37600Y16900D02*
X39400Y15100D01*
Y12900D02*
Y15100D01*
X39150Y12650D02*
X39400Y12900D01*
X38000Y12650D02*
X39150D01*
X33710Y17600D02*
X35150D01*
Y15000D02*
Y17600D01*
X42700D01*
X43300Y17000D01*
X39200Y16900D02*
X39800Y16300D01*
X38000Y11650D02*
X39150D01*
X39800Y12300D01*
Y16300D01*
X34600Y8800D02*
X34650Y8750D01*
Y6800D02*
Y8750D01*
X36950Y8150D02*
X38000D01*
X37016Y8650D02*
X38000D01*
X29800Y9150D02*
X30950D01*
X38000Y8650D02*
Y9150D01*
X37950Y11200D02*
X38000Y11150D01*
X36600Y14950D02*
X36650Y15000D01*
X33996Y11686D02*
X35960Y13650D01*
X31714Y11686D02*
X33996D01*
X31300Y12100D02*
X31714Y11686D01*
X31300Y12100D02*
Y12200D01*
X30850Y12650D02*
X31300Y12200D01*
X29800Y12650D02*
X30850D01*
X29800Y10150D02*
X29850Y10100D01*
X30950Y9150D02*
X31500Y9700D01*
X38000Y10650D02*
X39050D01*
X40700Y12300D01*
Y17000D01*
X31150Y6800D02*
X31650D01*
X34150Y5550D02*
X34400Y5300D01*
X39000D01*
X41153Y7452D01*
X41500D01*
X42350Y8150D02*
X42600Y7900D01*
Y6900D02*
Y7900D01*
X42200Y6500D02*
X42600Y6900D01*
X40766Y6500D02*
X42200D01*
X40400Y6134D02*
X40766Y6500D01*
X41252Y947D02*
X41500D01*
X40400Y1800D02*
X41252Y947D01*
X40400Y1800D02*
Y3500D01*
Y6134D01*
X38100Y3500D02*
X40400D01*
X36336Y13650D02*
X36600Y13914D01*
X35960Y13650D02*
X36336D01*
X36600Y13914D02*
Y14950D01*
X38000Y9650D02*
X41603D01*
X43800Y7452D01*
X38000Y8650D02*
X41213D01*
X38000Y10150D02*
X40150D01*
X40400Y10400D01*
X29800Y13150D02*
Y13650D01*
X29800Y6800D02*
X31150D01*
X35566Y10100D02*
X37016Y8650D01*
X29850Y10100D02*
X35566D01*
X18700Y3253D02*
X20948Y5500D01*
X23200D01*
X18452Y1347D02*
X18700D01*
X17714Y2086D02*
X18452Y1347D01*
X17714Y2086D02*
Y4214D01*
X18200Y4700D01*
X18810Y6300D02*
X23500D01*
X17314Y4804D02*
X18810Y6300D01*
X17314Y4314D02*
Y4804D01*
X16100Y3100D02*
X17314Y4314D01*
X41213Y8650D02*
X41413Y8850D01*
X38000Y8150D02*
X42350D01*
X23200Y5500D02*
X24948D01*
D18*
X14700Y8250D02*
D03*
Y12750D02*
D03*
D19*
Y4800D02*
D03*
Y16200D02*
D03*
D20*
X32000Y8800D02*
D03*
X37700Y15200D02*
D03*
X17700Y18514D02*
D03*
X20500Y9200D02*
D03*
X16100Y3100D02*
D03*
X18700Y15700D02*
D03*
X20500Y10800D02*
D03*
X23200Y9800D02*
D03*
Y8500D02*
D03*
Y7200D02*
D03*
X28100Y10400D02*
D03*
X23200Y5500D02*
D03*
X32014Y12386D02*
D03*
X21100Y1600D02*
D03*
X33200Y12700D02*
D03*
X34400Y13100D02*
D03*
X33300Y8800D02*
D03*
X32400Y16900D02*
D03*
X34000D02*
D03*
X35900Y16900D02*
D03*
X37600Y16900D02*
D03*
X40700D02*
D03*
X43300Y17000D02*
D03*
X39200Y16900D02*
D03*
X34600Y8800D02*
D03*
X36100Y12000D02*
D03*
Y10700D02*
D03*
X38100Y3500D02*
D03*
X40400Y10400D02*
D03*
X29800Y6800D02*
D03*
X18200Y4700D02*
D03*
X41413Y8850D02*
D03*
D21*
X29800Y13650D02*
D03*
Y13150D02*
D03*
Y12650D02*
D03*
Y12150D02*
D03*
Y11650D02*
D03*
Y11150D02*
D03*
Y10650D02*
D03*
Y10150D02*
D03*
Y9650D02*
D03*
Y9150D02*
D03*
Y8650D02*
D03*
Y8150D02*
D03*
X38000D02*
D03*
Y8650D02*
D03*
Y9150D02*
D03*
Y9650D02*
D03*
Y10150D02*
D03*
Y10650D02*
D03*
Y11150D02*
D03*
Y11650D02*
D03*
Y12150D02*
D03*
Y12650D02*
D03*
Y13150D02*
D03*
Y13650D02*
D03*
D22*
X31150Y6800D02*
D03*
X31650D02*
D03*
X32150D02*
D03*
X32650D02*
D03*
X33150D02*
D03*
X33650D02*
D03*
X34150D02*
D03*
X34650D02*
D03*
X35150D02*
D03*
X35650D02*
D03*
X36150D02*
D03*
X36650D02*
D03*
Y15000D02*
D03*
X36150D02*
D03*
X35650D02*
D03*
X35150D02*
D03*
X34650D02*
D03*
X34150D02*
D03*
X33650D02*
D03*
X33150D02*
D03*
X32650D02*
D03*
X32150D02*
D03*
X31650D02*
D03*
X31150D02*
D03*
D23*
X25150Y19800D02*
D03*
X29050D02*
D03*
Y17200D02*
D03*
X25150D02*
D03*
M02*
