%FSLAX43Y43*%
%MOMM*%
G71*
G01*
G75*
G04 Layer_Color=65535*
%ADD10R,2.700X1.000*%
%ADD11R,0.762X1.372*%
%ADD12R,0.650X1.100*%
%ADD13R,0.864X1.372*%
%ADD14R,1.372X0.762*%
%ADD15R,2.032X2.032*%
%ADD16R,1.372X0.864*%
%ADD17C,0.200*%
%ADD18C,1.200*%
%ADD19C,3.000*%
%ADD20C,0.800*%
%ADD21O,2.100X0.300*%
%ADD22O,0.300X2.100*%
%ADD23R,1.300X1.000*%
%ADD24C,0.250*%
%ADD25C,0.508*%
%ADD26C,0.152*%
D17*
X-3200Y4500D02*
X12330D01*
X-3200Y16500D02*
X12330D01*
X-3200Y4500D02*
Y16500D01*
X15700Y6025D02*
Y7670D01*
Y8820D02*
Y12180D01*
Y13330D02*
Y14975D01*
X27200Y7250D02*
Y7750D01*
X24100Y7250D02*
Y7750D01*
X27200D01*
X24100Y7250D02*
X27200D01*
X29000Y1620D02*
X29254D01*
X29000Y19400D02*
X29254D01*
X44494Y1620D02*
X45002D01*
X44494Y19400D02*
X45002D01*
Y1620D02*
Y19400D01*
X29000Y1620D02*
Y19400D01*
X41446Y14320D02*
X45002D01*
X41446Y8986D02*
Y14320D01*
Y8986D02*
X45002D01*
X25000Y16500D02*
X24900Y16600D01*
X24700D01*
X24600Y16500D01*
Y16100D01*
X24700Y16000D01*
X24900D01*
X25000Y16100D01*
X25200Y16000D02*
X25400D01*
X25300D01*
Y16600D01*
X25200Y16500D01*
X20300D02*
X20200Y16600D01*
X20000D01*
X19900Y16500D01*
Y16100D01*
X20000Y16000D01*
X20200D01*
X20300Y16100D01*
X20900Y16000D02*
X20500D01*
X20900Y16400D01*
Y16500D01*
X20800Y16600D01*
X20600D01*
X20500Y16500D01*
X17800Y19600D02*
X17900Y19700D01*
Y19900D01*
X17800Y20000D01*
X17400D01*
X17300Y19900D01*
Y19700D01*
X17400Y19600D01*
X17800Y19400D02*
X17900Y19300D01*
Y19100D01*
X17800Y19000D01*
X17700D01*
X17600Y19100D01*
Y19200D01*
Y19100D01*
X17500Y19000D01*
X17400D01*
X17300Y19100D01*
Y19300D01*
X17400Y19400D01*
X23300Y3800D02*
X23200Y3700D01*
Y3500D01*
X23300Y3400D01*
X23700D01*
X23800Y3500D01*
Y3700D01*
X23700Y3800D01*
X23800Y4300D02*
X23200D01*
X23500Y4000D01*
Y4400D01*
X27600Y1200D02*
X27500Y1100D01*
Y900D01*
X27600Y800D01*
X28000D01*
X28100Y900D01*
Y1100D01*
X28000Y1200D01*
X28100Y1400D02*
Y1600D01*
Y1500D01*
X27500D01*
X27600Y1400D01*
X28100Y2300D02*
Y1900D01*
X27700Y2300D01*
X27600D01*
X27500Y2200D01*
Y2000D01*
X27600Y1900D01*
X14400Y3600D02*
X14200D01*
X14300D01*
Y3100D01*
X14200Y3000D01*
X14100D01*
X14000Y3100D01*
X14600Y3000D02*
X14800D01*
X14700D01*
Y3600D01*
X14600Y3500D01*
X26900Y16600D02*
Y16000D01*
X27300D01*
X27500D02*
X27700D01*
X27600D01*
Y16600D01*
X27500Y16500D01*
X22200Y16600D02*
Y16000D01*
X22600D01*
X23200D02*
X22800D01*
X23200Y16400D01*
Y16500D01*
X23100Y16600D01*
X22900D01*
X22800Y16500D01*
X17400Y4800D02*
Y4200D01*
X17800D01*
X18000Y4700D02*
X18100Y4800D01*
X18300D01*
X18400Y4700D01*
Y4600D01*
X18300Y4500D01*
X18200D01*
X18300D01*
X18400Y4400D01*
Y4300D01*
X18300Y4200D01*
X18100D01*
X18000Y4300D01*
X44000Y14000D02*
X44600D01*
X44400Y13800D01*
X44600Y13600D01*
X44000D01*
Y13400D02*
Y13200D01*
Y13300D01*
X44600D01*
X44500Y13400D01*
X23600Y1200D02*
X23000D01*
Y1500D01*
X23100Y1600D01*
X23300D01*
X23400Y1500D01*
Y1200D01*
Y1400D02*
X23600Y1600D01*
Y1800D02*
Y2000D01*
Y1900D01*
X23000D01*
X23100Y1800D01*
X13300Y800D02*
X12700D01*
Y1100D01*
X12800Y1200D01*
X13000D01*
X13100Y1100D01*
Y800D01*
Y1000D02*
X13300Y1200D01*
Y1800D02*
Y1400D01*
X12900Y1800D01*
X12800D01*
X12700Y1700D01*
Y1500D01*
X12800Y1400D01*
X20100Y10500D02*
Y11100D01*
X20400D01*
X20500Y11000D01*
Y10800D01*
X20400Y10700D01*
X20100D01*
X20300D02*
X20500Y10500D01*
X21000D02*
Y11100D01*
X20700Y10800D01*
X21100D01*
X23800Y14000D02*
X23200D01*
Y14300D01*
X23300Y14400D01*
X23500D01*
X23600Y14300D01*
Y14000D01*
Y14200D02*
X23800Y14400D01*
X23200Y15000D02*
X23300Y14800D01*
X23500Y14600D01*
X23700D01*
X23800Y14700D01*
Y14900D01*
X23700Y15000D01*
X23600D01*
X23500Y14900D01*
Y14600D01*
X20700Y8800D02*
Y9400D01*
X21000D01*
X21100Y9300D01*
Y9100D01*
X21000Y9000D01*
X20700D01*
X20900D02*
X21100Y8800D01*
X21300Y9400D02*
X21700D01*
Y9300D01*
X21300Y8900D01*
Y8800D01*
X28100Y3500D02*
X27500D01*
Y3800D01*
X27600Y3900D01*
X27800D01*
X27900Y3800D01*
Y3500D01*
Y3700D02*
X28100Y3900D01*
X27600Y4100D02*
X27500Y4200D01*
Y4400D01*
X27600Y4500D01*
X27700D01*
X27800Y4400D01*
X27900Y4500D01*
X28000D01*
X28100Y4400D01*
Y4200D01*
X28000Y4100D01*
X27900D01*
X27800Y4200D01*
X27700Y4100D01*
X27600D01*
X27800Y4200D02*
Y4400D01*
X28100Y10500D02*
X27500D01*
Y10800D01*
X27600Y10900D01*
X27800D01*
X27900Y10800D01*
Y10500D01*
Y10700D02*
X28100Y10900D01*
X28000Y11100D02*
X28100Y11200D01*
Y11400D01*
X28000Y11500D01*
X27600D01*
X27500Y11400D01*
Y11200D01*
X27600Y11100D01*
X27700D01*
X27800Y11200D01*
Y11500D01*
X27700Y7000D02*
X28200D01*
X28300Y7100D01*
Y7300D01*
X28200Y7400D01*
X27700D01*
X28300Y8000D02*
Y7600D01*
X27900Y8000D01*
X27800D01*
X27700Y7900D01*
Y7700D01*
X27800Y7600D01*
D24*
X17500Y6000D02*
G03*
X17500Y6000I-125J0D01*
G01*
X27600Y8700D02*
G03*
X27600Y8700I-125J0D01*
G01*
D25*
X43478Y21178D02*
G03*
X43478Y21178I-254J0D01*
G01*
D26*
X24240Y10111D02*
Y11889D01*
X24875D01*
X24240Y10111D02*
X24875D01*
X26525D02*
X27160D01*
X26525Y11889D02*
X27160D01*
Y10111D02*
Y11889D01*
X25636Y10619D02*
Y11381D01*
X25764Y10619D02*
Y11381D01*
X27060Y3111D02*
Y4889D01*
X26426Y3111D02*
X27060D01*
X26426Y4889D02*
X27060D01*
X24139D02*
X24774D01*
X24139Y3111D02*
X24774D01*
X24139D02*
Y4889D01*
X25663Y3619D02*
Y4381D01*
X25537Y3619D02*
Y4381D01*
X27087Y711D02*
Y2489D01*
X26452Y711D02*
X27087D01*
X26452Y2489D02*
X27087D01*
X23913D02*
X24548D01*
X23913Y711D02*
X24548D01*
X23913D02*
Y2489D01*
X20511Y5540D02*
X22289D01*
X20511D02*
Y6174D01*
X22289Y5540D02*
Y6174D01*
Y7826D02*
Y8460D01*
X20511Y7826D02*
Y8460D01*
X22289D01*
X21019Y6937D02*
X21781D01*
X21019Y7063D02*
X21781D01*
X19940Y13811D02*
Y15589D01*
X20574D01*
X19940Y13811D02*
X20574D01*
X22226D02*
X22861D01*
X22226Y15589D02*
X22861D01*
Y13811D02*
Y15589D01*
X21337Y14319D02*
Y15081D01*
X21463Y14319D02*
Y15081D01*
X19940Y11411D02*
Y13189D01*
X20574D01*
X19940Y11411D02*
X20574D01*
X22226D02*
X22861D01*
X22226Y13189D02*
X22861D01*
Y11411D02*
Y13189D01*
X21337Y11919D02*
Y12681D01*
X21463Y11919D02*
Y12681D01*
X17311Y712D02*
X19089D01*
Y1347D01*
X17311Y712D02*
Y1347D01*
Y3253D02*
Y3888D01*
X19089Y3253D02*
Y3888D01*
X17311D02*
X19089D01*
X16560Y711D02*
Y2489D01*
X15925Y711D02*
X16560D01*
X15925Y2489D02*
X16560D01*
X13639D02*
X14274D01*
X13639Y711D02*
X14274D01*
X13639D02*
Y2489D01*
X15163Y1219D02*
Y1981D01*
X15036Y1219D02*
Y1981D01*
X22888Y3111D02*
Y4889D01*
X22253Y3111D02*
X22888D01*
X22253Y4889D02*
X22888D01*
X19712D02*
X20347D01*
X19712Y3111D02*
X20347D01*
X19712D02*
Y4889D01*
X19740Y711D02*
Y2489D01*
X20375D01*
X19740Y711D02*
X20375D01*
X22025D02*
X22660D01*
X22025Y2489D02*
X22660D01*
Y711D02*
Y2489D01*
X21136Y1219D02*
Y1981D01*
X21264Y1219D02*
Y1981D01*
X13712Y18611D02*
Y20389D01*
X14347D01*
X13712Y18611D02*
X14347D01*
X16253D02*
X16888D01*
X16253Y20389D02*
X16888D01*
Y18611D02*
Y20389D01*
X24111Y16913D02*
X25889D01*
X24111D02*
Y17548D01*
X25889Y16913D02*
Y17548D01*
Y19452D02*
Y20087D01*
X24111Y19452D02*
Y20087D01*
X25889D01*
X19511Y16913D02*
X21289D01*
X19511D02*
Y17548D01*
X21289Y16913D02*
Y17548D01*
Y19452D02*
Y20087D01*
X19511Y19452D02*
Y20087D01*
X21289D01*
X21811Y16913D02*
X23589D01*
Y17548D01*
X21811Y16913D02*
Y17548D01*
Y19452D02*
Y20087D01*
X23589Y19452D02*
Y20087D01*
X21811D02*
X23589D01*
X26411Y16913D02*
X28189D01*
Y17548D01*
X26411Y16913D02*
Y17548D01*
Y19452D02*
Y20087D01*
X28189Y19452D02*
Y20087D01*
X26411D02*
X28189D01*
M02*
