M48
;Layer_Color=9474304
;FILE_FORMAT=4:3
METRIC,TZ
;TYPE=PLATED
T1F00S00C0.400
T2F00S00C2.000
;TYPE=NON_PLATED
T3F00S00C1.400
%
T01
X16100Y3100
X18200Y4700
X23200Y5500
Y7200
Y8500
Y9800
X20500Y9200
Y10800
X28100Y10400
X29800Y6800
X32000Y8800
X33300
X34600
X36100Y10700
Y12000
X34400Y13100
X33200Y12700
X32014Y12386
X40400Y10400
X41413Y8850
X38100Y3500
X21100Y1600
X18700Y15700
X17700Y18514
X32400Y16900
X34000
X35900Y16900
X37600Y16900
X39200Y16900
X40700Y16900
X43300Y17000
X37700Y15200
T02
X14700Y4800
Y16200
T03
X14700Y8250
Y12750
M30
