%FSLAX43Y43*%
%MOMM*%
G71*
G01*
G75*
G04 Layer_Color=16711935*
%ADD10R,2.700X1.000*%
%ADD11R,0.762X1.372*%
%ADD12R,0.650X1.100*%
%ADD13R,0.864X1.372*%
%ADD14R,1.372X0.762*%
%ADD15R,2.032X2.032*%
%ADD16R,1.372X0.864*%
%ADD17C,0.200*%
%ADD18C,1.200*%
%ADD19C,3.000*%
%ADD20C,0.800*%
%ADD21O,2.100X0.300*%
%ADD22O,0.300X2.100*%
%ADD23R,1.300X1.000*%
%ADD24C,0.250*%
%ADD25C,0.508*%
%ADD26C,0.152*%
%ADD27R,2.903X1.203*%
%ADD28R,0.965X1.575*%
%ADD29R,0.853X1.303*%
%ADD30R,1.067X1.575*%
%ADD31R,1.575X0.965*%
%ADD32R,2.235X2.235*%
%ADD33R,1.575X1.067*%
%ADD34C,1.403*%
%ADD35C,3.203*%
%ADD36O,2.303X0.503*%
%ADD37O,0.503X2.303*%
%ADD38R,1.503X1.203*%
D28*
X22052Y14900D02*
D03*
X20147D02*
D03*
X22052Y12500D02*
D03*
X20147D02*
D03*
D30*
X26853Y3800D02*
D03*
X24948D02*
D03*
X26853Y1600D02*
D03*
X24948D02*
D03*
X26853Y6000D02*
D03*
X24948D02*
D03*
X26853Y8200D02*
D03*
X24948D02*
D03*
X26853Y10400D02*
D03*
X24948D02*
D03*
X22153Y17400D02*
D03*
X20247D02*
D03*
X22153Y19700D02*
D03*
X20247D02*
D03*
D31*
X43800Y7452D02*
D03*
Y5548D02*
D03*
X41500Y7452D02*
D03*
Y5548D02*
D03*
D33*
X43800Y2852D02*
D03*
Y947D02*
D03*
X41500Y2852D02*
D03*
Y947D02*
D03*
X18700Y3253D02*
D03*
Y1347D02*
D03*
D34*
X14700Y8250D02*
D03*
Y12750D02*
D03*
D35*
Y4800D02*
D03*
Y16200D02*
D03*
D36*
X29800Y13650D02*
D03*
Y13150D02*
D03*
Y12650D02*
D03*
Y12150D02*
D03*
Y11650D02*
D03*
Y11150D02*
D03*
Y10650D02*
D03*
Y10150D02*
D03*
Y9650D02*
D03*
Y9150D02*
D03*
Y8650D02*
D03*
Y8150D02*
D03*
X38000D02*
D03*
Y8650D02*
D03*
Y9150D02*
D03*
Y9650D02*
D03*
Y10150D02*
D03*
Y10650D02*
D03*
Y11150D02*
D03*
Y11650D02*
D03*
Y12150D02*
D03*
Y12650D02*
D03*
Y13150D02*
D03*
Y13650D02*
D03*
D37*
X31150Y6800D02*
D03*
X31650D02*
D03*
X32150D02*
D03*
X32650D02*
D03*
X33150D02*
D03*
X33650D02*
D03*
X34150D02*
D03*
X34650D02*
D03*
X35150D02*
D03*
X35650D02*
D03*
X36150D02*
D03*
X36650D02*
D03*
Y15000D02*
D03*
X36150D02*
D03*
X35650D02*
D03*
X35150D02*
D03*
X34650D02*
D03*
X34150D02*
D03*
X33650D02*
D03*
X33150D02*
D03*
X32650D02*
D03*
X32150D02*
D03*
X31650D02*
D03*
X31150D02*
D03*
D38*
X25150Y19800D02*
D03*
X29050D02*
D03*
Y17200D02*
D03*
X25150D02*
D03*
M02*
