%FSLAX43Y43*%
%MOMM*%
G71*
G01*
G75*
G04 Layer_Physical_Order=1*
G04 Layer_Color=255*
%ADD10R,2.700X1.000*%
%ADD11R,0.762X1.372*%
%ADD12R,0.650X1.100*%
%ADD13R,0.864X1.372*%
%ADD14R,1.372X0.762*%
%ADD15R,2.032X2.032*%
%ADD16R,1.372X0.864*%
%ADD17C,0.200*%
%ADD18C,1.200*%
%ADD19C,3.000*%
%ADD20C,0.800*%
D10*
X17300Y7000D02*
D03*
Y9500D02*
D03*
Y11500D02*
D03*
Y14000D02*
D03*
D11*
X24747Y11000D02*
D03*
X26653D02*
D03*
X26552Y4000D02*
D03*
X24647D02*
D03*
X20448Y14700D02*
D03*
X22353D02*
D03*
X20448Y12300D02*
D03*
X22353D02*
D03*
X16052Y1600D02*
D03*
X14148D02*
D03*
X20247D02*
D03*
X22153D02*
D03*
D12*
X26600Y8700D02*
D03*
X25650D02*
D03*
X24700D02*
D03*
Y6300D02*
D03*
X25650D02*
D03*
X26600D02*
D03*
D13*
X26452Y1600D02*
D03*
X24548D02*
D03*
X22253Y4000D02*
D03*
X20347D02*
D03*
X14347Y19500D02*
D03*
X16253D02*
D03*
D14*
X21400Y6048D02*
D03*
Y7952D02*
D03*
D15*
X43224Y1620D02*
D03*
X40684D02*
D03*
X38144D02*
D03*
X35604D02*
D03*
X33064D02*
D03*
X30524D02*
D03*
X43224Y19400D02*
D03*
X40684D02*
D03*
X38144D02*
D03*
X35604D02*
D03*
X33064D02*
D03*
X30524D02*
D03*
D16*
X18200Y1347D02*
D03*
Y3253D02*
D03*
X25000Y17548D02*
D03*
Y19452D02*
D03*
X20400Y17548D02*
D03*
Y19452D02*
D03*
X22700Y17548D02*
D03*
Y19452D02*
D03*
X27300Y17548D02*
D03*
Y19452D02*
D03*
D17*
X24548Y3648D02*
X26600Y5700D01*
X32000Y8800D02*
Y9566D01*
X33300Y6906D02*
Y8800D01*
X27009Y614D02*
X33300Y6906D01*
X32000Y9566D02*
X37634Y15200D01*
X37700D01*
X36000Y13000D02*
X36290D01*
X34600Y11600D02*
X36000Y13000D01*
X34600Y8800D02*
Y11600D01*
X35300Y11200D02*
X36100Y12000D01*
X35300Y6396D02*
Y11200D01*
X35700Y10300D02*
X36100Y10700D01*
X36290Y13000D02*
X36500D01*
X36290Y13000D02*
X36290Y13000D01*
X17300Y9500D02*
X19234D01*
X20500Y10766D01*
Y10800D01*
X21300Y16200D02*
X35610D01*
X20206D02*
X21300D01*
Y10400D02*
Y16200D01*
X20900Y10000D02*
X21300Y10400D01*
X20300Y10000D02*
X20900D01*
X19800Y9500D02*
X20300Y10000D01*
X19800Y6100D02*
Y9500D01*
Y6100D02*
X21900Y4000D01*
X22253D01*
X20500Y10800D02*
Y12248D01*
X20400Y6800D02*
Y9100D01*
X21153Y6048D02*
X21400D01*
X38400Y14900D02*
Y17100D01*
X37900Y17600D02*
X38400Y17100D01*
X37404Y17600D02*
X37900D01*
X35604Y19400D02*
X37404Y17600D01*
X36500Y13000D02*
X38400Y14900D01*
X36700Y16200D02*
X37700Y15200D01*
X35610Y16200D02*
X36700D01*
X35610Y16200D02*
X35610Y16200D01*
X32100Y16600D02*
X32400Y16900D01*
X23700Y16600D02*
X32100D01*
X22700Y17600D02*
X23700Y16600D01*
X19414Y16991D02*
X20206Y16200D01*
X19414Y16991D02*
Y18104D01*
X19631Y18321D01*
X20400Y18721D02*
Y19452D01*
Y18721D02*
X24621D01*
X17906D02*
X20400D01*
X17700Y18514D02*
X17906Y18721D01*
X14362Y18514D02*
X17700D01*
X19631Y18321D02*
X26168D01*
X27300Y19452D01*
X24621Y18721D02*
X25000Y19100D01*
X20400Y6800D02*
X21153Y6048D01*
X22000Y10309D02*
X24077Y12386D01*
X22000Y7952D02*
Y10309D01*
X14347Y16552D02*
Y19500D01*
X13400Y14900D02*
X14700Y16200D01*
X13400Y6100D02*
Y14900D01*
Y6100D02*
X14700Y4800D01*
X15100Y16200D02*
X17300Y14000D01*
X14700Y16200D02*
X15100D01*
X16253Y19500D02*
Y19721D01*
X16716Y20184D01*
X22700D01*
X18700Y15700D02*
X19200Y15200D01*
Y14700D02*
Y15200D01*
Y12500D02*
Y14700D01*
X20448D01*
X17300Y11500D02*
X18200D01*
X19200Y12500D01*
X20448Y14700D02*
Y15153D01*
X22353Y12300D02*
X22838Y12786D01*
X22353Y14347D02*
Y14700D01*
Y14347D02*
X23514Y13186D01*
X24077Y12386D02*
X32014D01*
X22500Y10244D02*
X24242Y11986D01*
X22500Y6200D02*
Y10244D01*
X24242Y11986D02*
X25650D01*
X17600Y7000D02*
X18200Y6400D01*
X13948Y1181D02*
X14514Y614D01*
X16105Y1347D02*
X18200D01*
X26653Y8752D02*
Y11000D01*
X27225Y4673D02*
Y8180D01*
X26552Y4000D02*
X27225Y4673D01*
X26653Y8752D02*
X27225Y8180D01*
X26600Y5700D02*
Y6300D01*
X24548Y1600D02*
Y3648D01*
X24747Y9700D02*
Y11000D01*
X23600Y9700D02*
X24747D01*
Y8748D02*
Y9700D01*
X25650Y5750D02*
Y6300D01*
X25200Y5300D02*
X25650Y5750D01*
X23200Y8500D02*
X24700Y7000D01*
Y6300D02*
Y7000D01*
X27158Y11986D02*
X27625Y11519D01*
X26452Y1852D02*
X27625Y3025D01*
X26452Y1600D02*
Y1852D01*
X28000Y10500D02*
X28100Y10400D01*
X27625D02*
X28100D01*
X25650Y8700D02*
Y11986D01*
X27158D01*
X23200Y6501D02*
X24401Y5300D01*
X23200Y6501D02*
Y7200D01*
X24401Y5300D02*
X25200D01*
X22500Y6200D02*
X23200Y5500D01*
X20347Y1700D02*
Y4000D01*
X22253Y1700D02*
Y4000D01*
X20247Y1600D02*
X21100D01*
X32690Y12700D02*
X33200D01*
X32304Y13086D02*
X32690Y12700D01*
X31724Y13086D02*
X32304D01*
X31424Y12786D02*
X31724Y13086D01*
X22838Y12786D02*
X31424D01*
X31259Y13186D02*
X31559Y13486D01*
X34014D02*
X34400Y13100D01*
X31559Y13486D02*
X34014D01*
X23514Y13186D02*
X31259D01*
X21400Y6048D02*
X22347D01*
X22500Y6200D01*
X14514Y614D02*
X27009D01*
X22253Y4000D02*
X24647D01*
X25000Y17548D02*
X27300D01*
X20400Y17600D02*
X22700D01*
X27300Y17548D02*
X27353Y17600D01*
X33100D01*
X33700Y17000D01*
X25000Y19100D02*
Y19452D01*
X26568Y20184D02*
X27300Y19452D01*
X22700Y19505D02*
Y20184D01*
X26568D01*
X30524Y19400D02*
X31924Y18000D01*
X33266D01*
X33666Y17600D01*
X34300D01*
X35000Y16900D01*
X35900D02*
X35900Y16900D01*
X35000Y16900D02*
X35900D01*
X33064Y19400D02*
X33066D01*
X34866Y17600D01*
X36600D01*
X37300Y16900D01*
X37600D01*
X40684Y17016D02*
Y19400D01*
Y17016D02*
X40700Y17000D01*
Y16900D02*
Y17000D01*
X43300D02*
Y19324D01*
X43224Y19400D02*
X43300Y19324D01*
X38144Y17956D02*
Y19400D01*
Y17956D02*
X39200Y16900D01*
Y16900D02*
Y16900D01*
X30524Y1620D02*
X35300Y6396D01*
X33064Y1620D02*
Y3594D01*
X35700Y6230D01*
Y10300D01*
X35604Y1620D02*
Y5569D01*
X38144Y1620D02*
Y3456D01*
X38100Y3500D02*
X38144Y3456D01*
X35604Y5569D02*
X40418Y10382D01*
X27625Y6800D02*
X29800D01*
X18200Y3253D02*
Y4700D01*
Y6400D01*
X16052Y1600D02*
Y3053D01*
X41413Y8850D02*
X41463Y8800D01*
X41300Y15000D02*
X43300Y17000D01*
X41300Y8963D02*
Y15000D01*
Y8963D02*
X41413Y8850D01*
Y1707D02*
Y8850D01*
X40684Y1620D02*
X43224D01*
X27625Y3025D02*
Y11519D01*
D18*
X14700Y8250D02*
D03*
Y12750D02*
D03*
D19*
Y4800D02*
D03*
Y16200D02*
D03*
D20*
X32000Y8800D02*
D03*
X37700Y15200D02*
D03*
X17700Y18514D02*
D03*
X20500Y9200D02*
D03*
X16100Y3100D02*
D03*
X18700Y15700D02*
D03*
X20500Y10800D02*
D03*
X23200Y9800D02*
D03*
Y8500D02*
D03*
Y7200D02*
D03*
X28100Y10400D02*
D03*
X23200Y5500D02*
D03*
X32014Y12386D02*
D03*
X21100Y1600D02*
D03*
X33200Y12700D02*
D03*
X34400Y13100D02*
D03*
X33300Y8800D02*
D03*
X32400Y16900D02*
D03*
X34000D02*
D03*
X35900Y16900D02*
D03*
X37600Y16900D02*
D03*
X40700D02*
D03*
X43300Y17000D02*
D03*
X39200Y16900D02*
D03*
X34600Y8800D02*
D03*
X36100Y12000D02*
D03*
Y10700D02*
D03*
X38100Y3500D02*
D03*
X40400Y10400D02*
D03*
X29800Y6800D02*
D03*
X18200Y4700D02*
D03*
X41413Y8850D02*
D03*
M02*
